<?xml version="1.0" encoding="utf-8"?>
<!-- Generator: Adobe Illustrator 23.0.3, SVG Export Plug-In . SVG Version: 6.00 Build 0)  -->
<svg version="1.1" id="Layer_1" xmlns="http://www.w3.org/2000/svg" xmlns:xlink="http://www.w3.org/1999/xlink" x="0px" y="0px"
	 viewBox="0 0 513 457.2" style="enable-background:new 0 0 513 457.2;" xml:space="preserve">
<style type="text/css">
	.st0{fill:none;}
	.st1{fill:#3D3D3D;}
	.st2{fill:#19CEA2;}
	.st3{fill:#262626;}
	.st4{fill:#1DF231;}
	.st5{fill:#CC684E;}
	.st6{fill:#B95FFF;}
	.st7{fill:#F2EE61;}
</style>
<rect y="-6.9" class="st0" width="513" height="457.2"/>
<g>
	<line class="st0" x1="353.5" y1="416.7" x2="353.5" y2="416.7"/>
</g>
<polygon vector-effect="non-scaling-stroke" class="st1" points="375,430.8 138,430.8 19.5,221.7 138,12.6 375,12.6 493.5,221.7 "/>
<path class="st2" d="M378.8,437.3H134.2L12,221.7L134.2,6.1h244.6L501,221.7L378.8,437.3z M141.8,424.3h229.4L486,221.7L371.2,19.1
	H141.8L27,221.7L141.8,424.3z"/>
<rect x="87.7" y="38.8" vector-effect="non-scaling-stroke" class="st3" width="330.2" height="366.9"/>
<path class="st2" d="M424.4,412.2H81.2V32.3h343.2V412.2z M94.2,399.2h317.2V45.3H94.2V399.2z"/>
<g>
	<path class="st4" d="M106.8,83.5V76l40.1-17.2v7.5l-32.1,13.5l32.1,13.4v7.5L106.8,83.5z"/>
</g>
<g>
	<path class="st4" d="M115.9,391.2h-6.7l19.5-58.7h7.1L115.9,391.2z M184.6,362.9v7.6l-40.1,17.2v-7.5l32.1-13.4l-32.1-13.5v-7.5
		L184.6,362.9z"/>
</g>
<g>
	<path class="st5" d="M134.2,304.7V268l0,0c0-1,0.2-2,0.6-2.8l0,0l0,0c0.4-0.9,0.9-1.7,1.6-2.3l0,0l0,0c0.7-0.7,1.5-1.2,2.3-1.6l0,0
		l0,0c0.9-0.4,1.8-0.6,2.8-0.6l0,0h27.9l0,0c1,0,2,0.2,2.8,0.6l0,0l0,0c0.9,0.4,1.7,0.9,2.3,1.6l0,0l0,0c0.7,0.7,1.2,1.4,1.6,2.3
		l0,0l0,0c0.4,0.9,0.6,1.8,0.6,2.8l0,0v6.6h-7.3V268h-27.9v36.7h27.9v-6.6h7.3v6.6l0,0c0,1-0.2,2-0.6,2.8l0,0l0,0
		c-0.4,0.9-0.9,1.7-1.6,2.3l0,0l0,0c-0.7,0.7-1.5,1.2-2.3,1.6l0,0l0,0c-0.9,0.4-1.8,0.6-2.8,0.6l0,0h-27.9l0,0c-1,0-2-0.2-2.8-0.6
		l0,0l0,0c-0.9-0.4-1.7-0.9-2.3-1.6l0,0l0,0c-0.7-0.7-1.2-1.5-1.6-2.3l0,0l0,0C134.4,306.6,134.2,305.7,134.2,304.7L134.2,304.7z"/>
</g>
<g>
	<path class="st5" d="M219.4,280.9v24l0,0c0,1-0.2,1.9-0.6,2.8l0,0l0,0c-0.4,0.9-0.9,1.6-1.5,2.2l0,0l0,0c-0.6,0.6-1.4,1.1-2.2,1.5
		l0,0l0,0c-0.8,0.4-1.8,0.6-2.7,0.6l0,0h-19l0,0c-1,0-1.9-0.2-2.7-0.6l0,0l0,0c-0.9-0.4-1.6-0.9-2.2-1.5l0,0l0,0
		c-0.6-0.6-1.1-1.4-1.5-2.2l0,0l0,0c-0.4-0.9-0.6-1.8-0.6-2.8l0,0v-24l0,0c0-1,0.2-1.9,0.6-2.8l0,0l0,0c0.4-0.9,0.9-1.6,1.5-2.2l0,0
		l0,0c0.6-0.6,1.4-1.1,2.2-1.5l0,0l0,0c0.9-0.4,1.8-0.6,2.7-0.6l0,0h19l0,0c1,0,1.9,0.2,2.7,0.6l0,0l0,0c0.8,0.4,1.6,0.9,2.2,1.5
		l0,0l0,0c0.6,0.6,1.1,1.4,1.5,2.2l0,0l0,0C219.2,279,219.4,279.9,219.4,280.9L219.4,280.9z"/>
</g>
<g>
	<path class="st3" d="M212.4,280.9h-19v24h19V280.9z"/>
</g>
<g>
	<path class="st3" d="M256.4,280.9h-19v24h19V280.9z"/>
</g>
<g>
	<path class="st5" d="M308.9,280.9v15.6h-25.3v8.4h25.3v7.1h-25.3l0,0c-1,0-1.9-0.2-2.7-0.6l0,0l0,0c-0.9-0.4-1.6-0.9-2.2-1.5l0,0
		l0,0c-0.6-0.6-1.1-1.4-1.5-2.2l0,0l0,0c-0.4-0.9-0.6-1.8-0.6-2.8l0,0v-24l0,0c0-1,0.2-1.9,0.6-2.8l0,0l0,0c0.4-0.9,0.9-1.6,1.5-2.2
		l0,0l0,0c0.6-0.6,1.4-1.1,2.2-1.5l0,0l0,0c0.9-0.4,1.8-0.6,2.7-0.6l0,0h18.2l0,0c1,0,1.9,0.2,2.8,0.6l0,0l0,0
		c0.9,0.4,1.6,0.9,2.2,1.5l0,0l0,0c0.6,0.6,1.1,1.4,1.5,2.2l0,0l0,0C308.7,279,308.9,279.9,308.9,280.9L308.9,280.9z"/>
</g>
<g>
	<path class="st3" d="M301.8,280.9h-18.2v8.6h18.2V280.9z"/>
</g>
<g>
	<path class="st5" d="M342.2,280.9h-14.5V312h-7v-38.2h7v6.7l0,0c0-0.9,0.3-1.8,0.6-2.6l0,0l0,0c0.4-0.8,0.9-1.5,1.5-2.1l0,0l0,0
		c0.6-0.6,1.4-1.1,2.2-1.4l0,0l0,0c0.8-0.3,1.7-0.5,2.7-0.5l0,0h7.5l0,0c1,0,1.9,0.2,2.7,0.6l0,0l0,0c0.8,0.4,1.6,0.9,2.2,1.5l0,0
		l0,0c0.6,0.6,1.2,1.4,1.5,2.2l0,0l0,0c0.4,0.9,0.6,1.8,0.6,2.8l0,0v6.4h-7.1V280.9z"/>
</g>
<g>
	<path class="st5" d="M357.3,304.9h23.8v-8.8h-16.7l0,0c-1,0-1.9-0.2-2.8-0.6l0,0l0,0c-0.9-0.4-1.6-0.9-2.2-1.5l0,0l0,0
		c-0.6-0.6-1.1-1.4-1.5-2.2l0,0l0,0c-0.4-0.9-0.6-1.8-0.6-2.8l0,0v-8.1l0,0c0-1,0.2-1.9,0.6-2.8l0,0l0,0c0.4-0.9,0.9-1.6,1.5-2.2
		l0,0l0,0c0.6-0.6,1.4-1.1,2.2-1.5l0,0l0,0c0.9-0.4,1.8-0.6,2.8-0.6l0,0h22.3v7.1h-22.3v8.1h16.7l0,0c1,0,1.9,0.2,2.7,0.6l0,0l0,0
		c0.8,0.4,1.6,0.9,2.2,1.5l0,0l0,0c0.6,0.6,1.2,1.4,1.5,2.2l0,0l0,0c0.4,0.9,0.6,1.8,0.6,2.8l0,0v8.8l0,0c0,1-0.2,1.9-0.6,2.8l0,0
		l0,0c-0.4,0.9-0.9,1.6-1.5,2.2l0,0l0,0c-0.6,0.6-1.4,1.1-2.2,1.5l0,0l0,0c-0.8,0.4-1.8,0.6-2.7,0.6l0,0h-23.8V304.9z"/>
</g>
<g>
	<path class="st6" d="M132.8,236.4v-44h7.3v44h29.3v-44h7.3v44l0,0c0,1-0.2,2-0.6,2.8l0,0l0,0c-0.4,0.9-0.9,1.7-1.6,2.3l0,0l0,0
		c-0.7,0.7-1.5,1.2-2.3,1.6l0,0l0,0c-0.9,0.4-1.8,0.6-2.8,0.6l0,0h-29.3l0,0c-1,0-2-0.2-2.8-0.6l0,0l0,0c-0.9-0.4-1.7-0.9-2.3-1.6
		l0,0l0,0c-0.7-0.7-1.2-1.5-1.6-2.3l0,0l0,0C133,238.4,132.8,237.4,132.8,236.4L132.8,236.4z"/>
</g>
<g>
	<path class="st6" d="M187.1,212.7v-7.1h9.3v-11.8h7.1v11.8H216v7.1h-12.5v24H216v7.1h-12.5l0,0c-1,0-1.9-0.2-2.7-0.6l0,0l0,0
		c-0.9-0.4-1.6-0.9-2.3-1.5l0,0l0,0c-0.6-0.6-1.2-1.4-1.5-2.2l0,0l0,0c-0.4-0.9-0.6-1.8-0.6-2.8l0,0v-24H187.1z"/>
</g>
<g>
	<path class="st6" d="M227.7,236.7v-9.6l0,0c0-1,0.2-1.9,0.6-2.7l0,0l0,0c0.4-0.8,0.9-1.6,1.5-2.2l0,0l0,0c0.6-0.6,1.4-1.2,2.2-1.5
		l0,0l0,0c0.9-0.4,1.8-0.6,2.7-0.6l0,0h18.2v-7.4h-23v-7.1h23l0,0c1,0,1.9,0.2,2.8,0.6l0,0l0,0c0.9,0.4,1.6,0.9,2.2,1.5l0,0l0,0
		c0.6,0.6,1.1,1.4,1.5,2.2l0,0l0,0c0.4,0.9,0.6,1.8,0.6,2.8l0,0v31.1h-7.1v-6.4l0,0c-0.1,0.9-0.3,1.7-0.7,2.5l0,0l0,0
		c-0.4,0.8-0.9,1.5-1.6,2.1l0,0l0,0c-0.6,0.6-1.4,1-2.2,1.4l0,0l0,0c-0.8,0.3-1.7,0.5-2.6,0.5l0,0h-11.2l0,0c-1,0-1.9-0.2-2.7-0.6
		l0,0l0,0c-0.9-0.4-1.6-0.9-2.2-1.5l0,0l0,0c-0.6-0.6-1.1-1.4-1.5-2.2l0,0l0,0C227.9,238.6,227.7,237.7,227.7,236.7L227.7,236.7z"/>
</g>
<g>
	<path class="st3" d="M234.7,227.1v9.6h18.2v-9.6H234.7z"/>
</g>
<g>
	<path class="st6" d="M305.5,212.7v31.1h-7.1v-31.1h-19.7v31.1h-7v-52.8h7v21.4l0,0c0-0.9,0.3-1.8,0.6-2.6l0,0l0,0
		c0.4-0.8,0.9-1.5,1.5-2.1l0,0l0,0c0.6-0.6,1.4-1.1,2.2-1.4l0,0l0,0c0.8-0.3,1.7-0.5,2.7-0.5l0,0h12.6l0,0c1,0,1.9,0.2,2.8,0.6l0,0
		l0,0c0.9,0.4,1.6,0.9,2.2,1.5l0,0l0,0c0.6,0.6,1.1,1.4,1.5,2.2l0,0l0,0C305.3,210.8,305.5,211.7,305.5,212.7L305.5,212.7z"/>
</g>
<g>
	<path class="st7" d="M131.3,168.2v-8.8h7.3v8.8h20.8v-44h7.3v44l0,0c0,1-0.2,2-0.6,2.8l0,0l0,0c-0.4,0.9-0.9,1.7-1.6,2.3l0,0l0,0
		c-0.7,0.7-1.4,1.2-2.3,1.6l0,0l0,0c-0.9,0.4-1.8,0.6-2.8,0.6l0,0h-20.8l0,0c-1,0-2-0.2-2.8-0.6l0,0l0,0c-0.9-0.4-1.7-0.9-2.3-1.6
		l0,0l0,0c-0.7-0.7-1.2-1.5-1.6-2.3l0,0l0,0C131.5,170.1,131.3,169.2,131.3,168.2L131.3,168.2z"/>
</g>
<g>
	<path class="st7" d="M179.2,168.4v-31.1h7v31.1h19.7v-31.1h7.1v38.2h-7.1V169l0,0c-0.1,0.9-0.3,1.7-0.7,2.5l0,0l0,0
		c-0.4,0.8-0.9,1.5-1.6,2.1l0,0l0,0c-0.6,0.6-1.4,1-2.2,1.4l0,0l0,0c-0.8,0.3-1.7,0.5-2.6,0.5l0,0h-12.6l0,0c-1,0-1.9-0.2-2.7-0.6
		l0,0l0,0c-0.9-0.4-1.6-0.9-2.2-1.5l0,0l0,0c-0.6-0.6-1.1-1.4-1.5-2.2l0,0l0,0C179.4,170.3,179.2,169.4,179.2,168.4L179.2,168.4z"/>
</g>
<g>
	<path class="st7" d="M224,168.4h23.8v-8.8h-16.7l0,0c-1,0-1.9-0.2-2.8-0.6l0,0l0,0c-0.9-0.4-1.6-0.9-2.2-1.5l0,0l0,0
		c-0.6-0.6-1.1-1.4-1.5-2.2l0,0l0,0c-0.4-0.9-0.6-1.8-0.6-2.8l0,0v-8.1l0,0c0-1,0.2-1.9,0.6-2.8l0,0l0,0c0.4-0.9,0.9-1.6,1.5-2.2
		l0,0l0,0c0.6-0.6,1.4-1.1,2.2-1.5l0,0l0,0c0.9-0.4,1.8-0.6,2.8-0.6l0,0h22.3v7.1h-22.3v8.1h16.7l0,0c1,0,1.9,0.2,2.7,0.6l0,0l0,0
		c0.8,0.4,1.6,0.9,2.2,1.5l0,0l0,0c0.6,0.6,1.2,1.4,1.5,2.2l0,0l0,0c0.4,0.9,0.6,1.8,0.6,2.8l0,0v8.8l0,0c0,1-0.2,1.9-0.6,2.8l0,0
		l0,0c-0.4,0.9-0.9,1.6-1.5,2.2l0,0l0,0c-0.6,0.6-1.4,1.1-2.2,1.5l0,0l0,0c-0.8,0.4-1.8,0.6-2.7,0.6l0,0H224V168.4z"/>
</g>
<g>
	<path class="st7" d="M263.6,144.4v-7.1h9.3v-11.8h7.1v11.8h12.5v7.1H280v24h12.5v7.1H280l0,0c-1,0-1.9-0.2-2.7-0.6l0,0l0,0
		c-0.9-0.4-1.6-0.9-2.3-1.5l0,0l0,0c-0.6-0.6-1.2-1.4-1.5-2.2l0,0l0,0c-0.4-0.9-0.6-1.8-0.6-2.8l0,0v-24H263.6z"/>
</g>
<rect x="306.9" y="39" vector-effect="non-scaling-stroke" class="st3" width="110.1" height="73.4"/>
<path class="st2" d="M422,117.4H301.9V34H422V117.4z M311.9,107.4H412V44H311.9V107.4z"/>
<path vector-effect="non-scaling-stroke" class="st1" d="M308.3,47l0.6,65.4l107.2,2.1L308.3,47z"/>
<path class="st2" d="M416,119.5l-112.1-2.2l-0.7-79.4l115.5,72.3L416,119.5z M313.9,107.5l84.3,1.6l-84.7-53.1L313.9,107.5z"/>
<g>
	<path class="st5" d="M231.1,304.9v-24l0,0c0-1,0.2-1.9,0.6-2.8l0,0l0,0c0.4-0.9,0.9-1.6,1.5-2.2l0,0l0,0c0.6-0.6,1.4-1.1,2.2-1.5
		l0,0l0,0c0.9-0.4,1.8-0.6,2.7-0.6l0,0h19.7v-14.7h7.1V312h-7.1v-6.4l0,0c-0.1,0.9-0.3,1.7-0.7,2.5l0,0l0,0
		c-0.4,0.8-0.9,1.5-1.6,2.1l0,0l0,0c-0.6,0.6-1.4,1-2.2,1.4l0,0l0,0c-0.8,0.3-1.7,0.5-2.6,0.5l0,0h-12.6l0,0c-1,0-1.9-0.2-2.7-0.6
		l0,0l0,0c-0.9-0.4-1.6-0.9-2.2-1.5l0,0l0,0c-0.6-0.6-1.1-1.4-1.5-2.2l0,0l0,0C231.3,306.8,231.1,305.9,231.1,304.9L231.1,304.9z"/>
</g>
<g>
	<path class="st2" d="M417,108.3l3.1,2l-3.9,6.2l-3.1-2L306.9,47l-3.1-2l3.9-6.2l3.1,2L417,108.3z"/>
</g>
<g>
	<path class="st3" d="M256.4,280.9h-19v24h19V280.9z"/>
</g>
</svg>
