<svg id="f2059cf3-5beb-4c16-b86e-a491cbb2d73f" xmlns="http://www.w3.org/2000/svg" xmlns:xlink="http://www.w3.org/1999/xlink" viewBox="0 0 1096.46 805.97"><defs><style>.cls-1{fill:#7fd2d6;}.cls-2{fill:#464646;}.cls-3{fill:#008096;}.cls-31,.cls-4{opacity:0.1;}.cls-19,.cls-4,.cls-7,.cls-8{isolation:isolate;}.cls-5{fill:#ffd037;}.cls-6{fill:#a8a8a8;}.cls-7{opacity:0.2;}.cls-8{fill:#3a3768;opacity:0.3;}.cls-9{fill:#fff;}.cls-10{fill:#9d80c2;}.cls-11{fill:#dddd8c;}.cls-12{fill:#d69763;}.cls-13{fill:#8bd8a1;}.cls-14{fill:#514e7f;}.cls-15{fill:#464353;}.cls-16{fill:#a1616a;}.cls-17{fill:#ad2344;}.cls-18{fill:#fbbebe;}.cls-19,.cls-27{opacity:0.05;}.cls-20{fill:#3f3d56;}.cls-21{fill:#644a66;}.cls-22{fill:#ec92ef;}.cls-23{fill:#5e5c9e;}.cls-24{fill:#57578e;}.cls-25{fill:url(#linear-gradient);}.cls-26{fill:#2d293d;}.cls-28{fill:#ffcdd3;}.cls-29{fill:#dce6f2;}.cls-30{fill:#575988;}</style><linearGradient id="linear-gradient" x1="699.37" y1="-40.73" x2="699.37" y2="259.77" gradientTransform="matrix(1, 0, 0, -1, -51.77, 758.98)" gradientUnits="userSpaceOnUse"><stop offset="0" stop-color="gray" stop-opacity="0.25"/><stop offset="0.54" stop-color="gray" stop-opacity="0.12"/><stop offset="1" stop-color="gray" stop-opacity="0.1"/></linearGradient></defs><title>mobile-building</title><path class="cls-1" d="M641.82,111.4c-64.72-2.25-126.36-23.14-185.22-46S339.44,17.21,276.23,5.1C235.64-2.69,189.17-3.79,156.43,18c-31.5,21-41.68,57.15-47.15,90.72-4.12,25.27-6.54,51.85,4.74,75.5,7.84,16.42,21.74,30.22,31.36,46,33.47,54.72,9.81,122.2-26.45,175.63-17,25.06-36.75,49-49.88,75.66S49.85,538.74,61.34,566c11.38,27,38.51,47.24,67.9,61.5,59.69,28.94,130,37.23,198.61,41.92,151.83,10.39,304.46,5.89,456.69,1.39,56.34-1.67,112.92-3.36,168.34-12.07,30.78-4.84,62.55-12.52,84.89-31,28.37-23.53,35.4-63.38,16.39-92.88-31.88-49.49-120-61.79-142.31-114.9-12.26-29.23.33-61.8,18.16-88.91,38.24-58.17,102.33-109.19,105.7-175.68,2.32-45.66-28.49-91.39-76.13-113C909.65,19.67,840.4,22.52,803.58,60,765.63,98.53,699,113.38,641.82,111.4Z" transform="translate(0 0)"/><rect class="cls-2" x="708.33" y="248.78" width="8.86" height="73.02" rx="2.29"/><rect class="cls-2" x="413.89" y="191.58" width="4.97" height="24.04" rx="2.29"/><rect class="cls-2" x="413.71" y="235.59" width="5.6" height="41.84" rx="2.29"/><rect class="cls-2" x="413.8" y="292.07" width="5.33" height="42.2" rx="2.29"/><rect class="cls-2" x="416.71" y="112.14" width="296.4" height="602.39" rx="38.99"/><rect class="cls-2" x="536.31" y="130.12" width="41.39" height="8.4" rx="3.87"/><circle class="cls-2" cx="588.73" cy="134.33" r="4.77"/><ellipse class="cls-3" cx="238.04" cy="728.39" rx="199.97" ry="20.38"/><ellipse class="cls-3" cx="682.68" cy="796.42" rx="93.68" ry="9.55"/><ellipse class="cls-3" cx="1002.78" cy="748.3" rx="93.68" ry="9.55"/><path class="cls-3" d="M671.23,127.82h-33.9v4.09A19.38,19.38,0,0,1,618,151.29H509.77a19.38,19.38,0,0,1-19.38-19.38h0v-4.09H458.55A23.52,23.52,0,0,0,435,151.35h0V675.29a23.52,23.52,0,0,0,23.52,23.54H671.23a23.54,23.54,0,0,0,23.54-23.54V151.36A23.54,23.54,0,0,0,671.23,127.82Z" transform="translate(0 0)"/><path class="cls-3" d="M815.72,85.71s-84.2-5.08-74.27,53.92c0,0-2,10.43,7.48,15.16,0,0,.15-4.37,8.63-2.89a38.4,38.4,0,0,0,9.15.44,19,19,0,0,0,11.19-4.61h0s23.66-9.78,32.87-48.46c0,0,6.81-8.44,6.54-10.61L803.1,94.73s4.85,10.25,1,18.77c0,0-.46-18.4-3.19-18-.56.08-7.39,3.55-7.39,3.55s8.36,17.85,2,30.83c0,0,2.39-22-4.66-29.54l-10,5.84s9.76,18.44,3.15,33.49c0,0,1.69-23.08-5.25-32.07l-9.06,7.07s9.17,18.17,3.58,30.65c0,0-.74-26.86-5.55-28.89,0,0-7.93,7-9.14,9.86,0,0,6.28,13.2,2.39,20.16,0,0-2.39-17.9-4.35-18,0,0-7.9,11.86-8.72,20,0,0,.34-12.09,6.8-21.12,0,0-7.63,1.31-12.09,6.26,0,0,1.23-8.38,14-9.12,0,0,6.53-9,8.28-9.54,0,0-12.75-1.07-20.48,2.36,0,0,6.8-7.91,22.82-4.31l8.94-7.31s-16.78-2.29-23.9.24c0,0,8.2-7,26.32-1.9l9.74-5.82s-14.31-3.09-22.84-2c0,0,9-4.85,25.69.41l7-3.13s-10.49-2.06-13.56-2.39-3.23-1.17-3.23-1.17a36.36,36.36,0,0,1,19.83,2.26S816,86.64,815.72,85.71Z" transform="translate(0 0)"/><path class="cls-3" d="M729.36,59.47s-38-2.29-33.56,24.37c0,0-.89,4.71,3.38,6.85,0,0,.07-2,3.9-1.31a17.3,17.3,0,0,0,4.13.2,8.68,8.68,0,0,0,5.06-2.08h0S723,83.08,727.12,65.6c0,0,3.08-3.81,3-4.79l-6.42,2.74s2.19,4.63.46,8.48c0,0-.2-8.31-1.44-8.12-.25,0-3.33,1.61-3.33,1.61s3.77,8.06.92,13.93c0,0,1.08-9.94-2.1-13.35l-4.52,2.64s4.41,8.33,1.42,15.13c0,0,.77-10.43-2.37-14.49l-4.1,3.2s4.15,8.21,1.62,13.85c0,0-.33-12.14-2.5-13.06,0,0-3.59,3.16-4.13,4.46,0,0,2.83,6,1.07,9.11,0,0-1.08-8.09-2-8.13,0,0-3.57,5.36-3.94,9a19.44,19.44,0,0,1,3.07-9.54,10.67,10.67,0,0,0-5.46,2.83s.55-3.79,6.34-4.12c0,0,2.95-4.07,3.74-4.32,0,0-5.76-.48-9.25,1.07,0,0,3.07-3.57,10.31-2l4-3.3s-7.58-1-10.8.11c0,0,3.71-3.16,11.89-.86l4.4-2.63s-6.46-1.39-10.31-.89c0,0,4.06-2.19,11.6.18l3.15-1.41s-4.73-.93-6.12-1.08-1.46-.53-1.46-.53a16.37,16.37,0,0,1,8.89,1S729.47,59.89,729.36,59.47Z" transform="translate(0 0)"/><ellipse class="cls-3" cx="40.21" cy="678.57" rx="40.21" ry="6.8"/><path class="cls-3" d="M56.83,667.44a11.61,11.61,0,0,0,3.84-5.78c.49-2.3-.49-5-2.68-5.89-2.46-.95-5.09.76-7.08,2.48s-4.28,3.69-6.89,3.32a10.46,10.46,0,0,0,3.21-9.81,4,4,0,0,0-.9-2c-1.36-1.46-3.84-.83-5.48.32-5.2,3.66-6.65,10.72-6.67,17.08-.53-2.3-.09-4.69-.1-7s-.66-5-2.64-6.22a8,8,0,0,0-4-1c-2.34-.08-4.94.15-6.54,1.86-2,2.12-1.47,5.69.26,8s4.35,3.8,6.76,5.42a14.91,14.91,0,0,1,4.84,4.61,4.26,4.26,0,0,1,.36.82H47.77A40.67,40.67,0,0,0,56.83,667.44Z" transform="translate(0 0)"/><path class="cls-3" d="M830.57,583.52s8.65,11.32-4,28.4-23.07,31.5-18.85,42.15c0,0,19.08-31.72,34.61-32.17S847.65,602.6,830.57,583.52Z" transform="translate(0 0)"/><path class="cls-4" d="M830.57,583.52a14.37,14.37,0,0,1,1.77,3.55c15.15,17.8,23.22,34.42,8.65,34.83-13.56.39-29.84,24.65-33.73,30.77a11.46,11.46,0,0,0,.46,1.4s19.08-31.72,34.61-32.17S847.65,602.6,830.57,583.52Z" transform="translate(0 0)"/><path class="cls-5" d="M846.65,598c0,4-.45,7.21-1,7.21s-1-3.23-1-7.21.56-2.1,1.11-2.1S846.65,594,846.65,598Z" transform="translate(0 0)"/><path class="cls-5" d="M852.17,602.7c-3.5,1.9-6.54,3.06-6.81,2.57s2.36-2.42,5.86-4.33,2.11-.51,2.38,0S855.67,600.79,852.17,602.7Z" transform="translate(0 0)"/><path class="cls-3" d="M784.87,583.52s-8.65,11.32,4,28.4,23.07,31.5,18.86,42.15c0,0-19.08-31.72-34.61-32.17S767.79,602.6,784.87,583.52Z" transform="translate(0 0)"/><path class="cls-4" d="M784.87,583.52a13.87,13.87,0,0,0-1.77,3.55c-15.15,17.8-23.22,34.42-8.66,34.83,13.57.39,29.84,24.65,33.74,30.77a14.31,14.31,0,0,1-.46,1.4s-19.08-31.72-34.61-32.17S767.79,602.6,784.87,583.52Z" transform="translate(0 0)"/><path class="cls-5" d="M768.78,598c0,4,.45,7.21,1,7.21s1-3.23,1-7.21-.56-2.1-1.11-2.1S768.78,594,768.78,598Z" transform="translate(0 0)"/><path class="cls-5" d="M763.23,602.7c3.49,1.9,6.54,3.06,6.8,2.57s-2.35-2.42-5.85-4.33-2.12-.51-2.38,0S759.77,600.79,763.23,602.7Z" transform="translate(0 0)"/><path class="cls-6" d="M771.54,652.59s24.19-.75,31.48-5.94,37.21-11.39,39-3.06,36.35,41.41,9,41.63-63.46-4.26-70.73-8.69S771.54,652.59,771.54,652.59Z" transform="translate(0 0)"/><path class="cls-7" d="M851.57,682.32c-27.31.22-63.46-4.26-70.73-8.69-5.55-3.37-7.75-15.48-8.49-21.07h-.81s1.53,19.51,8.81,23.94,43.42,8.91,70.73,8.69c7.88-.07,10.61-2.87,10.46-7C860.44,680.7,857.44,682.27,851.57,682.32Z" transform="translate(0 0)"/><rect class="cls-8" x="584.53" y="487.87" width="78.03" height="78.03"/><rect class="cls-8" x="469.53" y="384.87" width="78.03" height="78.03"/><rect class="cls-8" x="477.03" y="589.11" width="78.03" height="78.03"/><rect class="cls-9" x="459.62" y="193.28" width="78.03" height="78.03"/><path class="cls-3" d="M513.78,218.77,511,221.53a9.77,9.77,0,0,1,0,13.82h0l2.77,2.78A13.69,13.69,0,0,0,513.78,218.77Z" transform="translate(0 0)"/><path class="cls-10" d="M519.32,213.44l-2.73,2.73a17.39,17.39,0,0,1,0,24.56l2.73,2.73a21.22,21.22,0,0,0,0-30Zm-13,10.22v-12.5h-3.85L491,220.76H475.59l-3.84,1.92v13.45l3.84,1.92,9.64,15.37H491l-3.6-15.37H491l11.52,7.69h3.85v-12.5a4.91,4.91,0,0,0,0-9.58Z" transform="translate(0 0)"/><rect class="cls-9" x="605.15" y="475.83" width="78.03" height="78.03" transform="translate(-178.92 565.29) rotate(-42.14)"/><path class="cls-3" d="M621.57,504.12l5.66-5.14,31,34.17-5.7,5.16Zm13.37,32,5.7-5.15,9,10-5.7,5.15ZM646.88,515l5.7-5.16,14.17,15.67-5.69,5.15Zm.81-16.28,5.7-5.16,21.91,24.21-5.7,5.16Z" transform="translate(0 0)"/><rect class="cls-9" x="583.24" y="287.31" width="78.03" height="78.03"/><path class="cls-11" d="M637.07,317,626.6,333a5.7,5.7,0,1,1-10.23,3.64,6.36,6.36,0,0,1,.1-1.07l-6.92-4a5.79,5.79,0,0,1-6.83.86l-7.36,6.89v6.87a5.15,5.15,0,0,0,5.13,5.13H644a5.15,5.15,0,0,0,5.13-5.13V320.65l-7-4.67a5.73,5.73,0,0,1-3.53,1.22,5.63,5.63,0,0,1-1.52-.21Z" transform="translate(0 0)"/><path class="cls-12" d="M605.56,321.64a5.76,5.76,0,0,1,5.77,5.75h0a3.73,3.73,0,0,1-.05.75l7.22,4a5.66,5.66,0,0,1,3.65-1.3,5.75,5.75,0,0,1,1.24.14l10.5-16.26a5.76,5.76,0,1,1,10.46-3.34,5.68,5.68,0,0,1-.16,1.36l5,3.31v-9.62a5.14,5.14,0,0,0-5.13-5.12H600.49a5.13,5.13,0,0,0-5.13,5.12V334l4.8-4.6a5.7,5.7,0,0,1-.36-2A5.76,5.76,0,0,1,605.56,321.64Z" transform="translate(0 0)"/><rect class="cls-9" x="484.6" y="374.31" width="78.03" height="78.03"/><path class="cls-13" d="M547.16,388.47l-48,26a1,1,0,0,0-.4,1.36,1,1,0,0,0,.47.43l8.19,3.09a2,2,0,0,1,1.08,1l6.36,13.1c.12.58,1.19.74,1.2.15l-1-10.83a3.85,3.85,0,0,1,.88-2.19l24.88-24.38a.62.62,0,0,1,.55-.16.57.57,0,0,1,.31.91l-21.45,26.22a4.82,4.82,0,0,0-.84,2.16l-1.28,9.35c.1.82.74,1.13,1.26.4l4.62-5.43a1,1,0,0,1,1.36-.22l11.91,8.68a1,1,0,0,0,1.38-.3,1.08,1.08,0,0,0,.13-.29l9.77-48a1,1,0,0,0-.82-1.16,1.06,1.06,0,0,0-.58.08Z" transform="translate(0 0)"/><path class="cls-3" d="M971.84,732.59c4.54.59,9.25,1,13.6-.46.67-.21,1.44-.67,1.35-1.36a1.61,1.61,0,0,0-.31-.66,42.13,42.13,0,0,1-4.13-7.83.64.64,0,0,0-.25-.35.66.66,0,0,0-.44,0c-2,.52-3.74,1.82-5.74,2.37a8.2,8.2,0,0,1-3.12.24c-.9-.1-2.14-.85-2.95-.76C970.35,726.75,971.49,729.56,971.84,732.59Z" transform="translate(0 0)"/><path class="cls-3" d="M1057.77,725c3-2,6.1-4.22,7.87-7.39a1.19,1.19,0,0,0,.21-.63,1.3,1.3,0,0,0-.25-.62,25.77,25.77,0,0,0-6.39-6.9,18.59,18.59,0,0,0-3.57,3.29c-.75.79-2.83,2.09-2.85,3.27,0,.71.79,1.48,1.16,2,.5.74,1,1.5,1.43,2.26C1055.61,720.72,1058,724.86,1057.77,725Z" transform="translate(0 0)"/><path class="cls-14" d="M989.64,741.77a3,3,0,0,1-.54,2,2.63,2.63,0,0,1-1.15.67c-6.36,2.27-13.68-.57-20,1.68-1.31.46-2.54,1.12-3.85,1.56a20.85,20.85,0,0,1-4.77.85c-2.25.22-4.5.35-6.75.41a16.38,16.38,0,0,1-5.08-.44,6.15,6.15,0,0,1-3.9-3.09,3,3,0,0,1-.19-2.2,2.39,2.39,0,0,1,.41-.71,6,6,0,0,1,1.5-1.21l2.34-1.51a15.21,15.21,0,0,1,3.54-1.88c.92-.3,1.91-.43,2.84-.7,3.29-1,5.79-3.57,8.12-6.07l3.18-3.39a3.15,3.15,0,0,1,1.1-.88,3,3,0,0,1,1.36-.14,18.4,18.4,0,0,1,8.67,2.92,12.78,12.78,0,0,0,2.14,1.26,7.64,7.64,0,0,0,6-.75c.82-.43.64-.7,1-1.47s1.18-1.27,1.9-.56a2,2,0,0,1,.45.86c.7,2.27.43,4.7.43,7.07a3.17,3.17,0,0,0,.14,1.1,6.42,6.42,0,0,0,.62,1,2.1,2.1,0,0,1,.13.26A6.86,6.86,0,0,1,989.64,741.77Z" transform="translate(0 0)"/><path class="cls-15" d="M989.64,741.77a3,3,0,0,1-.54,2,2.63,2.63,0,0,1-1.15.67c-6.36,2.27-13.68-.57-20,1.68-1.31.46-2.54,1.12-3.85,1.56a20.85,20.85,0,0,1-4.77.85c-2.25.22-4.5.35-6.75.41a16.38,16.38,0,0,1-5.08-.44,6.15,6.15,0,0,1-3.9-3.09,3,3,0,0,1-.19-2.2,2.39,2.39,0,0,1,.41-.71c.38.78.65,1.8.88,2.17a4.45,4.45,0,0,0,3,2.15,7.52,7.52,0,0,0,2.71-.35c5.76-1.43,11.88-1.45,17.4-3.61a41.37,41.37,0,0,1,5.7-2.19,45.41,45.41,0,0,1,6.16-.5c3.25-.26,6.39-1.24,9.6-1.75A7,7,0,0,1,989.64,741.77Z" transform="translate(0 0)"/><path class="cls-14" d="M1072.29,724.59c-.3,2.41-1.83,4.49-3.51,6.25a40.87,40.87,0,0,0-4.9,5.37c-1.66,2.52-2.39,5.63-4.53,7.76a12.39,12.39,0,0,1-2.72,2,19.1,19.1,0,0,1-3.53,1.62c-3.19,1-6.63.79-10,.55a8.8,8.8,0,0,1-3.16-.62,8.68,8.68,0,0,1-1.34-.81,6.38,6.38,0,0,1-2-2.07,2.09,2.09,0,0,1-.19-1.49,3.36,3.36,0,0,1,1-1.46,22.49,22.49,0,0,1,2.41-2.17,14.25,14.25,0,0,0,3.14-2.76,9.07,9.07,0,0,0,1.21-2.76,24.52,24.52,0,0,0,.88-5.25,16.54,16.54,0,0,1,.37-3.51c.51-1.8,1.85-3.43,1.69-5.3a1.36,1.36,0,0,1,.07-.8,1.27,1.27,0,0,1,.63-.39,11.58,11.58,0,0,1,3.28-.75,3.76,3.76,0,0,1,3,1.19c.47.56.77,1.34,1.46,1.59a2.41,2.41,0,0,0,1,0c1.68-.17,3.47-.38,4.76-1.47a6,6,0,0,0,2-4.37c0-.62-.28-1.27.67-1.4.73-.1,1.3.66,1.67,1.16a16.43,16.43,0,0,1,3.21,5.85,1.58,1.58,0,0,1,.61-.12,2.63,2.63,0,0,1,2.18,1.12A4.34,4.34,0,0,1,1072.29,724.59Z" transform="translate(0 0)"/><path class="cls-15" d="M1072.29,724.59c-.3,2.41-1.83,4.49-3.51,6.25a40.87,40.87,0,0,0-4.9,5.37c-1.66,2.52-2.39,5.63-4.53,7.76a12.39,12.39,0,0,1-2.72,2,19.1,19.1,0,0,1-3.53,1.62c-3.19,1-6.63.79-10,.55a8.8,8.8,0,0,1-3.16-.62,8.68,8.68,0,0,1-1.34-.81,6.38,6.38,0,0,1-2-2.07,4.91,4.91,0,0,1,2.06-.49c1.49.08,2.57,1.48,4,1.91,2,.61,4-.82,6.09-1.31,1.34-.31,2.76-.22,4.07-.65a10.13,10.13,0,0,0,3-1.82,15,15,0,0,0,3.21-3.1,19.47,19.47,0,0,0,1.89-3.76,54.3,54.3,0,0,1,3.81-7.29,4.72,4.72,0,0,1,.78-1c.31-.29.7-.5,1-.76,1.37-1,1.94-2.77,2.42-4.41a7.61,7.61,0,0,1,.54-1.47,2.63,2.63,0,0,1,2.18,1.12A4.28,4.28,0,0,1,1072.29,724.59Z" transform="translate(0 0)"/><path class="cls-16" d="M928.63,511a14.53,14.53,0,0,1,4.08,4.77c1,1.88,6.49,16.48,6.17,18.57,1.8-1.82,8.94-2.12,10.73-3.93.76-.76,4.87-4.56,5.48-5.44s5.19-2.77,5.69-3.67c1.87-3.35-13.26-16-11.33-19.36a.61.61,0,0,0-.09-.92,24.27,24.27,0,0,0-4.38-3,7,7,0,0,1-3.34-4,14.52,14.52,0,0,0-3.87,2.62q-4.15,3.56-8.18,7.28c-1.06,1-3.08,2.27-3.57,3.66S927.62,510.16,928.63,511Z" transform="translate(0 0)"/><path class="cls-14" d="M953.12,505.59a44.48,44.48,0,0,0-6.48,5.3c-1.88,1.85-3.66,4-4.13,6.61-.19,1-.16,2.06-.32,3.09-.67,4.48-4.56,7.77-6.27,12a20.43,20.43,0,0,0-1.1,4,47,47,0,0,0-.78,7.86c0,2.56,2.46,4.32,3.38,6.71a41.09,41.09,0,0,1,1.63,7.27,88.24,88.24,0,0,0,4.09,13.5c3.38,9.33,14.33,35.13,17.71,44.47,10.35-2.6,37.91-8.57,47.07-14,3.06-1.82-21.2-22.38-17.93-23.8a1.62,1.62,0,0,0,.91-.69,1.56,1.56,0,0,0,0-1c-3.26-14.29-13.49-26-18.12-40-1.61-4.83-4.5-8.95-6.7-13.55-2-4.16-3.05-8.75-5.42-12.7a8.44,8.44,0,0,0-1.73-2.17,10.39,10.39,0,0,0-1.92-1.15C955.7,506.64,954.44,506.25,953.12,505.59Z" transform="translate(0 0)"/><circle class="cls-16" cx="929.18" cy="493.15" r="16.2"/><path class="cls-15" d="M945.66,500.76a5.43,5.43,0,0,1,6.09-.87,3,3,0,0,1,1.81,2.92l8,.12a16.79,16.79,0,0,1,3.81.35,5.53,5.53,0,0,1,3.18,2c.1.13.21.28.37.31a.64.64,0,0,0,.37-.13,7,7,0,0,1,4-.72c4.34.28,8.36,2.46,11.76,5.17a3.78,3.78,0,0,1,1.4,1.71c.28.91,0,2.08.66,2.7,0,7.55,2.59,14.58,4.32,21.93.3,1.31,1.56,2.46,2.43,3.49a13.9,13.9,0,0,1,2.6,3.88c1.46,3.81-.56,8.28.87,12.11a19.18,19.18,0,0,0,2.76,4.35,11.2,11.2,0,0,1,2.35,5.62c.06.92-.06,1.84,0,2.77a17.4,17.4,0,0,0,.66,3.64c.58,2.21,1.2,4.42,1.84,6.62,1,3.56,2.4,7.41,5.59,9.31-7.71,1.31-15.83,2.58-23.18-.09a12,12,0,0,1-2.89-1.45c-2.65-1.89-3.93-5.13-5.07-8.18-1.28-3.43-2.58-6.91-2.84-10.56a11.83,11.83,0,0,0-.48-3.45c-.75-2-2.73-3.19-4.55-4.29a22,22,0,0,1-5.47-4.26,8.51,8.51,0,0,1-2.22-6.4c.14-1.13.58-2.22.63-3.36a2.69,2.69,0,0,0-1.56-2.77c-5.61-1.7-8.29-8.34-9.54-14.07a45.24,45.24,0,0,1-.72-9l-.07-5.79a7.67,7.67,0,0,1-2.52-5.54,6.24,6.24,0,0,0,0-1.83,5.05,5.05,0,0,0-1.28-2A16.86,16.86,0,0,1,945.66,500.76Z" transform="translate(0 0)"/><path class="cls-15" d="M928.4,519.29c-.18,1.81.23,3.66-.18,5.44-.16.68-.43,1.33-.63,2a11.83,11.83,0,0,0,.75,7.62,43.13,43.13,0,0,0,3.89,6.75,9.88,9.88,0,0,1,1.25,2.33,12.07,12.07,0,0,1,.48,2.67,81.32,81.32,0,0,0,1.91,10.74c.76,3.08,1.75,6.19,3.78,8.63a2.66,2.66,0,0,0,1.56,1.06,2.77,2.77,0,0,0,1.33-.28l4.14-1.57a3,3,0,0,0,1-.52,2.51,2.51,0,0,0,.58-1.62c.29-3.34-.71-6.65-1.82-9.81-3.36-9.54-7.82-18.73-10-28.6-.61-2.76-.93-7-2.94-9.15-.83-.9-.55-.52-1.54,0a11.85,11.85,0,0,0-1.45.77A4.74,4.74,0,0,0,928.4,519.29Z" transform="translate(0 0)"/><path class="cls-15" d="M1007.47,578.66" transform="translate(0 0)"/><path class="cls-17" d="M940.88,537.39q1.65,8.73,3.37,17.47l16.08-4.22c.13-1.68-.77-3.24-1.39-4.81-1.47-3.68-1.5-7.77-2.69-11.55-.9-2.88-2.46-5.53-3.3-8.43-.49-1.68-.73-3.44-1.21-5.13a39.19,39.19,0,0,0-1.89-4.89,31.45,31.45,0,0,0-3.51-6.51c-2.06.77-4.25,1.66-5.42,3.51a7.5,7.5,0,0,0-1,3.46c-.28,3.62,1,7.25.59,10.83A31.9,31.9,0,0,0,940.88,537.39Z" transform="translate(0 0)"/><path class="cls-15" d="M960.6,615c.9,3.44-.41,7-1.47,10.42a80.77,80.77,0,0,0-3.28,15.69,13,13,0,0,1-.81,4c-.6,1.1-1.25,2.17-1.95,3.2-1.62,2.86-1.58,6.36-1.23,9.63.23,2.16.58,4.31,1,6.44.53,2.59,1.18,5.31.42,7.84,1.27-.28,2.14,1.36,2.09,2.67s-.51,2.71.11,3.86c1.58.57,1.6,2.74,1.55,4.41a37.05,37.05,0,0,0,1.09,8.64q3.58,17.19,7.6,34.29c5.79,1.8,12.55,3.67,18.07,1.18a3.55,3.55,0,0,0,2.29-2.3,4.1,4.1,0,0,0-.22-1.77l-2.62-9.52a17.55,17.55,0,0,1-.94-7c.26-1.77,1-3.67.16-5.22a15,15,0,0,0-1.1-1.46c-1.38-2-.66-4.69-.54-7.13a5.56,5.56,0,0,0-.12-1.63,9.12,9.12,0,0,0-.77-1.79,27.31,27.31,0,0,1-3-13.6,3.4,3.4,0,0,0-.24-1.78,4.08,4.08,0,0,1-.44-.72,1.92,1.92,0,0,1,.14-1.31,11.43,11.43,0,0,1-2.11-2,3,3,0,0,0,.88-4.15,2.89,2.89,0,0,0-.38-.47,1.54,1.54,0,0,0,.74-2.65c-.34-.24-.78-.34-1-.68-.37-.5-.07-1.21.23-1.75l1.6-2.89c1.19-2.14,1.46-4.79,2.74-6.88a51.91,51.91,0,0,0,4.22-9.63l4.56-12.7,3.1,2.69a9.74,9.74,0,0,1,2.55,2.91,12.26,12.26,0,0,1,.82,3.48c1.14,6.9,5.49,12.88,7.1,19.69a13.2,13.2,0,0,0,1.46,4.4,10.61,10.61,0,0,1,.84,1.26,6.46,6.46,0,0,1,.35,2.09,9.76,9.76,0,0,0,4.11,7c1.52,1,3.45,1.77,4.25,3.43a6.76,6.76,0,0,0,.7,1.46c.74.89,2.34,1,2.66,2.11.17.63-.16,1.37.2,1.92a1.75,1.75,0,0,0,.75.56l4.47,2.24c5,2.49,7.52,8.2,11.21,12.39a25.47,25.47,0,0,1,3.35,4.44c1.59,2.84,2.33,6.41,5,8.24a7.83,7.83,0,0,1,1.94,1.44c.85,1.11.54,2.67.61,4.07s1.15,3.06,2.48,2.64a9.65,9.65,0,0,0,0,5.17,26.09,26.09,0,0,0,15.8-6.4c1.3-1.14,2.56-2.59,2.57-4.31a1.7,1.7,0,0,0-.19-.86,2.35,2.35,0,0,0-1-.76c-4.17-2.26-5.43-7.5-7.52-11.76-1.85-3.75-4.57-7-6.88-10.48-5-7.5-8.34-16.57-15.85-21.53-1.65-1.09-3.57-2.06-4.39-3.86a32.22,32.22,0,0,1-.88-3.2,2.7,2.7,0,0,0-2.35-2,14.3,14.3,0,0,0,.54-5,6.25,6.25,0,0,0-.25-2.15,9.92,9.92,0,0,0-1.1-2.12,20.53,20.53,0,0,1-2.83-11c.06-2,.41-4-.19-5.91-.3-1-.82-1.83-1.19-2.76a17,17,0,0,1-.86-5.15l-.41-6.59a31.73,31.73,0,0,0-.85-6.51c-1.39-5.11-2.72-26.52-7.43-28.93s-12.75,14.06-18,14.39a24.1,24.1,0,0,0-6.88,1.32c-3.51,1.32-6.46,3.78-9.33,6.19l-9.72,8.16A34.86,34.86,0,0,1,960.6,615Z" transform="translate(0 0)"/><path class="cls-15" d="M914,475.16a12.23,12.23,0,0,1,9.43-4.6,22,22,0,0,1,10.42,2.62,13.13,13.13,0,0,0,3,1.25c1.72.35,3.62-.12,5.17.7,2.06,1.09,2.45,3.87,2.27,6.19s-.61,4.86.62,6.85a17.79,17.79,0,0,1,1.19,1.78,6,6,0,0,1-.11,3.81,30.14,30.14,0,0,1-2-2.51c-.72-.79-2-1.33-2.83-.74s-.88,1.68-.92,2.65-.3,2.14-1.22,2.46a2,2,0,0,1-2-.8c-1.57-1.92-.94-5-2.49-6.92-.89-1.1-2.36-1.63-3.18-2.78-.64-.9-.8-2.07-1.36-3s-1.87-1.69-2.75-1a3.78,3.78,0,0,0-.73,1,4.21,4.21,0,0,1-5,1.5,8.67,8.67,0,0,0-2.17-.93,2.66,2.66,0,0,0-2.47,1.34,5.27,5.27,0,0,0-.65,2.86c0,1.35.24,2.83-.54,3.93a4.13,4.13,0,0,1-1.16,1c-1.15.73-2.72,1.22-3.8.39a2.85,2.85,0,0,1-.85-2.66,23.08,23.08,0,0,1,.81-2.81c.6-2.12-.18-4.51.48-6.51A20.54,20.54,0,0,1,914,475.16Z" transform="translate(0 0)"/><path class="cls-12" d="M922.65,523.49a2.54,2.54,0,0,0,.15,1.49,2.42,2.42,0,0,0,.81.78,16.74,16.74,0,0,0,7.64,2.47,2.33,2.33,0,0,1,1,.27,1.89,1.89,0,0,1,.45,2.13,5.66,5.66,0,0,0-.48,2.26c.2,1.43,1.89,2.08,3.33,2.26a7.74,7.74,0,0,0,5.79-1.12,8.9,8.9,0,0,0,2.39-3.59c3.93-9,5.31-19,9.29-28a5.61,5.61,0,0,0,.6-1.87,1.87,1.87,0,0,0-.74-1.73c-.74-.46-1.89-.2-2.39-.91-.25-.37-.22-.86-.44-1.24-.46-.82-1.66-.72-2.49-1.16-.64-.35-1.09-1-1.8-1.19a2.3,2.3,0,0,0-1.88.81c-2.33,2.18-3.56,5.27-4.86,8.19a96.37,96.37,0,0,1-7,12.91c.31-.48-1.48-4.13-2.18-4.27-1.22-.25-2.8,1.9-3.46,2.71A17.12,17.12,0,0,0,922.65,523.49Z" transform="translate(0 0)"/><rect class="cls-9" x="930.83" y="536.29" width="78.03" height="78.03"/><path class="cls-3" d="M970.45,562.49V552.25H944.87v46.1h50V562.49ZM955.1,593.22H950V588.1h5.11Zm0-10.24H950v-5.12h5.11Zm0-10.24H950v-5.13h5.11Zm0-10.25H950v-5.13h5.11Zm10.23,30.73h-5.1V588.1h5.11Zm0-10.24h-5.1v-5.12h5.11Zm0-10.24h-5.1v-5.13h5.11Zm0-10.25h-5.1v-5.13h5.11Zm24.38,30.73H970.45V588.1h5.11V583h-5.11v-5.12h5.11v-5.13h-5.11v-5.12h19.26Zm-4.48-20.48h-5.11v5.13h5.11Zm0,10.24h-5.11v5.13h5.11Z" transform="translate(0 0)"/><path class="cls-16" d="M1008.23,579.27a31.56,31.56,0,0,0-3.7,3.88,7.71,7.71,0,0,0-1.7,5,2.57,2.57,0,0,0,.48,1.46,1.24,1.24,0,0,0,1.39.43,2.09,2.09,0,0,0,.68-.61,32,32,0,0,1,2.3-2.5c.3-.29.68-.6,1.08-.49a1.14,1.14,0,0,1,.47.31,3.22,3.22,0,0,1,1,1.51,3.56,3.56,0,0,1-1.06,2.91,7.58,7.58,0,0,0-1.79,2.65,1.14,1.14,0,0,0,0,.85,1.39,1.39,0,0,0,.53.46,7.72,7.72,0,0,0,6.47.42c1.39-.55,2.59-1.51,4-2a9.43,9.43,0,0,0,1.77-.66,3.64,3.64,0,0,0,1.57-2.34,10,10,0,0,0,.11-2.89,33,33,0,0,0-2.41-10.9,1.22,1.22,0,0,0-.39-.58,1.4,1.4,0,0,0-.66-.19c-1.75-.18-4.63-1.08-6.32-.43a4.42,4.42,0,0,0-1.49,1.33C1010.17,577.24,1008.23,578.81,1008.23,579.27Z" transform="translate(0 0)"/><path class="cls-15" d="M1007.63,577.72c0-1.68-2.08-5.71,1.21-6,0-1.78-2.53-2.9-2.07-4.78.16-.64.67-1.15.75-1.79.21-1.83-3.09-2.82-2.55-4.58.2-.67.93-1.08,1.09-1.76.37-1.58-2.46-2.29-2.51-3.91,0-.55.3-1.07.28-1.61s-.6-1.21-.93-1.8c-.85-1.53-.44-3.9-2-4.68,1,.08,1.39-1.45,1-2.39s-1.3-1.75-1.3-2.79a4.43,4.43,0,0,0,0-1.15c-.29-1-1.93-1.07-2.2-2.07a10.65,10.65,0,0,1,0-1.13c-.1-.78-.9-1.26-1.65-1.49a6.65,6.65,0,0,1-2.2-.78c-.48-.37-1-1-1.55-.65-.19.11-.29.33-.44.5-.61.71-1.78.4-2.56-.13-2.29-1.55-3.42-4.34-3.92-7.06s-.47-5.53-1.07-8.23a18.81,18.81,0,0,0-.73-2.46,13.16,13.16,0,0,1-1.16-2.46c-.12-1.57,3.14-.5,4.38-.34a19.6,19.6,0,0,1,3.56.67,39.09,39.09,0,0,1,3.63,1.59c5,2.19,10.92,2.46,14.9,6.13,1.31,1.21,2.41,2.79,4.1,3.33a22.18,22.18,0,0,1,2.3.6c1.89.89,2.18,3.39,3.21,5.2a11.11,11.11,0,0,1,.85,1.5,5.69,5.69,0,0,1,.27,1.92l.14,4.75c.23,8,.47,15.93-.38,23.84-.28,2.6-.67,5.29.09,7.8.2.68.49,1.33.66,2A13.62,13.62,0,0,1,1021,576l.11,3.07a.74.74,0,0,1-1,.91c-4.29-.38-8.61-2.8-12.66-1.34" transform="translate(0 0)"/><path class="cls-16" d="M927.89,565.19a1.32,1.32,0,0,0-.48.4,3.42,3.42,0,0,0,0,4.06,1.47,1.47,0,0,1,.24.4,1.15,1.15,0,0,1-.12.68,2.25,2.25,0,0,0,.31,2.52c.31.26.73.39.93.73.35.58-.14,1.32-.06,2,.1.89,1.15,1.33,2,1.44a2.11,2.11,0,0,0,1.95-.52,1.62,1.62,0,0,0,0-1.77,4.88,4.88,0,0,0-1.32-1.32,2,2,0,0,0,1.89-1.83,2.85,2.85,0,0,0-1.14-2.49c-.18-.15-.4-.3-.45-.54s.19-.57.41-.8c1-1,1.77-3.45-.11-4a4.5,4.5,0,0,0-2,.09c-.48.15-.48.44-.85.64S928.31,565,927.89,565.19Z" transform="translate(0 0)"/><path class="cls-4" d="M947.54,496.12A3.29,3.29,0,0,0,945,497.4a7.33,7.33,0,0,0-1.06,3.4,29.74,29.74,0,0,1-4,10.86" transform="translate(0 0)"/><path class="cls-4" d="M951,498.86a3.89,3.89,0,0,0-3.32,2,11,11,0,0,0-.84,3.39,18.44,18.44,0,0,1-3.33,7.11" transform="translate(0 0)"/><path class="cls-18" d="M305.89,562.57c.58,6.32-4.19,12.44-2.8,18.62.3,1.32.87,2.57,1.08,3.9.57,3.67-1.62,7.15-3.71,10.22l-17.94,26.34a17.07,17.07,0,0,1-2.57,3.17c-3.44,3-8.58,2.73-13.09,3.64a22.45,22.45,0,0,0-8.76,3.88.57.57,0,0,0-.12.79,7.55,7.55,0,0,0,6.52,3.06c.47.62,0,1.53-.65,2-1,.67-2.29.84-2.48,2.48a2.68,2.68,0,0,0,.33,1.64,5.06,5.06,0,0,0,3.14,2.18c6.21,1.9,12.93-1.43,17.57-6s8-10.27,12.56-14.9c2.53-2.55,5.4-4.75,8-7.23,5.2-4.94,9.23-11,13.13-17a18.87,18.87,0,0,0,2.84-5.78c.48-2.06.26-4.23.82-6.27.72-2.66,2.68-4.79,4.3-7,3.19-4.38,5.31-9.75,4.89-15.15s-3.76-10.74-8.86-12.57a7.93,7.93,0,0,0-5-.31c-2.09.65-3.63,2.38-5.06,4l-3.4,3.94a9.17,9.17,0,0,0-2,3,3.15,3.15,0,0,0,.7,3.35" transform="translate(0 0)"/><path class="cls-19" d="M305.89,562.57c.58,6.32-4.19,12.44-2.8,18.62.3,1.32.87,2.57,1.08,3.9.57,3.67-1.62,7.15-3.71,10.22l-17.94,26.34a17.07,17.07,0,0,1-2.57,3.17c-3.44,3-8.58,2.73-13.09,3.64a22.45,22.45,0,0,0-8.76,3.88.57.57,0,0,0-.12.79,7.55,7.55,0,0,0,6.52,3.06c.47.62,0,1.53-.65,2-1,.67-2.29.84-2.48,2.48a2.68,2.68,0,0,0,.33,1.64,5.06,5.06,0,0,0,3.14,2.18c6.21,1.9,12.93-1.43,17.57-6s8-10.27,12.56-14.9c2.53-2.55,5.4-4.75,8-7.23,5.2-4.94,9.23-11,13.13-17a18.87,18.87,0,0,0,2.84-5.78c.48-2.06.26-4.23.82-6.27.72-2.66,2.68-4.79,4.3-7,3.19-4.38,5.31-9.75,4.89-15.15s-3.76-10.74-8.86-12.57a7.93,7.93,0,0,0-5-.31c-2.09.65-3.63,2.38-5.06,4l-3.4,3.94a9.17,9.17,0,0,0-2,3,3.15,3.15,0,0,0,.7,3.35" transform="translate(0 0)"/><path class="cls-16" d="M169.23,589.42c1,3.16,2,6.32,3.21,9.4A79.75,79.75,0,0,0,180.75,614a109.07,109.07,0,0,0,6.87,9c3.06,3.61,6.48,7.24,7.56,11.85.63,2.66.42,5.45.68,8.17s1.15,5.61,3.35,7.24a12.45,12.45,0,0,0,5.52,1.82c1.38.22,3.11.29,3.83-.91a3.47,3.47,0,0,0,.38-1.58l.34-4c.07-.86.37-2,1.23-2s1.3,1.11,2,1.62a2.17,2.17,0,0,0,2.94-.88l.06-.12a5,5,0,0,0,.08-3.5,16.62,16.62,0,0,0-8.53-10.57A25.3,25.3,0,0,1,202.9,628a14.05,14.05,0,0,1-3.27-4.12c-7.56-12.45-15.16-25-20.5-38.51a28.55,28.55,0,0,1-2.11-7.59,48.6,48.6,0,0,1,.33-8A45.79,45.79,0,0,0,176,555.45a11.09,11.09,0,0,0-1.37-3.47c-2.19-3.34-7.36-3.83-10.62-1.53a10.91,10.91,0,0,0-4.22,7.72c-.24,2.69,1.32,5.5,2.11,8Q165.61,577.79,169.23,589.42Z" transform="translate(0 0)"/><path class="cls-19" d="M169.23,589.42c1,3.16,2,6.32,3.21,9.4A79.75,79.75,0,0,0,180.75,614a109.07,109.07,0,0,0,6.87,9c3.06,3.61,6.48,7.24,7.56,11.85.63,2.66.42,5.45.68,8.17s1.15,5.61,3.35,7.24a12.45,12.45,0,0,0,5.52,1.82c1.38.22,3.11.29,3.83-.91a3.47,3.47,0,0,0,.38-1.58l.34-4c.07-.86.37-2,1.23-2s1.3,1.11,2,1.62a2.17,2.17,0,0,0,2.94-.88l.06-.12a5,5,0,0,0,.08-3.5,16.62,16.62,0,0,0-8.53-10.57A25.3,25.3,0,0,1,202.9,628a14.05,14.05,0,0,1-3.27-4.12c-7.56-12.45-15.16-25-20.5-38.51a28.55,28.55,0,0,1-2.11-7.59,48.6,48.6,0,0,1,.33-8A45.79,45.79,0,0,0,176,555.45a11.09,11.09,0,0,0-1.37-3.47c-2.19-3.34-7.36-3.83-10.62-1.53a10.91,10.91,0,0,0-4.22,7.72c-.24,2.69,1.32,5.5,2.11,8Q165.61,577.79,169.23,589.42Z" transform="translate(0 0)"/><path class="cls-20" d="M321,708.16c-3.92,2.39-8.8,2.53-13.36,2-.73-.09-1.6-.15-2.07.42-.68.82.12,2,.95,2.7a19.89,19.89,0,0,0,9.18,3.77,61.58,61.58,0,0,0,9,.6c8.19.14,16.42.27,24.53-.91a3.15,3.15,0,0,0,1.34-.39,2.56,2.56,0,0,0,1-1.54,6.13,6.13,0,0,0-2.14-5.84,18,18,0,0,0-5.72-3.07l-7.12-2.77c-1.67-.65-4.36-2.38-6.17-2.24C327,701.11,323.81,706.5,321,708.16Z" transform="translate(0 0)"/><path class="cls-20" d="M338.87,724.89a17.49,17.49,0,0,1-11.95,4.46c-1.12,0-2.68.21-2.68,1.33a1.82,1.82,0,0,0,.32.93,11,11,0,0,0,6.18,4.84,22,22,0,0,0,7.46.47l7.3-.38c1.38-.07,2.77-.14,4.14-.31s2.86-.45,4.29-.67a57.26,57.26,0,0,1,10.63-.5,3.12,3.12,0,0,0,2.62-.7c.65-.82.27-2,.06-3-.44-2.11,0-4.33-.41-6.46-.7-3.72-3.9-6.58-7.45-7.93-3.28-1.25-9.1-2.68-12.21-.6C343.83,718.58,341.82,722.22,338.87,724.89Z" transform="translate(0 0)"/><path class="cls-15" d="M324.45,630.43c-3,4-6,8.51-5.3,13.39.4,2.63,1.87,4.95,3,7.39a52.22,52.22,0,0,1,3,10.38c1.11,5.17,2.22,10.35,2.91,15.59a97.36,97.36,0,0,1,.65,17.9c-.09,1.44-.25,3-1.25,4-.4.4-.92.73-1.09,1.27a2.13,2.13,0,0,0,.23,1.5,16.59,16.59,0,0,0,8.9,8.19,34,34,0,0,0,12.1,2.26,3.43,3.43,0,0,0,1.62-.21,3.1,3.1,0,0,0,1.25-1.43c3-5.7,1.33-12.58,1.38-19,0-5.37,1.3-10.69,1.07-16.06-.19-4.3-1.34-8.5-1.76-12.79-.69-7,.6-14.1,1.89-21,1-5.32,2-10.65,3.25-15.92a30.49,30.49,0,0,1,3.44-9.24c1.4-2.21,3.3-4.06,4.9-6.14a27.85,27.85,0,0,0,5.48-20.37c-.1-.72-10.3,2.58-11.18,3a34.65,34.65,0,0,0-10,6.41c-2.36,2.24-4.21,5.24-6.28,7.76Q338.23,612.58,334,618,329.15,624.16,324.45,630.43Z" transform="translate(0 0)"/><path class="cls-19" d="M324.45,630.43c-3,4-6,8.51-5.3,13.39.4,2.63,1.87,4.95,3,7.39a52.22,52.22,0,0,1,3,10.38c1.11,5.17,2.22,10.35,2.91,15.59a97.36,97.36,0,0,1,.65,17.9c-.09,1.44-.25,3-1.25,4-.4.4-.92.73-1.09,1.27a2.13,2.13,0,0,0,.23,1.5,16.59,16.59,0,0,0,8.9,8.19,34,34,0,0,0,12.1,2.26,3.43,3.43,0,0,0,1.62-.21,3.1,3.1,0,0,0,1.25-1.43c3-5.7,1.33-12.58,1.38-19,0-5.37,1.3-10.69,1.07-16.06-.19-4.3-1.34-8.5-1.76-12.79-.69-7,.6-14.1,1.89-21,1-5.32,2-10.65,3.25-15.92a30.49,30.49,0,0,1,3.44-9.24c1.4-2.21,3.3-4.06,4.9-6.14a27.85,27.85,0,0,0,5.48-20.37c-.1-.72-10.3,2.58-11.18,3a34.65,34.65,0,0,0-10,6.41c-2.36,2.24-4.21,5.24-6.28,7.76Q338.23,612.58,334,618,329.15,624.16,324.45,630.43Z" transform="translate(0 0)"/><path class="cls-15" d="M346.11,600.05c.64,3.06,3.61,5.4,3.69,8.53.07,2.5-1.71,4.6-3,6.75a45.15,45.15,0,0,0-3.06,6.94,105.68,105.68,0,0,1-9,17.87c-1.71,2.72-3.63,5.67-3.23,8.86a13.06,13.06,0,0,0,1.55,4.23l5.14,10.21a28.91,28.91,0,0,1,2.62,6.45c.45,1.94.49,4,.75,5.92.81,6.26,3.74,12.56,2,18.63-.15.52-.7,1.15-1.11.79,1.7,3.17,3.07,6.37,2.93,10-.06,1.89-.64,3.85.06,5.61a6.06,6.06,0,0,1,.78,2.14c0,.51-.24,1-.29,1.51-.14,1.44,1.18,2.65,2.56,3.11s2.88.43,4.27.84c2.68.8,4.58,3.1,6.88,4.7a14.48,14.48,0,0,0,7.89,2.57,2,2,0,0,0,1.16-.23,1.91,1.91,0,0,0,.65-1.41,7.84,7.84,0,0,0-2.83-6.81,3.1,3.1,0,0,1-1-1.1,2.7,2.7,0,0,1-.1-1.23,91.22,91.22,0,0,0-.3-16.85,26,26,0,0,1-.26-5.36,21.64,21.64,0,0,0,.43-4.47,23.09,23.09,0,0,0-1.37-4.27c-.79-2.55-.57-5.29-.65-8A70.51,70.51,0,0,0,361,662.29a10.38,10.38,0,0,0-2.13-4.94c-1.07-1.12-2.8-2.18-2.39-3.67a4.32,4.32,0,0,1,1-1.46,5.85,5.85,0,0,0,1.23-4.47,2,2,0,0,0,2.3-1.08,36,36,0,0,0,18.08-20.56,6.81,6.81,0,0,1,.81-1.83c.77-1.08,2.12-1.55,3.31-2.15,3.74-1.88,6.32-5.41,8.69-8.86a20.59,20.59,0,0,0,3.36-6.43,21.24,21.24,0,0,0,.46-4.64l.21-8a4.61,4.61,0,0,0-.15-1.57,4,4,0,0,0-.87-1.28,15.5,15.5,0,0,0-8.54-4.6c-2.19-.39-4.43-.32-6.65-.5-4.3-.36-8.55-1.69-12.86-1.38-6.76.5-12.78,5.19-16,11.17C349.69,598.18,348.51,600,346.11,600.05Z" transform="translate(0 0)"/><path class="cls-14" d="M121.72,722.52a10.89,10.89,0,0,0,4.6.55c.11-1.27,1.82-1.55,3.09-1.49a3.59,3.59,0,0,1,1.82.4c.32.2.56.5.87.71a3.76,3.76,0,0,0,1.8.46l6.62.56c2.95.25,6,.48,8.78-.58a2.83,2.83,0,0,0,1.41-.94c.75-1.07,0-2.61-1-3.39s-2.37-1.14-3.41-1.94c-2.3-1.75-2.61-5-3.83-7.64a21.91,21.91,0,0,0-3.16-4.59,17.24,17.24,0,0,0-3.13-3.2c-2.65-1.92-5.71-1.88-8.82-2.15-2.2-.2-4.27-.33-5.85,1.62-2,2.42-1.17,7.3-1.05,10.19A73.08,73.08,0,0,0,121.72,722.52Z" transform="translate(0 0)"/><path class="cls-19" d="M121.72,722.52a10.89,10.89,0,0,0,4.6.55c.11-1.27,1.82-1.55,3.09-1.49a3.59,3.59,0,0,1,1.82.4c.32.2.56.5.87.71a3.76,3.76,0,0,0,1.8.46l6.62.56c2.95.25,6,.48,8.78-.58a2.83,2.83,0,0,0,1.41-.94c.75-1.07,0-2.61-1-3.39s-2.37-1.14-3.41-1.94c-2.3-1.75-2.61-5-3.83-7.64a21.91,21.91,0,0,0-3.16-4.59,17.24,17.24,0,0,0-3.13-3.2c-2.65-1.92-5.71-1.88-8.82-2.15-2.2-.2-4.27-.33-5.85,1.62-2,2.42-1.17,7.3-1.05,10.19A73.08,73.08,0,0,0,121.72,722.52Z" transform="translate(0 0)"/><path class="cls-15" d="M124.4,593.84c-2,.65-2.9,3.17-2.53,5.27s1.63,3.9,2.67,5.75c2.94,5.27,4.22,11.3,6.69,16.8,1.85,4.11,4.35,7.91,6.18,12s3,8.77,1.85,13.14c-.54,2.13-1.58,4.09-2.28,6.17a35.47,35.47,0,0,0-1.34,7,132.66,132.66,0,0,0-.48,24.16,7.41,7.41,0,0,0,.61,2.86c.41.8,1.13,1.64.78,2.47-.14.33-.44.57-.59.9-.42.92.43,1.88,1.2,2.53a2.08,2.08,0,0,1-1.3,1,3.07,3.07,0,0,1,1.31,3.42c-.69.1-.73,1.15-.29,1.7s1.11.9,1.42,1.52a2.13,2.13,0,0,1-1.17,2.68,5.44,5.44,0,0,1-3.19.24,34.84,34.84,0,0,1-5.34-1.17,4.7,4.7,0,0,1-1.64-.75,4.86,4.86,0,0,1-1.47-3.24,58.63,58.63,0,0,1-.37-10c.29-16.16,0-32.34-.7-48.49-.29-6.5-2.24-12.84-4.76-18.84a98,98,0,0,0-4.64-9c-3.62-6.66-6.84-14-6-21.55.09-.81.39-1.79,1.19-1.92a1.73,1.73,0,0,1,.92.15,43.23,43.23,0,0,1,4.85,2.68A18.39,18.39,0,0,0,124.4,593.84Z" transform="translate(0 0)"/><path class="cls-19" d="M124.4,593.84c-2,.65-2.9,3.17-2.53,5.27s1.63,3.9,2.67,5.75c2.94,5.27,4.22,11.3,6.69,16.8,1.85,4.11,4.35,7.91,6.18,12s3,8.77,1.85,13.14c-.54,2.13-1.58,4.09-2.28,6.17a35.47,35.47,0,0,0-1.34,7,132.66,132.66,0,0,0-.48,24.16,7.41,7.41,0,0,0,.61,2.86c.41.8,1.13,1.64.78,2.47-.14.33-.44.57-.59.9-.42.92.43,1.88,1.2,2.53a2.08,2.08,0,0,1-1.3,1,3.07,3.07,0,0,1,1.31,3.42c-.69.1-.73,1.15-.29,1.7s1.11.9,1.42,1.52a2.13,2.13,0,0,1-1.17,2.68,5.44,5.44,0,0,1-3.19.24,34.84,34.84,0,0,1-5.34-1.17,4.7,4.7,0,0,1-1.64-.75,4.86,4.86,0,0,1-1.47-3.24,58.63,58.63,0,0,1-.37-10c.29-16.16,0-32.34-.7-48.49-.29-6.5-2.24-12.84-4.76-18.84a98,98,0,0,0-4.64-9c-3.62-6.66-6.84-14-6-21.55.09-.81.39-1.79,1.19-1.92a1.73,1.73,0,0,1,.92.15,43.23,43.23,0,0,1,4.85,2.68A18.39,18.39,0,0,0,124.4,593.84Z" transform="translate(0 0)"/><path class="cls-15" d="M97.08,574.19a7.12,7.12,0,0,0-3.52-1.11,7.15,7.15,0,0,0-3.83,1.9,40.17,40.17,0,0,0-3.8,3.34,20.33,20.33,0,0,0-4.54,20.11c1.21,3.59,3.4,6.76,5.56,9.86l4.4,6.32c6.71,9.64,13.43,19.28,20.46,28.69a1.08,1.08,0,0,0,.76,1c.26.07.57.06.73.27a.8.8,0,0,1,.09.43,6.51,6.51,0,0,1-.39,2,1,1,0,0,0-.08.69c.22.53,1.19.23,1.49.73a.79.79,0,0,1-.32,1,1.16,1.16,0,0,0-.55,1c0,.41.72.79.69,1.29,0,.28-.24.49-.41.71a1.82,1.82,0,0,0,.22,2.31c.46,4.6-2,8.95-2.53,13.55-.79,7.23,2.48,14.29,2.88,21.55a5.7,5.7,0,0,0,.45,2.38c.68,1.25,2.42,2,2.36,3.43a12.67,12.67,0,0,1-.49,1.73,13.62,13.62,0,0,0,.26,2.47c0,.83-.7,1.82-1.47,1.5q.87,2.88,1.54,5.81l15.4,1.27a13.81,13.81,0,0,0-.14-4.16c-.32-1.48-1-2.87-1.34-4.35a5.11,5.11,0,0,1,.61-4.35,1.71,1.71,0,0,1-1.7-1.4,6.85,6.85,0,0,1,0-2.39c.41-4-1.28-8-1.23-12,.05-3.18,1.16-6.23,1.73-9.35,1.2-6.68-.05-13.93,2.92-20,1.8-3.68,4.29-7.76,2.27-11.32-1-1.76-2.75-3-3.89-4.62a18.92,18.92,0,0,1-2.09-5c-2.38-7.36-6.21-14.15-9.58-21.12a22.48,22.48,0,0,1-2.06-5.55,28.3,28.3,0,0,1-.25-5.12,78.48,78.48,0,0,0-.57-9.2,6.71,6.71,0,0,0-3.52-6C108.55,579.05,102.53,577.06,97.08,574.19Z" transform="translate(0 0)"/><path class="cls-14" d="M115.53,728.16a10.89,10.89,0,0,0,4.6.55c.12-1.27,1.82-1.55,3.09-1.49a3.5,3.5,0,0,1,1.77.41c.32.2.56.5.88.71a3.76,3.76,0,0,0,1.8.46l6.61.56c2.95.25,6,.48,8.79-.58a2.86,2.86,0,0,0,1.4-.94c.75-1.07,0-2.61-1-3.39s-2.37-1.14-3.42-1.94c-2.29-1.75-2.61-5-3.83-7.64a21.91,21.91,0,0,0-3.16-4.59,17.51,17.51,0,0,0-3.12-3.2c-2.66-1.92-5.71-1.88-8.82-2.15-2.21-.2-4.28-.33-5.85,1.62-2,2.42-1.18,7.3-1.06,10.19A74.4,74.4,0,0,0,115.53,728.16Z" transform="translate(0 0)"/><rect class="cls-9" x="199.03" y="612.17" width="78.03" height="78.03"/><path class="cls-21" d="M261.1,648.57c0,8.9-4.17,14.5-10.76,14.5-3.37,0-5.94-1.8-6.39-4.47h-.48a7,7,0,0,1-6.93,4.31c-5.86,0-9.77-4.7-9.77-11.69,0-6.71,3.94-11.38,9.69-11.38a7,7,0,0,1,6.57,3.93h.48v-3.34h4.79V656a2.79,2.79,0,0,0,2.43,3.09,2.72,2.72,0,0,0,.57,0c3.32,0,5.44-4,5.44-10.3,0-10-7.5-16.69-18.57-16.69s-18.75,8-18.75,19.28c0,11.55,7.72,18.93,19.74,18.93a36.68,36.68,0,0,0,6.53-.56,1.9,1.9,0,0,1,.8,3.71,33.39,33.39,0,0,1-7.52.82c-14.61,0-24-9-24-23,0-13.68,9.55-23.07,23.46-23.07C251.83,628.12,261.1,636.47,261.1,648.57ZM232,651.33c0,4.44,2.08,7.13,5.48,7.13,3.58,0,5.84-2.76,5.84-7.13s-2.26-7.07-5.78-7.07-5.54,2.62-5.54,7.07Z" transform="translate(0 0)"/><circle class="cls-16" cx="183.77" cy="532.28" r="15.25"/><path class="cls-16" d="M169.39,536.8c-2.19,1.89-5.32,2-8.19,2.32a51.26,51.26,0,0,0-17.62,5.1,6.34,6.34,0,0,0-2,1.4,5.85,5.85,0,0,0-1,2.18,14.4,14.4,0,0,0-.58,5.3,15.33,15.33,0,0,0,1.47,5,26.92,26.92,0,0,0,9.46,10.78,6.79,6.79,0,0,0,2.3,1.1c2,.42,4-.75,5.92-1.27a9.7,9.7,0,0,1,5.47.18c1.66.55,3.41,1.56,5,.89a5.19,5.19,0,0,0,2.28-2.59,87.89,87.89,0,0,0,4.16-9.11,34.52,34.52,0,0,1,1.51-3.54c1.77-3.37,4.83-6,6.35-9.46a2.1,2.1,0,0,0,.14-1.78,2.44,2.44,0,0,0-1.12-.86,26.85,26.85,0,0,1-6.09-4.78c-1-1-2.85-3.56-4.29-3.79S170.49,535.86,169.39,536.8Z" transform="translate(0 0)"/><path class="cls-22" d="M169.75,567.79c-1.77.85-3.85.47-5.77.07-4.94-1-9.93-2.08-14.5-4.22a7.75,7.75,0,0,1-3.56-2.73,8.72,8.72,0,0,1-1-3.42l-.84-5.67c-.29-2,.22-3.82.26-5.82a1.7,1.7,0,0,0-.33-1.27,1.39,1.39,0,0,0-1-.31c-2.29,0-3.67,2.43-5.28,4.06a9.65,9.65,0,0,1-3.24,2.18c-1.47.6-3.28,1-3.87,2.49-.25.61-.22,1.31-.47,1.92-1,2.44-5.4,1.63-6.51,4-.32.68-.3,1.54-.83,2.08s-1.5.52-2.3.66c-3.18.52-4.73,4.2-7.45,5.93-2.29,1.46-5.24,1.43-7.7,2.57a28.71,28.71,0,0,1-4,2,19,19,0,0,1-4.64.23.94.94,0,0,0-1.08,1.3A28.07,28.07,0,0,0,113,595.57a6.3,6.3,0,0,1,1.48.71c1.39,1,1.63,3.27,3.2,4a3.3,3.3,0,0,0,3.34-.72,28.92,28.92,0,0,0,2.41-2.66,9.54,9.54,0,0,1,5.37-2.82c1.89-.3,4-.08,5.53-1.24a17,17,0,0,0,1.74-1.86,11,11,0,0,1,4-2.36,40,40,0,0,1,12.5-2.64c4-.23,8.15.14,11.94-1.17a7,7,0,0,0,2.66-1.5,7.92,7.92,0,0,0,1.78-3.09A23.57,23.57,0,0,0,169.75,567.79Z" transform="translate(0 0)"/><path class="cls-14" d="M150.09,545.32c1.13-.1,2.26,0,3.39,0,1.33,0,2.64-.32,4-.33a9.86,9.86,0,0,1,9.3,7.08,1.79,1.79,0,0,1,.06,1,.71.71,0,0,1-.77.52,16.9,16.9,0,0,0-1.71-3.43,9.7,9.7,0,0,0-5.12-3.56,13.3,13.3,0,0,0-6.3-.23c-.86.16-1.71.39-2.56.63l-4.15,1.12c-.75.2-1.5.41-2.23.68-.56.2-1.53,1-2.08,1-.75,0-.14-.65.19-1.09a5.32,5.32,0,0,1,2.66-1.93A22.81,22.81,0,0,1,150.09,545.32Z" transform="translate(0 0)"/><path class="cls-16" d="M160.37,591.13c1,3.16,2,6.32,3.21,9.4a79.24,79.24,0,0,0,8.32,15.16,109.07,109.07,0,0,0,6.87,9c3.06,3.61,6.48,7.24,7.56,11.85.63,2.66.42,5.45.68,8.17s1.15,5.61,3.35,7.24a12.45,12.45,0,0,0,5.52,1.82c1.38.22,3.11.29,3.83-.91a3.47,3.47,0,0,0,.38-1.58l.33-4c.08-.86.38-2,1.24-2s1.3,1.11,2,1.62a2.17,2.17,0,0,0,2.94-.88l.06-.12a5.08,5.08,0,0,0,.08-3.5,16.61,16.61,0,0,0-8.51-10.58,25.3,25.3,0,0,1-4.16-2.17,13.92,13.92,0,0,1-3.27-4.12c-7.57-12.45-15.17-25-20.5-38.51a28.55,28.55,0,0,1-2.11-7.59,48.6,48.6,0,0,1,.33-8,45.92,45.92,0,0,0-1.29-14.3,11.18,11.18,0,0,0-1.37-3.47c-2.19-3.34-7.36-3.83-10.62-1.53a10.91,10.91,0,0,0-4.22,7.72c-.24,2.69,1.32,5.5,2.11,8Q156.75,579.51,160.37,591.13Z" transform="translate(0 0)"/><path class="cls-15" d="M206,521.5c.12-1.27-1-2.42-2.31-3.23a33.42,33.42,0,0,1-3.92-2.4c-1.16-1-1.79-2.31-2.95-3.31a13,13,0,0,0-4.4-2.19,33.35,33.35,0,0,0-10.52-1.89,18.57,18.57,0,0,0-10.07,2.66,5.89,5.89,0,0,0-1.71,1.59,6.86,6.86,0,0,0-.83,2.53,49.92,49.92,0,0,1-2.63,8c-1.13,2.88-2.34,5.86-5,8.08-2.85,2.38-7.22,3.75-9.1,6.62a2.13,2.13,0,0,0-.41,1.85c.27.72,1.14,1.21,1.93,1.67,4.63,2.66,8.62,6.1,10.68,10.22a11.85,11.85,0,0,1-.94,12.75c-1.07,1.4-2.55,3.06-1.5,4.47,1.59,2.14,7.08.92,8.34,3.18a4.54,4.54,0,0,1,.17,2.34c0,2.37,2.29,4.49,5.07,5.58a28.31,28.31,0,0,0,9.12,1.5,7.88,7.88,0,0,0,.23-5.9,2.3,2.3,0,0,1-.23-1.34,3.25,3.25,0,0,1,1-1.29c3.35-3.16,2.64-7.81.63-11.56s-5.13-7.19-6.29-11.14c-.58-2-.59-4.17,1-5.8a19.74,19.74,0,0,1,2.87-2.1,10.91,10.91,0,0,0,4-5c.93-2.6.79-5.73,3.53-7.45s6.29-1.16,9.18-2.27C203.23,526.74,205.78,523.35,206,521.5Z" transform="translate(0 0)"/><circle class="cls-18" cx="291.47" cy="526.89" r="16.63"/><path class="cls-18" d="M306.44,526.19a21.56,21.56,0,0,0,13.8,9.65L319,540.38c-2.16,7.82-4.6,16.1-10.64,21.52a10.05,10.05,0,0,0-1.69-7.78,29.76,29.76,0,0,0-5.64-5.9l-9.57-8.33a2.63,2.63,0,0,1-.72-.8,2.49,2.49,0,0,1,0-1.82c1.22-3.8,4.7-6.17,7.52-8.73a27,27,0,0,0,3.79-4.41C304,521.43,305.23,524.16,306.44,526.19Z" transform="translate(0 0)"/><path class="cls-23" d="M308.56,547.7a9,9,0,0,1-.49,3.67,2.58,2.58,0,0,1-3,1.54c.35-.79-.57-1.69-1.43-1.59a2.67,2.67,0,0,0-1.9,1.61,6,6,0,0,0-.55,3.72c.27,1.58,1.18,3.09.94,4.67-.19,1.31-1.16,2.62-.64,3.85a6.07,6.07,0,0,0,1.24,1.48,4.2,4.2,0,0,1-.45,5.76l13,.25c-.48,2.17.5,4.39,1.61,6.31a39.71,39.71,0,0,0,29.62,19.34,2.58,2.58,0,0,0-.92,3.53,3.08,3.08,0,0,0,.3.41c1.06,1,2.84.92,4.16.24a31.89,31.89,0,0,0,3.57-2.67,10.92,10.92,0,0,1,7.32-2c1.63.15,3.2.67,4.83.76,4.8.26,8.93-3.2,13.52-4.61,3.37-1,7.18-1,10-3.14,1.22-.9,2.22-2.38,1.86-3.86a6.31,6.31,0,0,0-1.4-2.26c-1.63-2.11-2.58-4.64-3.75-7a41.79,41.79,0,0,0-9.37-12.54,81.53,81.53,0,0,0-9.28-7,15.29,15.29,0,0,0-2.52-1.51,25,25,0,0,1-3.44-1.4c-1.53-1-2.4-2.65-3.57-4-2.57-3-6.52-4.37-9.69-6.73-2.12-1.58-4-3.66-6.53-4.43-1.23-.37-2.55-.4-3.78-.77-2.8-.85-4.84-3.34-7.59-4.34-2.17-.8-4.57-.59-6.87-.88a16,16,0,0,1-7.06-2.67,8.44,8.44,0,0,0-2.28-1.34c-3.47-1-3.75,5.42-4.08,7.66C309.42,541,308.56,544.33,308.56,547.7Z" transform="translate(0 0)"/><path class="cls-18" d="M312,569.41c.58,6.31-4.19,12.43-2.8,18.62.3,1.32.86,2.57,1.07,3.9.58,3.67-1.61,7.14-3.7,10.21l-18,26.34a16,16,0,0,1-2.56,3.17c-3.44,3.05-8.58,2.73-13.09,3.65a22.49,22.49,0,0,0-8.77,3.88.57.57,0,0,0-.11.78,7.54,7.54,0,0,0,6.52,3.06c.47.62,0,1.54-.65,2-1,.67-2.29.85-2.48,2.48a2.78,2.78,0,0,0,.32,1.65,5.11,5.11,0,0,0,3.15,2.18c6.21,1.9,12.92-1.44,17.57-6s8-10.27,12.56-14.9c2.53-2.56,5.4-4.75,8-7.23,5.19-5,9.23-11,13.13-17a18.93,18.93,0,0,0,2.84-5.79c.48-2,.26-4.23.82-6.26.72-2.67,2.67-4.8,4.3-7,3.19-4.39,5.31-9.75,4.89-15.16s-3.77-10.73-8.86-12.57a7.93,7.93,0,0,0-5-.3c-2.09.64-3.63,2.37-5.06,4l-3.41,3.94a9.5,9.5,0,0,0-2,3,3.15,3.15,0,0,0,.7,3.35" transform="translate(0 0)"/><path class="cls-24" d="M321,543.48c-2.36.14-5,.37-6.63,2a9.1,9.1,0,0,0-1.66,2.62c-1.62,3.29-3.2,6.74-3.31,10.41-.1,2.93.75,5.8,1.2,8.7.37,2.41-.57,4.87-.75,7.31a50,50,0,0,0,9.44-3.63,31.19,31.19,0,0,1,5.53-2.87c2.81-.94,7.55.67,10.21,2,.15-1.88-1.26-5.15-1.11-7a7.73,7.73,0,0,1,.42-2.33,14.15,14.15,0,0,1,1.41-2.25,9.21,9.21,0,0,0-.83-10.81c-2.37-2.67-6.09-3.67-9.64-4.09a42.16,42.16,0,0,0-6.74-.23" transform="translate(0 0)"/><path class="cls-15" d="M269.56,510.17l-.38-3.13c2.63.67,5.12-1.55,6.8-3.86s3.23-5,5.78-6c3.11-1.17,6.4.7,9.37,2.24A29.47,29.47,0,0,0,301.88,503a7.69,7.69,0,0,1,1.78.29c1.93.69,2.85,3.11,3.13,5.31s.2,4.54,1.15,6.5c.73,1.48,2,2.59,2.72,4,2,3.93.07,9.31,2.22,13.17l-5.33-4.88c-.49-.45-1.18-.92-1.71-.54s-.46,1-.64,1.47a2.79,2.79,0,0,1-3.68,1.43l-.11-.05a10.38,10.38,0,0,1-3.39-3.1,20.82,20.82,0,0,0-8.46-6.41,10.81,10.81,0,0,0-8.95.53c-2.49,1.41-4.31,4.68-7.36,4.79-4.18.16-5.92-7.62-7.85-10.69a3.78,3.78,0,0,0,1.1-4.72C266.79,510,269.5,509.69,269.56,510.17Z" transform="translate(0 0)"/><path class="cls-25" d="M718.46,793.5c-.81-3.43-1.3-6.43-1.3-6.43a13.33,13.33,0,0,0-1.49-6.53v-.94h0v-6.9a23.06,23.06,0,0,1,1.74-3.61c1.24-2.16,0-10.1,0-10.1s-4.6-11.19-3.49-18.29-9.44-31.53-9.44-31.53a31.28,31.28,0,0,1,1-7,5.13,5.13,0,0,0,.13-1.46v-.12c-.16-4.68-3.86-13.46-3.86-13.46l.5-16.72s2.36-9.87-1.49-23.11c-1.35-4.62-2.21-8.31-2.76-11.17-.06-.32-.12-.63-.17-.93,7.93-1.21,14-2.22,14-2.22s-4.6-19.25-7.71-22.62-5.59-14-5.59-14-1.62-13.6,1-17.57,3-10.83,3-10.83,6-4.33,6.71-6.26a31.71,31.71,0,0,0,2-8.54c0-2.29-.75-4.33-.5-5.54s-1.74-5.77-.74-7.94a5.78,5.78,0,0,0,.39-2.09v-.06h0a29.71,29.71,0,0,0-.53-5.65,16,16,0,0,0-5.9-3.16l-.13-.51-.34-1.35a4.36,4.36,0,0,0-.59-.35v-2.5l.93-4.4c1.84-7.63-8.36-8.77-8.36-8.77a5.41,5.41,0,0,0-2.89-2.54c-2-.72-.34,11.5.62,12.28.72.58,3,4.42,4,6.3h0l.18.31a3.63,3.63,0,0,0-.47.49l.39,2.65.06.41a10.74,10.74,0,0,0-1.63,2.77s1.87,2.05,1.49,4.34a13.74,13.74,0,0,0,.62,5.29c-.11-.13-1.42-1.55-2.73-1.2s-5,1.44-5,1.44-2.74.48-2.49,1.08-1.86,3.25-1.86,3.25l-7.35-7c-.08-.21-.15-.42-.22-.63a17,17,0,0,1-.63-3,15.94,15.94,0,0,0,2.34-.75,5,5,0,0,0,2-1.3,7.87,7.87,0,0,0,1.18-3.17c.58-2.14,1.83-4,2.73-6.08A19.78,19.78,0,0,0,687.23,515a7.19,7.19,0,0,0-1.12-3.2c-1.2-1.65-3.38-2.32-5-3.64s-2.6-3.32-4.45-4.31a8.77,8.77,0,0,0-5.58-.48,29.76,29.76,0,0,0-10.41,3.78c-1.08.64-2.25,1.37-3.49,1.15a4.69,4.69,0,0,1-2.51-1.84v-.11l-.09-.09a13.2,13.2,0,0,0-1.14,5.5v1.44h0a2.63,2.63,0,0,1-.06.39,2.74,2.74,0,0,1-.68,1,4.43,4.43,0,0,0-.6.82.88.88,0,0,1,.1-.3,4.34,4.34,0,0,0-.77,2.31,2.29,2.29,0,0,0,.56,1.66,7.6,7.6,0,0,0,1.19,1,14.12,14.12,0,0,0,6.71,14.57l.25.63a17.56,17.56,0,0,1,1.33,8,1.35,1.35,0,0,1-.09.59l-.26.3h0s-12.14.12-15-2.47-7.21,6.32-7.21,6.32-4.35.85-5.22,0-6-.12-6-.12a11,11,0,0,0-7.58-2.76,22,22,0,0,0-5.57-3.1h0l-.14,0h0a6.23,6.23,0,0,0-2.74-.34s-6-4.94-7.7-7.58-10-12.47-10.07-12.52v-.47l-.1-1.43a6,6,0,0,1-.74.07,1.74,1.74,0,0,0-.17-.5,27.42,27.42,0,0,0-1.76-4s0-1.8.53-2.25-.22-7.07-.22-7.07-5.38-12.57-10.19-3.19c0,0-9.11,6.07-1.47,13.15,0,0,3,1.47,3.48,2.64.29.76,1.32,2.89,2,4.3l.31.63-.09.07.12,1.18v.46c-1.44.81-2.41,1.62-2.18,2.24a13,13,0,0,1,.87,3.25s10.57,13.23,11.94,18.89c0,0,28.34,16.84,37.66,18L632.27,576a68.38,68.38,0,0,0-.37,6.86c.12,1.8-1.12,10-1.12,10s-1.62,12-3,13.71-1.12,8.91-1.12,8.91a60.22,60.22,0,0,1-1.86,10.22c-1.37,4.58-.37,10.23-.37,10.23s-4.73,10.83,6.59,3.49c0,0,5.55-.34,12-.56v3.29c-.08,6.2-.12,14.75.16,21.22.5,11.43,4,34,4,34V708.7a15.44,15.44,0,0,0-.32,3.25,21.09,21.09,0,0,0,3.06,11.38l.87,7.58s2,5,2.08,8a4.43,4.43,0,0,1-.09.72,5,5,0,0,0-.1,1.16c-.11,3.44,2,11.68,2,11.68s.13,8.3,1.37,8.78c1.06.41-1.42,4.79-2.16,6a2,2,0,0,1,0-.24l-.15.25a5.79,5.79,0,0,0-.39,2.1,3,3,0,0,0,1.38,2.92c2.36,1.45,3.63,2.65,1.63,3.13a20.27,20.27,0,0,0-2.19.46c0-.09-.08-.19-.11-.28a1.34,1.34,0,0,0-.78,1.39,6.14,6.14,0,0,0,.75,2.81,30,30,0,0,0,3.36,6.14l1-.11a4.92,4.92,0,0,1-.56,1,3.88,3.88,0,0,1-1.4,1.24,4.48,4.48,0,0,1-1.7.59,4.76,4.76,0,0,0-3.52,1.71c-1.24,1.6-2,3.79.43,5.71l8.89,3.06s15.29,2,14.48-1.44-1.3-6.43-1.3-6.43a13.61,13.61,0,0,0-1.25-6.09,5.11,5.11,0,0,0-.54-.9l.54-.06s1.12-7.58,2.61-9c.35-.33.43-.59.34-.79.16-.41-.23-.65-.73-.79l-.11.3a7.37,7.37,0,0,0-1.48-.16s-.5-4,1.11-5.42a1.52,1.52,0,0,0,.32-1.18,6.81,6.81,0,0,0-.17-1.62l-.06.1a57.52,57.52,0,0,0-3.57-9.33s-.12-3.61.87-5.06-.12-19.61-.12-19.61.37-8.78-.75-12.87,1.37-8.91,1.37-8.91v-.32s-.06-.54-.15-1.39v.09c-.25-2.33-.72-6.54-1.07-8.48-.5-2.77.12-16,.12-16l2.24-5.65,4,9.74,4.22,13a11,11,0,0,1,2.15,5.52v.41a6.32,6.32,0,0,0,0,.87,7.77,7.77,0,0,0,1.29,4.63s1.12,6.14,2.86,7.7,1.74,4.57,1.74,4.57,2.11,8.91,3.11,10.47c.84,1.32.88,4.94.87,6h0v.33s.29,3.18.28,5.86v.93a9.25,9.25,0,0,1-.26,2.16V750a22.1,22.1,0,0,0-.64,5.55c-.06,3.2.43,7,2.37,9.21,3.36,3.85,5.47,3.37,5.47,3.37S699,772.93,697,773.9l-.21.13a.56.56,0,0,0-.05-.28,2.33,2.33,0,0,0-.58,1.8,12.91,12.91,0,0,0,2.46,7.13,4,4,0,0,0,1.68,1l-.31.19a7.32,7.32,0,0,1-.69.33,3.21,3.21,0,0,1-1,.26,4.74,4.74,0,0,0-3.52,1.71c-1.24,1.6-2,3.79.43,5.71l8.89,3.06S719.23,797,718.46,793.5Z" transform="translate(0 0)"/><path class="cls-26" d="M660.06,799.18l-8.61-3.06c-2.37-1.92-1.61-4.11-.41-5.71a4.53,4.53,0,0,1,3.4-1.71,4.19,4.19,0,0,0,1.65-.59,3.85,3.85,0,0,0,1.36-1.24,6.34,6.34,0,0,0,1-3.33s9.45-2.76,12,0a7.15,7.15,0,0,1,1.15,1.68,14,14,0,0,1,1.2,6.09s.48,3,1.26,6.43S660.06,799.18,660.06,799.18Z" transform="translate(0 0)"/><path class="cls-26" d="M702.17,795l-8.6-3.06c-2.38-1.92-1.62-4.11-.42-5.7a4.53,4.53,0,0,1,3.41-1.72,3.14,3.14,0,0,0,1-.26,4.07,4.07,0,0,0,.66-.33c2.41-1.32,2.35-4.57,2.35-4.57s9.44-2.77,12,0a6.37,6.37,0,0,1,.9,1.23,13.73,13.73,0,0,1,1.45,6.54s.48,3,1.26,6.43S702.17,795,702.17,795Z" transform="translate(0 0)"/><path class="cls-4" d="M670.46,783.54a7.15,7.15,0,0,1,1.15,1.68h0l-14.16,1.64a6.34,6.34,0,0,0,1-3.33S667.88,780.78,670.46,783.54Z" transform="translate(0 0)"/><path class="cls-4" d="M713.48,780.53v2.65c-2.2,3.63-12.85,2.84-15.94,1a4.07,4.07,0,0,0,.66-.33c2.41-1.32,2.35-4.57,2.35-4.57s9.44-2.77,12,0A6.65,6.65,0,0,1,713.48,780.53Z" transform="translate(0 0)"/><path class="cls-15" d="M715.17,769.1a23.73,23.73,0,0,0-1.69,3.61v9.51c-2.4,4-14.92,2.65-16.6.48s-3.49-7.82-1.57-8.78,3.49-5.78,3.49-5.78-2,.48-5.29-3.37-2.28-12.39-1.68-14.44,0-8.9,0-8.9.12-4.81-.84-6.38-3-10.47-3-10.47,0-3-1.68-4.57-2.77-7.7-2.77-7.7a7.85,7.85,0,0,1-1.2-5.17c.36-3-2.05-6.26-2.05-6.26l-4.09-13-3.85-9.75-2.16,5.65s-.61,13.24-.12,16,1.2,10.1,1.2,10.1-2.41,4.82-1.32,8.91.72,12.87.72,12.87,1.08,18.17.12,19.62-.84,5-.84,5,4.93,10.59,3.36,12-1.08,5.42-1.08,5.42,3.37,0,1.93,1.44-2.53,9-2.53,9L657.06,786a31.15,31.15,0,0,1-3.26-6.14c-1.92-4.45.36-4,2.3-4.45s.71-1.68-1.58-3.13-1-4.69-1-4.69,3.49-5.9,2.29-6.38-1.33-8.78-1.33-8.78-2.4-9.87-1.8-12.51-1.93-9-1.93-9l-.84-7.58a20.85,20.85,0,0,1-2.6-14.34V697.27s-3.37-22.62-3.86-34c-.3-7.32-.22-17.31-.12-23.55.06-3.49.12-5.81.12-5.81l52-5.41a42.65,42.65,0,0,0,.95,7.72c.53,2.85,1.36,6.55,2.66,11.17,3.73,13.23,1.45,23.1,1.45,23.1L700,687.21s4.57,11.19,3.61,15a31.86,31.86,0,0,0-1,7s10.23,24.43,9.15,31.53S715.17,759,715.17,759,716.37,767,715.17,769.1Z" transform="translate(0 0)"/><path class="cls-19" d="M685.45,706.42l15.78-2.11S692.31,713.45,685.45,706.42Z" transform="translate(0 0)"/><path class="cls-4" d="M699,688.85s.55,5.59-2.88,7.7C696.1,696.55,702.23,695.59,699,688.85Z" transform="translate(0 0)"/><path class="cls-4" d="M698,671s-13.22,10.89-18,10S698,671,698,671Z" transform="translate(0 0)"/><path class="cls-4" d="M665.83,711.53s-10,2.29-10.34,6.32S665.83,711.53,665.83,711.53Z" transform="translate(0 0)"/><path class="cls-19" d="M668,761.7s-14.19,2.65-10.16,4.46a68.46,68.46,0,0,0,10.65,3.24S673.1,769.64,668,761.7Z" transform="translate(0 0)"/><g class="cls-27"><path d="M655,769a2.82,2.82,0,0,1-1.3-2.06l-.14.26s-1.33,3.24,1,4.69c.26.16.51.33.74.49.42-.08.88-.14,1.31-.25C658.52,771.67,657.3,770.46,655,769Z" transform="translate(0 0)"/><path d="M673.3,768.06c.39-.36.37-1.29.14-2.48a6.73,6.73,0,0,0-.81,3.49A2.63,2.63,0,0,1,673.3,768.06Z" transform="translate(0 0)"/><path d="M671.11,708.2a16.77,16.77,0,0,0-1,4.42,16.85,16.85,0,0,1,1.1-3A8.93,8.93,0,0,0,671.11,708.2Z" transform="translate(0 0)"/><path d="M703.62,701.88a5.85,5.85,0,0,0,.13-1.32c-.18.9-.3,1.74-.39,2.47C703.44,702.65,703.52,702.27,703.62,701.88Z" transform="translate(0 0)"/><path d="M670.77,751a7.56,7.56,0,0,0,.36-2.67,8.87,8.87,0,0,0-.69,3.37A3,3,0,0,1,670.77,751Z" transform="translate(0 0)"/><path d="M673.75,773.66a49.29,49.29,0,0,0-1.65,7.39l-14.55,1.69a30.1,30.1,0,0,1-3.26-6.14,10.53,10.53,0,0,1-.41-1.06c-.87.4-1.22,1.3-.07,4a29.79,29.79,0,0,0,3.26,6.13L671.61,784s1.09-7.58,2.53-9C674.85,774.21,674.4,773.85,673.75,773.66Z" transform="translate(0 0)"/><path d="M654.53,752.05s.12,8.31,1.32,8.79h0c.61-1.37,1-2.67.47-2.89-1.2-.48-1.32-8.78-1.32-8.78s-2.41-9.87-1.8-12.52-1.93-9-1.93-9l-.84-7.58a20.92,20.92,0,0,1-2.65-14.32V694.06s-3.37-22.62-3.85-34c-.31-7.32-.22-17.31-.12-23.55v-3h-.41s-.06,2.31-.12,5.81c-.1,6.23-.19,16.23.12,23.55.48,11.43,3.85,34,3.85,34v11.67A20.82,20.82,0,0,0,650,723l.84,7.58s2.53,6.37,1.92,9S654.53,752.05,654.53,752.05Z" transform="translate(0 0)"/><path d="M697.36,779.49a14,14,0,0,1-2.3-5.72c-1.49,1.34.22,6.55,1.82,8.61s14.2,3.49,16.61-.49V779.6C710.23,782.83,699,781.54,697.36,779.49Z" transform="translate(0 0)"/><path d="M715.65,765.89A23.69,23.69,0,0,0,714,769.5v1.69c.27-.62.66-1.44,1.2-2.41a7.16,7.16,0,0,0,.53-3Z" transform="translate(0 0)"/><path d="M698.1,767.79a23,23,0,0,0,1.19-2.86s-2,.48-5.3-3.37c-2.36-2.8-2.49-8.09-2.16-11.55-.6,2-1.57,10.59,1.68,14.44C695.64,767,697.23,767.63,698.1,767.79Z" transform="translate(0 0)"/><path d="M691.83,741.11a65.25,65.25,0,0,1,.24,7.13c.08-.47.17-.85.24-1.12.61-2,0-8.9,0-8.9s.12-4.82-.84-6.38-3-10.47-3-10.47,0-3-1.68-4.57-2.77-7.7-2.77-7.7a7.86,7.86,0,0,1-1.21-5.17c.37-3-2-6.26-2-6.26l-4.09-13-3.9-9.69-2.17,5.65s0,.71-.07,1.83l1.76-4.59,3.85,9.74,4.09,13s2.4,3.25,2,6.25a7.91,7.91,0,0,0,1.25,5.12s1.08,6.13,2.76,7.7,1.69,4.57,1.69,4.57,2,8.9,3,10.47S691.83,741.11,691.83,741.11Z" transform="translate(0 0)"/></g><path class="cls-28" d="M701.93,519.73l-.9,4.4.05,2v1.44l-5,.52-.56-1h0c-1-1.88-3.2-5.71-3.9-6.3-.93-.78-2.58-13-.6-12.27a5.26,5.26,0,0,1,2.8,2.53S703.71,512.09,701.93,519.73Z" transform="translate(0 0)"/><path class="cls-4" d="M701.12,527.52l-5,.52-.56-1h0a4.41,4.41,0,0,1,5.54-.91Z" transform="translate(0 0)"/><path class="cls-29" d="M702.38,529.9l-6.61,1.54-.14-1-.38-2.65a4.55,4.55,0,0,1,6.37-.91l0,0,.33,1.35Z" transform="translate(0 0)"/><path class="cls-28" d="M595.14,520.21l-7.06,3.8-.64-1.34c-.68-1.41-1.68-3.53-2-4.29-.42-1.17-3.37-2.65-3.37-2.65-7.4-7.07,1.41-13.14,1.41-13.14,4.67-9.39,9.87,3.18,9.87,3.18s.72,6.63.21,7.07-.51,2.26-.51,2.26a27.65,27.65,0,0,1,1.71,4C595,519.8,595.14,520.21,595.14,520.21Z" transform="translate(0 0)"/><path class="cls-4" d="M595.14,520.21l-7.06,3.8-.64-1.34c1-.83,4.53-3.7,5.69-3.57a7.86,7.86,0,0,0,1.68,0C595,519.8,595.14,520.21,595.14,520.21Z" transform="translate(0 0)"/><path class="cls-29" d="M595.86,522.35l-7.94,3.91-.16-1.71-.11-1.17s4.6-4,6-3.8a7.25,7.25,0,0,0,2.08,0l.09,1.43Z" transform="translate(0 0)"/><path class="cls-28" d="M682.68,548.91s-34.63,3.91-28.16,1.81c4.51-1.47,6.3-4.33,6.68-7.51a18.39,18.39,0,0,0-1.29-8,34.73,34.73,0,0,0-3.1-6.26s26.47-14.56,21.18-1.32a20.82,20.82,0,0,0-1.5,6.27,17.65,17.65,0,0,0,.67,6.34A18.83,18.83,0,0,0,682.68,548.91Z" transform="translate(0 0)"/><path class="cls-4" d="M678,527.62a20.82,20.82,0,0,0-1.5,6.27c-2.5,2.09-5.23,2-8.74,2-2.7,0-5.69.66-7.84-.64a34.73,34.73,0,0,0-3.1-6.26S683.28,514.38,678,527.62Z" transform="translate(0 0)"/><circle class="cls-28" cx="667.28" cy="522.45" r="14.32"/><path class="cls-4" d="M682.68,548.91s-34.63,3.91-28.16,1.81c4.51-1.47,6.3-4.33,6.68-7.51,1.72-1.87,5.18-3.22,7.41-3.93a10.33,10.33,0,0,1,6.27-.1,8.29,8.29,0,0,1,2.28,1A18.88,18.88,0,0,0,682.68,548.91Z" transform="translate(0 0)"/><path class="cls-4" d="M702.38,529.9l-6.61,1.54-.14-1a5.83,5.83,0,0,1,6.36-2.18Z" transform="translate(0 0)"/><path class="cls-4" d="M595.86,522.35l-7.94,3.91-.16-1.71a58.24,58.24,0,0,1,8-3.54Z" transform="translate(0 0)"/><path class="cls-4" d="M696.38,636.17c-13.41,2.11-32.5,4.87-35.53,4-2.51-.77-10.53-.69-17.52-.45.06-3.49.12-5.81.12-5.81l52-5.41A43.54,43.54,0,0,0,696.38,636.17Z" transform="translate(0 0)"/><path class="cls-20" d="M709.75,633s-44.16,7.58-48.9,6.13-29.07.13-29.07.13c-10.95,7.33-6.37-3.49-6.37-3.49s-1-5.66.36-10.23a63.33,63.33,0,0,0,1.8-10.23s-.24-7.22,1.08-8.9,2.89-13.72,2.89-13.72,1.21-8.18,1.09-10,.36-6.85.36-6.85l1.56-8.43c-9-1.2-36.46-18-36.46-18-1.32-5.65-11.55-18.89-11.55-18.89a14.13,14.13,0,0,0-.84-3.25c-.72-1.92,10.11-5.77,10.11-5.77s8.06,9.87,9.74,12.51,7.46,7.58,7.46,7.58a5.83,5.83,0,0,1,2.65.35h.14a21.18,21.18,0,0,1,5.38,3.09,10.43,10.43,0,0,1,7.34,2.77s4.94-.72,5.78.12,5,0,5,0,4.22-8.9,7-6.32S660.81,544,660.81,544c1.57-2.08,5.37-3.57,7.76-4.34a10.33,10.33,0,0,1,6.27-.1,7.92,7.92,0,0,1,2.48,1.2l7.12,7s2-2.65,1.81-3.25,2.41-1.08,2.41-1.08,3.49-1.08,4.81-1.45,2.54,1.08,2.64,1.2a14.13,14.13,0,0,1-.6-5.29,6,6,0,0,0-1.44-4.33c4.25-10.28,13.76-1.58,13.76-1.58s1.08,5.65.12,7.82,1,6.74.72,7.94.48,3.25.48,5.53a33,33,0,0,1-1.92,8.55c-.73,1.92-6.5,6.25-6.5,6.25s-.36,6.86-2.89,10.83-1,17.57-1,17.57,2.4,10.59,5.41,14S709.75,633,709.75,633Z" transform="translate(0 0)"/><path class="cls-4" d="M645.38,553.85s-1.32-4-2.53-4.34a27.93,27.93,0,0,1-3.49-1.56l.78-1.48s4.52,1.24,5.24,2.56S645.38,553.85,645.38,553.85Z" transform="translate(0 0)"/><path class="cls-4" d="M621.23,545.06c-.24,1.21-10.94,2.29-10.94,2.29l5.41-5.43h0l.14.05h0A21.24,21.24,0,0,1,621.23,545.06Z" transform="translate(0 0)"/><circle class="cls-30" cx="590.21" cy="528.55" r="0.96"/><circle class="cls-30" cx="591.44" cy="530.48" r="0.96"/><circle class="cls-30" cx="592.65" cy="532.25" r="0.96"/><circle class="cls-30" cx="593.91" cy="534.18" r="0.96"/><circle class="cls-30" cx="707.33" cy="534.07" r="0.78"/><circle class="cls-30" cx="707.45" cy="535.85" r="0.78"/><circle class="cls-30" cx="707.55" cy="537.62" r="0.78"/><path class="cls-4" d="M645.44,586.45c-.11-.14,27,34.11,48.07,14.32C693.51,600.77,660.23,605.28,645.44,586.45Z" transform="translate(0 0)"/><path class="cls-4" d="M629.86,604.26s16.23.44,17.93,5.11v4.86a3.13,3.13,0,0,1-3,0c-1.64-.88-11.45-5.87-14.91-3.47Z" transform="translate(0 0)"/><path class="cls-20" d="M630.16,604.26s15.52.42,17.15,4.87v4.64a3,3,0,0,1-2.89,0c-1.57-.85-11-5.6-14.26-3.31Z" transform="translate(0 0)"/><path class="cls-4" d="M638.72,569A52.19,52.19,0,0,0,645,579.77a42.24,42.24,0,0,0,9.86,9.52S639,571.25,638.72,569Z" transform="translate(0 0)"/><path class="cls-4" d="M633.41,550.16s2.71,11.69,9.68,15.66Z" transform="translate(0 0)"/><path class="cls-4" d="M629.23,551.34c-.07-.22-2.41,9.24,9,14.48C638.23,565.82,633.41,564.18,629.23,551.34Z" transform="translate(0 0)"/><path class="cls-4" d="M700.13,543.5c-.18,0,5.62,3.7,7.2,5.41C707.33,548.91,703.56,543.26,700.13,543.5Z" transform="translate(0 0)"/><path class="cls-26" d="M663.41,535.42a3.06,3.06,0,0,0,1.11,1.94,3.13,3.13,0,0,0,1.35.3c4.37.27,8.91.46,13-1.22a4.78,4.78,0,0,0,2-1.31,7.7,7.7,0,0,0,1.06-3.15c.57-2.14,1.78-4,2.65-6.08A20.42,20.42,0,0,0,686,515a7.31,7.31,0,0,0-1.09-3.2c-1.16-1.65-3.27-2.32-4.8-3.64s-2.52-3.33-4.3-4.32a8.36,8.36,0,0,0-5.4-.48,28.53,28.53,0,0,0-10.08,3.79c-1,.64-2.18,1.37-3.37,1.15a4.65,4.65,0,0,1-2.48-1.9,13.32,13.32,0,0,0-1.07,6.23,3,3,0,0,1,0,.94,2.84,2.84,0,0,1-.67,1c-1.08,1.25-1.75,3.23-.69,4.49.47.55,1.18.85,1.63,1.41.81,1,.53,2.45.51,3.74a2,2,0,0,0,.32,1.27,1.85,1.85,0,0,0,1.77.42,5,5,0,0,1,1.88-.18,3.16,3.16,0,0,1,1.64,1.26C661.77,529.52,662.56,532.33,663.41,535.42Z" transform="translate(0 0)"/><g class="cls-31"><path d="M681.23,534a4.7,4.7,0,0,1-2,1.3c-4,1.69-8.58,1.49-12.94,1.22a2.87,2.87,0,0,1-1.35-.3,3,3,0,0,1-1.12-1.93c-.85-3.09-1.63-5.91-3.65-8.47a3.16,3.16,0,0,0-1.64-1.26,5,5,0,0,0-1.88.18,1.85,1.85,0,0,1-1.77-.42,1.89,1.89,0,0,1-.31-1.27c0-1.29.29-2.74-.52-3.74-.45-.56-1.16-.86-1.63-1.41a2.82,2.82,0,0,1-.27-2.88c-.77,1.22-1.1,2.78-.21,3.84.47.55,1.18.85,1.63,1.41.81,1,.53,2.45.51,3.74a2,2,0,0,0,.32,1.27,1.85,1.85,0,0,0,1.77.42,5,5,0,0,1,1.88-.18,3.16,3.16,0,0,1,1.64,1.26c2,2.57,2.8,5.38,3.65,8.47a3.06,3.06,0,0,0,1.11,1.94,3.13,3.13,0,0,0,1.35.3c4.37.27,8.91.46,13-1.22a5,5,0,0,0,2-1.31,3.93,3.93,0,0,0,.62-1.16A.72.72,0,0,1,681.23,534Z" transform="translate(0 0)"/><path d="M653.41,513.17a2,2,0,0,0,.44-.73,3,3,0,0,0,0-.94,13.2,13.2,0,0,1,.67-5.18l-.08-.09a13.2,13.2,0,0,0-1.07,6.23A4.23,4.23,0,0,1,653.41,513.17Z" transform="translate(0 0)"/></g><path class="cls-4" d="M660.85,544.1s17.89,2.37,19.5-.32" transform="translate(0 0)"/><path class="cls-4" d="M695.63,536.7s9.93,0,12.12,3.74" transform="translate(0 0)"/></svg>