<?xml version="1.0" encoding="utf-8"?>
<!-- Generator: Adobe Illustrator 23.0.3, SVG Export Plug-In . SVG Version: 6.00 Build 0)  -->
<svg version="1.1" id="a43d10d1-6f42-4979-a223-53a772319644"
	 xmlns="http://www.w3.org/2000/svg" xmlns:xlink="http://www.w3.org/1999/xlink" x="0px" y="0px" viewBox="0 0 879.5 581.4"
	 style="enable-background:new 0 0 879.5 581.4;" xml:space="preserve">
<style type="text/css">
	.st0{fill:#464646;}
	.st1{fill:#9D80C2;}
	.st2{fill:#DB8B8B;}
	.st3{fill:#DDDD8C;}
	.st4{fill:#E6E8EC;}
	.st5{fill:#008096;}
	.st6{opacity:0.3;fill:#FFFFFF;enable-background:new    ;}
	.st7{fill:#FFFFFF;}
	.st8{fill:#FFB8B8;}
	.st9{fill:#222B2B;}
	.st10{fill:#F2F2F2;}
</style>
<title>mobile_application</title>
<path class="st0" d="M643,581.4c-24.3-3.8-47.7-7-70.1-9.7l8.6-17.3c-3-1-16,9-16,9l11-50c-15,2-22,53-22,53l-17-17l8.4,19.2
	c-68.7-7.2-127.9-9.5-177.8-9l7.4-14.8c-3-1-16,9-16,9l11-50c-15,2-22,53-22,53l-17-17l8.9,20.4c-34.1,1-68.2,3.7-102,8.2
	c7.4-23,33.2-45.1,33.2-45.1c-19.8,6.2-30.1,16.2-35.5,25.5c-1.1-47.2,6.2-94.3,21.5-139c0,0-40,90-34,150l0.8,10.7
	c-34.8,5.4-52.3,10.8-52.3,10.8H643z"/>
<path class="st1" d="M734.7,457.5c-6.6,0-12-5.4-12-12s5.4-12,12-12s12,5.4,12,12C746.7,452.1,741.3,457.5,734.7,457.5z
	 M734.7,435.5c-5.5,0-10,4.5-10,10s4.5,10,10,10s10-4.5,10-10C744.7,440,740.2,435.5,734.7,435.5z"/>
<path class="st2" d="M830.5,579.8h-19.7V560h19.7V579.8z M812.3,578.3H829v-16.7h-16.7V578.3z"/>
<path class="st3" d="M162.1,580.9l-13.5-14.4l14.4-13.5l13.5,14.4L162.1,580.9z M150.8,566.5l11.4,12.2l12.2-11.4L163,555.1
	L150.8,566.5z"/>
<rect x="21.7" y="578.7" class="st0" width="857.8" height="2"/>
<path class="st0" d="M553.5,133.8v65.7c0,1.3-1,2.3-2.3,2.3h-1.6v342.2c0,19.7-16,35.7-35.7,35.7H300.1c-19.7,0-35.7-16-35.7-35.7
	c0,0,0,0,0,0V213.7h-1.2c-0.9,0-1.6-0.7-1.6-1.6v-37.4c0-0.9,0.7-1.6,1.6-1.6c0,0,0,0,0,0h1.2V159h-1.2c-0.9,0-1.7-0.8-1.7-1.7
	v-36.9c0-0.9,0.8-1.7,1.7-1.7h1.2V99.6h-1.2c-0.8,0-1.5-0.7-1.5-1.5c0,0,0,0,0,0V77.9c0-0.8,0.7-1.5,1.5-1.5h1.2V35.7
	c0-19.7,16-35.7,35.7-35.7h213.8c19.7,0,35.7,16,35.7,35.7v95.8h1.6C552.4,131.5,553.5,132.5,553.5,133.8z"/>
<path class="st4" d="M382.5,18.3h34.7c1.4,0,2.5,1.1,2.5,2.5v3c0,1.4-1.1,2.5-2.5,2.5h-34.7c-1.4,0-2.5-1.1-2.5-2.5v-3
	C380,19.4,381.1,18.3,382.5,18.3z"/>
<circle class="st4" cx="430.4" cy="22.4" r="4.6"/>
<path class="st5" d="M532.5,42.8v504.1c0,6.6-2.9,12.9-8,17.2c-4.1,3.5-9.3,5.4-14.7,5.4H305.2c-3.6,0-7.2-0.9-10.5-2.5
	c-0.8-0.4-1.5-0.8-2.2-1.3c-6.2-4.2-10-11.3-10-18.8V42.8c0-12.5,10.1-22.6,22.6-22.6c0,0,0,0,0,0h30.6V24
	c0,10.3,8.3,18.6,18.6,18.6h104.1c10.3,0,18.6-8.3,18.7-18.6v-3.9h32.6C522.3,20.1,532.5,30.2,532.5,42.8
	C532.5,42.7,532.5,42.7,532.5,42.8z"/>
<path class="st6" d="M532.5,474.7v72.2c0,6.6-2.9,12.9-8,17.2c-4.1,3.5-9.3,5.4-14.7,5.4H305.2c-3.6,0-7.2-0.9-10.5-2.5
	c-0.8-0.4-1.5-0.8-2.2-1.3c-6.2-4.2-10-11.3-10-18.8v-72.1C353.6,410.8,461.4,410.8,532.5,474.7z"/>
<path class="st6" d="M520.3,566.9c-3.2,1.7-6.8,2.6-10.5,2.6H305.2c-3.6,0-7.2-0.9-10.5-2.5c25.9-62.3,97.4-91.8,159.7-65.9
	C484.2,513.4,507.9,537.1,520.3,566.9L520.3,566.9z"/>
<path class="st7" d="M459.5,215.3c-20.5,0-43.1-3.9-60.6-17.1c-24.5-18.4-54.7-17.4-75.7-13.3c-13.9,2.7-27.5,7.2-40.3,13.4
	l-0.9-1.8c12.9-6.3,26.6-10.8,40.8-13.6c21.4-4.1,52.2-5.1,77.3,13.7c47,35.2,131.2,3.6,132,3.3l0.7,1.9
	c-15.8,5.6-32.1,9.6-48.7,11.9C476,214.7,467.8,215.2,459.5,215.3z"/>
<path class="st6" d="M282.5,197.4c0,0,69-16.7,117,6.2s133-0.2,133-0.2"/>
<path class="st6" d="M347.6,223.3c-8.3,0-16.6-0.9-24.8-2.5c-14.1-2.8-27.8-7.3-40.8-13.6l0.9-1.8c12.8,6.2,26.3,10.7,40.3,13.4
	c21,4.1,51.2,5,75.7-13.3c25.1-18.8,60.2-18.7,85.2-15.4c16.6,2.3,32.9,6.2,48.7,11.9l-0.7,1.9c-0.8-0.3-85-32-132,3.3
	C383.6,219.5,364.7,223.3,347.6,223.3z"/>
<path class="st6" d="M348,215.3c-34.6,0-65.4-12.4-65.9-12.6l0.8-1.8c0.7,0.3,69.1,27.9,116.1,0.1c47.8-28.3,132.9-3,133.8-2.8
	l-0.6,1.9c-0.8-0.3-85.1-25.3-132.2,2.6C383.9,212.1,365.5,215.3,348,215.3z"/>
<path class="st6" d="M282.5,200.2c0,0,69,22.9,117,0s133-2.2,133-2.2"/>
<path class="st8" d="M550.3,261.4v29.2c0,0,2.3,32.7,15.2,49c0,0,21,29.7,23.9,23.3l-3.6-21.1l-12.2-11.5l-6.4-36.1l-1.7-32.7H550.3
	z"/>
<polygon class="st8" points="679.1,524.9 679.1,546.5 661.6,552.9 661.6,527.9 "/>
<polygon class="st8" points="643.6,522.6 655.2,548.8 638.9,555.8 635.4,530.2 "/>
<path class="st9" d="M672.7,321.5c0,0,23.3,210.5,14.6,211.1s-25.7,11.7-25.7,4.1s-13.4-106.1-13.4-106.1l-12.8-50.7v70l13.4,79.3
	c0,0-12.8,16.9-22.2,7l-19.8-77.5c0,0-26.2-117.8-25.1-127.1C581.8,331.4,641.8,280.1,672.7,321.5z"/>
<path class="st9" d="M668,547.7c0,0,4.7-9.9,15.2-3.5l8.7,10.5c0,0,22.5,18.7,6.5,22.7c-16.5,4.1-26.4-0.3-26.4-0.3
	s-2.9-1.7-5.2-1.7s-7.6-4.1-7.6-5.2s1.7-21.8,1.7-21.8c1.4-0.7,3-0.4,4.1,0.6C666.9,550.6,668,547.7,668,547.7z"/>
<path class="st9" d="M633.6,544.2c0,0,11.1-8.7,16.3,1.2c0,0,3.3,1.2,3.7,0s3.3-1.7,3.3,4.7s3.2,22.4,0.3,23s-5.8,2.3-5.2,4.7
	s-3.2,2.7-16.6,2.1s-14-5.8-14-5.8s0-7.6,3.5-11.7S633.6,544.2,633.6,544.2z"/>
<path class="st8" d="M612.1,162.3c0,0-2.9,21.6,15.7,29.2s-41.4,32.7-47.2,18.1s1.2-19.2,1.2-19.2s5.8-5.8,0.6-21.6L612.1,162.3z"/>
<circle class="st8" cx="593.4" cy="151.8" r="25.7"/>
<path class="st10" d="M623.2,198.4c0,0-17.5,9.3-34.4,2.3s-16.3,23.3-16.3,23.3l8.7,22.7l60.6-5.8l-4.1-35L623.2,198.4z"/>
<path class="st0" d="M614.5,178.5c6.3,1.3,11.6,5.5,14.5,11.2l28,8.7l7,9.9l-8.2,71.7c0,0,15.2,14.6,15.2,22.7s18.7,36.1,9.3,32.7
	c-9.3-3.5-26.2-15.7-26.2-15.7s-42.6,1.7-56,13.4c-13.4,11.7-18.7,8.2-18.7,8.2s-14-60.6-14.6-70S547.9,206,547.9,206l29.2-16.3
	l7.4-8.4l20.6,32.9l18.7-22.7C623.7,191.4,614.5,184.2,614.5,178.5z"/>
<path class="st8" d="M672.7,253.2l3.5,18.7c0,0,15.7,58.3,13.4,78.1c0,0,1.7,44.3-8.2,39.1s-4.7-37.3-4.7-37.3l-14-57.7l-7.6-33.8
	L672.7,253.2z"/>
<path class="st0" d="M658.1,204.8l5.8,3.5c0,0,22.2,46.1,16.9,49.6c-5.2,3.5-28,11.1-28,11.1L658.1,204.8z"/>
<polygon class="st0" points="561.9,206 548.2,205.7 545,211.3 549.1,267.8 570.1,272.5 "/>
<path class="st9" d="M614.3,130.1l4.6-1.7c0,0-9.7-9.7-23.1-8.8l3.8-3.8c0,0-9.2-3.4-17.7,5.5c-4.4,4.6-9.5,10.1-12.7,16.2h-5
	l2.1,4.1l-7.2,4.1l7.4-0.7c-0.7,3.6-0.5,7.3,0.7,10.7l1.7,4.6c0,0,6.7-13.5,6.7-15.1v4.2c0,0,4.6-3.8,4.6-6.3l2.5,2.9l1.3-4.6
	l15.6,4.6l-2.5-3.8l9.7,1.3l-3.8-4.6c0,0,10.9,5.5,11.4,10.1s3.3,10.7,3.3,10.7l3.5-4.1C621.1,155.6,626.5,136.4,614.3,130.1z"/>
<ellipse class="st8" cx="615" cy="152.1" rx="2" ry="5.2"/>
<path class="st0" d="M41.6,547c12.4,23,38.8,32.9,38.8,32.9s6.2-27.5-6.2-50.5s-38.8-32.9-38.8-32.9S29.2,524,41.6,547z"/>
<path class="st5" d="M50.2,539.4c22.4,13.5,31.1,40.3,31.1,40.3s-27.7,4.9-50.2-8.6S0,530.9,0,530.9S27.7,525.9,50.2,539.4z"/>
<path class="st6" d="M282.5,197.4c0,0,69-36,117,0s133,3.4,133,3.4"/>
</svg>
