<svg 
    id="a6ee8617-cc99-4eb9-a93b-e1a7e83c9724" 
    xmlns="http://www.w3.org/2000/svg" 
    viewBox="0 0 639.4 647"
>
    <defs>
        <style>
            .cls-1{opacity:0.1;isolation:isolate;}
            .cls-2{fill:#074768;}
            .cls-3{fill:#008fd5;}
            .cls-4{fill:#333333;}
            .cls-5{fill:#a0616a;}
            .cls-6{fill:#0b5775;}
        </style>
    </defs>
    
    <title>right</title>
    
    <path 
        class="cls-1" 
        d="M662.9,362.62h40v-40h-40Zm200.8-40h-40v40h40Zm-120.4,40h40v-40h-40Z" 
        transform="translate(-224.3 -125.62)"
    />
    
    <polygon 
        class="cls-1" 
        points="384.4 327.1 285.9 229 384.3 130.9 354.3 101 226 229 354.4 357 384.4 327.1"
    />
    
    <path 
        class="cls-2" 
        d="M640.3,698.62c0,16.57-93.12,74-208,74s-208-57.43-208-74,93.12,14,208,14S640.3,682.05,640.3,698.62Z" 
        transform="translate(-224.3 -125.62)"
    />
    
    <path 
        class="cls-1" 
        d="M640.3,698.62c0,16.57-93.12,74-208,74s-208-57.43-208-74,93.12,14,208,14S640.3,682.05,640.3,698.62Z" 
        transform="translate(-224.3 -125.62)"
    />
    
    <ellipse 
        class="cls-2" 
        cx="208" 
        cy="573" 
        rx="208" 
        ry="30"
    />
    
    <path 
        class="cls-3" 
        d="M662.9,343.62h40v-40h-40Zm200.8-40h-40v40h40Zm-120.4,40h40v-40h-40Z" 
        transform="translate(-224.3 -125.62)"
    />
    
    <ellipse 
        class="cls-4" 
        cx="206.21" 
        cy="32.55" 
        rx="33.66" 
        ry="26.25"
    />
    
    <path 
        class="cls-5" 
        d="M436.23,338.9s30.29,2,35.67-2,28.28,5.39,30.3,10.77-32.32,6.06-37.7,6.06-31,8.08-31,8.08Z" 
        transform="translate(-224.3 -125.62)"
    />
    
    <path 
        class="cls-4" 
        d="M373.85,652.46s-14.11,35.6-6.75,39.9,84.7,1.23,84.7,1.23,12.89-8-1.84-13.51c0,0-12.27-.61-20.25-5.52s-17.19-14.12-17.19-14.12-.61-13.5-5.52-10.43a12.64,12.64,0,0,0-5.53,8.59Z" 
        transform="translate(-224.3 -125.62)"
    />
    
    <path 
        class="cls-1" 
        d="M373.85,652.46s-14.11,35.6-6.75,39.9,84.7,1.23,84.7,1.23,12.89-8-1.84-13.51c0,0-12.27-.61-20.25-5.52s-17.19-14.12-17.19-14.12-.61-13.5-5.52-10.43a12.64,12.64,0,0,0-5.53,8.59Z" 
        transform="translate(-224.3 -125.62)"
    />
    
    <polygon 
        class="cls-3" 
        points="384.4 308.1 285.9 210 384.3 111.9 354.3 82 226 210 354.4 338 384.4 308.1"
    />
    
    <path 
        class="cls-4" 
        d="M352.09,663.35s-15.49,39-7.41,43.76,92.89,1.35,92.89,1.35,14.14-8.76-2-14.81c0,0-13.46-.68-22.21-6.06s-18.85-15.48-18.85-15.48-.67-14.81-6.06-11.45a13.86,13.86,0,0,0-6.05,9.43Z" 
        transform="translate(-224.3 -125.62)"
    />
    
    <path 
        class="cls-4" 
        d="M431.52,415.64l-9.43,84.82s-3.36,40.38-13.46,49.13c0,0,0,12.79-3.37,16.83l-4.71,53.18s6.73,19.52,6.06,22.89,2.69,14.13,2,15.48-32.31,0-32.31,0l6.73-108.38,20.87-150.78Z" 
        transform="translate(-224.3 -125.62)"
    />
    
    <path 
        class="cls-1" 
        d="M431.52,415.64l-9.43,84.82s-3.36,40.38-13.46,49.13c0,0,0,12.79-3.37,16.83l-4.71,53.18s6.73,19.52,6.06,22.89,2.69,14.13,2,15.48-32.31,0-32.31,0l6.73-108.38,20.87-150.78Z" 
        transform="translate(-224.3 -125.62)"
    />
    
    <path 
        class="cls-4" 
        d="M414.69,413s-7.41,69.33-10.77,84.14a190.74,190.74,0,0,0-4,29.62s-.68,21.54-6.73,27.6a18.15,18.15,0,0,0-5.39,13.46s-6.06,68-2.69,76.06,6.73,14.81,3.36,20.2-40.38,5.38-40.38,1.34,0-7.4-2-9.42,0-14.81,0-14.81-8.08-59.91-.68-77.41,10.77-65.29,10.77-65.29-5.38-54.53-12.11-63.28,1.34-39.71,1.34-39.71Z" 
        transform="translate(-224.3 -125.62)"
    />
    
    <path 
        class="cls-5" 
        d="M395.74,197.64c.78,1.78,2.65,2.77,4.36,3.71,9.88,5.45,18.15,13.34,26.3,21.14a30.87,30.87,0,0,1,1.23-20.88c1-2.25,2.25-4.68,1.55-7-.51-1.73-2-3-3.41-4.08a105,105,0,0,0-10.41-7.11c-2.52-1.5-7.7-5.52-10.6-5.08-.15,3.91-.23,7.4-1.94,11.05C402.41,190.23,396,198.32,395.74,197.64Z" 
        transform="translate(-224.3 -125.62)"
    />
    
    <circle 
        class="cls-5" 
        cx="205.87" 
        cy="53.08" 
        r="27.6"
    />
    
    <path 
        class="cls-6" 
        d="M431.52,244s4.71-23.56-8.76-31.64-28.94-17.5-28.94-17.5-4.71-.67-6.73,9.42c0,0-38.37,7.41-42.41,43.76s2.69,89.53,2.69,89.53-6.05,46.44-13.46,71.35c0,0-6.06,5.38,20.87-2.69s74,22.88,74,22.88,4.72-4.71,4.72-8.07,5.38-22.89,5.38-22.89,4.71-82.8,6.73-92.22S437.57,245.34,431.52,244Z" 
        transform="translate(-224.3 -125.62)"
    />
    
    <path 
        class="cls-4" 
        d="M423.66,181.54a11.43,11.43,0,0,1,5.42-1.44,10.24,10.24,0,0,0,5.35-1.6c2.61-2,2.8-5.87,4.71-8.54,2.76-3.88,8.27-4.35,13-4.15,2.91.12,6,.29,8.49-1.28s3.65-4.66,4.5-7.52c1-3.39,1.65-7.54-.83-10-1.73-1.74-4.45-2.09-6.37-3.62s-2.8-4.18-3.88-6.48a17.45,17.45,0,0,0-5.64-7.06c-3.61-2.51-8.23-3.08-12.63-3s-8.82.63-13.19.09c-3.58-.45-7.15-1.64-10.71-1.11-4.55.67-8.31,4.1-10.55,8.12s-3.2,8.59-4.13,13.09l-2.54,12.24c-.78,3.79-1.57,7.69-1,11.52C395,178.65,402,185,402.47,193a13.68,13.68,0,0,1,8.35-9.92,2.61,2.61,0,0,1,1.7-.2c.69.22,1.1.92,1.54,1.5,1.15,1.53,4.78,3.86,6.83,2.77C422.73,186.16,421.36,183.11,423.66,181.54Z" 
        transform="translate(-224.3 -125.62)"
    />
    
    <path 
        class="cls-5" 
        d="M354.1,307.26s-4.71,29.62,14.81,26.93c0,0,10.1-1.35,11.45,0s51.16-7.4,57.89-14.81c0,0,8.07-2.69,12.11,1.35s44.43,8.08,32.31-4-31-14.81-31-14.81l-25.58,1.35s-13.46,4-21.54,0-31-2.7-31-2.7Z" 
        transform="translate(-224.3 -125.62)"
    />
    
    <path 
        class="cls-6" 
        d="M381.7,213.7s-30.29,3.36-30.29,47.12v55.87s16.83-7.41,20.2-6.73,16.82-8.75,16.82-8.75,15.49-36.35,14.14-46.45S401.9,215,381.7,213.7Z" 
        transform="translate(-224.3 -125.62)"
    />
    
    <ellipse 
        class="cls-4" 
        cx="205.87" 
        cy="35.91" 
        rx="25.92" 
        ry="13.46"
    />
    
    <ellipse 
        class="cls-4" 
        cx="181.64" 
        cy="38.27" 
        rx="9.09" 
        ry="22.55"
    />
    
</svg>