<?xml version="1.0" encoding="utf-8"?>
<!-- Generator: Adobe Illustrator 23.0.3, SVG Export Plug-In . SVG Version: 6.00 Build 0)  -->
<svg version="1.1" id="f2059cf3-5beb-4c16-b86e-a491cbb2d73f"
	 xmlns="http://www.w3.org/2000/svg" xmlns:xlink="http://www.w3.org/1999/xlink" x="0px" y="0px" viewBox="0 0 1096.5 806"
	 style="enable-background:new 0 0 1096.5 806;" xml:space="preserve">
<style type="text/css">
	.st0{opacity:0.25;fill:#585959;}
	.st1{fill:#464646;}
	.st2{opacity:0.75;fill:#333333;}
	.st3{fill:#008FD5;}
	.st4{fill:#074768;}
	.st5{fill:#0775A0;}
	.st6{fill:#FFD037;}
	.st7{opacity:0.75;fill:#595959;}
	.st8{opacity:0.2;enable-background:new    ;}
	.st9{opacity:0.3;fill:#3A3768;enable-background:new    ;}
	.st10{fill:#FFFFFF;}
	.st11{fill:#9D80C2;}
	.st12{fill:#DDDD8C;}
	.st13{fill:#D69763;}
	.st14{fill:#8BD8A1;}
	.st15{fill:#464353;}
	.st16{fill:#A1616A;}
	.st17{fill:#3A281A;}
	.st18{fill:#AD2344;}
	.st19{fill:#0F0E19;}
	.st20{opacity:0.1;enable-background:new    ;}
	.st21{fill:#FBBEBE;}
	.st22{opacity:5.000000e-02;enable-background:new    ;}
	.st23{fill:#3F3D56;}
	.st24{fill:#26253D;}
	.st25{fill:#2F2C4C;}
	.st26{opacity:5.000000e-02;fill:#010102;enable-background:new    ;}
	.st27{fill:#644A66;}
	.st28{fill:#FF15AC;}
	.st29{fill:#056D96;}
	.st30{fill:#A8945D;}
	.st31{fill:url(#SVGID_1_);}
	.st32{fill:#2D293D;}
	.st33{opacity:5.000000e-02;}
	.st34{fill:#FFCDD3;}
	.st35{fill:#DCE6F2;}
	.st36{fill:#575988;}
	.st37{opacity:0.1;}
</style>
<title>mobile-building</title>
<path class="st0" d="M641.8,111.4c-64.7-2.3-126.4-23.1-185.2-46S339.4,17.2,276.2,5.1c-40.6-7.8-87-8.9-119.8,12.9
	c-31.5,21-41.7,57.2-47.2,90.7c-4.1,25.3-6.5,51.9,4.7,75.5c7.8,16.4,21.7,30.2,31.4,46c33.5,54.7,9.8,122.2-26.4,175.6
	c-17,25.1-36.8,49-49.9,75.7s-19.2,57.2-7.7,84.5c11.4,27,38.5,47.2,67.9,61.5c59.7,28.9,130,37.2,198.6,41.9
	c151.8,10.4,304.5,5.9,456.7,1.4c56.3-1.7,112.9-3.4,168.3-12.1c30.8-4.8,62.5-12.5,84.9-31c28.4-23.5,35.4-63.4,16.4-92.9
	c-31.9-49.5-120-61.8-142.3-114.9c-12.3-29.2,0.3-61.8,18.2-88.9c38.2-58.2,102.3-109.2,105.7-175.7c2.3-45.7-28.5-91.4-76.1-113
	c-49.9-22.7-119.2-19.8-156,17.6C765.6,98.5,699,113.4,641.8,111.4z"/>
<path class="st1" d="M710.6,248.8h4.3c1.3,0,2.3,1,2.3,2.3v68.4c0,1.3-1,2.3-2.3,2.3h-4.3c-1.3,0-2.3-1-2.3-2.3v-68.4
	C708.3,249.8,709.4,248.8,710.6,248.8z"/>
<path class="st1" d="M416.2,191.6h0.4c1.3,0,2.3,1,2.3,2.3v19.5c0,1.3-1,2.3-2.3,2.3h-0.4c-1.3,0-2.3-1-2.3-2.3v-19.5
	C413.9,192.6,414.9,191.6,416.2,191.6z"/>
<path class="st1" d="M416,235.6h1c1.3,0,2.3,1,2.3,2.3v37.3c0,1.3-1,2.3-2.3,2.3h-1c-1.3,0-2.3-1-2.3-2.3v-37.3
	C413.7,236.6,414.7,235.6,416,235.6z"/>
<path class="st1" d="M416.1,292.1h0.7c1.3,0,2.3,1,2.3,2.3V332c0,1.3-1,2.3-2.3,2.3h-0.7c-1.3,0-2.3-1-2.3-2.3v-37.6
	C413.8,293.1,414.8,292.1,416.1,292.1z"/>
<path class="st1" d="M455.7,112.1h218.4c21.5,0,39,17.5,39,39v524.4c0,21.5-17.5,39-39,39H455.7c-21.5,0-39-17.5-39-39V151.1
	C416.7,129.6,434.2,112.1,455.7,112.1z"/>
<path class="st1" d="M540.2,130.1h33.7c2.1,0,3.9,1.7,3.9,3.9v0.7c0,2.1-1.7,3.9-3.9,3.9h-33.7c-2.1,0-3.9-1.7-3.9-3.9V134
	C536.3,131.9,538,130.1,540.2,130.1z"/>
<circle class="st1" cx="588.7" cy="134.3" r="4.8"/>
<ellipse class="st2" cx="238" cy="728.4" rx="200" ry="20.4"/>
<ellipse class="st2" cx="682.7" cy="796.4" rx="93.7" ry="9.5"/>
<ellipse class="st2" cx="1002.8" cy="748.3" rx="93.7" ry="9.5"/>
<path class="st3" d="M671.2,127.8h-33.9v4.1c0,10.7-8.6,19.4-19.3,19.4H509.8c-10.7,0-19.4-8.7-19.4-19.4l0,0l0,0v-4.1h-31.8
	c-13,0-23.5,10.5-23.5,23.5l0,0l0,0v523.9c0,13,10.5,23.5,23.5,23.5l0,0h212.7c13,0,23.5-10.5,23.5-23.5V151.4
	C694.8,138.4,684.2,127.8,671.2,127.8z"/>
<path class="st3" d="M815.7,85.7c0,0-84.2-5.1-74.3,53.9c0,0-2,10.4,7.5,15.2c0,0,0.2-4.4,8.6-2.9c3,0.5,6.1,0.7,9.2,0.4
	c4.1-0.3,8.1-1.9,11.2-4.6l0,0c0,0,23.7-9.8,32.9-48.5c0,0,6.8-8.4,6.5-10.6l-14.2,6.1c0,0,4.8,10.3,1,18.8c0,0-0.5-18.4-3.2-18
	c-0.6,0.1-7.4,3.6-7.4,3.6s8.4,17.8,2,30.8c0,0,2.4-22-4.7-29.5l-10,5.8c0,0,9.8,18.4,3.2,33.5c0,0,1.7-23.1-5.3-32.1l-9.1,7.1
	c0,0,9.2,18.2,3.6,30.6c0,0-0.7-26.9-5.5-28.9c0,0-7.9,7-9.1,9.9c0,0,6.3,13.2,2.4,20.2c0,0-2.4-17.9-4.3-18c0,0-7.9,11.9-8.7,20
	c0,0,0.3-12.1,6.8-21.1c0,0-7.6,1.3-12.1,6.3c0,0,1.2-8.4,14-9.1c0,0,6.5-9,8.3-9.5c0,0-12.8-1.1-20.5,2.4c0,0,6.8-7.9,22.8-4.3
	l8.9-7.3c0,0-16.8-2.3-23.9,0.2c0,0,8.2-7,26.3-1.9l9.7-5.8c0,0-14.3-3.1-22.8-2c0,0,9-4.8,25.7,0.4l7-3.1c0,0-10.5-2.1-13.6-2.4
	s-3.2-1.2-3.2-1.2c6.7-1.1,13.6-0.3,19.8,2.3C801.2,92.2,816,86.6,815.7,85.7z"/>
<path class="st3" d="M729.4,59.5c0,0-38-2.3-33.6,24.4c0,0-0.9,4.7,3.4,6.8c0,0,0.1-2,3.9-1.3c1.4,0.2,2.8,0.3,4.1,0.2
	c1.9-0.1,3.6-0.9,5.1-2.1l0,0c0,0,10.7-4.4,14.8-21.9c0,0,3.1-3.8,3-4.8l-6.4,2.7c0,0,2.2,4.6,0.5,8.5c0,0-0.2-8.3-1.4-8.1
	c-0.3,0-3.3,1.6-3.3,1.6s3.8,8.1,0.9,13.9c0,0,1.1-9.9-2.1-13.3l-4.5,2.6c0,0,4.4,8.3,1.4,15.1c0,0,0.8-10.4-2.4-14.5l-4.1,3.2
	c0,0,4.2,8.2,1.6,13.8c0,0-0.3-12.1-2.5-13.1c0,0-3.6,3.2-4.1,4.5c0,0,2.8,6,1.1,9.1c0,0-1.1-8.1-2-8.1c0,0-3.6,5.4-3.9,9
	c0.2-3.4,1.2-6.7,3.1-9.5c-2.1,0.4-4,1.4-5.5,2.8c0,0,0.5-3.8,6.3-4.1c0,0,3-4.1,3.7-4.3c0,0-5.8-0.5-9.3,1.1c0,0,3.1-3.6,10.3-2
	l4-3.3c0,0-7.6-1-10.8,0.1c0,0,3.7-3.2,11.9-0.9L717,65c0,0-6.5-1.4-10.3-0.9c0,0,4.1-2.2,11.6,0.2l3.2-1.4c0,0-4.7-0.9-6.1-1.1
	s-1.5-0.5-1.5-0.5c3-0.5,6.1-0.2,8.9,1C722.8,62.3,729.5,59.9,729.4,59.5z"/>
<ellipse class="st4" cx="40.2" cy="678.6" rx="40.2" ry="6.8"/>
<path class="st3" d="M56.8,667.4c1.8-1.5,3.2-3.5,3.8-5.8c0.5-2.3-0.5-5-2.7-5.9c-2.5-1-5.1,0.8-7.1,2.5s-4.3,3.7-6.9,3.3
	c2.7-2.5,3.9-6.2,3.2-9.8c-0.1-0.7-0.4-1.4-0.9-2c-1.4-1.5-3.8-0.8-5.5,0.3c-5.2,3.7-6.7,10.7-6.7,17.1c-0.5-2.3-0.1-4.7-0.1-7
	s-0.7-5-2.6-6.2c-1.2-0.7-2.6-1-4-1c-2.3-0.1-4.9,0.2-6.5,1.9c-2,2.1-1.5,5.7,0.3,8s4.4,3.8,6.8,5.4c1.9,1.2,3.6,2.7,4.8,4.6
	c0.1,0.3,0.3,0.5,0.4,0.8h14.6C51.1,672,54.1,669.9,56.8,667.4z"/>
<path class="st5" d="M830.6,583.5c0,0,8.7,11.3-4,28.4s-23.1,31.5-18.8,42.2c0,0,19.1-31.7,34.6-32.2S847.7,602.6,830.6,583.5z"/>
<path class="st4" d="M830.6,583.5c0.8,1.1,1.3,2.3,1.8,3.5c15.2,17.8,23.2,34.4,8.7,34.8c-13.6,0.4-29.8,24.7-33.7,30.8
	c0.1,0.5,0.3,0.9,0.5,1.4c0,0,19.1-31.7,34.6-32.2S847.7,602.6,830.6,583.5z"/>
<path class="st6" d="M846.7,598c0,4-0.5,7.2-1,7.2s-1-3.2-1-7.2s0.6-2.1,1.1-2.1S846.7,594,846.7,598z"/>
<path class="st6" d="M852.2,602.7c-3.5,1.9-6.5,3.1-6.8,2.6s2.4-2.4,5.9-4.3s2.1-0.5,2.4,0S855.7,600.8,852.2,602.7z"/>
<path class="st5" d="M784.9,583.5c0,0-8.7,11.3,4,28.4s23.1,31.5,18.9,42.2c0,0-19.1-31.7-34.6-32.2S767.8,602.6,784.9,583.5z"/>
<path class="st4" d="M784.9,583.5c-0.8,1.1-1.4,2.3-1.8,3.5c-15.2,17.8-23.2,34.4-8.7,34.8c13.6,0.4,29.8,24.7,33.7,30.8
	c-0.1,0.5-0.3,0.9-0.5,1.4c0,0-19.1-31.7-34.6-32.2S767.8,602.6,784.9,583.5z"/>
<path class="st6" d="M768.8,598c0,4,0.5,7.2,1,7.2s1-3.2,1-7.2s-0.6-2.1-1.1-2.1S768.8,594,768.8,598z"/>
<path class="st6" d="M763.2,602.7c3.5,1.9,6.5,3.1,6.8,2.6s-2.3-2.4-5.8-4.3s-2.1-0.5-2.4,0S759.8,600.8,763.2,602.7z"/>
<path class="st7" d="M771.5,652.6c0,0,24.2-0.8,31.5-5.9s37.2-11.4,39-3.1s36.3,41.4,9,41.6s-63.5-4.3-70.7-8.7
	S771.5,652.6,771.5,652.6z"/>
<path class="st8" d="M851.6,682.3c-27.3,0.2-63.5-4.3-70.7-8.7c-5.5-3.4-7.8-15.5-8.5-21.1h-0.8c0,0,1.5,19.5,8.8,23.9
	s43.4,8.9,70.7,8.7c7.9-0.1,10.6-2.9,10.5-7C860.4,680.7,857.4,682.3,851.6,682.3z"/>
<rect x="584.5" y="487.9" class="st9" width="78" height="78"/>
<rect x="469.5" y="384.9" class="st9" width="78" height="78"/>
<rect x="477" y="589.1" class="st9" width="78" height="78"/>
<rect x="459.6" y="193.3" class="st10" width="78" height="78"/>
<path class="st3" d="M513.8,218.8l-2.8,2.8c3.8,3.8,3.8,10,0,13.8l0,0l0,0l2.8,2.8C519.1,232.8,519.1,224.1,513.8,218.8z"/>
<path class="st11" d="M519.3,213.4l-2.7,2.7c6.8,6.8,6.8,17.8,0,24.6l2.7,2.7C527.6,235.2,527.6,221.7,519.3,213.4L519.3,213.4z
	 M506.3,223.7v-12.5h-3.9l-11.5,9.6h-15.4l-3.8,1.9v13.4l3.8,1.9l9.6,15.4h5.8l-3.6-15.4h3.6l11.5,7.7h3.9v-12.5
	c2.6-0.6,4.3-3.2,3.7-5.9C509.7,225.5,508.2,224.1,506.3,223.7L506.3,223.7z"/>
<rect x="605.1" y="475.8" transform="matrix(0.7415 -0.6709 0.6709 0.7415 -178.9117 565.2271)" class="st10" width="78" height="78"/>
<path class="st3" d="M621.6,504.1l5.7-5.1l31,34.2l-5.7,5.2L621.6,504.1z M634.9,536.1l5.7-5.2l9,10l-5.7,5.2L634.9,536.1z
	 M646.9,515l5.7-5.2l14.2,15.7l-5.7,5.2L646.9,515z M647.7,498.7l5.7-5.2l21.9,24.2l-5.7,5.2L647.7,498.7z"/>
<rect x="583.2" y="287.3" class="st10" width="78" height="78"/>
<path class="st12" d="M637.1,317l-10.5,16c1.9,2.5,1.4,6.1-1.1,8s-6.1,1.4-8-1.1c-0.7-0.9-1.1-2.1-1.2-3.3c0-0.4,0-0.7,0.1-1.1
	l-6.9-4c-1.8,1.8-4.6,2.1-6.8,0.9l-7.4,6.9v6.9c0,2.8,2.3,5.1,5.1,5.1H644c2.8,0,5.1-2.3,5.1-5.1v-25.5l-7-4.7
	c-1,0.8-2.3,1.2-3.5,1.2C638.1,317.2,637.6,317.1,637.1,317L637.1,317z"/>
<path class="st13" d="M605.6,321.6c3.2,0,5.8,2.6,5.8,5.7l0,0l0,0c0,0.3,0,0.5,0,0.8l7.2,4c1-0.8,2.3-1.3,3.7-1.3
	c0.4,0,0.8,0,1.2,0.1l10.5-16.3c-1.8-2.6-1.2-6.2,1.4-8c2.6-1.8,6.2-1.2,8,1.4c0.7,1,1.1,2.1,1.1,3.3c0,0.5-0.1,0.9-0.2,1.4l5,3.3
	v-9.6c0-2.8-2.3-5.1-5.1-5.1h-43.6c-2.8,0-5.1,2.3-5.1,5.1V334l4.8-4.6c-0.2-0.6-0.4-1.3-0.4-2C599.8,324.2,602.4,321.6,605.6,321.6
	z"/>
<rect x="484.6" y="374.3" class="st10" width="78" height="78"/>
<path class="st14" d="M547.2,388.5l-48,26c-0.5,0.3-0.7,0.9-0.4,1.4l0,0c0.1,0.2,0.3,0.3,0.5,0.4l8.2,3.1c0.5,0.2,0.9,0.5,1.1,1
	l6.4,13.1c0.1,0.6,1.2,0.7,1.2,0.1l-1-10.8c0.1-0.8,0.4-1.6,0.9-2.2l24.9-24.4c0.1-0.1,0.4-0.2,0.5-0.2c0.3,0.1,0.5,0.4,0.4,0.7
	c0,0.1-0.1,0.2-0.1,0.2l-21.5,26.2c-0.5,0.6-0.7,1.4-0.8,2.2l-1.3,9.4c0.1,0.8,0.7,1.1,1.3,0.4l4.6-5.4c0.3-0.4,0.9-0.5,1.4-0.2
	l11.9,8.7c0.5,0.3,1.1,0.2,1.4-0.3c0.1-0.1,0.1-0.2,0.1-0.3l9.8-48c0.1-0.5-0.3-1.1-0.8-1.2l0,0
	C547.5,388.3,547.3,388.4,547.2,388.5L547.2,388.5z"/>
<path class="st3" d="M971.8,732.6c4.5,0.6,9.3,1,13.6-0.5c0.7-0.2,1.4-0.7,1.3-1.4c-0.1-0.2-0.2-0.5-0.3-0.7c-1.6-2.5-3-5.1-4.1-7.8
	c0-0.1-0.1-0.3-0.3-0.3c-0.1-0.1-0.3-0.1-0.4,0c-2,0.5-3.7,1.8-5.7,2.4c-1,0.3-2.1,0.4-3.1,0.2c-0.9-0.1-2.1-0.8-3-0.8
	C970.3,726.8,971.5,729.6,971.8,732.6z"/>
<path class="st3" d="M1057.8,725c3-2,6.1-4.2,7.9-7.4c0.1-0.2,0.2-0.4,0.2-0.6c0-0.2-0.1-0.4-0.3-0.6c-1.7-2.7-3.9-5-6.4-6.9
	c-1.3,0.9-2.5,2-3.6,3.3c-0.8,0.8-2.8,2.1-2.8,3.3c0,0.7,0.8,1.5,1.2,2c0.5,0.7,1,1.5,1.4,2.3C1055.6,720.7,1058,724.9,1057.8,725z"
	/>
<path class="st7" d="M989.6,741.8c0.1,0.7-0.1,1.4-0.5,2c-0.3,0.3-0.7,0.5-1.2,0.7c-6.4,2.3-13.7-0.6-20,1.7
	c-1.3,0.5-2.5,1.1-3.8,1.6c-1.6,0.5-3.2,0.8-4.8,0.8c-2.3,0.2-4.5,0.3-6.8,0.4c-1.7,0.1-3.4,0-5.1-0.4c-1.7-0.4-3.1-1.6-3.9-3.1
	c-0.3-0.7-0.4-1.5-0.2-2.2c0.1-0.3,0.2-0.5,0.4-0.7c0.4-0.5,0.9-0.9,1.5-1.2l2.3-1.5c1.1-0.8,2.3-1.4,3.5-1.9
	c0.9-0.3,1.9-0.4,2.8-0.7c3.3-1,5.8-3.6,8.1-6.1l3.2-3.4c0.3-0.4,0.7-0.7,1.1-0.9c0.4-0.2,0.9-0.2,1.4-0.1c3.1,0.2,6.1,1.2,8.7,2.9
	c0.7,0.5,1.4,0.9,2.1,1.3c2,0.6,4.2,0.3,6-0.8c0.8-0.4,0.6-0.7,1-1.5s1.2-1.3,1.9-0.6c0.2,0.2,0.4,0.5,0.5,0.9
	c0.7,2.3,0.4,4.7,0.4,7.1c0,0.4,0,0.7,0.1,1.1c0.2,0.4,0.4,0.7,0.6,1c0,0.1,0.1,0.2,0.1,0.3C989.7,739.5,989.8,740.6,989.6,741.8z"
	/>
<path class="st15" d="M989.6,741.8c0.1,0.7-0.1,1.4-0.5,2c-0.3,0.3-0.7,0.5-1.2,0.7c-6.4,2.3-13.7-0.6-20,1.7
	c-1.3,0.5-2.5,1.1-3.8,1.6c-1.6,0.5-3.2,0.8-4.8,0.8c-2.3,0.2-4.5,0.3-6.8,0.4c-1.7,0.1-3.4,0-5.1-0.4c-1.7-0.4-3.1-1.6-3.9-3.1
	c-0.3-0.7-0.4-1.5-0.2-2.2c0.1-0.3,0.2-0.5,0.4-0.7c0.4,0.8,0.7,1.8,0.9,2.2c0.6,1.1,1.7,1.9,3,2.2c0.9,0,1.8-0.1,2.7-0.3
	c5.8-1.4,11.9-1.5,17.4-3.6c1.8-0.9,3.7-1.6,5.7-2.2c2-0.3,4.1-0.5,6.2-0.5c3.3-0.3,6.4-1.2,9.6-1.8
	C989.7,739.5,989.8,740.6,989.6,741.8z"/>
<path class="st7" d="M1072.3,724.6c-0.3,2.4-1.8,4.5-3.5,6.3c-1.8,1.6-3.4,3.4-4.9,5.4c-1.7,2.5-2.4,5.6-4.5,7.8
	c-0.8,0.8-1.7,1.5-2.7,2c-1.1,0.7-2.3,1.2-3.5,1.6c-3.2,1-6.6,0.8-10,0.5c-1.1,0-2.2-0.2-3.2-0.6c-0.5-0.2-0.9-0.5-1.3-0.8
	c-0.8-0.5-1.5-1.2-2-2.1c-0.2-0.5-0.3-1-0.2-1.5c0.2-0.6,0.5-1.1,1-1.5c0.8-0.8,1.6-1.5,2.4-2.2c1.2-0.8,2.2-1.7,3.1-2.8
	c0.6-0.8,1-1.8,1.2-2.8c0.5-1.7,0.8-3.5,0.9-5.3c0-1.2,0.1-2.4,0.4-3.5c0.5-1.8,1.8-3.4,1.7-5.3c-0.1-0.3,0-0.5,0.1-0.8
	c0.2-0.2,0.4-0.3,0.6-0.4c1.1-0.4,2.2-0.7,3.3-0.8c1.1-0.1,2.2,0.4,3,1.2c0.5,0.6,0.8,1.3,1.5,1.6c0.3,0.1,0.7,0.1,1,0
	c1.7-0.2,3.5-0.4,4.8-1.5c1.2-1.1,2-2.7,2-4.4c0-0.6-0.3-1.3,0.7-1.4c0.7-0.1,1.3,0.7,1.7,1.2c1.5,1.7,2.6,3.7,3.2,5.8
	c0.2-0.1,0.4-0.1,0.6-0.1c0.9,0,1.7,0.4,2.2,1.1C1072.2,722.4,1072.5,723.5,1072.3,724.6z"/>
<path class="st15" d="M1072.3,724.6c-0.3,2.4-1.8,4.5-3.5,6.3c-1.8,1.6-3.4,3.4-4.9,5.4c-1.7,2.5-2.4,5.6-4.5,7.8
	c-0.8,0.8-1.7,1.5-2.7,2c-1.1,0.7-2.3,1.2-3.5,1.6c-3.2,1-6.6,0.8-10,0.5c-1.1,0-2.2-0.2-3.2-0.6c-0.5-0.2-0.9-0.5-1.3-0.8
	c-0.8-0.5-1.5-1.2-2-2.1c0.6-0.3,1.3-0.5,2.1-0.5c1.5,0.1,2.6,1.5,4,1.9c2,0.6,4-0.8,6.1-1.3c1.3-0.3,2.8-0.2,4.1-0.7
	c1.1-0.4,2.1-1,3-1.8c1.2-0.9,2.3-1.9,3.2-3.1c0.8-1.2,1.4-2.4,1.9-3.8c1.1-2.5,2.4-5,3.8-7.3c0.2-0.4,0.5-0.7,0.8-1s0.7-0.5,1-0.8
	c1.4-1,1.9-2.8,2.4-4.4c0.1-0.5,0.3-1,0.5-1.5c0.9,0,1.7,0.4,2.2,1.1C1072.2,722.5,1072.4,723.6,1072.3,724.6z"/>
<path class="st16" d="M928.6,511c1.7,1.3,3.1,2.9,4.1,4.8c1,1.9,6.5,16.5,6.2,18.6c1.8-1.8,8.9-2.1,10.7-3.9
	c0.8-0.8,4.9-4.6,5.5-5.4s5.2-2.8,5.7-3.7c1.9-3.3-13.3-16-11.3-19.4c0.2-0.2,0.2-0.6,0-0.9c0,0,0,0-0.1-0.1c-1.3-1.2-2.8-2.2-4.4-3
	c-1.6-0.9-2.8-2.3-3.3-4c-1.4,0.7-2.7,1.5-3.9,2.6c-2.8,2.4-5.5,4.8-8.2,7.3c-1.1,1-3.1,2.3-3.6,3.7S927.6,510.2,928.6,511z"/>
<path class="st7" d="M953.1,505.6c-2.3,1.6-4.5,3.3-6.5,5.3c-1.9,1.9-3.7,4-4.1,6.6c-0.2,1-0.2,2.1-0.3,3.1c-0.7,4.5-4.6,7.8-6.3,12
	c-0.5,1.3-0.9,2.6-1.1,4c-0.5,2.6-0.7,5.2-0.8,7.9c0,2.6,2.5,4.3,3.4,6.7c0.8,2.4,1.3,4.8,1.6,7.3c1,4.6,2.4,9.1,4.1,13.5
	c3.4,9.3,14.3,35.1,17.7,44.5c10.3-2.6,37.9-8.6,47.1-14c3.1-1.8-21.2-22.4-17.9-23.8c0.4-0.1,0.7-0.4,0.9-0.7c0.1-0.3,0.1-0.7,0-1
	c-3.3-14.3-13.5-26-18.1-40c-1.6-4.8-4.5-9-6.7-13.5c-2-4.2-3-8.8-5.4-12.7c-0.5-0.8-1-1.5-1.7-2.2c-0.6-0.5-1.2-0.8-1.9-1.1
	C955.7,506.6,954.4,506.3,953.1,505.6z"/>
<circle class="st16" cx="929.2" cy="493.1" r="16.2"/>
<path class="st17" d="M945.7,500.8c1.7-1.5,4.1-1.9,6.1-0.9c1.2,0.5,1.9,1.7,1.8,2.9l8,0.1c1.3,0,2.6,0.1,3.8,0.4
	c1.3,0.3,2.4,1,3.2,2c0.1,0.1,0.2,0.3,0.4,0.3c0.1,0,0.3,0,0.4-0.1c1.2-0.6,2.6-0.9,4-0.7c4.3,0.3,8.4,2.5,11.8,5.2
	c0.6,0.4,1.1,1,1.4,1.7c0.3,0.9,0,2.1,0.7,2.7c0,7.5,2.6,14.6,4.3,21.9c0.3,1.3,1.6,2.5,2.4,3.5c1.1,1.1,2,2.4,2.6,3.9
	c1.5,3.8-0.6,8.3,0.9,12.1c0.7,1.6,1.6,3,2.8,4.3c1.3,1.6,2.1,3.6,2.3,5.6c0.1,0.9-0.1,1.8,0,2.8c0.1,1.2,0.3,2.5,0.7,3.6
	c0.6,2.2,1.2,4.4,1.8,6.6c1,3.6,2.4,7.4,5.6,9.3c-7.7,1.3-15.8,2.6-23.2-0.1c-1-0.4-2-0.8-2.9-1.5c-2.7-1.9-3.9-5.1-5.1-8.2
	c-1.3-3.4-2.6-6.9-2.8-10.6c0-1.2-0.2-2.3-0.5-3.5c-0.8-2-2.7-3.2-4.5-4.3c-2-1.1-3.9-2.6-5.5-4.3s-2.4-4.1-2.2-6.4
	c0.1-1.1,0.6-2.2,0.6-3.4c0.1-1.2-0.5-2.3-1.6-2.8c-5.6-1.7-8.3-8.3-9.5-14.1c-0.5-3-0.8-6-0.7-9l-0.1-5.8c-1.6-1.4-2.5-3.4-2.5-5.5
	c0.1-0.6,0.1-1.2,0-1.8c-0.3-0.8-0.7-1.4-1.3-2C947.5,503.8,946.5,502.3,945.7,500.8z"/>
<path class="st15" d="M928.4,519.3c-0.2,1.8,0.2,3.7-0.2,5.4c-0.2,0.7-0.4,1.3-0.6,2c-0.6,2.6-0.3,5.2,0.8,7.6
	c1.1,2.4,2.4,4.6,3.9,6.8c0.5,0.7,0.9,1.5,1.3,2.3c0.3,0.9,0.4,1.8,0.5,2.7c0.4,3.6,1,7.2,1.9,10.7c0.8,3.1,1.8,6.2,3.8,8.6
	c0.4,0.5,0.9,0.9,1.6,1.1c0.5,0,0.9-0.1,1.3-0.3l4.1-1.6c0.4-0.1,0.7-0.3,1-0.5c0.4-0.5,0.6-1,0.6-1.6c0.3-3.3-0.7-6.7-1.8-9.8
	c-3.4-9.5-7.8-18.7-10-28.6c-0.6-2.8-0.9-7-2.9-9.2c-0.8-0.9-0.5-0.5-1.5,0c-0.5,0.2-1,0.5-1.5,0.8
	C929.3,516.5,928.5,517.8,928.4,519.3z"/>
<path class="st15" d="M1007.5,578.7"/>
<path class="st18" d="M940.9,537.4c1.1,5.8,2.2,11.6,3.4,17.5l16.1-4.2c0.1-1.7-0.8-3.2-1.4-4.8c-1.5-3.7-1.5-7.8-2.7-11.5
	c-0.9-2.9-2.5-5.5-3.3-8.4c-0.5-1.7-0.7-3.4-1.2-5.1c-0.5-1.7-1.2-3.3-1.9-4.9c-0.9-2.3-2.1-4.5-3.5-6.5c-2.1,0.8-4.3,1.7-5.4,3.5
	c-0.6,1.1-1,2.2-1,3.5c-0.3,3.6,1,7.3,0.6,10.8C940.1,530.5,940.2,534,940.9,537.4z"/>
<path class="st15" d="M960.6,615c0.9,3.4-0.4,7-1.5,10.4c-1.6,5.1-2.7,10.4-3.3,15.7c-0.1,1.4-0.3,2.7-0.8,4c-0.6,1.1-1.3,2.2-2,3.2
	c-1.6,2.9-1.6,6.4-1.2,9.6c0.2,2.2,0.6,4.3,1,6.4c0.5,2.6,1.2,5.3,0.4,7.8c1.3-0.3,2.1,1.4,2.1,2.7s-0.5,2.7,0.1,3.9
	c1.6,0.6,1.6,2.7,1.5,4.4c0,2.9,0.4,5.8,1.1,8.6c2.4,11.5,4.9,22.9,7.6,34.3c5.8,1.8,12.5,3.7,18.1,1.2c1.1-0.4,1.9-1.2,2.3-2.3
	c0.1-0.6,0-1.2-0.2-1.8l-2.6-9.5c-0.8-2.2-1.1-4.6-0.9-7c0.3-1.8,1-3.7,0.2-5.2c-0.3-0.5-0.7-1-1.1-1.5c-1.4-2-0.7-4.7-0.5-7.1
	c0-0.5,0-1.1-0.1-1.6c-0.2-0.6-0.5-1.2-0.8-1.8c-2.2-4.2-3.2-8.9-3-13.6c0.1-0.6,0-1.2-0.2-1.8c-0.2-0.2-0.3-0.5-0.4-0.7
	c-0.1-0.4-0.1-0.9,0.1-1.3c-0.8-0.6-1.5-1.2-2.1-2c1.4-0.9,1.8-2.8,0.9-4.2c-0.1-0.2-0.2-0.3-0.4-0.5c0.8-0.2,1.4-1,1.2-1.8
	c-0.1-0.3-0.2-0.6-0.5-0.8s-0.8-0.3-1-0.7c-0.4-0.5-0.1-1.2,0.2-1.8l1.6-2.9c1.2-2.1,1.5-4.8,2.7-6.9c1.7-3.1,3.1-6.3,4.2-9.6
	l4.6-12.7l3.1,2.7c1,0.8,1.9,1.8,2.5,2.9c0.4,1.1,0.7,2.3,0.8,3.5c1.1,6.9,5.5,12.9,7.1,19.7c0.2,1.5,0.7,3,1.5,4.4
	c0.3,0.4,0.6,0.8,0.8,1.3c0.2,0.7,0.3,1.4,0.3,2.1c0.3,2.8,1.8,5.4,4.1,7c1.5,1,3.5,1.8,4.3,3.4c0.2,0.5,0.4,1,0.7,1.5
	c0.7,0.9,2.3,1,2.7,2.1c0.2,0.6-0.2,1.4,0.2,1.9c0.2,0.3,0.5,0.4,0.8,0.6l4.5,2.2c5,2.5,7.5,8.2,11.2,12.4c1.3,1.4,2.4,2.8,3.3,4.4
	c1.6,2.8,2.3,6.4,5,8.2c0.7,0.4,1.4,0.9,1.9,1.4c0.8,1.1,0.5,2.7,0.6,4.1s1.2,3.1,2.5,2.6c-0.5,1.7-0.5,3.5,0,5.2
	c5.8-0.3,11.4-2.6,15.8-6.4c1.3-1.1,2.6-2.6,2.6-4.3c0-0.3-0.1-0.6-0.2-0.9c-0.3-0.3-0.6-0.6-1-0.8c-4.2-2.3-5.4-7.5-7.5-11.8
	c-1.8-3.8-4.6-7-6.9-10.5c-5-7.5-8.3-16.6-15.8-21.5c-1.7-1.1-3.6-2.1-4.4-3.9c-0.3-1.1-0.6-2.1-0.9-3.2c-0.3-1.1-1.2-1.9-2.3-2
	c0.5-1.6,0.7-3.3,0.5-5c0-0.7,0-1.5-0.3-2.2s-0.6-1.5-1.1-2.1c-2-3.3-2.9-7.1-2.8-11c0.1-2,0.4-4-0.2-5.9c-0.3-1-0.8-1.8-1.2-2.8
	c-0.6-1.7-0.8-3.4-0.9-5.2l-0.4-6.6c-0.1-2.2-0.3-4.4-0.8-6.5c-1.4-5.1-2.7-26.5-7.4-28.9s-12.8,14.1-18,14.4
	c-2.3,0.1-4.7,0.5-6.9,1.3c-3.5,1.3-6.5,3.8-9.3,6.2l-9.7,8.2C964.8,612.3,962.8,613.8,960.6,615z"/>
<path class="st19" d="M914,475.2c2.3-2.9,5.8-4.6,9.4-4.6c3.6,0,7.2,0.9,10.4,2.6c0.9,0.5,2,1,3,1.3c1.7,0.4,3.6-0.1,5.2,0.7
	c2.1,1.1,2.5,3.9,2.3,6.2s-0.6,4.9,0.6,6.9c0.4,0.6,0.8,1.2,1.2,1.8c0.4,1.2,0.3,2.6-0.1,3.8c-0.7-0.8-1.4-1.6-2-2.5
	c-0.7-0.8-2-1.3-2.8-0.7s-0.9,1.7-0.9,2.6s-0.3,2.1-1.2,2.5c-0.8,0.1-1.5-0.2-2-0.8c-1.6-1.9-0.9-5-2.5-6.9
	c-0.9-1.1-2.4-1.6-3.2-2.8c-0.6-0.9-0.8-2.1-1.4-3s-1.9-1.7-2.8-1c-0.3,0.3-0.5,0.6-0.7,1c-1.1,1.6-3.2,2.2-5,1.5
	c-0.7-0.4-1.4-0.7-2.2-0.9c-1-0.1-2,0.5-2.5,1.3c-0.5,0.9-0.7,1.9-0.7,2.9c0,1.4,0.2,2.8-0.5,3.9c-0.3,0.4-0.7,0.7-1.2,1
	c-1.2,0.7-2.7,1.2-3.8,0.4c-0.7-0.7-1.1-1.7-0.8-2.7c0.2-1,0.5-1.9,0.8-2.8c0.6-2.1-0.2-4.5,0.5-6.5
	C911.9,478.4,912.8,476.7,914,475.2z"/>
<path class="st13" d="M922.7,523.5c-0.1,0.5,0,1,0.2,1.5c0.2,0.3,0.5,0.6,0.8,0.8c2.3,1.4,4.9,2.3,7.6,2.5c0.3,0,0.7,0.1,1,0.3
	c0.6,0.5,0.8,1.4,0.5,2.1c-0.3,0.7-0.5,1.5-0.5,2.3c0.2,1.4,1.9,2.1,3.3,2.3c2,0.4,4.1,0,5.8-1.1c1.1-1,1.9-2.2,2.4-3.6
	c3.9-9,5.3-19,9.3-28c0.3-0.6,0.5-1.2,0.6-1.9c0.1-0.7-0.2-1.3-0.7-1.7c-0.7-0.5-1.9-0.2-2.4-0.9c-0.3-0.4-0.2-0.9-0.4-1.2
	c-0.5-0.8-1.7-0.7-2.5-1.2c-0.6-0.4-1.1-1-1.8-1.2c-0.7,0-1.4,0.3-1.9,0.8c-2.3,2.2-3.6,5.3-4.9,8.2c-2,4.5-4.3,8.8-7,12.9
	c0.3-0.5-1.5-4.1-2.2-4.3c-1.2-0.3-2.8,1.9-3.5,2.7C924.3,517.2,923,520.3,922.7,523.5z"/>
<rect x="930.8" y="536.3" class="st10" width="78" height="78"/>
<path class="st3" d="M970.5,562.5v-10.2h-25.6v46.1h50v-35.9L970.5,562.5L970.5,562.5z M955.1,593.2H950v-5.1h5.1V593.2z M955.1,583
	H950v-5.1h5.1V583z M955.1,572.7H950v-5.1h5.1V572.7z M955.1,562.5H950v-5.1h5.1V562.5z M965.3,593.2h-5.1v-5.1h5.1V593.2z
	 M965.3,583h-5.1v-5.1h5.1V583z M965.3,572.7h-5.1v-5.1h5.1V572.7z M965.3,562.5h-5.1v-5.1h5.1V562.5z M989.7,593.2h-19.3v-5.1h5.1
	V583h-5.1v-5.1h5.1v-5.1h-5.1v-5.1h19.3V593.2z M985.2,572.7h-5.1v5.1h5.1V572.7z M985.2,583h-5.1v5.1h5.1V583z"/>
<path class="st16" d="M1008.2,579.3c-1.3,1.2-2.6,2.5-3.7,3.9c-1.1,1.4-1.7,3.2-1.7,5c0,0.5,0.2,1,0.5,1.5c0.3,0.4,0.9,0.6,1.4,0.4
	c0.3-0.2,0.5-0.4,0.7-0.6c0.7-0.9,1.5-1.7,2.3-2.5c0.3-0.3,0.7-0.6,1.1-0.5c0.2,0.1,0.3,0.2,0.5,0.3c0.5,0.4,0.8,0.9,1,1.5
	c0.1,1.1-0.3,2.2-1.1,2.9s-1.4,1.6-1.8,2.7c-0.1,0.3-0.1,0.6,0,0.8s0.3,0.4,0.5,0.5c2,1.1,4.4,1.2,6.5,0.4c1.4-0.5,2.6-1.5,4-2
	c0.6-0.2,1.2-0.4,1.8-0.7c0.8-0.5,1.4-1.4,1.6-2.3c0.2-1,0.2-1.9,0.1-2.9c-0.2-3.7-1-7.4-2.4-10.9c-0.1-0.2-0.2-0.4-0.4-0.6
	c-0.2-0.1-0.4-0.2-0.7-0.2c-1.8-0.2-4.6-1.1-6.3-0.4c-0.6,0.3-1.1,0.8-1.5,1.3C1010.2,577.2,1008.2,578.8,1008.2,579.3z"/>
<path class="st17" d="M1007.6,577.7c0-1.7-2.1-5.7,1.2-6c0-1.8-2.5-2.9-2.1-4.8c0.2-0.6,0.7-1.2,0.8-1.8c0.2-1.8-3.1-2.8-2.5-4.6
	c0.2-0.7,0.9-1.1,1.1-1.8c0.4-1.6-2.5-2.3-2.5-3.9c0-0.5,0.3-1.1,0.3-1.6s-0.6-1.2-0.9-1.8c-0.8-1.5-0.4-3.9-2-4.7
	c1,0.1,1.4-1.5,1-2.4s-1.3-1.8-1.3-2.8c0-0.4,0-0.8,0-1.2c-0.3-1-1.9-1.1-2.2-2.1c0-0.4,0-0.8,0-1.1c-0.1-0.8-0.9-1.3-1.7-1.5
	c-0.8-0.1-1.5-0.4-2.2-0.8c-0.5-0.4-1-1-1.5-0.7c-0.2,0.1-0.3,0.3-0.4,0.5c-0.6,0.7-1.8,0.4-2.6-0.1c-2.3-1.5-3.4-4.3-3.9-7.1
	s-0.5-5.5-1.1-8.2c-0.2-0.8-0.4-1.7-0.7-2.5c-0.5-0.8-0.9-1.6-1.2-2.5c-0.1-1.6,3.1-0.5,4.4-0.3c1.2,0.1,2.4,0.3,3.6,0.7
	c1.2,0.5,2.4,1,3.6,1.6c5,2.2,10.9,2.5,14.9,6.1c1.3,1.2,2.4,2.8,4.1,3.3c0.8,0.2,1.5,0.4,2.3,0.6c1.9,0.9,2.2,3.4,3.2,5.2
	c0.3,0.5,0.6,1,0.8,1.5c0.2,0.6,0.3,1.3,0.3,1.9l0.1,4.8c0.2,8,0.5,15.9-0.4,23.8c-0.3,2.6-0.7,5.3,0.1,7.8c0.2,0.7,0.5,1.3,0.7,2
	c0.1,0.8,0.2,1.7,0.2,2.5l0.1,3.1c0.1,0.4-0.1,0.8-0.5,0.9c-0.2,0.1-0.4,0-0.5,0c-4.3-0.4-8.6-2.8-12.7-1.3"/>
<path class="st16" d="M927.9,565.2c-0.2,0.1-0.4,0.2-0.5,0.4c-0.9,1.2-0.9,2.9,0,4.1c0.1,0.1,0.2,0.3,0.2,0.4c0,0.2,0,0.5-0.1,0.7
	c-0.4,0.8-0.3,1.8,0.3,2.5c0.3,0.3,0.7,0.4,0.9,0.7c0.3,0.6-0.1,1.3-0.1,2c0.1,0.9,1.2,1.3,2,1.4c0.7,0.2,1.4,0,2-0.5
	c0.4-0.5,0.4-1.2,0-1.8c-0.4-0.5-0.8-1-1.3-1.3c1-0.1,1.8-0.8,1.9-1.8c0.1-1-0.4-1.9-1.1-2.5c-0.2-0.2-0.4-0.3-0.5-0.5
	s0.2-0.6,0.4-0.8c1-1,1.8-3.5-0.1-4c-0.7-0.1-1.3-0.1-2,0.1c-0.5,0.2-0.5,0.4-0.8,0.6S928.3,565,927.9,565.2z"/>
<path class="st20" d="M947.5,496.1c-1,0-1.9,0.5-2.5,1.3c-0.6,1-1,2.2-1.1,3.4c-0.6,3.8-2,7.5-4,10.9"/>
<path class="st20" d="M951,498.9c-1.4,0-2.6,0.8-3.3,2c-0.5,1.1-0.7,2.2-0.8,3.4c-0.6,2.6-1.7,5-3.3,7.1"/>
<path class="st21" d="M305.9,562.6c0.6,6.3-4.2,12.4-2.8,18.6c0.3,1.3,0.9,2.6,1.1,3.9c0.6,3.7-1.6,7.2-3.7,10.2l-17.9,26.3
	c-0.7,1.2-1.6,2.2-2.6,3.2c-3.4,3-8.6,2.7-13.1,3.6c-3.2,0.6-6.2,2-8.8,3.9c-0.2,0.2-0.3,0.5-0.1,0.8c1.5,2.1,4,3.2,6.5,3.1
	c0.5,0.6,0,1.5-0.6,2c-1,0.7-2.3,0.8-2.5,2.5c-0.1,0.6,0,1.1,0.3,1.6c0.7,1.1,1.8,1.9,3.1,2.2c6.2,1.9,12.9-1.4,17.6-6
	s8-10.3,12.6-14.9c2.5-2.5,5.4-4.8,8-7.2c5.2-4.9,9.2-11,13.1-17c1.3-1.7,2.2-3.7,2.8-5.8c0.5-2.1,0.3-4.2,0.8-6.3
	c0.7-2.7,2.7-4.8,4.3-7c3.2-4.4,5.3-9.8,4.9-15.2s-3.8-10.7-8.9-12.6c-1.6-0.6-3.3-0.7-5-0.3c-2.1,0.7-3.6,2.4-5.1,4l-3.4,3.9
	c-0.9,0.9-1.5,1.9-2,3c-0.4,1.2-0.2,2.5,0.7,3.3"/>
<path class="st22" d="M305.9,562.6c0.6,6.3-4.2,12.4-2.8,18.6c0.3,1.3,0.9,2.6,1.1,3.9c0.6,3.7-1.6,7.2-3.7,10.2l-17.9,26.3
	c-0.7,1.2-1.6,2.2-2.6,3.2c-3.4,3-8.6,2.7-13.1,3.6c-3.2,0.6-6.2,2-8.8,3.9c-0.2,0.2-0.3,0.5-0.1,0.8c1.5,2.1,4,3.2,6.5,3.1
	c0.5,0.6,0,1.5-0.6,2c-1,0.7-2.3,0.8-2.5,2.5c-0.1,0.6,0,1.1,0.3,1.6c0.7,1.1,1.8,1.9,3.1,2.2c6.2,1.9,12.9-1.4,17.6-6
	s8-10.3,12.6-14.9c2.5-2.5,5.4-4.8,8-7.2c5.2-4.9,9.2-11,13.1-17c1.3-1.7,2.2-3.7,2.8-5.8c0.5-2.1,0.3-4.2,0.8-6.3
	c0.7-2.7,2.7-4.8,4.3-7c3.2-4.4,5.3-9.8,4.9-15.2s-3.8-10.7-8.9-12.6c-1.6-0.6-3.3-0.7-5-0.3c-2.1,0.7-3.6,2.4-5.1,4l-3.4,3.9
	c-0.9,0.9-1.5,1.9-2,3c-0.4,1.2-0.2,2.5,0.7,3.3"/>
<path class="st16" d="M169.2,589.4c1,3.2,2,6.3,3.2,9.4c2.2,5.3,5,10.4,8.3,15.2c2.1,3.1,4.4,6.1,6.9,9c3.1,3.6,6.5,7.2,7.6,11.8
	c0.6,2.7,0.4,5.5,0.7,8.2s1.1,5.6,3.4,7.2c1.7,1,3.6,1.7,5.5,1.8c1.4,0.2,3.1,0.3,3.8-0.9c0.2-0.5,0.4-1,0.4-1.6l0.3-4
	c0.1-0.9,0.4-2,1.2-2s1.3,1.1,2,1.6c1.1,0.6,2.4,0.2,2.9-0.9l0,0l0.1-0.1c0.4-1.1,0.5-2.4,0.1-3.5c-1.2-4.6-4.3-8.4-8.5-10.6
	c-1.4-0.6-2.8-1.3-4.2-2.1c-1.3-1.2-2.4-2.6-3.3-4.1c-7.6-12.5-15.2-25-20.5-38.5c-1.1-2.4-1.8-5-2.1-7.6c-0.1-2.7,0-5.3,0.3-8
	c0.3-4.8-0.1-9.7-1.3-14.3c-0.3-1.2-0.7-2.4-1.4-3.5c-2.2-3.3-7.4-3.8-10.6-1.5c-2.4,1.9-4,4.7-4.2,7.7c-0.2,2.7,1.3,5.5,2.1,8
	C164.4,573.9,166.8,581.7,169.2,589.4z"/>
<path class="st22" d="M169.2,589.4c1,3.2,2,6.3,3.2,9.4c2.2,5.3,5,10.4,8.3,15.2c2.1,3.1,4.4,6.1,6.9,9c3.1,3.6,6.5,7.2,7.6,11.8
	c0.6,2.7,0.4,5.5,0.7,8.2s1.1,5.6,3.4,7.2c1.7,1,3.6,1.7,5.5,1.8c1.4,0.2,3.1,0.3,3.8-0.9c0.2-0.5,0.4-1,0.4-1.6l0.3-4
	c0.1-0.9,0.4-2,1.2-2s1.3,1.1,2,1.6c1.1,0.6,2.4,0.2,2.9-0.9l0,0l0.1-0.1c0.4-1.1,0.5-2.4,0.1-3.5c-1.2-4.6-4.3-8.4-8.5-10.6
	c-1.4-0.6-2.8-1.3-4.2-2.1c-1.3-1.2-2.4-2.6-3.3-4.1c-7.6-12.5-15.2-25-20.5-38.5c-1.1-2.4-1.8-5-2.1-7.6c-0.1-2.7,0-5.3,0.3-8
	c0.3-4.8-0.1-9.7-1.3-14.3c-0.3-1.2-0.7-2.4-1.4-3.5c-2.2-3.3-7.4-3.8-10.6-1.5c-2.4,1.9-4,4.7-4.2,7.7c-0.2,2.7,1.3,5.5,2.1,8
	C164.4,573.9,166.8,581.7,169.2,589.4z"/>
<path class="st23" d="M321,708.2c-3.9,2.4-8.8,2.5-13.4,2c-0.7-0.1-1.6-0.2-2.1,0.4c-0.7,0.8,0.1,2,1,2.7c2.7,2,5.9,3.3,9.2,3.8
	c3,0.4,6,0.6,9,0.6c8.2,0.1,16.4,0.3,24.5-0.9c0.5,0,0.9-0.2,1.3-0.4c0.5-0.4,0.9-0.9,1-1.5c0.4-2.2-0.4-4.4-2.1-5.8
	c-1.7-1.4-3.6-2.4-5.7-3.1l-7.1-2.8c-1.7-0.7-4.4-2.4-6.2-2.2C327,701.1,323.8,706.5,321,708.2z"/>
<path class="st23" d="M338.9,724.9c-3.3,2.9-7.5,4.5-12,4.5c-1.1,0-2.7,0.2-2.7,1.3c0,0.3,0.1,0.7,0.3,0.9c1.4,2.3,3.6,4,6.2,4.8
	c2.4,0.6,5,0.7,7.5,0.5l7.3-0.4c1.4-0.1,2.8-0.1,4.1-0.3s2.9-0.5,4.3-0.7c3.5-0.5,7.1-0.7,10.6-0.5c0.9,0.2,1.9-0.1,2.6-0.7
	c0.6-0.8,0.3-2,0.1-3c-0.4-2.1,0-4.3-0.4-6.5c-0.7-3.7-3.9-6.6-7.5-7.9c-3.3-1.3-9.1-2.7-12.2-0.6
	C343.8,718.6,341.8,722.2,338.9,724.9z"/>
<path class="st15" d="M324.5,630.4c-3,4-6,8.5-5.3,13.4c0.4,2.6,1.9,5,3,7.4c1.4,3.3,2.4,6.8,3,10.4c1.1,5.2,2.2,10.3,2.9,15.6
	c0.8,5.9,1,11.9,0.6,17.9c-0.1,1.4-0.3,3-1.3,4c-0.4,0.4-0.9,0.7-1.1,1.3c-0.1,0.5,0,1,0.2,1.5c1.8,3.8,5,6.7,8.9,8.2
	s8,2.2,12.1,2.3c0.5,0.1,1.1,0,1.6-0.2c0.6-0.3,1-0.8,1.3-1.4c3-5.7,1.3-12.6,1.4-19c0-5.4,1.3-10.7,1.1-16.1
	c-0.2-4.3-1.3-8.5-1.8-12.8c-0.7-7,0.6-14.1,1.9-21c1-5.3,2-10.7,3.3-15.9c0.6-3.2,1.8-6.4,3.4-9.2c1.4-2.2,3.3-4.1,4.9-6.1
	c4.4-5.8,6.4-13.1,5.5-20.4c-0.1-0.7-10.3,2.6-11.2,3c-3.7,1.5-7.1,3.7-10,6.4c-2.4,2.2-4.2,5.2-6.3,7.8c-3,3.5-5.8,7.1-8.7,10.7
	C330.8,622.1,327.6,626.3,324.5,630.4z"/>
<path class="st24" d="M324.5,630.4c-3,4-6,8.5-5.3,13.4c0.4,2.6,1.9,5,3,7.4c1.4,3.3,2.4,6.8,3,10.4c1.1,5.2,2.2,10.3,2.9,15.6
	c0.8,5.9,1,11.9,0.6,17.9c-0.1,1.4-0.3,3-1.3,4c-0.4,0.4-0.9,0.7-1.1,1.3c-0.1,0.5,0,1,0.2,1.5c1.8,3.8,5,6.7,8.9,8.2
	s8,2.2,12.1,2.3c0.5,0.1,1.1,0,1.6-0.2c0.6-0.3,1-0.8,1.3-1.4c3-5.7,1.3-12.6,1.4-19c0-5.4,1.3-10.7,1.1-16.1
	c-0.2-4.3-1.3-8.5-1.8-12.8c-0.7-7,0.6-14.1,1.9-21c1-5.3,2-10.7,3.3-15.9c0.6-3.2,1.8-6.4,3.4-9.2c1.4-2.2,3.3-4.1,4.9-6.1
	c4.4-5.8,6.4-13.1,5.5-20.4c-0.1-0.7-10.3,2.6-11.2,3c-3.7,1.5-7.1,3.7-10,6.4c-2.4,2.2-4.2,5.2-6.3,7.8c-3,3.5-5.8,7.1-8.7,10.7
	C330.8,622.1,327.6,626.3,324.5,630.4z"/>
<path class="st25" d="M346.1,600c0.6,3.1,3.6,5.4,3.7,8.5c0.1,2.5-1.7,4.6-3,6.8c-1.2,2.2-2.2,4.5-3.1,6.9c-2.4,6.2-5.4,12.2-9,17.9
	c-1.7,2.7-3.6,5.7-3.2,8.9c0.3,1.5,0.8,2.9,1.5,4.2l5.1,10.2c1.1,2,2,4.2,2.6,6.5c0.5,1.9,0.5,4,0.8,5.9c0.8,6.3,3.7,12.6,2,18.6
	c-0.1,0.5-0.7,1.2-1.1,0.8c1.7,3.2,3.1,6.4,2.9,10c-0.1,1.9-0.6,3.8,0.1,5.6c0.4,0.7,0.7,1.4,0.8,2.1c0,0.5-0.2,1-0.3,1.5
	c-0.1,1.4,1.2,2.7,2.6,3.1s2.9,0.4,4.3,0.8c2.7,0.8,4.6,3.1,6.9,4.7c2.3,1.6,5.1,2.5,7.9,2.6c0.4,0,0.8,0,1.2-0.2
	c0.4-0.4,0.6-0.9,0.6-1.4c0.2-2.6-0.8-5.2-2.8-6.8c-0.4-0.3-0.8-0.7-1-1.1c-0.1-0.4-0.2-0.8-0.1-1.2c0.4-5.6,0.3-11.3-0.3-16.8
	c-0.3-1.8-0.4-3.6-0.3-5.4c0.3-1.5,0.4-3,0.4-4.5c-0.3-1.5-0.8-2.9-1.4-4.3c-0.8-2.5-0.6-5.3-0.6-8c-0.3-4.6-1.1-9.2-2.3-13.7
	c-0.3-1.8-1-3.5-2.1-4.9c-1.1-1.1-2.8-2.2-2.4-3.7c0.2-0.6,0.6-1,1-1.5c1-1.3,1.5-2.9,1.2-4.5c0.9,0.2,1.9-0.2,2.3-1.1
	c8.5-4.2,15-11.6,18.1-20.6c0.2-0.6,0.5-1.3,0.8-1.8c0.8-1.1,2.1-1.5,3.3-2.2c3.7-1.9,6.3-5.4,8.7-8.9c1.5-1.9,2.6-4.1,3.4-6.4
	c0.3-1.5,0.5-3.1,0.5-4.6l0.2-8c0-0.5,0-1.1-0.1-1.6c-0.2-0.5-0.5-0.9-0.9-1.3c-2.3-2.4-5.3-4-8.5-4.6c-2.2-0.4-4.4-0.3-6.6-0.5
	c-4.3-0.4-8.5-1.7-12.9-1.4c-6.8,0.5-12.8,5.2-16,11.2C349.7,598.2,348.5,600,346.1,600z"/>
<path class="st7" d="M121.7,722.5c1.5,0.5,3,0.7,4.6,0.5c0.1-1.3,1.8-1.5,3.1-1.5c0.6,0,1.3,0.1,1.8,0.4c0.3,0.2,0.6,0.5,0.9,0.7
	c0.6,0.3,1.2,0.5,1.8,0.5l6.6,0.6c2.9,0.3,6,0.5,8.8-0.6c0.6-0.2,1-0.5,1.4-0.9c0.8-1.1,0-2.6-1-3.4s-2.4-1.1-3.4-1.9
	c-2.3-1.8-2.6-5-3.8-7.6c-0.9-1.7-1.9-3.2-3.2-4.6c-0.9-1.2-2-2.3-3.1-3.2c-2.6-1.9-5.7-1.9-8.8-2.2c-2.2-0.2-4.3-0.3-5.8,1.6
	c-2,2.4-1.2,7.3-1.1,10.2C120.6,714.9,121,718.7,121.7,722.5z"/>
<path class="st22" d="M121.7,722.5c1.5,0.5,3,0.7,4.6,0.5c0.1-1.3,1.8-1.5,3.1-1.5c0.6,0,1.3,0.1,1.8,0.4c0.3,0.2,0.6,0.5,0.9,0.7
	c0.6,0.3,1.2,0.5,1.8,0.5l6.6,0.6c2.9,0.3,6,0.5,8.8-0.6c0.6-0.2,1-0.5,1.4-0.9c0.8-1.1,0-2.6-1-3.4s-2.4-1.1-3.4-1.9
	c-2.3-1.8-2.6-5-3.8-7.6c-0.9-1.7-1.9-3.2-3.2-4.6c-0.9-1.2-2-2.3-3.1-3.2c-2.6-1.9-5.7-1.9-8.8-2.2c-2.2-0.2-4.3-0.3-5.8,1.6
	c-2,2.4-1.2,7.3-1.1,10.2C120.6,714.9,121,718.7,121.7,722.5z"/>
<path class="st15" d="M124.4,593.8c-2,0.7-2.9,3.2-2.5,5.3s1.6,3.9,2.7,5.8c2.9,5.3,4.2,11.3,6.7,16.8c1.9,4.1,4.4,7.9,6.2,12
	s3,8.8,1.9,13.1c-0.5,2.1-1.6,4.1-2.3,6.2c-0.7,2.3-1.1,4.6-1.3,7c-0.9,8-1.1,16.1-0.5,24.2c0,1,0.2,2,0.6,2.9
	c0.4,0.8,1.1,1.6,0.8,2.5c-0.1,0.3-0.4,0.6-0.6,0.9c-0.4,0.9,0.4,1.9,1.2,2.5c-0.3,0.5-0.7,0.9-1.3,1c1.1,0.7,1.7,2.1,1.3,3.4
	c-0.7,0.1-0.7,1.2-0.3,1.7s1.1,0.9,1.4,1.5c0.4,1.1-0.1,2.2-1.2,2.7c-1,0.4-2.1,0.5-3.2,0.2c-1.8-0.2-3.6-0.6-5.3-1.2
	c-0.6-0.1-1.1-0.4-1.6-0.8c-0.9-0.9-1.4-2-1.5-3.2c-0.4-3.3-0.5-6.7-0.4-10c0.3-16.2,0-32.3-0.7-48.5c-0.3-6.5-2.2-12.8-4.8-18.8
	c-1.4-3.1-2.9-6.1-4.6-9c-3.6-6.7-6.8-14-6-21.5c0.1-0.8,0.4-1.8,1.2-1.9c0.3,0,0.6,0,0.9,0.2c1.7,0.8,3.3,1.7,4.8,2.7
	C118.5,592.8,121.4,593.7,124.4,593.8z"/>
<path class="st26" d="M124.4,593.8c-2,0.7-2.9,3.2-2.5,5.3s1.6,3.9,2.7,5.8c2.9,5.3,4.2,11.3,6.7,16.8c1.9,4.1,4.4,7.9,6.2,12
	s3,8.8,1.9,13.1c-0.5,2.1-1.6,4.1-2.3,6.2c-0.7,2.3-1.1,4.6-1.3,7c-0.9,8-1.1,16.1-0.5,24.2c0,1,0.2,2,0.6,2.9
	c0.4,0.8,1.1,1.6,0.8,2.5c-0.1,0.3-0.4,0.6-0.6,0.9c-0.4,0.9,0.4,1.9,1.2,2.5c-0.3,0.5-0.7,0.9-1.3,1c1.1,0.7,1.7,2.1,1.3,3.4
	c-0.7,0.1-0.7,1.2-0.3,1.7s1.1,0.9,1.4,1.5c0.4,1.1-0.1,2.2-1.2,2.7c-1,0.4-2.1,0.5-3.2,0.2c-1.8-0.2-3.6-0.6-5.3-1.2
	c-0.6-0.1-1.1-0.4-1.6-0.8c-0.9-0.9-1.4-2-1.5-3.2c-0.4-3.3-0.5-6.7-0.4-10c0.3-16.2,0-32.3-0.7-48.5c-0.3-6.5-2.2-12.8-4.8-18.8
	c-1.4-3.1-2.9-6.1-4.6-9c-3.6-6.7-6.8-14-6-21.5c0.1-0.8,0.4-1.8,1.2-1.9c0.3,0,0.6,0,0.9,0.2c1.7,0.8,3.3,1.7,4.8,2.7
	C118.5,592.8,121.4,593.7,124.4,593.8z"/>
<path class="st15" d="M97.1,574.2c-1.1-0.7-2.3-1.1-3.5-1.1c-1.4,0.2-2.8,0.9-3.8,1.9c-1.3,1-2.6,2.1-3.8,3.3
	c-5.1,5.4-6.8,13.1-4.5,20.1c1.2,3.6,3.4,6.8,5.6,9.9l4.4,6.3c6.7,9.6,13.4,19.3,20.5,28.7c0,0.5,0.3,0.9,0.8,1
	c0.3,0.1,0.6,0.1,0.7,0.3c0.1,0.1,0.1,0.3,0.1,0.4c0,0.7-0.2,1.4-0.4,2c-0.1,0.2-0.1,0.5-0.1,0.7c0.2,0.5,1.2,0.2,1.5,0.7
	c0.2,0.4,0,0.8-0.3,1s-0.6,0.6-0.6,1s0.7,0.8,0.7,1.3c0,0.3-0.2,0.5-0.4,0.7c-0.5,0.7-0.4,1.7,0.2,2.3c0.5,4.6-2,9-2.5,13.5
	c-0.8,7.2,2.5,14.3,2.9,21.5c0,0.8,0.1,1.6,0.4,2.4c0.7,1.3,2.4,2,2.4,3.4c-0.1,0.6-0.3,1.2-0.5,1.7c0,0.8,0.1,1.7,0.3,2.5
	c0,0.8-0.7,1.8-1.5,1.5c0.6,1.9,1.1,3.9,1.5,5.8l15.4,1.3c0.2-1.4,0.1-2.8-0.1-4.2c-0.3-1.5-1-2.9-1.3-4.3c-0.5-1.5-0.2-3.1,0.6-4.3
	c-0.8,0-1.5-0.6-1.7-1.4c-0.1-0.8-0.1-1.6,0-2.4c0.4-4-1.3-8-1.2-12c0.1-3.2,1.2-6.2,1.7-9.3c1.2-6.7-0.1-13.9,2.9-20
	c1.8-3.7,4.3-7.8,2.3-11.3c-1-1.8-2.8-3-3.9-4.6c-0.9-1.6-1.6-3.2-2.1-5c-2.4-7.4-6.2-14.2-9.6-21.1c-0.9-1.8-1.6-3.6-2.1-5.5
	c-0.2-1.7-0.3-3.4-0.3-5.1c0-3.1-0.2-6.1-0.6-9.2c0-2.5-1.3-4.8-3.5-6C108.6,579,102.5,577.1,97.1,574.2z"/>
<path class="st7" d="M115.5,728.2c1.5,0.5,3,0.7,4.6,0.5c0.1-1.3,1.8-1.5,3.1-1.5c0.6,0,1.2,0.1,1.8,0.4c0.3,0.2,0.6,0.5,0.9,0.7
	c0.6,0.3,1.2,0.5,1.8,0.5l6.6,0.6c2.9,0.3,6,0.5,8.8-0.6c0.6-0.2,1-0.5,1.4-0.9c0.8-1.1,0-2.6-1-3.4s-2.4-1.1-3.4-1.9
	c-2.3-1.8-2.6-5-3.8-7.6c-0.9-1.7-1.9-3.2-3.2-4.6c-0.9-1.2-1.9-2.3-3.1-3.2c-2.7-1.9-5.7-1.9-8.8-2.2c-2.2-0.2-4.3-0.3-5.8,1.6
	c-2,2.4-1.2,7.3-1.1,10.2C114.4,720.6,114.8,724.4,115.5,728.2z"/>
<rect x="199" y="612.2" class="st10" width="78" height="78"/>
<path class="st27" d="M261.1,648.6c0,8.9-4.2,14.5-10.8,14.5c-3.4,0-5.9-1.8-6.4-4.5h-0.5c-1.1,2.8-3.9,4.5-6.9,4.3
	c-5.9,0-9.8-4.7-9.8-11.7c0-6.7,3.9-11.4,9.7-11.4c2.8-0.1,5.4,1.4,6.6,3.9h0.5v-3.3h4.8V656c-0.2,1.5,0.9,2.9,2.4,3.1
	c0.2,0,0.4,0,0.6,0c3.3,0,5.4-4,5.4-10.3c0-10-7.5-16.7-18.6-16.7s-18.8,8-18.8,19.3c0,11.5,7.7,18.9,19.7,18.9
	c2.2,0,4.4-0.2,6.5-0.6c1-0.2,2,0.5,2.2,1.6c0.2,1-0.4,1.9-1.4,2.1c-2.5,0.6-5,0.8-7.5,0.8c-14.6,0-24-9-24-23
	c0-13.7,9.6-23.1,23.5-23.1C251.8,628.1,261.1,636.5,261.1,648.6z M232,651.3c0,4.4,2.1,7.1,5.5,7.1c3.6,0,5.8-2.8,5.8-7.1
	s-2.3-7.1-5.8-7.1S232,646.9,232,651.3z"/>
<circle class="st16" cx="183.8" cy="532.3" r="15.3"/>
<path class="st16" d="M169.4,536.8c-2.2,1.9-5.3,2-8.2,2.3c-6.1,0.6-12.1,2.4-17.6,5.1c-0.8,0.3-1.4,0.8-2,1.4
	c-0.5,0.6-0.8,1.4-1,2.2c-0.5,1.7-0.7,3.5-0.6,5.3c0.2,1.7,0.7,3.4,1.5,5c2.1,4.4,5.4,8.1,9.5,10.8c0.7,0.5,1.5,0.9,2.3,1.1
	c2,0.4,4-0.8,5.9-1.3c1.8-0.5,3.7-0.4,5.5,0.2c1.7,0.5,3.4,1.6,5,0.9c1-0.6,1.8-1.5,2.3-2.6c1.6-3,2.9-6,4.2-9.1
	c0.4-1.2,0.9-2.4,1.5-3.5c1.8-3.4,4.8-6,6.4-9.5c0.3-0.5,0.4-1.2,0.1-1.8c-0.3-0.4-0.7-0.7-1.1-0.9c-2.3-1.3-4.3-2.9-6.1-4.8
	c-1-1-2.9-3.6-4.3-3.8S170.5,535.9,169.4,536.8z"/>
<path class="st28" d="M169.8,567.8c-1.8,0.8-3.9,0.5-5.8,0.1c-4.9-1-9.9-2.1-14.5-4.2c-1.4-0.5-2.7-1.5-3.6-2.7
	c-0.6-1.1-0.9-2.2-1-3.4l-0.8-5.7c-0.3-2,0.2-3.8,0.3-5.8c0.1-0.5-0.1-0.9-0.3-1.3c-0.3-0.2-0.6-0.3-1-0.3c-2.3,0-3.7,2.4-5.3,4.1
	c-0.9,0.9-2,1.7-3.2,2.2c-1.5,0.6-3.3,1-3.9,2.5c-0.3,0.6-0.2,1.3-0.5,1.9c-1,2.4-5.4,1.6-6.5,4c-0.3,0.7-0.3,1.5-0.8,2.1
	s-1.5,0.5-2.3,0.7c-3.2,0.5-4.7,4.2-7.4,5.9c-2.3,1.5-5.2,1.4-7.7,2.6c-1.3,0.8-2.6,1.4-4,2c-1.5,0.3-3.1,0.3-4.6,0.2
	c-0.5-0.1-1,0.2-1.1,0.7c0,0.2,0,0.4,0.1,0.6c1.5,9.8,8.1,18.1,17.4,21.7c0.5,0.2,1,0.4,1.5,0.7c1.4,1,1.6,3.3,3.2,4
	c1.2,0.4,2.4,0.1,3.3-0.7s1.7-1.7,2.4-2.7c1.4-1.5,3.3-2.5,5.4-2.8c1.9-0.3,4-0.1,5.5-1.2c0.6-0.6,1.2-1.2,1.7-1.9
	c1.2-1.1,2.5-1.9,4-2.4c4-1.5,8.2-2.4,12.5-2.6c4-0.2,8.1,0.1,11.9-1.2c1-0.3,1.9-0.8,2.7-1.5c0.8-0.9,1.4-1.9,1.8-3.1
	C170.3,576.2,170.6,571.9,169.8,567.8z"/>
<path class="st7" d="M150.1,545.3c1.1-0.1,2.3,0,3.4,0c1.3,0,2.6-0.3,4-0.3c4.3,0.1,8.1,2.9,9.3,7.1c0.1,0.3,0.1,0.7,0.1,1
	c-0.1,0.3-0.4,0.6-0.8,0.5c-0.4-1.2-1-2.4-1.7-3.4c-1.3-1.7-3.1-3-5.1-3.6c-2.1-0.6-4.2-0.7-6.3-0.2c-0.9,0.2-1.7,0.4-2.6,0.6
	l-4.1,1.1c-0.8,0.2-1.5,0.4-2.2,0.7c-0.6,0.2-1.5,1-2.1,1c-0.8,0-0.1-0.7,0.2-1.1c0.7-0.9,1.6-1.6,2.7-1.9
	C146.5,546.1,148.3,545.6,150.1,545.3z"/>
<path class="st16" d="M160.4,591.1c1,3.2,2,6.3,3.2,9.4c2.2,5.3,5,10.4,8.3,15.2c2.1,3.1,4.4,6.1,6.9,9c3.1,3.6,6.5,7.2,7.6,11.8
	c0.6,2.7,0.4,5.5,0.7,8.2s1.1,5.6,3.4,7.2c1.7,1,3.6,1.7,5.5,1.8c1.4,0.2,3.1,0.3,3.8-0.9c0.2-0.5,0.4-1,0.4-1.6l0.3-4
	c0.1-0.9,0.4-2,1.2-2s1.3,1.1,2,1.6c1.1,0.6,2.4,0.2,2.9-0.9l0,0l0.1-0.1c0.4-1.1,0.5-2.4,0.1-3.5c-1.2-4.6-4.3-8.4-8.5-10.6
	c-1.5-0.6-2.8-1.3-4.2-2.2c-1.3-1.2-2.5-2.6-3.3-4.1c-7.6-12.5-15.2-25-20.5-38.5c-1.1-2.4-1.8-5-2.1-7.6c-0.1-2.7,0-5.3,0.3-8
	c0.3-4.8-0.1-9.6-1.3-14.3c-0.3-1.2-0.7-2.4-1.4-3.5c-2.2-3.3-7.4-3.8-10.6-1.5c-2.4,1.9-4,4.7-4.2,7.7c-0.2,2.7,1.3,5.5,2.1,8
	C155.5,575.6,158,583.4,160.4,591.1z"/>
<path class="st15" d="M206,521.5c0.1-1.3-1-2.4-2.3-3.2c-1.4-0.7-2.7-1.5-3.9-2.4c-1.2-1-1.8-2.3-2.9-3.3c-1.3-1-2.8-1.7-4.4-2.2
	c-3.4-1.2-6.9-1.8-10.5-1.9c-3.5-0.1-7,0.8-10.1,2.7c-0.7,0.4-1.3,1-1.7,1.6c-0.4,0.8-0.7,1.6-0.8,2.5c-0.6,2.7-1.5,5.4-2.6,8
	c-1.1,2.9-2.3,5.9-5,8.1c-2.9,2.4-7.2,3.8-9.1,6.6c-0.4,0.5-0.6,1.2-0.4,1.8c0.3,0.7,1.1,1.2,1.9,1.7c4.6,2.7,8.6,6.1,10.7,10.2
	c2.2,4.1,1.8,9-0.9,12.8c-1.1,1.4-2.6,3.1-1.5,4.5c1.6,2.1,7.1,0.9,8.3,3.2c0.3,0.8,0.3,1.6,0.2,2.3c0,2.4,2.3,4.5,5.1,5.6
	c2.9,1,6,1.5,9.1,1.5c0.8-1.9,0.9-4,0.2-5.9c-0.2-0.4-0.3-0.9-0.2-1.3c0.2-0.5,0.6-1,1-1.3c3.4-3.2,2.6-7.8,0.6-11.6
	s-5.1-7.2-6.3-11.1c-0.6-2-0.6-4.2,1-5.8c0.9-0.8,1.9-1.5,2.9-2.1c1.8-1.2,3.2-3,4-5c0.9-2.6,0.8-5.7,3.5-7.5s6.3-1.2,9.2-2.3
	C203.2,526.7,205.8,523.3,206,521.5z"/>
<circle class="st21" cx="291.5" cy="526.9" r="16.6"/>
<path class="st21" d="M306.4,526.2c3.1,5,8.1,8.4,13.8,9.7l-1.2,4.5c-2.2,7.8-4.6,16.1-10.6,21.5c0.5-2.7-0.1-5.5-1.7-7.8
	c-1.6-2.2-3.5-4.2-5.6-5.9l-9.6-8.3c-0.3-0.2-0.5-0.5-0.7-0.8c-0.2-0.6-0.2-1.2,0-1.8c1.2-3.8,4.7-6.2,7.5-8.7
	c1.4-1.3,2.7-2.8,3.8-4.4C304,521.4,305.2,524.2,306.4,526.2z"/>
<path class="st3" d="M308.6,547.7c0.1,1.2-0.1,2.5-0.5,3.7c-0.5,1.2-1.8,1.8-3,1.5c0.4-0.8-0.6-1.7-1.4-1.6
	c-0.9,0.2-1.6,0.8-1.9,1.6c-0.6,1.1-0.8,2.5-0.5,3.7c0.3,1.6,1.2,3.1,0.9,4.7c-0.2,1.3-1.2,2.6-0.6,3.8c0.3,0.6,0.8,1.1,1.2,1.5
	c1.4,1.7,1.2,4.3-0.5,5.8l13,0.3c-0.5,2.2,0.5,4.4,1.6,6.3c6.3,10.7,17.3,17.9,29.6,19.3c-1.2,0.7-1.6,2.3-0.9,3.5
	c0.1,0.1,0.2,0.3,0.3,0.4c1.1,1,2.8,0.9,4.2,0.2c1.3-0.8,2.4-1.7,3.6-2.7c2.1-1.5,4.7-2.2,7.3-2c1.6,0.2,3.2,0.7,4.8,0.8
	c4.8,0.3,8.9-3.2,13.5-4.6c3.4-1,7.2-1,10-3.1c1.2-0.9,2.2-2.4,1.9-3.9c-0.3-0.8-0.8-1.6-1.4-2.3c-1.6-2.1-2.6-4.6-3.8-7
	c-2.3-4.7-5.5-9-9.4-12.5c-2.9-2.6-6-4.9-9.3-7c-0.8-0.6-1.6-1.1-2.5-1.5c-1.2-0.4-2.3-0.8-3.4-1.4c-1.5-1-2.4-2.7-3.6-4
	c-2.6-3-6.5-4.4-9.7-6.7c-2.1-1.6-4-3.7-6.5-4.4c-1.2-0.4-2.5-0.4-3.8-0.8c-2.8-0.8-4.8-3.3-7.6-4.3c-2.2-0.8-4.6-0.6-6.9-0.9
	c-2.5-0.3-5-1.2-7.1-2.7c-0.7-0.6-1.5-1-2.3-1.3c-3.5-1-3.8,5.4-4.1,7.7C309.4,541,308.6,544.3,308.6,547.7z"/>
<path class="st21" d="M312,569.4c0.6,6.3-4.2,12.4-2.8,18.6c0.3,1.3,0.9,2.6,1.1,3.9c0.6,3.7-1.6,7.1-3.7,10.2l-18,26.3
	c-0.7,1.2-1.6,2.2-2.6,3.2c-3.4,3-8.6,2.7-13.1,3.7c-3.2,0.6-6.2,2-8.8,3.9c-0.2,0.2-0.3,0.5-0.1,0.8c1.5,2.1,4,3.2,6.5,3.1
	c0.5,0.6,0,1.5-0.6,2c-1,0.7-2.3,0.8-2.5,2.5c-0.1,0.6,0,1.1,0.3,1.7c0.7,1.1,1.9,1.9,3.1,2.2c6.2,1.9,12.9-1.4,17.6-6
	s8-10.3,12.6-14.9c2.5-2.6,5.4-4.8,8-7.2c5.2-5,9.2-11,13.1-17c1.3-1.8,2.2-3.7,2.8-5.8c0.5-2,0.3-4.2,0.8-6.3
	c0.7-2.7,2.7-4.8,4.3-7c3.2-4.4,5.3-9.8,4.9-15.2s-3.8-10.7-8.9-12.6c-1.6-0.6-3.3-0.7-5-0.3c-2.1,0.6-3.6,2.4-5.1,4l-3.4,3.9
	c-0.9,0.9-1.5,1.9-2,3c-0.4,1.2-0.2,2.5,0.7,3.3"/>
<path class="st29" d="M321,543.5c-2.4,0.1-5,0.4-6.6,2c-0.7,0.8-1.3,1.7-1.7,2.6c-1.6,3.3-3.2,6.7-3.3,10.4
	c-0.1,2.9,0.8,5.8,1.2,8.7c0.4,2.4-0.6,4.9-0.8,7.3c3.3-0.9,6.4-2.1,9.4-3.6c1.7-1.1,3.6-2.1,5.5-2.9c2.8-0.9,7.5,0.7,10.2,2
	c0.1-1.9-1.3-5.2-1.1-7c0-0.8,0.2-1.6,0.4-2.3c0.4-0.8,0.9-1.5,1.4-2.3c2.1-3.4,1.8-7.8-0.8-10.8c-2.4-2.7-6.1-3.7-9.6-4.1
	c-2.2-0.3-4.5-0.3-6.7-0.2"/>
<path class="st30" d="M269.6,510.2l-0.4-3.1c2.6,0.7,5.1-1.5,6.8-3.9s3.2-5,5.8-6c3.1-1.2,6.4,0.7,9.4,2.2c3.3,1.9,7,3.1,10.8,3.6
	c0.6,0,1.2,0.1,1.8,0.3c1.9,0.7,2.9,3.1,3.1,5.3s0.2,4.5,1.1,6.5c0.7,1.5,2,2.6,2.7,4c2,3.9,0.1,9.3,2.2,13.2l-5.3-4.9
	c-0.5-0.5-1.2-0.9-1.7-0.5s-0.5,1-0.6,1.5c-0.6,1.4-2.3,2.1-3.7,1.4l0,0h-0.1c-1.3-0.8-2.5-1.8-3.4-3.1c-2.2-2.8-5.1-5-8.5-6.4
	c-2.9-1.1-6.2-0.9-9,0.5c-2.5,1.4-4.3,4.7-7.4,4.8c-4.2,0.2-5.9-7.6-7.9-10.7c1.5-1.1,1.9-3.1,1.1-4.7
	C266.8,510,269.5,509.7,269.6,510.2z"/>
<linearGradient id="SVGID_1_" gradientUnits="userSpaceOnUse" x1="699.3177" y1="-24.8044" x2="699.3177" y2="275.7638" gradientTransform="matrix(1 0 0 -1 -51.77 774.98)">
	<stop  offset="0" style="stop-color:#808080;stop-opacity:0.25"/>
	<stop  offset="0.54" style="stop-color:#808080;stop-opacity:0.12"/>
	<stop  offset="1" style="stop-color:#808080;stop-opacity:0.1"/>
</linearGradient>
<path class="st31" d="M718.5,793.5c-0.8-3.4-1.3-6.4-1.3-6.4c0.1-2.3-0.4-4.5-1.5-6.5v-0.9l0,0v-6.9c0.5-1.3,1.1-2.5,1.7-3.6
	c1.2-2.2,0-10.1,0-10.1s-4.6-11.2-3.5-18.3s-9.4-31.5-9.4-31.5c0.1-2.4,0.4-4.7,1-7c0.1-0.5,0.2-1,0.1-1.5v-0.1
	c-0.2-4.7-3.9-13.5-3.9-13.5l0.5-16.7c0,0,2.4-9.9-1.5-23.1c-1.3-4.6-2.2-8.3-2.8-11.2c-0.1-0.3-0.1-0.6-0.2-0.9
	c7.9-1.2,14-2.2,14-2.2s-4.6-19.3-7.7-22.6s-5.6-14-5.6-14s-1.6-13.6,1-17.6s3-10.8,3-10.8s6-4.3,6.7-6.3c1.1-2.7,1.7-5.6,2-8.5
	c0-2.3-0.8-4.3-0.5-5.5s-1.7-5.8-0.7-7.9c0.3-0.7,0.4-1.4,0.4-2.1v-0.1l0,0c0-1.9-0.2-3.8-0.5-5.7c-1.7-1.5-3.7-2.5-5.9-3.2
	l-0.1-0.5l-0.3-1.3c-0.2-0.1-0.4-0.2-0.6-0.3V524l0.9-4.4c1.8-7.6-8.4-8.8-8.4-8.8c-0.6-1.2-1.6-2.1-2.9-2.5
	c-2-0.7-0.3,11.5,0.6,12.3c0.7,0.6,3,4.4,4,6.3l0,0l0.2,0.3c-0.2,0.1-0.3,0.3-0.5,0.5l0.4,2.7l0.1,0.4c-0.7,0.8-1.2,1.8-1.6,2.8
	c0,0,1.9,2,1.5,4.3c-0.1,1.8,0.1,3.6,0.6,5.3c-0.1-0.1-1.4-1.5-2.7-1.2s-5,1.4-5,1.4s-2.7,0.5-2.5,1.1s-1.9,3.3-1.9,3.3l-7.3-7
	c-0.1-0.2-0.2-0.4-0.2-0.6c-0.3-1-0.5-2-0.6-3c0.8-0.2,1.6-0.4,2.3-0.8c0.8-0.3,1.4-0.7,2-1.3c0.6-1,1-2,1.2-3.2
	c0.6-2.1,1.8-4,2.7-6.1c1.5-3.4,2-7.1,1.4-10.8c-0.1-1.1-0.5-2.2-1.1-3.2c-1.2-1.6-3.4-2.3-5-3.6s-2.6-3.3-4.5-4.3
	c-1.8-0.8-3.7-0.9-5.6-0.5c-3.7,0.6-7.2,1.9-10.4,3.8c-1.1,0.6-2.3,1.4-3.5,1.1c-1-0.3-1.9-1-2.5-1.8v-0.1l-0.1-0.1
	c-0.8,1.7-1.2,3.6-1.1,5.5v1.4l0,0c0,0.1,0,0.3-0.1,0.4c-0.1,0.4-0.4,0.7-0.7,1c-0.2,0.2-0.4,0.5-0.6,0.8c0-0.1,0-0.2,0.1-0.3
	c-0.5,0.7-0.7,1.5-0.8,2.3c0,0.6,0.2,1.2,0.6,1.7c0.4,0.4,0.8,0.7,1.2,1c-1,5.8,1.7,11.6,6.7,14.6l0.3,0.6c1.1,2.5,1.5,5.3,1.3,8
	c0,0.2,0,0.4-0.1,0.6l-0.3,0.3l0,0c0,0-12.1,0.1-15-2.5s-7.2,6.3-7.2,6.3s-4.3,0.8-5.2,0s-6-0.1-6-0.1c-2.1-1.8-4.8-2.8-7.6-2.8
	c-1.7-1.3-3.6-2.3-5.6-3.1l0,0h-0.1l0,0c-0.9-0.3-1.8-0.4-2.7-0.3c0,0-6-4.9-7.7-7.6s-10-12.5-10.1-12.5v-0.5l-0.1-1.4
	c-0.2,0-0.5,0.1-0.7,0.1c0-0.2-0.1-0.3-0.2-0.5c-0.5-1.4-1.1-2.7-1.8-4c0,0,0-1.8,0.5-2.3s-0.2-7.1-0.2-7.1s-5.4-12.6-10.2-3.2
	c0,0-9.1,6.1-1.5,13.2c0,0,3,1.5,3.5,2.6c0.3,0.8,1.3,2.9,2,4.3l0.3,0.6l-0.1,0.1l0.1,1.2v0.5c-1.4,0.8-2.4,1.6-2.2,2.2
	c0.4,1,0.7,2.1,0.9,3.3c0,0,10.6,13.2,11.9,18.9c0,0,28.3,16.8,37.7,18l-1.6,8.4c-0.2,2.3-0.4,4.6-0.4,6.9c0.1,1.8-1.1,10-1.1,10
	s-1.6,12-3,13.7s-1.1,8.9-1.1,8.9c-0.3,3.5-0.9,6.9-1.9,10.2c-1.4,4.6-0.4,10.2-0.4,10.2s-4.7,10.8,6.6,3.5c0,0,5.5-0.3,12-0.6v3.3
	c-0.1,6.2-0.1,14.8,0.2,21.2c0.5,11.4,4,34,4,34v11.3c-0.2,1.1-0.3,2.2-0.3,3.3c-0.1,4,1,8,3.1,11.4l0.9,7.6c0,0,2,5,2.1,8
	c0,0.2,0,0.5-0.1,0.7c-0.1,0.4-0.1,0.8-0.1,1.2c-0.1,3.4,2,11.7,2,11.7s0.1,8.3,1.4,8.8c1.1,0.4-1.4,4.8-2.2,6c0-0.1,0-0.2,0-0.2
	l-0.2,0.3c-0.3,0.7-0.4,1.4-0.4,2.1c-0.1,1.2,0.4,2.3,1.4,2.9c2.4,1.5,3.6,2.7,1.6,3.1c-0.7,0.1-1.5,0.3-2.2,0.5
	c0-0.1-0.1-0.2-0.1-0.3c-0.5,0.2-0.9,0.8-0.8,1.4c0,1,0.3,1.9,0.8,2.8c0.9,2.2,2,4.2,3.4,6.1l1-0.1c-0.1,0.4-0.3,0.7-0.6,1
	c-0.4,0.5-0.8,0.9-1.4,1.2c-0.5,0.3-1.1,0.5-1.7,0.6c-1.4,0-2.6,0.7-3.5,1.7c-1.2,1.6-2,3.8,0.4,5.7l8.9,3.1c0,0,15.3,2,14.5-1.4
	s-1.3-6.4-1.3-6.4c0.1-2.1-0.4-4.2-1.3-6.1c-0.1-0.3-0.3-0.6-0.5-0.9l0.5-0.1c0,0,1.1-7.6,2.6-9c0.3-0.3,0.4-0.6,0.3-0.8
	c0.2-0.4-0.2-0.7-0.7-0.8l-0.1,0.3c-0.5-0.1-1-0.2-1.5-0.2c0,0-0.5-4,1.1-5.4c0.3-0.3,0.4-0.8,0.3-1.2c0-0.5,0-1.1-0.2-1.6l-0.1,0.1
	c-0.9-3.2-2.1-6.3-3.6-9.3c0,0-0.1-3.6,0.9-5.1s-0.1-19.6-0.1-19.6s0.4-8.8-0.8-12.9s1.4-8.9,1.4-8.9v-0.3c0,0-0.1-0.5-0.2-1.4v0.1
	c-0.3-2.3-0.7-6.5-1.1-8.5c-0.5-2.8,0.1-16,0.1-16l2.2-5.7l4,9.7l4.2,13c1.2,1.6,2,3.5,2.2,5.5v0.4c0,0.3,0,0.6,0,0.9
	c-0.1,1.6,0.4,3.3,1.3,4.6c0,0,1.1,6.1,2.9,7.7s1.7,4.6,1.7,4.6s2.1,8.9,3.1,10.5c0.8,1.3,0.9,4.9,0.9,6l0,0v0.3
	c0,0,0.3,3.2,0.3,5.9v0.9c0,0.7-0.1,1.5-0.3,2.2V750c-0.4,1.8-0.7,3.7-0.6,5.5c-0.1,3.2,0.4,7,2.4,9.2c3.4,3.8,5.5,3.4,5.5,3.4
	s-1.7,4.8-3.7,5.8l-0.2,0.1c0-0.1,0-0.2,0-0.3c-0.4,0.5-0.6,1.1-0.6,1.8c0.1,2.6,0.9,5.1,2.5,7.1c0.5,0.5,1,0.8,1.7,1l-0.3,0.2
	c-0.2,0.1-0.5,0.2-0.7,0.3c-0.3,0.1-0.7,0.2-1,0.3c-1.4,0-2.6,0.7-3.5,1.7c-1.2,1.6-2,3.8,0.4,5.7l8.9,3.1
	C704.1,794.9,719.2,797,718.5,793.5z"/>
<path class="st32" d="M660.1,799.2l-8.6-3.1c-2.4-1.9-1.6-4.1-0.4-5.7c0.8-1,2.1-1.7,3.4-1.7c0.6-0.1,1.1-0.3,1.7-0.6
	c0.5-0.3,1-0.7,1.4-1.2c0.6-1,1-2.1,1-3.3c0,0,9.5-2.8,12,0c0.5,0.5,0.8,1.1,1.2,1.7c0.9,1.9,1.3,4,1.2,6.1c0,0,0.5,3,1.3,6.4
	S660.1,799.2,660.1,799.2z"/>
<path class="st32" d="M702.2,795l-8.6-3.1c-2.4-1.9-1.6-4.1-0.4-5.7c0.8-1,2.1-1.7,3.4-1.7c0.3,0,0.7-0.1,1-0.3
	c0.2-0.1,0.5-0.2,0.7-0.3c2.4-1.3,2.3-4.6,2.3-4.6s9.4-2.8,12,0c0.3,0.4,0.7,0.8,0.9,1.2c1,2,1.5,4.3,1.5,6.5c0,0,0.5,3,1.3,6.4
	S702.2,795,702.2,795z"/>
<path class="st20" d="M670.5,783.5c0.5,0.5,0.8,1.1,1.2,1.7l0,0l-14.2,1.6c0.6-1,1-2.1,1-3.3C658.5,783.5,667.9,780.8,670.5,783.5z"
	/>
<path class="st20" d="M713.5,780.5v2.7c-2.2,3.6-12.8,2.8-15.9,1c0.2-0.1,0.5-0.2,0.7-0.3c2.4-1.3,2.3-4.6,2.3-4.6s9.4-2.8,12,0
	C712.9,779.7,713.2,780.1,713.5,780.5z"/>
<path class="st4" d="M715.2,769.1c-0.7,1.2-1.2,2.4-1.7,3.6v9.5c-2.4,4-14.9,2.7-16.6,0.5s-3.5-7.8-1.6-8.8s3.5-5.8,3.5-5.8
	s-2,0.5-5.3-3.4s-2.3-12.4-1.7-14.4s0-8.9,0-8.9s0.1-4.8-0.8-6.4s-3-10.5-3-10.5s0-3-1.7-4.6s-2.8-7.7-2.8-7.7
	c-1-1.5-1.4-3.4-1.2-5.2c0.4-3-2-6.3-2-6.3l-4.1-13l-3.8-9.8l-2.2,5.7c0,0-0.6,13.2-0.1,16s1.2,10.1,1.2,10.1s-2.4,4.8-1.3,8.9
	s0.7,12.9,0.7,12.9s1.1,18.2,0.1,19.6s-0.8,5-0.8,5s4.9,10.6,3.4,12s-1.1,5.4-1.1,5.4s3.4,0,1.9,1.4s-2.5,9-2.5,9l-14.6,1.9
	c-1.3-1.9-2.4-4-3.3-6.1c-1.9-4.5,0.4-4,2.3-4.5s0.7-1.7-1.6-3.1s-1-4.7-1-4.7s3.5-5.9,2.3-6.4s-1.3-8.8-1.3-8.8s-2.4-9.9-1.8-12.5
	s-1.9-9-1.9-9l-0.8-7.6c-2.6-4.3-3.5-9.4-2.6-14.3v-11.7c0,0-3.4-22.6-3.9-34c-0.3-7.3-0.2-17.3-0.1-23.5c0.1-3.5,0.1-5.8,0.1-5.8
	l52-5.4c0.1,2.6,0.4,5.2,1,7.7c0.5,2.8,1.4,6.5,2.7,11.2c3.7,13.2,1.5,23.1,1.5,23.1l-0.5,16.7c0,0,4.6,11.2,3.6,15
	c-0.6,2.3-0.9,4.6-1,7c0,0,10.2,24.4,9.2,31.5s3.4,18.3,3.4,18.3S716.4,767,715.2,769.1z"/>
<path class="st22" d="M685.5,706.4l15.8-2.1C701.2,704.3,692.3,713.5,685.5,706.4z"/>
<path class="st20" d="M699,688.8c0,0,0.5,5.6-2.9,7.7C696.1,696.5,702.2,695.6,699,688.8z"/>
<path class="st20" d="M698,671c0,0-13.2,10.9-18,10S698,671,698,671z"/>
<path class="st20" d="M665.8,711.5c0,0-10,2.3-10.3,6.3S665.8,711.5,665.8,711.5z"/>
<path class="st22" d="M668,761.7c0,0-14.2,2.7-10.2,4.5c3.5,1.4,7,2.5,10.7,3.2C668.5,769.4,673.1,769.6,668,761.7z"/>
<g class="st33">
	<path d="M655,769c-0.7-0.5-1.2-1.2-1.3-2.1l-0.1,0.3c0,0-1.3,3.2,1,4.7c0.3,0.2,0.5,0.3,0.7,0.5c0.4-0.1,0.9-0.1,1.3-0.3
		C658.5,771.7,657.3,770.5,655,769z"/>
	<path d="M673.3,768.1c0.4-0.4,0.4-1.3,0.1-2.5c-0.6,1.1-0.9,2.3-0.8,3.5C672.8,768.7,673,768.3,673.3,768.1z"/>
	<path d="M671.1,708.2c-0.5,1.4-0.9,2.9-1,4.4c0.3-1,0.6-2,1.1-3C671.2,709.1,671.2,708.7,671.1,708.2z"/>
	<path d="M703.6,701.9c0.1-0.4,0.1-0.9,0.1-1.3c-0.2,0.9-0.3,1.7-0.4,2.5C703.4,702.7,703.5,702.3,703.6,701.9z"/>
	<path d="M670.8,751c0.3-0.9,0.4-1.8,0.4-2.7c-0.4,1.1-0.7,2.2-0.7,3.4C670.5,751.5,670.6,751.2,670.8,751z"/>
	<path d="M673.8,773.7c-0.7,2.4-1.3,4.9-1.7,7.4l-14.5,1.7c-1.3-1.9-2.4-4-3.3-6.1c-0.2-0.3-0.3-0.7-0.4-1.1c-0.9,0.4-1.2,1.3-0.1,4
		c0.8,2.2,1.9,4.2,3.3,6.1l14.5-1.7c0,0,1.1-7.6,2.5-9C674.8,774.2,674.4,773.8,673.8,773.7z"/>
	<path d="M654.5,752c0,0,0.1,8.3,1.3,8.8l0,0c0.6-1.4,1-2.7,0.5-2.9c-1.2-0.5-1.3-8.8-1.3-8.8s-2.4-9.9-1.8-12.5s-1.9-9-1.9-9
		l-0.8-7.6c-2.6-4.3-3.5-9.4-2.7-14.3V694c0,0-3.4-22.6-3.8-34c-0.3-7.3-0.2-17.3-0.1-23.5v-3h-0.4c0,0-0.1,2.3-0.1,5.8
		c-0.1,6.2-0.2,16.2,0.1,23.5c0.5,11.4,3.8,34,3.8,34v11.7c-0.9,5,0.1,10.1,2.8,14.5l0.8,7.6c0,0,2.5,6.4,1.9,9S654.5,752,654.5,752
		z"/>
	<path d="M697.4,779.5c-1.2-1.7-2-3.7-2.3-5.7c-1.5,1.3,0.2,6.5,1.8,8.6s14.2,3.5,16.6-0.5v-2.3C710.2,782.8,699,781.5,697.4,779.5z
		"/>
	<path d="M715.7,765.9c-0.7,1.2-1.2,2.4-1.7,3.6v1.7c0.3-0.6,0.7-1.4,1.2-2.4c0.4-1,0.6-2,0.5-3V765.9z"/>
	<path d="M698.1,767.8c0.5-0.9,0.9-1.9,1.2-2.9c0,0-2,0.5-5.3-3.4c-2.4-2.8-2.5-8.1-2.2-11.5c-0.6,2-1.6,10.6,1.7,14.4
		C695.6,767,697.2,767.6,698.1,767.8z"/>
	<path d="M691.8,741.1c0.2,2.4,0.3,4.8,0.2,7.1c0.1-0.5,0.2-0.8,0.2-1.1c0.6-2,0-8.9,0-8.9s0.1-4.8-0.8-6.4s-3-10.5-3-10.5
		s0-3-1.7-4.6s-2.8-7.7-2.8-7.7c-1-1.5-1.4-3.4-1.2-5.2c0.4-3-2-6.3-2-6.3l-4.1-13l-3.9-9.7l-2.2,5.7c0,0,0,0.7-0.1,1.8l1.8-4.6
		l3.8,9.7l4.1,13c0,0,2.4,3.3,2,6.3c-0.2,1.8,0.3,3.6,1.3,5.1c0,0,1.1,6.1,2.8,7.7s1.7,4.6,1.7,4.6s2,8.9,3,10.5
		S691.8,741.1,691.8,741.1z"/>
</g>
<path class="st34" d="M701.9,519.7l-0.9,4.4v2v1.4l-5,0.5l-0.6-1l0,0c-1-1.9-3.2-5.7-3.9-6.3c-0.9-0.8-2.6-13-0.6-12.3
	c1.2,0.5,2.2,1.4,2.8,2.5C693.8,511.1,703.7,512.1,701.9,519.7z"/>
<path class="st20" d="M701.1,527.5l-5,0.5l-0.6-1l0,0c1.4-1.6,3.7-2,5.5-0.9L701.1,527.5z"/>
<path class="st35" d="M702.4,529.9l-6.6,1.5l-0.1-1l-0.4-2.7c1.5-2,4.4-2.4,6.4-0.9l0,0l0.3,1.3L702.4,529.9z"/>
<path class="st34" d="M595.1,520.2L588,524l-0.6-1.3c-0.7-1.4-1.7-3.5-2-4.3c-0.4-1.2-3.4-2.7-3.4-2.7c-7.4-7.1,1.4-13.1,1.4-13.1
	c4.7-9.4,9.9,3.2,9.9,3.2s0.7,6.6,0.2,7.1s-0.5,2.3-0.5,2.3c0.7,1.3,1.2,2.6,1.7,4C595,519.8,595.1,520.2,595.1,520.2z"/>
<path class="st20" d="M595.1,520.2L588,524l-0.6-1.3c1-0.8,4.5-3.7,5.7-3.6c0.6,0.1,1.1,0.1,1.7,0
	C595,519.8,595.1,520.2,595.1,520.2z"/>
<path class="st35" d="M595.9,522.3l-7.9,3.9l-0.2-1.7l-0.1-1.2c0,0,4.6-4,6-3.8c0.7,0.1,1.4,0.1,2.1,0l0.1,1.4L595.9,522.3z"/>
<path class="st34" d="M682.7,548.9c0,0-34.6,3.9-28.2,1.8c4.5-1.5,6.3-4.3,6.7-7.5c0.2-2.7-0.3-5.5-1.3-8c-0.8-2.2-1.9-4.3-3.1-6.3
	c0,0,26.5-14.6,21.2-1.3c-0.8,2-1.3,4.1-1.5,6.3c-0.2,2.1,0.1,4.3,0.7,6.3C678.2,543.6,680.1,546.6,682.7,548.9z"/>
<path class="st20" d="M678,527.6c-0.8,2-1.3,4.1-1.5,6.3c-2.5,2.1-5.2,2-8.7,2c-2.7,0-5.7,0.7-7.8-0.6c-0.8-2.2-1.9-4.3-3.1-6.3
	C656.8,529,683.3,514.4,678,527.6z"/>
<circle class="st34" cx="667.3" cy="522.5" r="14.3"/>
<path class="st20" d="M682.7,548.9c0,0-34.6,3.9-28.2,1.8c4.5-1.5,6.3-4.3,6.7-7.5c1.7-1.9,5.2-3.2,7.4-3.9c2-0.7,4.2-0.7,6.3-0.1
	c0.8,0.2,1.6,0.6,2.3,1C678.2,543.5,680.1,546.6,682.7,548.9z"/>
<path class="st20" d="M702.4,529.9l-6.6,1.5l-0.1-1c1.4-2,4-2.9,6.4-2.2L702.4,529.9z"/>
<path class="st20" d="M595.9,522.3l-7.9,3.9l-0.2-1.7c2.6-1.4,5.2-2.6,8-3.5L595.9,522.3z"/>
<path class="st20" d="M696.4,636.2c-13.4,2.1-32.5,4.9-35.5,4c-2.5-0.8-10.5-0.7-17.5-0.5c0.1-3.5,0.1-5.8,0.1-5.8l52-5.4
	C695.5,631.1,695.8,633.6,696.4,636.2z"/>
<path class="st13" d="M709.8,633c0,0-44.2,7.6-48.9,6.1s-29.1,0.1-29.1,0.1c-11,7.3-6.4-3.5-6.4-3.5s-1-5.7,0.4-10.2
	c0.9-3.4,1.5-6.8,1.8-10.2c0,0-0.2-7.2,1.1-8.9s2.9-13.7,2.9-13.7s1.2-8.2,1.1-10s0.4-6.8,0.4-6.8l1.6-8.4c-9-1.2-36.5-18-36.5-18
	c-1.3-5.7-11.5-18.9-11.5-18.9c-0.1-1.1-0.4-2.2-0.8-3.3c-0.7-1.9,10.1-5.8,10.1-5.8s8.1,9.9,9.7,12.5s7.5,7.6,7.5,7.6
	c0.9-0.1,1.8,0,2.7,0.3h0.1c1.9,0.8,3.7,1.8,5.4,3.1c2.7-0.1,5.3,0.9,7.3,2.8c0,0,4.9-0.7,5.8,0.1s5,0,5,0s4.2-8.9,7-6.3
	S661,544,661,544c1.6-2.1,5.4-3.6,7.8-4.3c2-0.7,4.2-0.7,6.3-0.1c0.9,0.3,1.7,0.7,2.5,1.2l7.1,7c0,0,2-2.7,1.8-3.3s2.4-1.1,2.4-1.1
	s3.5-1.1,4.8-1.5s2.5,1.1,2.6,1.2c-0.5-1.7-0.7-3.5-0.6-5.3c0.1-1.6-0.4-3.1-1.4-4.3c4.3-10.3,13.8-1.6,13.8-1.6s1.1,5.7,0.1,7.8
	s1,6.7,0.7,7.9s0.5,3.3,0.5,5.5c-0.3,2.9-0.9,5.8-1.9,8.5c-0.7,1.9-6.5,6.3-6.5,6.3s-0.4,6.9-2.9,10.8s-1,17.6-1,17.6
	s2.4,10.6,5.4,14S709.8,633,709.8,633z"/>
<path class="st20" d="M645.4,553.8c0,0-1.3-4-2.5-4.3c-1.2-0.4-2.4-1-3.5-1.6l0.8-1.5c0,0,4.5,1.2,5.2,2.6S645.4,553.8,645.4,553.8z
	"/>
<path class="st20" d="M621.2,545.1c-0.2,1.2-10.9,2.3-10.9,2.3l5.4-5.4l0,0h0.1l0,0C617.8,542.7,619.6,543.8,621.2,545.1z"/>
<circle class="st36" cx="590.2" cy="528.5" r="1"/>
<circle class="st36" cx="591.4" cy="530.5" r="1"/>
<circle class="st36" cx="592.7" cy="532.3" r="1"/>
<circle class="st36" cx="593.9" cy="534.2" r="1"/>
<circle class="st36" cx="707.3" cy="534.1" r="0.8"/>
<circle class="st36" cx="707.5" cy="535.8" r="0.8"/>
<circle class="st36" cx="707.5" cy="537.6" r="0.8"/>
<path class="st20" d="M645.4,586.5c-0.1-0.1,27,34.1,48.1,14.3C693.5,600.8,660.2,605.3,645.4,586.5z"/>
<path class="st20" d="M629.9,604.3c0,0,16.2,0.4,17.9,5.1v4.9c-0.9,0.5-2.1,0.5-3,0c-1.6-0.9-11.5-5.9-14.9-3.5V604.3z"/>
<path class="st20" d="M630.2,604.3c0,0,15.5,0.4,17.2,4.9v4.6c-0.9,0.5-2,0.5-2.9,0c-1.6-0.8-11-5.6-14.3-3.3V604.3z"/>
<path class="st20" d="M638.7,569c1.7,3.8,3.8,7.4,6.3,10.8c2.7,3.7,6.1,6.9,9.9,9.5C654.9,589.3,639,571.3,638.7,569z"/>
<path class="st20" d="M633.4,550.2c0,0,2.7,11.7,9.7,15.7L633.4,550.2z"/>
<path class="st20" d="M629.2,551.3c-0.1-0.2-2.4,9.2,9,14.5C638.2,565.8,633.4,564.2,629.2,551.3z"/>
<path class="st20" d="M700.1,543.5c-0.2,0,5.6,3.7,7.2,5.4C707.3,548.9,703.6,543.3,700.1,543.5z"/>
<path class="st32" d="M663.4,535.4c0.1,0.8,0.5,1.5,1.1,1.9c0.4,0.2,0.9,0.3,1.3,0.3c4.4,0.3,8.9,0.5,13-1.2c0.8-0.3,1.5-0.7,2-1.3
	c0.6-1,0.9-2,1.1-3.2c0.6-2.1,1.8-4,2.7-6.1c1.5-3.4,2-7.2,1.4-10.9c-0.1-1.1-0.5-2.2-1.1-3.2c-1.2-1.6-3.3-2.3-4.8-3.6
	s-2.5-3.3-4.3-4.3c-1.7-0.8-3.6-0.9-5.4-0.5c-3.6,0.6-7,1.9-10.1,3.8c-1,0.6-2.2,1.4-3.4,1.1c-1-0.3-1.9-1-2.5-1.9
	c-0.9,2-1.2,4.1-1.1,6.2c0,0.3,0,0.6,0,0.9c-0.1,0.4-0.4,0.7-0.7,1c-1.1,1.3-1.8,3.2-0.7,4.5c0.5,0.5,1.2,0.8,1.6,1.4
	c0.8,1,0.5,2.5,0.5,3.7c0,0.4,0.1,0.9,0.3,1.3c0.5,0.4,1.1,0.6,1.8,0.4c0.6-0.2,1.2-0.2,1.9-0.2c0.7,0.2,1.3,0.7,1.6,1.3
	C661.8,529.5,662.6,532.3,663.4,535.4z"/>
<g class="st37">
	<path d="M681.2,534c-0.5,0.6-1.2,1-2,1.3c-4,1.7-8.6,1.5-12.9,1.2c-0.5,0-0.9-0.1-1.3-0.3c-0.6-0.5-1-1.2-1.1-1.9
		c-0.8-3.1-1.6-5.9-3.7-8.5c-0.4-0.6-1-1-1.6-1.3c-0.6-0.1-1.3,0-1.9,0.2c-0.6,0.2-1.3,0-1.8-0.4c-0.3-0.4-0.4-0.8-0.3-1.3
		c0-1.3,0.3-2.7-0.5-3.7c-0.5-0.6-1.2-0.9-1.6-1.4c-0.6-0.8-0.7-1.9-0.3-2.9c-0.8,1.2-1.1,2.8-0.2,3.8c0.5,0.5,1.2,0.8,1.6,1.4
		c0.8,1,0.5,2.5,0.5,3.7c0,0.4,0.1,0.9,0.3,1.3c0.5,0.4,1.1,0.6,1.8,0.4c0.6-0.2,1.2-0.2,1.9-0.2c0.7,0.2,1.3,0.7,1.6,1.3
		c2,2.6,2.8,5.4,3.7,8.5c0.1,0.8,0.5,1.5,1.1,1.9c0.4,0.2,0.9,0.3,1.3,0.3c4.4,0.3,8.9,0.5,13-1.2c0.8-0.3,1.4-0.7,2-1.3
		c0.3-0.3,0.5-0.7,0.6-1.2C681.4,533.9,681.3,533.9,681.2,534z"/>
	<path d="M653.4,513.2c0.2-0.2,0.3-0.5,0.4-0.7c0-0.3,0-0.6,0-0.9c-0.1-1.8,0.1-3.5,0.7-5.2l-0.1-0.1c-0.9,2-1.2,4.1-1.1,6.2
		C653.4,512.7,653.4,512.9,653.4,513.2z"/>
</g>
<path class="st20" d="M660.8,544.1c0,0,17.9,2.4,19.5-0.3"/>
<path class="st20" d="M695.6,536.7c0,0,9.9,0,12.1,3.7"/>
</svg>
