<svg 
    id="Layer_1" 
    data-name="Layer 1" 
    xmlns="http://www.w3.org/2000/svg" 
    viewBox="0 0 1619.9 1108.11"
>
    
    <defs>
        <style>.cls-1{fill:#1A1A1A;}</style>
    </defs>
    
    <title>monotone-logo</title>
    
    <path 
        class="cls-1" 
        d="M1023,498,630.83-33.63V-56.11H-204.73v22.48L-596.9,498l392.17,531.57V1052H630.83v-22.48Zm-80.72,0L630.83,920.11V75.78ZM358.76,51.24,516.12,198.51H358.76ZM565.87,156.11,408.52,8.85H565.87ZM-516.19,498-204.73,75.78V920.11Zm376.41,489.1V8.85H293.81V263.46H565.87V987.05Z" 
        transform="translate(596.9 56.11)"
    />

    <path 
        class="cls-1" 
        d="M-98.73,247.06A43.07,43.07,0,0,0-91.4,251a48.39,48.39,0,0,0,7.92,2.51,39.23,39.23,0,0,0,8.45.95,33.83,33.83,0,0,0,19.94-6.07,44.44,44.44,0,0,0,13.18-15,71.4,71.4,0,0,0,7.21-20.46,120.1,120.1,0,0,0,2.25-23.55v-133h-73.33v38h41.37v95c0,10-1.31,17.46-3.9,22.27-2.22,4.12-4.46,4.69-6.55,4.69a16.66,16.66,0,0,1-8.28-2.47A33.83,33.83,0,0,1-92.28,206l-14.92-17.86v51.1l2.2,2.41A34.34,34.34,0,0,0-98.73,247.06Z" 
        transform="translate(596.9 56.11)"
    />

    <path 
        class="cls-1" 
        d="M-9.94,233.87A41.65,41.65,0,0,0,4.52,249.36c6.05,3.76,13.35,5.66,21.69,5.66a37.92,37.92,0,0,0,20.94-6,46.08,46.08,0,0,0,14.74-15.88,77.65,77.65,0,0,0,8.42-22.94A139.45,139.45,0,0,0,73,181.68V56.34H41.32V183.19c0,12.24-1.59,21.64-4.73,27.92-2.33,4.67-5.2,6.58-9.88,6.58a11.65,11.65,0,0,1-6.21-1.45,11.83,11.83,0,0,1-4.1-4.8,35.56,35.56,0,0,1-3.12-10.72,118.21,118.21,0,0,1-1.11-17.26V56.34h-31.7v129A150.72,150.72,0,0,0-17.36,212,71.15,71.15,0,0,0-9.94,233.87Z" 
        transform="translate(596.9 56.11)"
    />

    <path 
        class="cls-1" 
        d="M86.61,250.79a84.15,84.15,0,0,0,8.26,2.13c2.83.59,5.83,1.09,8.9,1.48a76.49,76.49,0,0,0,9.68.62,55.67,55.67,0,0,0,20.64-3.75,44.05,44.05,0,0,0,16.82-11.78,53.45,53.45,0,0,0,10.52-19,80.21,80.21,0,0,0,3.59-25,71.08,71.08,0,0,0-2.84-21.06,59.61,59.61,0,0,0-7.55-15.89A57.9,57.9,0,0,0,144,146.78a138.12,138.12,0,0,0-11.15-8.34q-5.36-3.58-10.51-7a45.39,45.39,0,0,1-7.69-6.3,25.89,25.89,0,0,1-4.87-7,20.86,20.86,0,0,1-1.65-8.88c0-5.84,1.29-10.19,4-13.31,2.3-2.68,6.45-4,12.32-4a43.85,43.85,0,0,1,10.38,1.33,60,60,0,0,1,11.25,4l12,5.66v-41l-5.32-2.12c-2.05-.82-4.29-1.59-6.66-2.3s-4.67-1.32-7-1.86-4.91-1-7.3-1.31a55.38,55.38,0,0,0-7-.48c-8.51,0-16.06,1.78-22.44,5.31A46,46,0,0,0,86.83,72.86a56.8,56.8,0,0,0-8.52,18.6,80,80,0,0,0-2.61,20.25,68.91,68.91,0,0,0,2.86,20.81,56.38,56.38,0,0,0,18.27,27.23c3.6,2.95,7.34,5.72,11.09,8.22q5.35,3.6,10.51,7a47.82,47.82,0,0,1,7.75,6.28,25.2,25.2,0,0,1,4.84,6.9,20.57,20.57,0,0,1,1.63,8.78,36.29,36.29,0,0,1-1.15,9.66,13.68,13.68,0,0,1-2.86,5.54,11.52,11.52,0,0,1-4.82,3.15,27.55,27.55,0,0,1-9.28,1.33,57.18,57.18,0,0,1-15.41-1.88,46.88,46.88,0,0,1-11.89-5.1L74.37,201.7v44.23l5.07,2.21A72.47,72.47,0,0,0,86.61,250.79Z" 
        transform="translate(596.9 56.11)"
    />

    <polygon 
        class="cls-1" 
        points="795.15 308.66 827.03 308.66 827.03 150.19 859.25 150.19 859.25 112.45 762.94 112.45 762.94 150.19 795.15 150.19 795.15 308.66"
    />

    <path 
        class="cls-1" 
        d="M-106.63,311.93v262a368.31,368.31,0,0,0,3.63,54c2.46,16.48,6.47,30.87,11.93,42.79,5.71,12.49,13.31,22.37,22.58,29.34,9.64,7.25,21.4,10.92,34.95,10.92A53.23,53.23,0,0,0,0,699.54c9.21-7.21,17-17.44,23.26-30.4,6-12.46,10.56-27.66,13.62-45.18a340.23,340.23,0,0,0,4.52-57.84V311.93H-1.14V569.29c0,27.41-3.06,48.75-9.11,63.42-6.8,16.51-16,18.42-22.42,18.42-5.47,0-9.86-1.32-13.43-4-3.84-2.93-7.1-7.5-9.68-13.59-2.86-6.76-5-15.42-6.25-25.74a311.78,311.78,0,0,1-2-37.89V311.93Z" 
        transform="translate(596.9 56.11)"
    />

    <polygon 
        class="cls-1" 
        points="748.15 761.91 748.15 428.77 804 428.77 804 368.04 649.44 368.04 649.44 428.77 705.29 428.77 705.29 761.91 748.15 761.91"
    />

    <path 
        class="cls-1" 
        d="M381.13,705.8H423.7V532.74H486V705.8h42.58V311.93H486V471.44H423.7V311.93H381.13V700.17L317.52,311.93H268L202.55,705.8h43.84l13.28-82.2h64.11l13.14,82.2ZM269.73,560.85l22-139.13,22,139.13Z" 
        transform="translate(596.9 56.11)"
    />

    <path 
        class="cls-1" 
        d="M-23.58,743.6a67.65,67.65,0,0,0-18.53-2.45,50.81,50.81,0,0,0-27.77,7.92,64.14,64.14,0,0,0-20.38,21.56c-5.3,8.85-9.42,19.66-12.23,32.13a187.31,187.31,0,0,0-4.14,40.93c0,31.62,5.08,55.11,15.55,71.82,11.1,17.73,27.25,26.73,48,26.73A69.58,69.58,0,0,0-7.18,932.11L-3,929.66V885.43l-13.32,9.41a51.53,51.53,0,0,1-12.22,6.46,36.84,36.84,0,0,1-12.57,2.18c-9.66,0-16.52-4.27-21.62-13.42-5.86-10.5-8.83-26.84-8.83-48.57a139.34,139.34,0,0,1,2.52-27.94,70.08,70.08,0,0,1,6.8-19.63,30.22,30.22,0,0,1,9.43-10.81,19.77,19.77,0,0,1,11.31-3.34A35.8,35.8,0,0,1-28.64,782a46.73,46.73,0,0,1,11.93,7L-3,799.72v-46.1l-3.91-2.49A63.59,63.59,0,0,0-23.58,743.6Z" 
        transform="translate(596.9 56.11)"
    />

    <path 
        class="cls-1" 
        d="M152,743.35h-40.8v72.07c-.49-5-1.12-9.87-1.91-14.44-2.09-12.06-5.35-22.51-9.67-31.06-4.58-9-10.5-16.17-17.6-21.18a44.1,44.1,0,0,0-25.94-7.87,44.28,44.28,0,0,0-23.54,6.83c-7.17,4.42-13.44,11.14-18.64,20C9,776,5.07,786.65,2.26,799.2c-2.75,12.29-4.14,26.88-4.14,43.39a240.14,240.14,0,0,0,3,39.72c2.05,12.09,5.26,22.58,9.55,31.18,4.56,9.13,10.49,16.28,17.61,21.24a44.37,44.37,0,0,0,25.91,7.78,44.47,44.47,0,0,0,23.57-6.82c7.21-4.42,13.5-11.14,18.7-20,4.93-8.37,8.88-19,11.72-31.52a163.1,163.1,0,0,0,3-19.39V940h35.32a74.41,74.41,0,0,0,24.16-3.7,60.31,60.31,0,0,0,19.17-10.64,62.71,62.71,0,0,0,13.88-16.45,93,93,0,0,0,8.77-20.34,136.08,136.08,0,0,0,4.77-23.47,222.14,222.14,0,0,0,1.45-25.74c0-31.72-5.19-54.92-15.87-70.93C191.63,751.9,174.52,743.35,152,743.35Zm-74.31,99A187.36,187.36,0,0,1,76,868.49a90.87,90.87,0,0,1-5.11,20.44,33.75,33.75,0,0,1-7.62,12.13,11.13,11.13,0,0,1-8.1,3.24,12,12,0,0,1-8.49-3.08c-2.89-2.58-5.35-6.43-7.32-11.44a88.93,88.93,0,0,1-4.91-20.57,216.8,216.8,0,0,1-1.66-28,187.74,187.74,0,0,1,1.74-26.12,93.06,93.06,0,0,1,5.07-20.53,33.62,33.62,0,0,1,7.54-12.12,10.94,10.94,0,0,1,8-3.22,12.34,12.34,0,0,1,8.66,3.11c2.91,2.58,5.4,6.45,7.39,11.49a87,87,0,0,1,4.91,20.6A224.08,224.08,0,0,1,77.72,842.31Zm106.19-.82C183.91,902,158,902,149.53,902H145.2V780.87h6.25a33.57,33.57,0,0,1,14.43,2.83,22.05,22.05,0,0,1,9.24,8.62c2.81,4.49,5,10.68,6.44,18.4C183.12,819,183.91,829.32,183.91,841.49Z" 
        transform="translate(596.9 56.11)"
    />

    <polygon 
        class="cls-1" 
        points="825.07 996.14 913.3 996.14 913.3 958.35 859.05 958.35 859.05 913.33 911.19 913.33 911.19 875.8 859.05 875.8 859.05 836.98 913.3 836.98 913.3 799.46 825.07 799.46 825.07 996.14"
    />

    <path 
        class="cls-1" 
        d="M525.62,845.41a61.36,61.36,0,0,0-12.2-11.74c-4.13-3-8.42-5.77-12.75-8.29q-6.17-3.58-12.1-7a51.9,51.9,0,0,1-9.07-6.46,26.06,26.06,0,0,1-5.65-7.08,17.84,17.84,0,0,1-1.81-8.5c0-5.63,1.46-9.85,4.48-12.92s8.19-4.49,15.59-4.49a60.63,60.63,0,0,1,12.54,1.39A79.8,79.8,0,0,1,518,784.51l11.64,4.76v-40.6l-5.68-2c-2.33-.81-4.86-1.57-7.5-2.25s-5.32-1.31-8-1.83-5.53-1-8.19-1.28a70.29,70.29,0,0,0-7.81-.47c-9.42,0-17.78,1.72-24.83,5.1a50.36,50.36,0,0,0-17.43,13.48,54.5,54.5,0,0,0-9.9,18.8,71.55,71.55,0,0,0-3,20.59,61.67,61.67,0,0,0,3.35,21.21,55.65,55.65,0,0,0,8.8,15.81,61.37,61.37,0,0,0,12.19,11.48c4.12,2.93,8.39,5.68,12.69,8.18q6.18,3.6,12.11,7a55.26,55.26,0,0,1,9.12,6.44,25.32,25.32,0,0,1,5.62,6.94,17.42,17.42,0,0,1,1.79,8.39,31.12,31.12,0,0,1-1.27,9.38,13.1,13.1,0,0,1-3.27,5.45,15.18,15.18,0,0,1-6.15,3.47A38.34,38.34,0,0,1,480.78,904a78,78,0,0,1-18.4-2,60.69,60.69,0,0,1-14.2-5.3l-12.43-6.64v43l-21.28-63.35-.05-.13a119.3,119.3,0,0,0-8.14-18.74c-.62-1.08-1.26-2.11-1.94-3.09,1-.71,1.88-1.46,2.78-2.25a48.52,48.52,0,0,0,10.22-12.81,60,60,0,0,0,6-15.83,79.29,79.29,0,0,0,1.95-17.78,83.27,83.27,0,0,0-2.64-21.53,48.38,48.38,0,0,0-9-18.06,42.33,42.33,0,0,0-16.09-12,55.38,55.38,0,0,0-22.2-4.14h-42V940h34V860a10.93,10.93,0,0,1,3.49.58,6.81,6.81,0,0,1,2.49,1.68,18.69,18.69,0,0,1,3.2,4.74,67.06,67.06,0,0,1,3.82,9.72L400.91,940h37.17L436,933.79l5.21,2c2.42.92,5.13,1.79,8.07,2.59s6.05,1.5,9.31,2.09,6.57,1.07,10.08,1.46a98.72,98.72,0,0,0,10.87.6,70.47,70.47,0,0,0,23-3.62,50,50,0,0,0,18.85-11.52,52.32,52.32,0,0,0,12.16-19.06,71.64,71.64,0,0,0,4.2-25.42,63.43,63.43,0,0,0-3.33-21.44A57.29,57.29,0,0,0,525.62,845.41ZM390.53,801.18a34.17,34.17,0,0,1-1.45,10.51,19.24,19.24,0,0,1-3.63,6.71,13.23,13.23,0,0,1-5.1,3.65,20.18,20.18,0,0,1-7.68,1.36h-5.38V780.87H375c6.82,0,9.76,2.45,11.37,4.28C389.12,788.32,390.53,793.71,390.53,801.18Z" 
        transform="translate(596.9 56.11)"
    />
</svg>
