<svg 
    id="Layer_1" 
    data-name="Layer 1" 
    xmlns="http://www.w3.org/2000/svg" 
    viewBox="0 0 1602.9 1096.48"
>
    <defs>
        <style>
            .cls-1{fill:#0b5775;}
            .cls-2{fill:#333;}
            .cls-3{fill:#008fd5;}
            .cls-4{fill:#074768;}
            .cls-5{fill:#22a4f1;}
        </style>
    </defs>
    
    <title>color-logo</title>
    
    <polygon
        class="cls-1" 
        points="901.09 610.48 879.31 472.82 857.53 610.48 901.09 610.48"
    />
    <path 
        class="cls-1" 
        d="M181.19,723c-2-5-4.43-8.82-7.32-11.38a12.2,12.2,0,0,0-8.56-3.07,10.83,10.83,0,0,0-7.95,3.19,33.35,33.35,0,0,0-7.46,12,91.37,91.37,0,0,0-5,20.31,184,184,0,0,0-1.73,25.85,214,214,0,0,0,1.64,27.7A88.39,88.39,0,0,0,149.66,818c2,5,4.38,8.77,7.24,11.32a11.91,11.91,0,0,0,8.41,3.05,11,11,0,0,0,8-3.21,33.43,33.43,0,0,0,7.54-12,89.85,89.85,0,0,0,5.06-20.22A185.24,185.24,0,0,0,187.64,771,219.32,219.32,0,0,0,186,743.4,85.93,85.93,0,0,0,181.19,723Z" 
        transform="translate(479.9 118)"
    />
    <path 
        class="cls-1" 
        d="M481.77,710.2h-7.6v42.09h5.32a19.76,19.76,0,0,0,7.6-1.35,13.14,13.14,0,0,0,5.05-3.61,19.09,19.09,0,0,0,3.59-6.64,33.49,33.49,0,0,0,1.44-10.4c0-7.39-1.4-12.73-4.14-15.86C491.43,712.62,488.52,710.2,481.77,710.2Z" 
        transform="translate(479.9 118)"
    />
    <polygon 
        class="cls-2" 
        points="1150.57 64.27 994.87 64.27 1150.57 209.99 1150.57 64.27"
    />
    <path 
        class="cls-2" 
        d="M401.46,198.22V-53.73h-429V914.21H670.67v-716ZM275-6.73h95.29V30.61H338.44V187.42H306.91V30.61H275Zm-112.3,313V246.18H315.66v60.09H260.4V635.91H218V306.27Zm21.6-169.17,12.73,7.83a46.65,46.65,0,0,0,11.77,5,56.77,56.77,0,0,0,15.24,1.86,27.35,27.35,0,0,0,9.19-1.32A11.41,11.41,0,0,0,238,147.4a13.63,13.63,0,0,0,2.83-5.48,36,36,0,0,0,1.13-9.56,20.37,20.37,0,0,0-1.61-8.69,24.86,24.86,0,0,0-4.79-6.82,47.3,47.3,0,0,0-7.66-6.22q-5.1-3.34-10.41-6.9c-3.71-2.48-7.4-5.22-11-8.14a55.85,55.85,0,0,1-18.08-26.94,68.21,68.21,0,0,1-2.82-20.6,79.34,79.34,0,0,1,2.57-20,56.31,56.31,0,0,1,8.44-18.4A45.4,45.4,0,0,1,211.92-3.93c6.3-3.48,13.77-5.25,22.2-5.25a54.05,54.05,0,0,1,6.95.48c2.36.3,4.79.74,7.23,1.29s4.67,1.16,7,1.84,4.56,1.47,6.59,2.28l5.26,2.1V39.36l-11.92-5.6a59.16,59.16,0,0,0-11.13-4,43.39,43.39,0,0,0-10.27-1.32c-5.81,0-9.91,1.35-12.19,4-2.64,3.08-3.92,7.38-3.92,13.16a20.81,20.81,0,0,0,1.63,8.79,25.7,25.7,0,0,0,4.82,7,44.87,44.87,0,0,0,7.61,6.24q5.1,3.35,10.4,6.9a135.16,135.16,0,0,1,11,8.25,57.26,57.26,0,0,1,10.58,11.68,59.3,59.3,0,0,1,7.46,15.73A70,70,0,0,1,274,131a79.6,79.6,0,0,1-3.54,24.75,53,53,0,0,1-10.42,18.74,43.51,43.51,0,0,1-16.64,11.66A55.21,55.21,0,0,1,223,189.86a75.19,75.19,0,0,1-9.59-.61c-3-.39-6-.88-8.8-1.46s-5.63-1.31-8.17-2.11a73.66,73.66,0,0,1-7.1-2.62l-5-2.19ZM91.41-6.73h31.37V119.06a115.87,115.87,0,0,0,1.1,17.07A35.22,35.22,0,0,0,127,146.74a11.73,11.73,0,0,0,4.06,4.75,11.53,11.53,0,0,0,6.14,1.43c4.64,0,7.47-1.88,9.78-6.51,3.11-6.21,4.68-15.51,4.68-27.63V-6.73H183v124a137.34,137.34,0,0,1-2.7,28.27A76.69,76.69,0,0,1,172,168.27,45.86,45.86,0,0,1,157.39,184a37.57,37.57,0,0,1-20.72,5.88c-8.25,0-15.47-1.88-21.46-5.6a41.19,41.19,0,0,1-14.31-15.33,70.37,70.37,0,0,1-7.34-21.64A148.53,148.53,0,0,1,91.41,121Zm-42,545.63c1.27,10.22,3.36,18.78,6.19,25.47,2.55,6,5.77,10.55,9.57,13.44,3.53,2.7,7.88,4,13.29,4,6.3,0,15.46-1.89,22.19-18.22,6-14.52,9-35.63,9-62.75V246.18h42.12V497.7a335.31,335.31,0,0,1-4.48,57.23c-3,17.33-7.55,32.37-13.47,44.71-6.16,12.82-13.9,22.94-23,30.08a52.63,52.63,0,0,1-33.21,11.33c-13.41,0-25-3.64-34.58-10.81-9.18-6.9-16.7-16.67-22.35-29-5.4-11.79-9.37-26-11.81-42.34A365.31,365.31,0,0,1,5.23,505.4V246.18H47.35V501.41A307.58,307.58,0,0,0,49.36,538.9ZM4.66,123.73l14.77,17.66a33,33,0,0,0,9,7.73,16.42,16.42,0,0,0,8.19,2.45c2.07,0,4.29-.57,6.48-4.64,2.57-4.76,3.86-12.17,3.86-22v-94H6.06V-6.73H78.63V124.89a118.25,118.25,0,0,1-2.23,23.3,70.35,70.35,0,0,1-7.14,20.25,43.89,43.89,0,0,1-13,14.87,33.49,33.49,0,0,1-19.73,6,38.45,38.45,0,0,1-8.37-.95,46.37,46.37,0,0,1-7.83-2.48A41.83,41.83,0,0,1,13,182a34.36,34.36,0,0,1-6.2-5.31l-2.18-2.4ZM107.73,728.84,94.2,718.21a46.22,46.22,0,0,0-11.81-6.88,35.49,35.49,0,0,0-12.76-2.22,19.61,19.61,0,0,0-11.19,3.3,30,30,0,0,0-9.33,10.7,68.92,68.92,0,0,0-6.73,19.42,138.11,138.11,0,0,0-2.49,27.64c0,21.51,2.94,37.68,8.73,48.07,5.05,9.06,11.84,13.27,21.39,13.27a36.38,36.38,0,0,0,12.45-2.15A51.36,51.36,0,0,0,94.55,823l13.18-9.31v43.76l-4.1,2.43a68.83,68.83,0,0,1-35.52,10c-20.53,0-36.51-8.9-47.5-26.45C10.26,826.89,5.23,803.65,5.23,772.35a184.7,184.7,0,0,1,4.1-40.49c2.78-12.35,6.85-23.05,12.1-31.8a63.51,63.51,0,0,1,20.15-21.33,50.38,50.38,0,0,1,27.48-7.84,66.83,66.83,0,0,1,18.35,2.43,62.7,62.7,0,0,1,16.45,7.45l3.87,2.46Zm218,65A135.46,135.46,0,0,1,321,817.1a92.49,92.49,0,0,1-8.68,20.13,61.9,61.9,0,0,1-13.74,16.27,59.77,59.77,0,0,1-19,10.54,73.67,73.67,0,0,1-23.9,3.65h-35V793.26a159.64,159.64,0,0,1-3,19.18c-2.81,12.42-6.71,22.91-11.6,31.19-5.14,8.73-11.36,15.38-18.5,19.76a45.13,45.13,0,0,1-49-.95c-7.05-4.91-12.91-12-17.42-21-4.24-8.5-7.43-18.88-9.46-30.85a238.67,238.67,0,0,1-3-39.31c0-16.33,1.38-30.77,4.09-42.93,2.78-12.41,6.66-22.91,11.55-31.21,5.15-8.73,11.35-15.37,18.44-19.75a44.93,44.93,0,0,1,49,1c7,5,12.88,12,17.42,21,4.28,8.46,7.5,18.8,9.56,30.73.79,4.53,1.41,9.3,1.89,14.29V673.07h40.38c22.25,0,39.18,8.46,50.32,25.16,10.56,15.84,15.7,38.79,15.7,70.17A219.77,219.77,0,0,1,325.76,793.88Zm98.05-83.68H370.13v38.41h51.59v37.13H370.13v44.55h53.68v37.4h-87.3V673.07h87.3ZM367.68,554.57l-13.14,81.34H311.16l64.75-389.73h49l62.94,384.16V246.18H530V404h61.69V246.18H633.8V635.91H591.68V464.67H530V635.91H444.12l-13-81.34Zm271,281.72a51.72,51.72,0,0,1-12,18.87A49.26,49.26,0,0,1,608,866.55a69.63,69.63,0,0,1-22.73,3.59,96.69,96.69,0,0,1-10.75-.6c-3.48-.39-6.83-.87-10-1.44s-6.33-1.28-9.21-2.06-5.59-1.66-8-2.57l-5.16-2,2.07,6.18H507.44L487,805a66.71,66.71,0,0,0-3.77-9.62,18.85,18.85,0,0,0-3.17-4.69,6.81,6.81,0,0,0-2.47-1.66,10.9,10.9,0,0,0-3.45-.58v79.22H440.54V673.07h41.61a54.85,54.85,0,0,1,22,4.1A41.84,41.84,0,0,1,520,689.08,47.68,47.68,0,0,1,528.94,707a82.37,82.37,0,0,1,2.61,21.3,78.92,78.92,0,0,1-1.92,17.6,59.94,59.94,0,0,1-5.93,15.66,48.07,48.07,0,0,1-10.12,12.67c-.88.79-1.8,1.53-2.75,2.24.67,1,1.31,2,1.92,3.05A117.68,117.68,0,0,1,520.81,798l0,.12,21.07,62.68V818.3l12.29,6.58a60.55,60.55,0,0,0,14.06,5.24,77.42,77.42,0,0,0,18.2,1.94,38.29,38.29,0,0,0,11.37-1.44,15.08,15.08,0,0,0,6.08-3.44,12.83,12.83,0,0,0,3.24-5.39,30.5,30.5,0,0,0,1.26-9.28,17.28,17.28,0,0,0-1.77-8.3,25.17,25.17,0,0,0-5.56-6.87,55,55,0,0,0-9-6.37q-5.87-3.35-12-6.91c-4.25-2.47-8.48-5.2-12.56-8.1a60.62,60.62,0,0,1-12.06-11.36A55.09,55.09,0,0,1,546.75,749a61,61,0,0,1-3.31-21,70.77,70.77,0,0,1,3-20.37,53.77,53.77,0,0,1,9.79-18.6,49.83,49.83,0,0,1,17.25-13.34c7-3.35,15.24-5,24.57-5a68.66,68.66,0,0,1,7.73.46c2.63.29,5.36.72,8.11,1.26s5.26,1.13,7.88,1.81,5.11,1.43,7.42,2.24l5.62,1.94v40.18l-11.52-4.72a78.73,78.73,0,0,0-13.21-4.12,59.4,59.4,0,0,0-12.41-1.38c-7.32,0-12.51,1.5-15.42,4.45s-4.44,7.21-4.44,12.78a17.59,17.59,0,0,0,1.79,8.41,25.91,25.91,0,0,0,5.59,7,52.44,52.44,0,0,0,9,6.39q5.88,3.36,12,6.91c4.29,2.49,8.53,5.25,12.62,8.2a60.58,60.58,0,0,1,12.07,11.61,56.41,56.41,0,0,1,8.66,15.88,62.67,62.67,0,0,1,3.3,21.22A70.86,70.86,0,0,1,638.65,836.29Z" 
        transform="translate(479.9 118)"
    />
    <polygon 
        class="cls-1" 
        points="945.63 251.95 1101.34 251.95 945.63 106.22 945.63 251.95"
    />
    <path 
        class="cls-1" 
        d="M284,721.52a21.7,21.7,0,0,0-9.14-8.52,33.16,33.16,0,0,0-14.27-2.8h-6.18V830h4.28c8.41,0,34,0,34-59.85a168.59,168.59,0,0,0-2.32-30.43C288.94,732.09,286.8,726,284,721.52Z" 
        transform="translate(479.9 118)"
    />
    <polygon 
        class="cls-3" 
        points="1214.85 22.24 1214.85 112.31 1523.03 545.67 1522.1 546.98 1523.03 548.24 1472.32 616.98 1214.85 979.03 1214.85 1074.24 1214.85 1091.34 1602.9 545.67 1214.85 0 1214.85 22.24"
    />
    <polygon 
        class="cls-4" 
        points="1523.03 545.67 1214.85 112.31 1214.85 130.5 1214.85 316.22 1214.85 965.98 1214.85 979.03 1472.32 616.98 1523.03 548.24 1522.1 546.98 1523.03 545.67"
    />
    <polygon 
        class="cls-3" 
        points="388.06 979.03 130.59 616.99 79.87 548.24 80.8 546.98 79.87 545.67 388.06 112.31 388.06 22.24 388.06 0 0 545.67 388.06 1091.34 388.06 1074.24 388.06 979.03"
    />
    <polygon 
        class="cls-4" 
        points="79.87 545.67 80.8 546.98 79.87 548.24 130.59 616.99 388.06 979.03 388.06 965.98 388.06 130.5 388.06 112.31 79.87 545.67"
    />
    <path 
        class="cls-5" 
        d="M718.53-118H-91.85V978.48H734.94V-118ZM465.73-11.77,621.44,134H465.73Zm204.94,926H-27.57V-53.73h429v252H670.67Zm0-822.22L515-53.73H670.67Z" 
        transform="translate(479.9 118)"
    />
    <path 
        class="cls-5" 
        d="M13,182a41.83,41.83,0,0,0,7.26,3.9,46.37,46.37,0,0,0,7.83,2.48,38.45,38.45,0,0,0,8.37.95,33.49,33.49,0,0,0,19.73-6,43.89,43.89,0,0,0,13-14.87,70.35,70.35,0,0,0,7.14-20.25,118.25,118.25,0,0,0,2.23-23.3V-6.73H6.06V30.88H47v94c0,9.87-1.29,17.28-3.86,22-2.19,4.07-4.41,4.64-6.48,4.64a16.42,16.42,0,0,1-8.19-2.45,33,33,0,0,1-9-7.73L4.66,123.73v50.55l2.18,2.4A34.36,34.36,0,0,0,13,182Z" 
        transform="translate(479.9 118)"
    />
    <path 
        class="cls-5" 
        d="M100.9,168.93a41.19,41.19,0,0,0,14.31,15.33c6,3.72,13.21,5.6,21.46,5.6A37.57,37.57,0,0,0,157.39,184,45.86,45.86,0,0,0,172,168.27a76.69,76.69,0,0,0,8.32-22.71,137.34,137.34,0,0,0,2.7-28.27v-124H151.62V118.78c0,12.12-1.57,21.42-4.68,27.63-2.31,4.63-5.14,6.51-9.78,6.51a11.53,11.53,0,0,1-6.14-1.43,11.73,11.73,0,0,1-4.06-4.75,35.22,35.22,0,0,1-3.08-10.61,115.87,115.87,0,0,1-1.1-17.07V-6.73H91.41V121a148.53,148.53,0,0,0,2.15,26.33A70.37,70.37,0,0,0,100.9,168.93Z" 
        transform="translate(479.9 118)"
    />
    <path 
        class="cls-5" 
        d="M196.44,185.68c2.54.8,5.29,1.51,8.17,2.11s5.77,1.07,8.8,1.46a75.19,75.19,0,0,0,9.59.61,55.21,55.21,0,0,0,20.42-3.71,43.51,43.51,0,0,0,16.64-11.66,53,53,0,0,0,10.42-18.74A79.6,79.6,0,0,0,274,131a70,70,0,0,0-2.81-20.83,59.3,59.3,0,0,0-7.46-15.73,57.26,57.26,0,0,0-10.58-11.68,135.16,135.16,0,0,0-11-8.25q-5.29-3.56-10.4-6.9a44.87,44.87,0,0,1-7.61-6.24,25.7,25.7,0,0,1-4.82-7,20.81,20.81,0,0,1-1.63-8.79c0-5.78,1.28-10.08,3.92-13.16,2.28-2.66,6.38-4,12.19-4a43.39,43.39,0,0,1,10.27,1.32,59.16,59.16,0,0,1,11.13,4l11.92,5.6V-1.19l-5.26-2.1c-2-.81-4.25-1.57-6.59-2.28s-4.63-1.3-7-1.84-4.87-1-7.23-1.29a54.05,54.05,0,0,0-6.95-.48c-8.43,0-15.9,1.77-22.2,5.25A45.4,45.4,0,0,0,196.66,9.62,56.31,56.31,0,0,0,188.22,28a79.34,79.34,0,0,0-2.57,20,68.21,68.21,0,0,0,2.82,20.6,55.85,55.85,0,0,0,18.08,26.94c3.57,2.92,7.26,5.66,11,8.14q5.31,3.55,10.41,6.9a47.3,47.3,0,0,1,7.66,6.22,24.86,24.86,0,0,1,4.79,6.82,20.37,20.37,0,0,1,1.61,8.69,36,36,0,0,1-1.13,9.56A13.63,13.63,0,0,1,238,147.4a11.41,11.41,0,0,1-4.77,3.12,27.35,27.35,0,0,1-9.19,1.32A56.77,56.77,0,0,1,208.83,150a46.65,46.65,0,0,1-11.77-5l-12.73-7.83v43.77l5,2.19A73.66,73.66,0,0,0,196.44,185.68Z" 
        transform="translate(479.9 118)"
    />
    <polygon 
        class="cls-5" 
        points="786.81 305.42 818.35 305.42 818.35 148.61 850.23 148.61 850.23 111.27 754.93 111.27 754.93 148.61 786.81 148.61 786.81 305.42"
    />
    <path 
        class="cls-5" 
        d="M5.23,246.18V505.4a365.31,365.31,0,0,0,3.58,53.47c2.44,16.3,6.41,30.55,11.81,42.34,5.65,12.36,13.17,22.13,22.35,29,9.53,7.17,21.17,10.81,34.58,10.81a52.63,52.63,0,0,0,33.21-11.33c9.12-7.14,16.86-17.26,23-30.08,5.92-12.34,10.45-27.38,13.47-44.71a335.31,335.31,0,0,0,4.48-57.23V246.18H109.61V500.84c0,27.12-3,48.23-9,62.75-6.73,16.33-15.89,18.22-22.19,18.22-5.41,0-9.76-1.3-13.29-4-3.8-2.89-7-7.41-9.57-13.44-2.83-6.69-4.92-15.25-6.19-25.47a307.58,307.58,0,0,1-2-37.49V246.18Z" 
        transform="translate(479.9 118)"
    />
    <polygon 
        class="cls-5" 
        points="740.3 753.91 740.3 424.27 795.57 424.27 795.57 364.18 642.63 364.18 642.63 424.27 697.89 424.27 697.89 753.91 740.3 753.91"
    />
    <path 
        class="cls-5" 
        d="M487.87,635.91H530V464.67h61.69V635.91H633.8V246.18H591.68V404H530V246.18H487.87V630.34L424.93,246.18h-49L311.16,635.91h43.38l13.14-81.34h63.44l13,81.34ZM377.63,492.48l21.78-137.66,21.77,137.66Z" 
        transform="translate(479.9 118)"
    />
    <path 
        class="cls-5" 
        d="M87.41,673.32a66.83,66.83,0,0,0-18.35-2.43,50.38,50.38,0,0,0-27.48,7.84,63.51,63.51,0,0,0-20.15,21.33c-5.25,8.75-9.32,19.45-12.1,31.8a184.7,184.7,0,0,0-4.1,40.49c0,31.3,5,54.54,15.38,71.07,11,17.55,27,26.45,47.5,26.45a68.83,68.83,0,0,0,35.52-10l4.1-2.43V813.66L94.55,823a51.36,51.36,0,0,1-12.09,6.39A36.38,36.38,0,0,1,70,831.51c-9.55,0-16.34-4.21-21.39-13.27-5.79-10.39-8.73-26.56-8.73-48.07a138.11,138.11,0,0,1,2.49-27.64,68.92,68.92,0,0,1,6.73-19.42,30,30,0,0,1,9.33-10.7,19.61,19.61,0,0,1,11.19-3.3,35.49,35.49,0,0,1,12.76,2.22,46.22,46.22,0,0,1,11.81,6.88l13.53,10.63V683.23l-3.87-2.46A62.7,62.7,0,0,0,87.41,673.32Z" 
        transform="translate(479.9 118)"
    />
    <path 
        class="cls-5" 
        d="M261.17,673.07H220.79v71.31c-.48-5-1.1-9.76-1.89-14.29-2.06-11.93-5.28-22.27-9.56-30.73-4.54-9-10.4-16-17.42-21a44.93,44.93,0,0,0-49-1c-7.09,4.38-13.29,11-18.44,19.75-4.89,8.3-8.77,18.8-11.55,31.21-2.71,12.16-4.09,26.6-4.09,42.93a238.67,238.67,0,0,0,3,39.31c2,12,5.22,22.35,9.46,30.85,4.51,9,10.37,16.11,17.42,21a45.13,45.13,0,0,0,49,.95c7.14-4.38,13.36-11,18.5-19.76,4.89-8.28,8.79-18.77,11.6-31.19a159.64,159.64,0,0,0,3-19.18v74.43h35a73.67,73.67,0,0,0,23.9-3.65,59.77,59.77,0,0,0,19-10.54,61.9,61.9,0,0,0,13.74-16.27A92.49,92.49,0,0,0,321,817.1a135.46,135.46,0,0,0,4.72-23.22,219.77,219.77,0,0,0,1.43-25.48c0-31.38-5.14-54.33-15.7-70.17C300.35,681.53,283.42,673.07,261.17,673.07ZM185.92,796.9a89.85,89.85,0,0,1-5.06,20.22,33.43,33.43,0,0,1-7.54,12,11,11,0,0,1-8,3.21,11.91,11.91,0,0,1-8.41-3.05c-2.86-2.55-5.29-6.36-7.24-11.32a88.39,88.39,0,0,1-4.86-20.36,214,214,0,0,1-1.64-27.7,184,184,0,0,1,1.73-25.85,91.37,91.37,0,0,1,5-20.31,33.35,33.35,0,0,1,7.46-12,10.83,10.83,0,0,1,7.95-3.19,12.2,12.2,0,0,1,8.56,3.07c2.89,2.56,5.35,6.39,7.32,11.38A85.93,85.93,0,0,1,186,743.4a219.32,219.32,0,0,1,1.6,27.59A185.24,185.24,0,0,1,185.92,796.9ZM254.42,830V710.2h6.18a33.16,33.16,0,0,1,14.27,2.8,21.7,21.7,0,0,1,9.14,8.52c2.79,4.45,4.93,10.57,6.38,18.22a168.59,168.59,0,0,1,2.32,30.43c0,59.85-25.6,59.85-34,59.85Z" 
        transform="translate(479.9 118)"
    />
    <polygon 
        class="cls-5" 
        points="816.42 985.69 903.72 985.69 903.72 948.29 850.04 948.29 850.04 903.74 901.63 903.74 901.63 866.61 850.04 866.61 850.04 828.2 903.72 828.2 903.72 791.07 816.42 791.07 816.42 985.69"
    />
    <path 
        class="cls-5" 
        d="M639.5,789.93a56.41,56.41,0,0,0-8.66-15.88,60.58,60.58,0,0,0-12.07-11.61c-4.09-3-8.33-5.71-12.62-8.2q-6.1-3.56-12-6.91a52.44,52.44,0,0,1-9-6.39,25.91,25.91,0,0,1-5.59-7,17.59,17.59,0,0,1-1.79-8.41c0-5.57,1.45-9.75,4.44-12.78s8.1-4.45,15.42-4.45a59.4,59.4,0,0,1,12.41,1.38,78.73,78.73,0,0,1,13.21,4.12l11.52,4.72V678.33l-5.62-1.94c-2.31-.81-4.81-1.56-7.42-2.24s-5.27-1.29-7.88-1.81-5.48-1-8.11-1.26a68.66,68.66,0,0,0-7.73-.46c-9.33,0-17.59,1.69-24.57,5A49.83,49.83,0,0,0,556.24,689a53.77,53.77,0,0,0-9.79,18.6,70.77,70.77,0,0,0-3,20.37,61,61,0,0,0,3.31,21,55.09,55.09,0,0,0,8.71,15.64A60.62,60.62,0,0,0,567.52,776c4.08,2.9,8.31,5.63,12.56,8.1q6.1,3.57,12,6.91a55,55,0,0,1,9,6.37,25.17,25.17,0,0,1,5.56,6.87,17.28,17.28,0,0,1,1.77,8.3,30.5,30.5,0,0,1-1.26,9.28,12.83,12.83,0,0,1-3.24,5.39,15.08,15.08,0,0,1-6.08,3.44,38.29,38.29,0,0,1-11.37,1.44,77.42,77.42,0,0,1-18.2-1.94,60.55,60.55,0,0,1-14.06-5.24l-12.29-6.58v42.52l-21.07-62.68,0-.12a117.68,117.68,0,0,0-8.06-18.55c-.61-1.07-1.25-2.09-1.92-3.05.95-.71,1.87-1.45,2.75-2.24a48.07,48.07,0,0,0,10.12-12.67,59.94,59.94,0,0,0,5.93-15.66,78.92,78.92,0,0,0,1.92-17.6,82.37,82.37,0,0,0-2.61-21.3A47.68,47.68,0,0,0,520,689.08a41.84,41.84,0,0,0-15.91-11.91,54.85,54.85,0,0,0-22-4.1H440.54V867.69h33.63V788.47a10.9,10.9,0,0,1,3.45.58,6.81,6.81,0,0,1,2.47,1.66,18.85,18.85,0,0,1,3.17,4.69A66.71,66.71,0,0,1,487,805l20.41,62.67h36.78l-2.07-6.18,5.16,2c2.39.91,5.07,1.77,8,2.57s6,1.48,9.21,2.06,6.5,1,10,1.44a96.69,96.69,0,0,0,10.75.6A69.63,69.63,0,0,0,608,866.55a49.26,49.26,0,0,0,18.65-11.39,51.72,51.72,0,0,0,12-18.87,70.86,70.86,0,0,0,4.15-25.14A62.67,62.67,0,0,0,639.5,789.93ZM495.73,740.69a19.09,19.09,0,0,1-3.59,6.64,13.14,13.14,0,0,1-5.05,3.61,19.76,19.76,0,0,1-7.6,1.35h-5.32V710.2h7.6c6.75,0,9.66,2.42,11.26,4.23,2.74,3.13,4.14,8.47,4.14,15.86A33.49,33.49,0,0,1,495.73,740.69Z" 
        transform="translate(479.9 118)"
    />
</svg>