<?xml version="1.0" encoding="utf-8"?>
<!-- Generator: Adobe Illustrator 23.0.3, SVG Export Plug-In . SVG Version: 6.00 Build 0)  -->
<svg version="1.1" id="Layer_1" xmlns="http://www.w3.org/2000/svg" xmlns:xlink="http://www.w3.org/1999/xlink" x="0px" y="0px"
	 viewBox="0 0 1004 687" style="enable-background:new 0 0 1004 687;" xml:space="preserve">
<style type="text/css">
	.st0{fill:#606060;}
	.st1{fill:#008096;}
	.st2{fill:none;stroke:#535461;stroke-miterlimit:10;}
	.st3{fill:#008FD5;}
	.st4{fill:#F1F1F4;}
	.st5{fill:url(#SVGID_1_);}
	.st6{fill:url(#SVGID_2_);}
	.st7{fill:#704B3D;}
	.st8{fill:#222B2B;}
	.st9{opacity:0.1;enable-background:new    ;}
	.st10{fill:#464646;}
	.st11{opacity:5.000000e-02;}
	.st12{fill:#D39999;}
	.st13{fill:#074768;}
	.st14{fill:#0B5775;}
	.st15{opacity:5.000000e-02;enable-background:new    ;}
	.st16{fill:#895A4C;}
	.st17{fill:#2FC6F4;}
	.st18{opacity:0.2;enable-background:new    ;}
	.st19{opacity:0.15;fill:#008FD5;}
</style>
<title>organization-folder</title>
<path class="st0" d="M98,521.3c-4.3,9.2,1.8,19.2-0.3,28.7C95,562,79.6,571.3,63,577.3s-35.2,9.6-51.3,16c-7,2.8-14.3,7.9-10.7,12.6
	c1.3,1.6,3.6,2.8,5.9,3.8c47.2,21.8,105.4,33.6,163.7,33.2c61.6-0.4,121.9-14,183.5-12.4c79.4,2,156.2,29.1,234.7,21.3
	c33.3-3.3,64.3-12.8,96.7-18.7c47.7-8.7,97.9-9.5,147.3-12.4c37.1-2.1,79.5-7.7,97.3-28.5c12.8-15.1,7.4-35-10.6-47.8
	s-46.9-18.2-73.6-15.8c-14.3,1.3-28.6,4.8-42.9,3.4c-8.3-0.8-16-3.2-23.6-5.5c-58.7-18.2-119.5-36.4-184.7-39
	c-106-4.3-204.3,32.5-307.5,48.5c-16.1,2.5-33.5,4.4-48.7,0.2c-16-4.4-26.5-14.8-42.5-19.1c-7.6-2.1-16.1-2.7-23.6-4.9
	c-20.6-6.2-11-14.8-39.5-9C117.8,506.1,102.8,511,98,521.3z"/>
<path class="st1" d="M109.7,207.1c0,0,55.8,55.8,24.3,138.5s54,220.3,54,220.3s-0.9-0.1-2.6-0.4C70.8,545.3,13.9,414.3,77.6,317
	C101.2,280.8,120.7,238.4,109.7,207.1z"/>
<path class="st0" d="M109.7,207.1c0,0,55.8,55.8,24.3,138.5s54,220.3,54,220.3s-0.9-0.1-2.6-0.4C70.8,545.3,13.9,414.3,77.6,317
	C101.2,280.8,120.7,238.4,109.7,207.1z"/>
<path class="st2" d="M109.7,207.1c0,0,31.5,68.3,0,124.1s-5.4,212.2,78.2,234.8"/>
<path class="st1" d="M10.4,432.6c0,0,63.6-10.1,69.4,46.9s122.3,64.9,122.3,64.9s-0.8,0.5-2.2,1.5C103.7,609,11.7,586.1,25.6,502.2
	C30.8,471,30.3,439.7,10.4,432.6z"/>
<path class="st3" d="M10.4,432.6c0,0,63.6-10.1,69.4,46.9s122.3,64.9,122.3,64.9s-0.8,0.5-2.2,1.5C103.7,609,11.7,586.1,25.6,502.2
	C30.8,471,30.3,439.7,10.4,432.6z"/>
<path class="st2" d="M10.4,432.6c0,0,49.4,10.8,45.3,55.8s73.4,98.7,146.4,56.1"/>
<polygon class="st1" points="676.7,564.6 153.3,564.6 153.3,237.7 220.3,237.7 247.8,271.7 676.7,271.7 "/>
<polygon class="st3" points="676.7,564.6 153.3,564.6 153.3,237.7 220.3,237.7 247.8,271.7 676.7,271.7 "/>
<rect x="309.6" y="132.9" transform="matrix(0.9403 -0.3402 0.3402 0.9403 -85.6143 167.4959)" class="st4" width="250.5" height="390"/>
<rect x="295.9" y="199.3" transform="matrix(0.9403 -0.3402 0.3402 0.9403 -50.8641 125.09)" class="st0" width="70.8" height="16.6"/>
<rect x="320.8" y="224.4" transform="matrix(0.9418 -0.3363 0.3363 0.9418 -54.8254 147.5489)" class="st0" width="155.5" height="15.3"/>
<rect x="331.8" y="255.2" transform="matrix(0.9418 -0.3363 0.3363 0.9418 -64.5445 153.0446)" class="st0" width="155.5" height="15.3"/>
<rect x="342.7" y="285.9" transform="matrix(0.9418 -0.3363 0.3363 0.9418 -74.2349 158.4954)" class="st0" width="155.5" height="15.3"/>
<rect x="353.7" y="316.6" transform="matrix(0.9418 -0.3363 0.3363 0.9418 -83.9174 163.9834)" class="st0" width="155.5" height="15.3"/>
<rect x="364.7" y="347.3" transform="matrix(0.9418 -0.3363 0.3363 0.9418 -93.5994 169.4715)" class="st0" width="155.5" height="15.3"/>
<rect x="375.7" y="378.1" transform="matrix(0.9418 -0.3363 0.3363 0.9418 -103.319 174.9666)" class="st0" width="155.5" height="15.3"/>
<rect x="520.3" y="409" transform="matrix(0.9418 -0.3363 0.3363 0.9418 -112.8475 206.7536)" class="st0" width="40.3" height="40.3"/>
<linearGradient id="SVGID_1_" gradientUnits="userSpaceOnUse" x1="-1342.9658" y1="1532.9286" x2="-1342.9658" y2="1130.1936" gradientTransform="matrix(0.5108 -0.8597 0.8597 0.5108 -148.9062 -1498.4591)">
	<stop  offset="0" style="stop-color:#808080;stop-opacity:0.25"/>
	<stop  offset="0.54" style="stop-color:#808080;stop-opacity:0.12"/>
	<stop  offset="1" style="stop-color:#808080;stop-opacity:0.1"/>
</linearGradient>
<polygon class="st5" points="70.7,344.6 202.8,122.2 549,327.9 416.9,550.3 "/>
<rect x="184.5" y="141.1" transform="matrix(0.5108 -0.8597 0.8597 0.5108 -137.4102 430.8207)" class="st4" width="250.6" height="390.1"/>
<rect x="117.9" y="300.7" transform="matrix(0.5108 -0.8597 0.8597 0.5108 -190.6685 282.9482)" class="st0" width="70.8" height="16.7"/>
<rect x="141.8" y="275.4" transform="matrix(0.5108 -0.8597 0.8597 0.5108 -135.9345 327.2646)" class="st0" width="155.5" height="15.3"/>
<rect x="169.9" y="291.9" transform="matrix(0.5108 -0.8597 0.8597 0.5108 -136.4077 359.4743)" class="st0" width="155.5" height="15.3"/>
<rect x="197.7" y="308.2" transform="matrix(0.5101 -0.8601 0.8601 0.5101 -136.7138 391.6106)" class="st0" width="155.5" height="15.3"/>
<rect x="226" y="325.3" transform="matrix(0.5108 -0.8597 0.8597 0.5108 -137.6654 424.0228)" class="st0" width="155.5" height="15.3"/>
<rect x="254" y="342" transform="matrix(0.5108 -0.8597 0.8597 0.5108 -138.2809 456.2354)" class="st0" width="155.5" height="15.3"/>
<rect x="282.1" y="358.6" transform="matrix(0.5108 -0.8597 0.8597 0.5108 -138.8448 488.4905)" class="st0" width="155.5" height="15.3"/>
<rect x="434" y="323.6" transform="matrix(0.5101 -0.8601 0.8601 0.5101 -73.1994 559.0344)" class="st0" width="40.3" height="40.3"/>
<linearGradient id="SVGID_2_" gradientUnits="userSpaceOnUse" x1="894.6573" y1="2706.7407" x2="894.6573" y2="2082.9238" gradientTransform="matrix(1 0 0 1 -90.96 -2083.0701)">
	<stop  offset="0" style="stop-color:#808080;stop-opacity:0.25"/>
	<stop  offset="0.54" style="stop-color:#808080;stop-opacity:0.12"/>
	<stop  offset="1" style="stop-color:#808080;stop-opacity:0.1"/>
</linearGradient>
<path class="st6" d="M958.2,127.1c0-0.5,0-0.9-0.2-1.4c-0.1-0.5-0.2-1-0.3-1.6c-0.2-1-0.4-2-0.6-2.9c-0.1-0.5-0.2-0.9-0.4-1.4
	c-1.4-5.3-4-10.1-7.5-14.3l-0.6-0.7c-0.4-0.4-0.8-0.8-1.2-1.3s-0.8-0.8-1.2-1.1s-0.8-0.7-1.1-0.9c-0.6-0.5-1.3-1-2-1.5
	c-0.6-0.4-0.8-0.6-1.2-0.8c-0.9-0.5-1.8-0.8-2.8-0.9l-6.2-0.6l0,0l-8.3-0.8l-30.1-11.6l-1.2,0.4c-0.9-2.4-1.6-4.9-2.2-7.4
	c0.9-0.4,1.7-1,2.4-1.7c0.7-0.5,1.3-1.3,1.6-2.1c0.8-1.7-0.7-5.5-0.4-7.6c0.5-3.4,2.3-6.7,3.7-9.8c3.1-6.6,5.4-13.8,5-21.1
	s-3.7-14.7-9.9-18.8c-3.2-2.1-7-3.2-10.3-5.2c-2.6-1.5-4.9-3.4-7.3-5.1c-12.4-8.2-28.1-9.3-41.5-3c-6.3,3.1-11.6,7.7-17.5,11.3
	s-12.9,6.5-19.8,5.4c-0.1,0.3-0.2,0.6-0.2,0.9l-0.6-0.1c-1.2,3.2,1.7,6.4,4.4,8.6c5.1,4.2,10.9,8.4,17.5,8.5
	c2.6,0.1,5.3-0.5,7.6,0.6c0.5,0.2,1,0.5,1.4,0.9c-3,12,1,24.7,10.4,32.8l-15.4-5.5c0,0-0.6,0.3-1.6,1l-21.4-14.2
	c0,0-42.8-15.5-54.7,8.5s51.6,11.6,51.6,11.6l13.6,7.4c-0.4,2.8,0.1,5.6,1.5,8.1l37,22.7c-7.5,2.3-19.8,6-22,6
	c-3.2,0-11.9,3.1-17.5,15.5s-25.4,72.9-42.8,83s-63.5,77.6-63.5,77.6l0.2,0.5c-0.8,0.2-1.6,0.5-2.4,0.7
	c-11.5,3.7-19.3,11.6-23.9,17.9c-2.5,3.4-1.7,8.2,1.7,10.6c1.1,0.8,2.3,1.3,3.6,1.4c18.2,2.3,28.1-6,32.8-12.3
	c0.3-0.4,0.6-0.8,0.9-1.2c1.4,0.6,3,0.7,4.5,0.2l22.2-17.8c0,0-17.4,17-7.2,32.5l-0.8,1.1c-17.2,24.3-29.8,51.6-37.3,80.5
	c0,0-9.5,7-10.3,34.9s-10.3,72.9-10.3,72.9s-6.3,53.5-2.4,69.8c0,0,0.5,0.7,1.3,1.6c-0.3,0.3-0.6,0.7-1,1.1c-3.5,3.7-9.7,8.8-17,7.3
	c-11.1-2.3-11.1,17.1,4.8,18.6c10.2,1,30.3,5.5,43.3,8.6c4.9,1.2,9.8-1.7,11.1-6.5c0.3-1,0.3-2.1,0.2-3.1c-0.8-7-2.2-15.4-4.8-21.3
	c-0.2-0.4-0.3-0.7-0.5-1.1c0.5-0.4,0.9-0.9,1.4-1.4c0,0,0-34.1,5.5-43.4c0,0,15.1-70.6,14.3-88.4c-0.6-14,39.1-68.3,56.4-91.3
	l-0.1-0.9c4.4-5.9,7.2-9.5,7.2-9.5l13.5,84.5c0,0,6.5,18.6,14.4,28.7c0,0,34.1,64.4,38.1,84.5c3,15.3,9.2,24.3,12,27.8l-1,1
	c-3.6,3.3-8.9,6.6-15,5.3c-11.1-2.3-11.1,17,4.8,18.6c10.2,1,30.3,5.5,43.3,8.6c4.9,1.2,9.8-1.7,11.1-6.5c0.3-1,0.3-2.1,0.2-3.1
	c-0.9-8.1-2.7-18.1-6.1-24c-0.3-0.5-0.6-1-0.9-1.4c1.2-0.5,2.3-1.2,3.2-2.2c0,0-20.6-48.9-20.6-62.1c0,0-8.7-50.4-38.1-69
	c0,0,2.8-63,11.1-98.1c0.2-0.9,0.4-1.7,0.6-2.5c7.5-1.2,15.2-2.7,23.1-4.8l0.8-23.3l4,18.6l44.4-27.2c0,0-0.4-4.9-1.1-12.4
	c-0.4-3.8-0.8-8.1-1.4-12.9c-0.4-3.8-1-7.9-1.5-12c-0.1-1-0.3-2.1-0.4-3.1c-0.6-4.2-1.2-8.4-1.9-12.5c-0.3-1.6-0.5-3.1-0.8-4.6
	c-0.4-2-0.7-4-1.1-5.9c-0.2-1-0.4-1.9-0.6-2.9s-0.4-1.9-0.6-2.8s-0.4-1.8-0.6-2.6l-0.3-1.3c-0.2-0.8-0.4-1.7-0.7-2.5
	c-0.9-3.3-1.5-6.7-1.6-10.2c0-1.3,0-2.7,0-4.1c0.1-1.4,0.2-2.7,0.4-4.1c0.1-0.7,0.2-1.3,0.3-2c0.5-2.7,1.3-5.4,2.3-7.9
	c0.5-1.3,1-2.6,1.7-3.8c1.4-2.9,3-6.1,4.6-9.5c0.8-1.7,1.6-3.4,2.4-5.1c0.8-1.7,1.6-3.5,2.4-5.3c7.7-17.1,15.3-36.2,17.4-48.7
	c0.2-1.3,0.4-2.6,0.5-3.7C958.2,129.2,958.2,128.2,958.2,127.1z"/>
<path class="st7" d="M825.7,76.2l-26.2-17.7c0,0-41.6-15.4-53.1,8.5s50,11.5,50,11.5l26.2,14.6L825.7,76.2z"/>
<rect x="646.9" y="19.8" transform="matrix(0.5363 -0.844 0.844 0.5363 176.6738 751.3457)" class="st4" width="250.6" height="390.1"/>
<rect x="581" y="174.6" transform="matrix(0.5363 -0.844 0.844 0.5363 131.4424 605.0649)" class="st0" width="70.8" height="16.7"/>
<rect x="605.8" y="151.2" transform="matrix(0.5363 -0.844 0.844 0.5363 182.8702 650.5468)" class="st0" width="155.5" height="15.3"/>
<rect x="633.3" y="168.7" transform="matrix(0.5363 -0.844 0.844 0.5363 180.8443 681.952)" class="st0" width="155.5" height="15.3"/>
<rect x="660.9" y="186.2" transform="matrix(0.5363 -0.844 0.844 0.5363 178.8841 713.2798)" class="st0" width="155.5" height="15.3"/>
<rect x="690.4" y="208.4" transform="matrix(0.5408 -0.8411 0.8411 0.5408 170.907 745.2072)" class="st0" width="155.3" height="15.3"/>
<rect x="716" y="221.2" transform="matrix(0.5363 -0.844 0.844 0.5363 174.9052 776.0184)" class="st0" width="155.5" height="15.3"/>
<rect x="745.6" y="243.8" transform="matrix(0.5408 -0.8411 0.8411 0.5408 166.5159 807.9357)" class="st0" width="155.3" height="15.3"/>
<rect x="896.3" y="207" transform="matrix(0.5363 -0.844 0.844 0.5363 233.2438 878.77)" class="st0" width="40.3" height="40.3"/>
<path class="st8" d="M903.1,615.6c-12.6-3.1-32.1-7.6-42-8.6c-15.4-1.5-15.4-20.8-4.6-18.5c5.8,1.3,11-2,14.5-5.3
	c1.1-1,2.1-2.1,3-3.3c1.3-1.5,3-2.6,5-3c5.8-1.3,17.8-3.2,25.2,0.8c1.7,1.1,3.1,2.6,4,4.4c3.3,5.9,5,15.8,5.9,23.8
	c0.5,4.9-3,9.3-7.9,9.8l0,0C905.1,615.9,904.1,615.8,903.1,615.6z"/>
<path class="st8" d="M708.4,623.3c-12.6-3.1-32.1-7.6-42-8.6c-15.4-1.5-15.4-20.8-4.6-18.5c7,1.5,13.1-3.6,16.5-7.3
	c0.4-0.5,0.8-0.9,1.1-1.3c1.3-1.5,3-2.6,5-3c5.8-1.3,17.8-3.2,25.2,0.8c2.2,1.2,3.9,3.7,5.3,7c2.5,5.9,3.9,14.3,4.6,21.2
	c0.5,4.9-3,9.3-7.9,9.8C710.5,623.6,709.5,623.6,708.4,623.3z"/>
<path class="st9" d="M714.8,592.5c-18.4,18.9-34.1-0.3-36.5-3.5c0.4-0.5,0.8-0.9,1.1-1.3c1.3-1.5,3-2.6,5-3
	c5.8-1.3,17.8-3.2,25.2,0.8C711.7,586.7,713.4,589.2,714.8,592.5z"/>
<path class="st9" d="M908.1,582.2c-8,5.4-34.8,4.1-34.8,4.1c-0.9-0.9-1.7-1.9-2.4-3c1.1-1,2.1-2.1,3-3.3c1.3-1.5,3-2.6,5-3
	c5.8-1.3,17.8-3.2,25.2,0.8C905.8,578.9,907.2,580.4,908.1,582.2z"/>
<path class="st10" d="M909.5,578.6c-5.4,6.9-36.2,5.4-36.2,5.4s-9.2-9.2-13.1-29.2s-36.9-83.9-36.9-83.9
	c-7.7-10-13.8-28.5-13.8-28.5l-13.1-83.9c0,0-63.1,83.1-62.3,100.8S720.3,547,720.3,547c-5.4,9.2-5.4,43.1-5.4,43.1
	c-20,20.8-36.9-3.8-36.9-3.8c-3.8-16.2,2.3-69.2,2.3-69.2s9.2-44.6,10-72.3s10-34.6,10-34.6c7.2-28.5,19.4-55.6,36.1-79.8
	c4.7-6.7,7.7-10.2,7.7-10.2l124.6,14.6c-2,4-3.8,9.7-5.4,16.5c-8.1,34.8-10.8,97.4-10.8,97.4c28.5,18.5,36.9,68.5,36.9,68.5
	C889.5,530.1,909.5,578.6,909.5,578.6z"/>
<g class="st11">
	<path d="M789.6,368.8l-1.6-10.3c0,0-63.1,83.1-62.3,100.8S711.8,547,711.8,547c-5.4,9.2-5.4,43.1-5.4,43.1c-4.2,4.3-8.3,6.7-12,7.7
		c6.1,1.6,13.4,0.4,21.3-7.7c0,0,0-33.8,5.4-43.1c0,0,14.6-70,13.8-87.7C734.3,445.5,772.8,391.5,789.6,368.8z"/>
	<path d="M890.3,517c0,0-8.5-50-36.9-68.5c0,0,2.7-62.5,10.8-97.4c1.6-6.8,3.3-12.5,5.4-16.5L744.9,320c0,0-0.3,0.3-0.8,1
		l116.2,13.6c-2,4-3.8,9.7-5.4,16.5c-8.1,34.8-10.8,97.4-10.8,97.4C872.6,467,881,517,881,517c0,13.1,20,61.5,20,61.5
		c-3.2,4.1-15.2,5.2-24.5,5.5c7.4,0.2,29.3,0.3,33.7-5.5C910.3,578.6,890.3,530.1,890.3,517z"/>
</g>
<path class="st7" d="M721.1,309.3c-0.9,2.3-2.2,4.4-3.7,6.4c-4.6,6.2-14.3,14.5-31.9,12.2c-4.2-0.5-7.1-4.4-6.5-8.5
	c0.2-1.2,0.6-2.4,1.3-3.4c4.5-6.3,12-14.1,23.2-17.8c3.2-1.1,6.5-1.7,9.8-2L721.1,309.3z"/>
<path class="st12" d="M883.5,94.1l-61.7-22.6c0,0-17.7,9.2-10.8,22.3l60,37.7L883.5,94.1z"/>
<path class="st13" d="M883.5,94.1l-61.7-22.6c0,0-17.7,9.2-10.8,22.3l60,37.7L883.5,94.1z"/>
<path class="st7" d="M885.7,56.9c0,0-0.8,36.2,15.4,48.5s-46.9,19.2-46.9,19.2s10-36.9,0-56.2S885.7,56.9,885.7,56.9z"/>
<path class="st9" d="M868.8,334.7c-2,4-3.8,9.7-5.4,16.5c-74.4,11.4-126.2-19.6-126.2-19.6c-0.3-0.5-0.5-0.9-0.8-1.3
	c4.7-6.7,7.7-10.2,7.7-10.2L868.8,334.7z"/>
<path class="st9" d="M721.1,309.3c-0.9,2.3-2.2,4.4-3.7,6.4c-7.1-1.2-12.8-14.8-13.9-17.5c3.2-1.1,6.5-1.7,9.8-2L721.1,309.3z"/>
<path class="st14" d="M891.8,89.2l-27.7,10l-11.5,15.4c0,0-23.8,7.7-26.9,7.7s-11.5,3.1-16.9,15.4S784.1,210,767.2,220
	s-61.5,77-61.5,77s7.7,20.8,16.9,17.7l21.5-17.7c0,0-16.9,16.9-6.9,32.3c0,0,63.1,37.7,150,14.6l0.8-23.1l3.8,18.5l43.2-27
	c0,0-3.9-49.7-10.8-74.9c-2.9-10.6-1.8-21.9,3-31.8c11.2-23.3,28.4-62.2,26.3-76.3c-2.5-16.7-11.9-24-15.5-26.2
	c-0.8-0.5-1.8-0.8-2.7-0.9l-14.1-1.4L891.8,89.2z"/>
<path class="st15" d="M844.5,166.6c0,0-15.4,71.6-32.3,83.1s-62.3,48.5-63.9,54.6"/>
<path class="st13" d="M837.6,164.3c0,0-15.4,71.6-32.3,83.1S743,295.8,741.4,302"/>
<path class="st13" d="M852.2,114.3c0,0,53.1-17.7,68.5-13.1"/>
<g class="st11">
	<path d="M927.1,205.6c11.2-23.3,28.4-62.2,26.3-76.3c-2.5-16.7-11.9-24-15.5-26.2c-0.8-0.5-1.8-0.8-2.7-0.9l-6-0.6
		c0.6,0.2,1.2,0.4,1.8,0.7c3.6,2.2,13,9.4,15.5,26.2c2.1,14.2-15.1,53.1-26.3,76.3c-4.8,9.9-5.9,21.2-3,31.8
		c7,25.3,10.8,74.9,10.8,74.9l-37.1,23.2l0.9,4.5l43.2-26.9c0,0-3.9-49.7-10.8-74.9C921.2,226.8,922.3,215.5,927.1,205.6z"/>
	<polygon points="914.2,100 920.8,100.7 891.8,89.2 889.3,90.2 	"/>
</g>
<path class="st13" d="M837.6,238.9c0,0,23.8-13.1,31.5-10s36.2-0.8,36.2-0.8"/>
<path class="st15" d="M883,66.6c-0.9-7.7,2.7-6.5,2.7-6.5s-41.5-7.7-31.5,11.5c2.5,4.8,3.8,10.7,4.2,16.9h0.4
	C870.4,88.5,877.1,75.6,883,66.6z"/>
<circle class="st16" cx="858.8" cy="52.3" r="33.1"/>
<path class="st9" d="M894.9,62.1c3-6.6,5.2-13.7,4.8-21s-3.6-14.6-9.6-18.6c-3.1-2.1-6.8-3.2-10-5.1c-2.5-1.5-4.7-3.4-7.1-5.1
	c-11.9-8.1-27.3-9.2-40.3-2.9c-6.1,3-11.3,7.6-17,11.2s-12.4,6.5-19.1,5.4c-1.2,3.2,1.7,6.4,4.3,8.5c5,4.2,10.6,8.3,17,8.4
	c2.5,0.1,5.1-0.5,7.4,0.6c1.5,0.8,2.8,2,3.8,3.5c3.1,4.1,5.7,8.6,7.8,13.3c0.9,1.9,1.7,4,3.5,5.2c3,1.9,6.8,0.3,10.3,0.2
	c5.5-0.2,10.4,3.2,14.5,6.9s7.9,7.9,13,9.8c3.8,1.4,11.5,1.4,13.4-3.2c0.7-1.7-0.7-5.4-0.4-7.5C891.7,68.4,893.5,65.2,894.9,62.1z"
	/>
<path class="st8" d="M895.6,61.3c3-6.6,5.2-13.7,4.8-21s-3.6-14.6-9.6-18.6c-3.1-2.1-6.8-3.2-10-5.1c-2.5-1.5-4.7-3.4-7.1-5.1
	c-11.9-8.1-27.3-9.2-40.3-2.9c-6.1,3-11.3,7.6-17,11.2s-12.5,6.4-19.2,5.4c-1.2,3.2,1.7,6.4,4.3,8.5c5,4.2,10.6,8.3,17,8.4
	c2.5,0.1,5.1-0.5,7.4,0.6c1.5,0.8,2.8,2,3.8,3.5c3.1,4.1,5.7,8.6,7.8,13.3c0.9,1.9,1.7,4,3.5,5.2c3,1.9,6.8,0.3,10.3,0.2
	c5.5-0.2,10.4,3.2,14.5,6.9s7.9,7.9,13,9.8c3.8,1.4,11.5,1.4,13.4-3.2c0.7-1.7-0.7-5.4-0.4-7.5C892.5,67.7,894.2,64.4,895.6,61.3z"
	/>
<polygon class="st17" points="676.7,578.5 153.3,578.5 153.3,251.6 220.3,251.6 247.8,285.6 676.7,285.6 "/>
<path class="st10" d="M183,611.1c0,0-22.6-4.5-28.6-10.5s-33.1-16.5-36.1-9s-40.6,33.1-15,37.6s60.2,6,67.7,3S183,611.1,183,611.1z"
	/>
<path class="st18" d="M103.2,626.4c25.6,4.5,60.2,6,67.7,3c5.7-2.3,9.7-13.3,11.3-18.4l0.8,0.2c0,0-4.5,18.1-12,21.1
	s-42.1,1.5-67.7-3c-7.4-1.3-9.5-4.4-8.7-8.2C95.2,623.5,97.7,625.4,103.2,626.4z"/>
<path class="st10" d="M649.4,652.5c0,0-34.4-6.9-43.6-16.1s-50.5-25.3-55.1-13.8s-62,50.5-23,57.4s91.8,9.2,103.3,4.6
	S649.4,652.5,649.4,652.5z"/>
<path class="st18" d="M527.7,675.8c39,6.9,91.8,9.2,103.3,4.6c8.7-3.5,14.8-20.3,17.2-28.1l1.2,0.2c0,0-6.9,27.5-18.4,32.1
	s-64.3,2.3-103.3-4.6c-11.3-2-14.5-6.7-13.3-12.6C515.4,671.3,519.3,674.3,527.7,675.8z"/>
<rect x="199.5" y="343.8" class="st19" width="435.9" height="192.2"/>
</svg>
