<svg 
    id="a6ee8617-cc99-4eb9-a93b-e1a7e83c9724" 
    xmlns="http://www.w3.org/2000/svg" 
    viewBox="0 0 473.31 604.13"
>
    <defs>
        <style>
            .cls-1{fill:#074768;}
            .cls-2{opacity:0.1;}
            .cls-2,
            .cls-5{isolation:isolate;}
            .cls-3{fill:#008fd5;}
            .cls-4{fill:#adadad;}
            .cls-5{opacity:0.2;}
            .cls-6{fill:#ffb9b9;}
            .cls-7{fill:#0b5775;}
            .cls-8{fill:#333333;}
        </style>
    </defs>
    
    <title>right</title>
    
    <path 
        class="cls-1" 
        d="M733.7,641.21c0,16.57-106,74-236.66,74s-236.65-57.43-236.65-74,106,14,236.65,14S733.7,624.64,733.7,641.21Z" 
        transform="translate(-260.39 -111.08)"
    />
    
    <path 
        class="cls-2" 
        d="M733.7,641.21c0,16.57-106,74-236.66,74s-236.65-57.43-236.65-74,106,14,236.65,14S733.7,624.64,733.7,641.21Z" 
        transform="translate(-260.39 -111.08)"
    />
    
    <ellipse 
        class="cls-1" 
        cx="236.66" 
        cy="530.13" 
        rx="236.66" 
        ry="30"
    />
    
    <polygon 
        class="cls-2" 
        points="104.91 289.13 203.31 191.03 104.91 92.92 134.91 63.02 263.31 191.03 134.91 319.02 104.91 289.13 104.91 289.13"
    />
    
    <path 
        class="cls-1" 
        d="M278.4,500.77c0,64,40.16,115.81,89.79,115.81" 
        transform="translate(-260.39 -111.08)"
    />
    
    <path 
        class="cls-3" 
        d="M368.19,616.58c0-64.73,44.81-117.12,100.2-117.12" 
        transform="translate(-260.39 -111.08)"
    />
    
    <path 
        class="cls-3" 
        d="M310.93,506.57c0,60.81,25.61,110,57.26,110" 
        transform="translate(-260.39 -111.08)"
    />
    
    <path 
        class="cls-1" 
        d="M368.19,616.58c0-82.71,51.8-149.65,115.81-149.65" 
        transform="translate(-260.39 -111.08)"
    />
    
    <path 
        class="cls-4" 
        d="M349.3,617.4s12.73-.39,16.57-3.13,19.59-6,20.54-1.61,19.13,21.8,4.76,21.91-33.41-2.23-37.24-4.57S349.3,617.4,349.3,617.4Z" 
        transform="translate(-260.39 -111.08)"
    />
    
    <path 
        class="cls-5" 
        d="M391.42,633.05c-14.37.12-33.4-2.24-37.23-4.57-2.92-1.78-4.08-8.16-4.47-11.1l-.42,0s.8,10.27,4.63,12.6,22.86,4.69,37.24,4.58c4.15,0,5.58-1.51,5.5-3.7C396.1,632.2,394.51,633,391.42,633.05Z" 
        transform="translate(-260.39 -111.08)"
    />
    
    <path 
        class="cls-6" 
        d="M511.23,275.67s-30.79-23.38-33.12-14.81,22.59,28,22.59,28Z" 
        transform="translate(-260.39 -111.08)"
    />
    
    <path 
        class="cls-2" 
        d="M511.23,275.67s-30.79-23.38-33.12-14.81,22.59,28,22.59,28Z" 
        transform="translate(-260.39 -111.08)"
    />
    
    <path 
        class="cls-7" 
        d="M612.87,201.65s-36.61,65.44-37.39,74.79-.78,10.12-3.89,9.35-46-5.46-49.86-3.9-11.68-9.35-11.68-9.35-14.81,14.8-11.69,17.92,12.46,4.67,14,8.57,3.9,7.79,10.91,7,54.53,12.46,60.76,10.13,7.79-6.24,10.91-6.24,9.34-3.11,9.34-3.89S626.11,264,626.11,264,651.82,207.89,612.87,201.65Z" 
        transform="translate(-260.39 -111.08)"
    />
    
    <path 
        class="cls-2" 
        d="M612.87,201.65s-36.61,65.44-37.39,74.79-.78,10.12-3.89,9.35-46-5.46-49.86-3.9-11.68-9.35-11.68-9.35-14.81,14.8-11.69,17.92,12.46,4.67,14,8.57,3.9,7.79,10.91,7,54.53,12.46,60.76,10.13,7.79-6.24,10.91-6.24,9.34-3.11,9.34-3.89S626.11,264,626.11,264,651.82,207.89,612.87,201.65Z" 
        transform="translate(-260.39 -111.08)"
    />
    
    <path 
        class="cls-8" 
        d="M559.75,158.52a65.26,65.26,0,0,0,.2,12.42c1.19,8.95,5.31,18.28,1.41,26.63-1.41,3-3.8,5.67-5.1,8.74-2.76,6.5-.26,13.7-.64,20.62-.48,8.93-6.16,17.54-14.8,22.43,14.76.46,28.8-6.84,38.09-16.79s14.46-22.28,18.34-34.62a75.3,75.3,0,0,0,3.8-17.93,25.91,25.91,0,0,0-1.2-10.38,39.46,39.46,0,0,0-5.35-9.13c-2.32-3.27-4.71-6.6-8.14-9-4.23-3-12.38-6-18-5.57C561.49,146.44,560,153.74,559.75,158.52Z" 
        transform="translate(-260.39 -111.08)"
    />
    
    <path 
        class="cls-6" 
        d="M582.49,183s8.57,30.38,1.56,38.95,42.07-3.9,42.07-3.9S602,193.86,613.65,178.28Z" 
        transform="translate(-260.39 -111.08)"
    />
    
    <path 
        class="cls-2" 
        d="M582.49,183s8.57,30.38,1.56,38.95,42.07-3.9,42.07-3.9S602,193.86,613.65,178.28Z" 
        transform="translate(-260.39 -111.08)"
    />
    
    <polygon 
        class="cls-3" 
        points="104.91 270.13 203.31 172.03 104.91 73.92 134.91 44.02 263.31 172.03 134.91 300.02 104.91 270.13 104.91 270.13"
    />
    
    <polygon 
        class="cls-6" 
        points="294.06 476.95 294.06 499.54 305.75 513.56 315.87 508.89 312.76 476.17 294.06 476.95"
    />
    
    <path 
        class="cls-8" 
        d="M559.12,609.07S556,598.16,550.55,606s-10.9,24.93-14,25.71-24.93,24.92-3.11,24.92,28.82-10.12,28.82-10.12,21.81-8.57,21.81-10.13S580.93,606,579.38,606s-2.34,5.45-6.24,5.45S559.12,609.07,559.12,609.07Z" 
        transform="translate(-260.39 -111.08)"
    />
    
    <polygon 
        class="cls-6" 
        points="346.25 480.85 345.47 501.88 364.17 509.67 364.17 479.29 346.25 480.85"
    />
    
    <path 
        class="cls-8" 
        d="M626.89,613s-10.12-10.9-15.58-8.57a54.48,54.48,0,0,0-7.79,3.9s-3.11,10.12-4.67,18.69-2.34,12.47-3.89,15.58-3.12,14.8,12.46,16.36,20.25-7,20.25-7l3.9-20.25S630,613,626.89,613Z" 
        transform="translate(-260.39 -111.08)"
    />
    
    <path 
        class="cls-8" 
        d="M564.57,367.58S542,418.21,545.1,464.17c0,0-7.79,17.92-3.12,46s10.91,84.14,10.91,84.14,21,2.33,22.59-1.56c0,0,1.56-39,3.12-40.51s-.78-37.39-3.12-44.4,21.81-76.34,21.81-76.34L591.06,345Z" 
        transform="translate(-260.39 -111.08)"
    />
    
    <path 
        class="cls-2" 
        d="M564.57,367.58S542,418.21,545.1,464.17c0,0-7.79,17.92-3.12,46s10.91,84.14,10.91,84.14,21,2.33,22.59-1.56c0,0,1.56-39,3.12-40.51s-.78-37.39-3.12-44.4,21.81-76.34,21.81-76.34L591.06,345Z" 
        transform="translate(-260.39 -111.08)"
    />
    
    <path 
        class="cls-8" 
        d="M558.34,364.46l14.8,31.94s7,72.45,10.91,81.8c0,0,1.56,26.48,8.57,35.05s12.46,84.13,12.46,84.13,19.48,5.45,21,0,6.23-42.84,6.23-42.84,1.55-31.94-7-53S635.46,405,635.46,405s19.48-36.61-8.57-66.21Z" 
        transform="translate(-260.39 -111.08)"
    />
    
    <circle 
        class="cls-6" 
        cx="339.24" 
        cy="49.29" 
        r="31.94"
    />
    
    <path 
        class="cls-7" 
        d="M629.23,208.67s-33.5,0-38.17,3.89a6.22,6.22,0,0,1-8.57,0s-11.68.78-14.8,10.13-12.46,21.81-12.46,21.81-14,10.13-6.23,36.61,1.55,69.33,1.55,69.33-6.23,9.35,0,13.24,8.57,5.46,7.79,8.57,70.89-25.7,70.89-31.16-1.56-10.12,0-12.46,3.12-6.23,1.56-10.13,1.56-4.67.78-8.57,3.89-32.71,7-45.18S640.92,209.44,629.23,208.67Z" 
        transform="translate(-260.39 -111.08)"
    />
    
    <path 
        class="cls-6" 
        d="M511.23,285s-30.79-23.37-33.12-14.8,22.59,28,22.59,28Z" 
        transform="translate(-260.39 -111.08)"
    />
    
    <path 
        class="cls-7" 
        d="M612.87,212.56S576.26,278,575.48,287.34s-.78,10.13-3.89,9.35-46-5.45-49.86-3.89-11.68-9.35-11.68-9.35-14.81,14.8-11.69,17.92,12.46,4.67,14,8.56,3.9,7.79,10.91,7,54.53,12.46,60.76,10.12,7.79-6.23,10.91-6.23,9.34-3.12,9.34-3.89,21.81-42.07,21.81-42.07S651.82,218.79,612.87,212.56Z" 
        transform="translate(-260.39 -111.08)"
    />
    
    <path 
        class="cls-8" 
        d="M583.81,180.77c-.44-3.16-2.06-6-2.89-9.11a19,19,0,0,1,2.15-14.7c4.59-7.4,13.58-10.68,19.85-16.71.13,3.08,2.27,5.7,4.62,7.68s5.06,3.58,7.06,5.92a23.4,23.4,0,0,1,4.11,8.32,29.36,29.36,0,0,1,1.62,10.92,13.69,13.69,0,0,1-4.73,9.7c-2.34,1.85-5.6,2.9-6.73,5.66a9.64,9.64,0,0,0-.38,4.27c.54,8.57,1,17.29-1,25.64s-7,16.41-14.71,20.11c6.37.45,12.87.89,19.05-.72s12.08-5.65,14.21-11.67c1.05-3,1.15-6.27,2.65-9.05,3.78-7,14.21-7.33,19.34-13.44,2.05-2.44,3-5.59,3.78-8.69,4.32-18.27,1.28-37.66-5.31-55.24-2.27-6.06-5.09-12.16-10-16.41-4.15-3.63-9.44-5.62-14.68-7.33-7.64-2.49-15.51-4.52-23.54-4.79A30.07,30.07,0,0,0,588,112.34a30.4,30.4,0,0,0-9.09,5.18c-12.58,9.79-21.15,25.43-20,41.33.69,9.62,4.76,18.72,10,26.82,1.83,2.83,6.16,8.87,10.18,7.09C582.74,191.15,584.29,184.19,583.81,180.77Z" 
        transform="translate(-260.39 -111.08)"
    />
</svg>