<svg id="Layer_1" data-name="Layer 1" xmlns="http://www.w3.org/2000/svg" viewBox="0 0 560 560"><defs><style>.cls-1{fill:#151515;}</style></defs><title>seamless-repeat-logo</title><path class="cls-1" d="M379.9,152.89v-5.38H180.1v5.38L86.32,280,180.1,407.11v5.38H379.9v-5.38L473.68,280ZM180.1,381,105.62,280,180.1,179.05ZM314.84,173.18l37.63,35.22H314.84ZM364.37,397H195.63V163.05H299.31v60.88h65.06Zm0-198.69-37.63-35.21h37.63Zm15.53,25.67V179.05L454.38,280,379.9,381Z"/><path class="cls-1" d="M205.45,220a9.79,9.79,0,0,0,1.75.94,11.89,11.89,0,0,0,1.89.6,9.41,9.41,0,0,0,2,.23,8.11,8.11,0,0,0,4.77-1.45,10.62,10.62,0,0,0,3.15-3.6,16.79,16.79,0,0,0,1.73-4.89,29.15,29.15,0,0,0,.54-5.63V174.4H203.76v9.09h9.89v22.72a11.75,11.75,0,0,1-.93,5.33c-.53,1-1.07,1.12-1.57,1.12a4.07,4.07,0,0,1-2-.59A8.23,8.23,0,0,1,207,210.2l-3.57-4.27v12.22l.53.57A8.26,8.26,0,0,0,205.45,220Z"/><path class="cls-1" d="M226.68,216.85a9.91,9.91,0,0,0,3.46,3.71,9.63,9.63,0,0,0,5.18,1.35,9.11,9.11,0,0,0,5-1.42,11.08,11.08,0,0,0,3.53-3.8,18.78,18.78,0,0,0,2-5.48,33.46,33.46,0,0,0,.65-6.84v-30h-7.58v30.33a15.52,15.52,0,0,1-1.13,6.68,2.4,2.4,0,0,1-2.37,1.57,2.75,2.75,0,0,1-1.48-.34,2.83,2.83,0,0,1-1-1.15,8.47,8.47,0,0,1-.75-2.56,29.09,29.09,0,0,1-.26-4.13V174.4h-7.59v30.86a36.37,36.37,0,0,0,.52,6.36A16.94,16.94,0,0,0,226.68,216.85Z"/><path class="cls-1" d="M249.77,220.9c.61.19,1.28.36,2,.51s1.39.26,2.13.35a17.92,17.92,0,0,0,2.31.15,13.23,13.23,0,0,0,4.94-.9,10.4,10.4,0,0,0,4-2.81,12.9,12.9,0,0,0,2.52-4.53,19.17,19.17,0,0,0,.86-6,17,17,0,0,0-.68-5,14.22,14.22,0,0,0-1.81-3.8,13.82,13.82,0,0,0-2.55-2.82,33.13,33.13,0,0,0-2.67-2l-2.51-1.66a10.59,10.59,0,0,1-1.84-1.51,6.33,6.33,0,0,1-1.17-1.68,5.07,5.07,0,0,1-.39-2.13,4.68,4.68,0,0,1,.95-3.18,3.75,3.75,0,0,1,2.94-1,10.57,10.57,0,0,1,2.49.32,14,14,0,0,1,2.68,1l2.88,1.35v-9.8l-1.27-.51c-.49-.19-1-.38-1.59-.55s-1.12-.31-1.68-.44-1.18-.24-1.75-.31a12.64,12.64,0,0,0-1.68-.12,10.71,10.71,0,0,0-9.05,4.54,13.62,13.62,0,0,0-2,4.45,19.29,19.29,0,0,0-.62,4.84,16.57,16.57,0,0,0,.68,5,13.83,13.83,0,0,0,1.81,3.74,13.55,13.55,0,0,0,2.56,2.77c.86.7,1.75,1.37,2.65,2s1.69,1.13,2.52,1.66a12.15,12.15,0,0,1,1.85,1.51,5.76,5.76,0,0,1,1.15,1.65,4.89,4.89,0,0,1,.39,2.1,8.77,8.77,0,0,1-.27,2.31,3.24,3.24,0,0,1-.68,1.32,2.75,2.75,0,0,1-1.16.75,6.56,6.56,0,0,1-2.22.32,13.63,13.63,0,0,1-3.68-.45,10.73,10.73,0,0,1-2.84-1.22l-3.08-1.89v10.58l1.21.53C248.57,220.49,249.14,220.7,249.77,220.9Z"/><polygon class="cls-1" points="276.46 221.32 284.08 221.32 284.08 183.43 291.79 183.43 291.79 174.4 268.76 174.4 268.76 183.43 276.46 183.43 276.46 221.32"/><path class="cls-1" d="M203.56,235.52v62.64a87.45,87.45,0,0,0,.87,12.92,37.88,37.88,0,0,0,2.85,10.24,17.87,17.87,0,0,0,5.4,7,13.5,13.5,0,0,0,8.36,2.61,12.74,12.74,0,0,0,8-2.73,20.09,20.09,0,0,0,5.56-7.27,41.7,41.7,0,0,0,3.26-10.81A81.06,81.06,0,0,0,239,296.3V235.52H228.78v61.54c0,6.55-.73,11.66-2.17,15.16-1.63,3.95-3.84,4.41-5.37,4.41a5.13,5.13,0,0,1-3.21-1,7.81,7.81,0,0,1-2.31-3.25,23.24,23.24,0,0,1-1.5-6.15,74.75,74.75,0,0,1-.48-9.06V235.52Z"/><polygon class="cls-1" points="265.22 329.7 265.22 250.04 278.58 250.04 278.58 235.52 241.62 235.52 241.62 250.04 254.97 250.04 254.97 329.7 265.22 329.7"/><path class="cls-1" d="M277.49,329.7H288l3.18-19.65h15.33l3.14,19.65h20.75V288.32h14.91V329.7h10.18V235.52H345.28v38.14H330.37V235.52H320.19v92.84L305,235.52H293.14Zm21.33-67.93L304.08,295H293.55Z"/><path class="cls-1" d="M223.42,338.74a16.19,16.19,0,0,0-4.43-.59,12.17,12.17,0,0,0-6.65,1.9,15.33,15.33,0,0,0-4.87,5.16,26,26,0,0,0-2.92,7.68,44.59,44.59,0,0,0-1,9.78c0,7.57,1.21,13.18,3.72,17.18a12.81,12.81,0,0,0,11.48,6.39,16.62,16.62,0,0,0,8.58-2.42l1-.59V372.66l-3.19,2.25a12.06,12.06,0,0,1-2.92,1.54,8.66,8.66,0,0,1-3,.52,5.53,5.53,0,0,1-5.17-3.21c-1.39-2.51-2.1-6.42-2.1-11.61a33.26,33.26,0,0,1,.6-6.68,16.87,16.87,0,0,1,1.62-4.7,7.23,7.23,0,0,1,2.26-2.58,4.71,4.71,0,0,1,2.7-.8,8.53,8.53,0,0,1,3.09.54,10.84,10.84,0,0,1,2.85,1.66l3.27,2.57v-11l-.94-.6A15.2,15.2,0,0,0,223.42,338.74Z"/><path class="cls-1" d="M265.41,338.68h-9.76v17.24c-.11-1.21-.27-2.36-.45-3.46a26.34,26.34,0,0,0-2.32-7.42,13.48,13.48,0,0,0-4.21-5.07,10.5,10.5,0,0,0-6.2-1.88,10.63,10.63,0,0,0-5.63,1.63,13.63,13.63,0,0,0-4.45,4.77A26.31,26.31,0,0,0,229.6,352a48,48,0,0,0-1,10.37,58.11,58.11,0,0,0,.71,9.5,26.76,26.76,0,0,0,2.29,7.46,13.27,13.27,0,0,0,4.21,5.08,10.88,10.88,0,0,0,11.83.22,13.42,13.42,0,0,0,4.47-4.77,26.42,26.42,0,0,0,2.8-7.54,38.8,38.8,0,0,0,.73-4.63v18h8.45a17.72,17.72,0,0,0,5.78-.88,14.6,14.6,0,0,0,4.58-2.54,14.93,14.93,0,0,0,3.32-3.94,22.49,22.49,0,0,0,2.1-4.86,33.53,33.53,0,0,0,1.14-5.61,53.11,53.11,0,0,0,.34-6.16c0-7.58-1.24-13.13-3.79-17C274.88,340.73,270.79,338.68,265.41,338.68Zm-18.19,29.93a20.94,20.94,0,0,1-1.22,4.88,7.89,7.89,0,0,1-1.82,2.9,2.66,2.66,0,0,1-1.94.78,2.9,2.9,0,0,1-2-.74,7.16,7.16,0,0,1-1.75-2.73,21.57,21.57,0,0,1-1.17-4.92,52.37,52.37,0,0,1-.4-6.7,43.94,43.94,0,0,1,.42-6.24,22,22,0,0,1,1.21-4.91,8,8,0,0,1,1.8-2.9,2.61,2.61,0,0,1,1.92-.77,2.93,2.93,0,0,1,2.07.74,7,7,0,0,1,1.77,2.75,20.65,20.65,0,0,1,1.17,4.93,52.22,52.22,0,0,1,.39,6.67A44.13,44.13,0,0,1,247.22,368.61Zm17.59,8h-1v-29h1.49a8,8,0,0,1,3.45.68,5.29,5.29,0,0,1,2.21,2.06,13,13,0,0,1,1.54,4.4,41.06,41.06,0,0,1,.56,7.36C273,376.61,266.84,376.61,264.81,376.61Z"/><polygon class="cls-1" points="283.62 385.71 304.71 385.71 304.71 376.68 291.74 376.68 291.74 365.91 304.21 365.91 304.21 356.94 291.74 356.94 291.74 347.65 304.71 347.65 304.71 338.68 283.62 338.68 283.62 385.71"/><path class="cls-1" d="M346.73,347.19a14.6,14.6,0,0,1,3,.34,18.85,18.85,0,0,1,3.19,1l2.79,1.14V340l-1.36-.47c-.56-.19-1.17-.37-1.8-.54s-1.27-.31-1.9-.43-1.33-.24-2-.31a17.94,17.94,0,0,0-1.87-.11,13.67,13.67,0,0,0-5.94,1.22,12,12,0,0,0-4.16,3.22,12.87,12.87,0,0,0-2.37,4.5,17.19,17.19,0,0,0-.73,4.92,14.74,14.74,0,0,0,.8,5.07,13.44,13.44,0,0,0,2.11,3.78,14.58,14.58,0,0,0,2.91,2.75c1,.7,2,1.36,3,1.95s1.95,1.13,2.89,1.67a13.59,13.59,0,0,1,2.18,1.54,6.05,6.05,0,0,1,1.35,1.66,4.25,4.25,0,0,1,.43,2,7.43,7.43,0,0,1-.31,2.24,3,3,0,0,1-.78,1.3,3.48,3.48,0,0,1-1.47.83,8.93,8.93,0,0,1-2.75.35,18.21,18.21,0,0,1-4.4-.47,14.36,14.36,0,0,1-3.4-1.26l-3-1.59v10.27l-5.09-15.14v0a28.5,28.5,0,0,0-1.94-4.49c-.15-.26-.31-.5-.47-.73.23-.17.45-.35.67-.54a11.48,11.48,0,0,0,2.44-3.07,13.9,13.9,0,0,0,1.43-3.78,18.89,18.89,0,0,0,.47-4.25,19.85,19.85,0,0,0-.63-5.15,11.56,11.56,0,0,0-2.16-4.32,10.12,10.12,0,0,0-3.84-2.88,13.21,13.21,0,0,0-5.31-1H308.76v47h8.12V366.57a2.63,2.63,0,0,1,.84.14,1.63,1.63,0,0,1,.59.4,4.59,4.59,0,0,1,.77,1.14,15.18,15.18,0,0,1,.91,2.32l4.93,15.14h8.89l-.5-1.49,1.25.47a19.16,19.16,0,0,0,1.93.62c.69.19,1.44.36,2.22.5s1.57.26,2.41.35a22.66,22.66,0,0,0,2.6.15,16.9,16.9,0,0,0,5.49-.87,12,12,0,0,0,4.51-2.75,12.53,12.53,0,0,0,2.91-4.56,17.11,17.11,0,0,0,1-6.08,15.15,15.15,0,0,0-.79-5.13,13.58,13.58,0,0,0-2.1-3.83,14.34,14.34,0,0,0-2.91-2.81c-1-.71-2-1.38-3.05-2l-2.9-1.67a13.35,13.35,0,0,1-2.17-1.55,6.57,6.57,0,0,1-1.35-1.69,4.33,4.33,0,0,1-.43-2,4.18,4.18,0,0,1,1.07-3.09A5.21,5.21,0,0,1,346.73,347.19ZM322.09,355a4.65,4.65,0,0,1-.86,1.61,3.18,3.18,0,0,1-1.23.87,4.71,4.71,0,0,1-1.83.33h-1.29V347.65h1.84a3.27,3.27,0,0,1,2.72,1,5.83,5.83,0,0,1,1,3.83A8.13,8.13,0,0,1,322.09,355Z"/><polygon class="cls-1" points="464.06 427.51 460.1 427.51 460.1 432.89 366.32 560 385.62 560 460.1 459.05 460.1 560 475.63 560 475.63 443.05 560 443.05 560 427.51 464.06 427.51"/><path class="cls-1" d="M483.76,463.49h9.89v22.72a11.75,11.75,0,0,1-.93,5.33c-.53,1-1.07,1.12-1.57,1.12a4.07,4.07,0,0,1-2-.59A8.23,8.23,0,0,1,487,490.2l-3.57-4.27v12.22l.53.57a8.26,8.26,0,0,0,1.5,1.29,9.79,9.79,0,0,0,1.75.94,11.89,11.89,0,0,0,1.89.6,9.41,9.41,0,0,0,2,.23,8.11,8.11,0,0,0,4.77-1.45,10.62,10.62,0,0,0,3.15-3.6,16.79,16.79,0,0,0,1.73-4.89,29.15,29.15,0,0,0,.54-5.63V454.4H483.76Z"/><path class="cls-1" d="M523.86,496.69a18.78,18.78,0,0,0,2-5.48,33.46,33.46,0,0,0,.65-6.84v-30h-7.58v30.33a15.52,15.52,0,0,1-1.13,6.68,2.4,2.4,0,0,1-2.37,1.57,2.75,2.75,0,0,1-1.48-.34,2.83,2.83,0,0,1-1-1.15,8.47,8.47,0,0,1-.75-2.56,29.09,29.09,0,0,1-.26-4.13V454.4h-7.59v30.86a36.37,36.37,0,0,0,.52,6.36,16.94,16.94,0,0,0,1.78,5.23,9.91,9.91,0,0,0,3.46,3.71,9.63,9.63,0,0,0,5.18,1.35,9.11,9.11,0,0,0,5-1.42A11.08,11.08,0,0,0,523.86,496.69Z"/><path class="cls-1" d="M539.82,491.65a2.75,2.75,0,0,1-1.16.75,6.56,6.56,0,0,1-2.22.32,13.63,13.63,0,0,1-3.68-.45,10.73,10.73,0,0,1-2.84-1.22l-3.08-1.89v10.58l1.21.53c.52.22,1.09.43,1.72.63s1.28.36,2,.51,1.39.26,2.13.35a17.92,17.92,0,0,0,2.31.15,13.23,13.23,0,0,0,4.94-.9,10.4,10.4,0,0,0,4-2.81,12.9,12.9,0,0,0,2.52-4.53,19.17,19.17,0,0,0,.86-6,17,17,0,0,0-.68-5,14.22,14.22,0,0,0-1.81-3.8,13.82,13.82,0,0,0-2.55-2.82,33.13,33.13,0,0,0-2.67-2l-2.51-1.66a10.59,10.59,0,0,1-1.84-1.51,6.33,6.33,0,0,1-1.17-1.68,5.07,5.07,0,0,1-.39-2.13,4.68,4.68,0,0,1,1-3.18,3.75,3.75,0,0,1,2.94-1,10.57,10.57,0,0,1,2.49.32,14,14,0,0,1,2.68,1l2.88,1.35v-9.8l-1.27-.51c-.49-.19-1-.38-1.59-.55s-1.12-.31-1.68-.44-1.18-.24-1.75-.31a12.64,12.64,0,0,0-1.68-.12,10.71,10.71,0,0,0-9,4.54,13.62,13.62,0,0,0-2,4.45,19.29,19.29,0,0,0-.62,4.84,16.57,16.57,0,0,0,.68,5,13.83,13.83,0,0,0,1.81,3.74,13.55,13.55,0,0,0,2.56,2.77c.86.7,1.75,1.37,2.65,2s1.69,1.13,2.52,1.66a12.15,12.15,0,0,1,1.85,1.51,5.76,5.76,0,0,1,1.15,1.65,4.89,4.89,0,0,1,.39,2.1,8.77,8.77,0,0,1-.27,2.31A3.24,3.24,0,0,1,539.82,491.65Z"/><polygon class="cls-1" points="548.76 463.43 556.46 463.43 556.46 501.32 560 501.32 560 454.4 548.76 454.4 548.76 463.43"/><rect class="cls-1" x="508.78" y="515.52" width="10.18" height="44.48"/><rect class="cls-1" x="483.56" y="515.52" width="10.18" height="44.48"/><polygon class="cls-1" points="521.62 530.04 534.97 530.04 534.97 560 545.22 560 545.22 530.04 558.58 530.04 558.58 515.52 521.62 515.52 521.62 530.04"/><path class="cls-1" d="M99.9,432.89v-5.38H0v15.54H19.31v60.88H84.37V560H99.9V459.05L174.38,560h19.3ZM34.84,488.4V453.18L72.47,488.4Zm49.53-10.14L46.74,443.05H84.37Z"/><polygon class="cls-1" points="11.79 454.4 0 454.4 0 501.32 4.08 501.32 4.08 463.43 11.79 463.43 11.79 454.4"/><polygon class="cls-1" points="13.14 515.52 5.75 560 15.93 560 18.82 541.77 21.7 560 32.27 560 24.98 515.52 13.14 515.52"/><polygon class="cls-1" points="65.28 553.66 50.37 553.66 50.37 515.52 40.19 515.52 40.19 560 75.46 560 75.46 515.52 65.28 515.52 65.28 553.66"/><polygon class="cls-1" points="475.63 0 460.1 0 460.1 100.95 385.62 0 366.32 0 460.1 127.11 460.1 132.49 464.06 132.49 560 132.49 560 116.95 475.63 116.95 475.63 0"/><path class="cls-1" d="M487.28,41.32a17.87,17.87,0,0,0,5.4,7A13.5,13.5,0,0,0,501,50.94a12.74,12.74,0,0,0,8-2.73,20.09,20.09,0,0,0,5.56-7.27,41.7,41.7,0,0,0,3.26-10.81A81.06,81.06,0,0,0,519,16.3V0H508.78V17.06c0,6.55-.73,11.66-2.17,15.16-1.63,4-3.84,4.41-5.37,4.41a5.13,5.13,0,0,1-3.21-1,7.81,7.81,0,0,1-2.31-3.25,23.24,23.24,0,0,1-1.5-6.15,74.75,74.75,0,0,1-.48-9.06V0H483.56V18.16a87.45,87.45,0,0,0,.87,12.92A37.88,37.88,0,0,0,487.28,41.32Z"/><rect class="cls-1" x="534.97" width="10.25" height="49.7"/><polygon class="cls-1" points="557.49 49.7 560 49.7 560 34.59 557.49 49.7"/><path class="cls-1" d="M498.76,106.24a16.62,16.62,0,0,0,8.58-2.42l1-.59V92.66l-3.19,2.25a12.06,12.06,0,0,1-2.92,1.54,8.66,8.66,0,0,1-3,.52A5.53,5.53,0,0,1,494,93.76c-1.39-2.51-2.1-6.42-2.1-11.61a33.26,33.26,0,0,1,.6-6.68,16.87,16.87,0,0,1,1.62-4.7,7.23,7.23,0,0,1,2.26-2.58,4.71,4.71,0,0,1,2.7-.8,8.53,8.53,0,0,1,3.09.54,10.84,10.84,0,0,1,2.85,1.66l3.27,2.57v-11l-.94-.6a15.2,15.2,0,0,0-4-1.8,16.19,16.19,0,0,0-4.43-.59,12.17,12.17,0,0,0-6.65,1.9,15.33,15.33,0,0,0-4.87,5.16,26,26,0,0,0-2.92,7.68,44.59,44.59,0,0,0-1,9.78c0,7.57,1.21,13.18,3.72,17.18A12.81,12.81,0,0,0,498.76,106.24Z"/><path class="cls-1" d="M545.41,58.68h-9.76V75.92c-.11-1.21-.27-2.36-.45-3.46A26.34,26.34,0,0,0,532.88,65,13.48,13.48,0,0,0,528.67,60a10.5,10.5,0,0,0-6.2-1.88,10.63,10.63,0,0,0-5.63,1.63,13.63,13.63,0,0,0-4.45,4.77A26.31,26.31,0,0,0,509.6,72a48,48,0,0,0-1,10.37,58.11,58.11,0,0,0,.71,9.5,26.76,26.76,0,0,0,2.29,7.46,13.27,13.27,0,0,0,4.21,5.08,10.88,10.88,0,0,0,11.83.22,13.42,13.42,0,0,0,4.47-4.77,26.42,26.42,0,0,0,2.8-7.54,38.8,38.8,0,0,0,.73-4.63v18h8.45a17.72,17.72,0,0,0,5.78-.88,14.6,14.6,0,0,0,4.58-2.54,14.93,14.93,0,0,0,3.32-3.94,22.49,22.49,0,0,0,2.1-4.86L560,93V70.19a19.64,19.64,0,0,0-2.43-5.43C554.88,60.73,550.79,58.68,545.41,58.68ZM527.22,88.61A20.94,20.94,0,0,1,526,93.49a7.89,7.89,0,0,1-1.82,2.9,2.66,2.66,0,0,1-1.94.78,2.9,2.9,0,0,1-2-.74,7.16,7.16,0,0,1-1.75-2.73,21.57,21.57,0,0,1-1.17-4.92,52.37,52.37,0,0,1-.4-6.7,43.94,43.94,0,0,1,.42-6.24,22,22,0,0,1,1.21-4.91,8,8,0,0,1,1.8-2.9,2.61,2.61,0,0,1,1.92-.77,2.93,2.93,0,0,1,2.07.74,7,7,0,0,1,1.77,2.75,20.65,20.65,0,0,1,1.17,4.93,52.22,52.22,0,0,1,.39,6.67A44.13,44.13,0,0,1,527.22,88.61Zm17.59,8h-1v-29h1.49a8,8,0,0,1,3.45.68,5.29,5.29,0,0,1,2.21,2.06,13,13,0,0,1,1.54,4.4,41.06,41.06,0,0,1,.56,7.36C553,96.61,546.84,96.61,544.81,96.61Z"/><path class="cls-1" d="M1.36,81.72A42,42,0,0,0,0,70.19V93a33.43,33.43,0,0,0,1-5.16A53.11,53.11,0,0,0,1.36,81.72Z"/><polygon class="cls-1" points="174.38 0 99.9 100.95 99.9 0 84.37 0 84.37 116.95 0 116.95 0 132.49 95.94 132.49 99.9 132.49 99.9 127.11 193.68 0 174.38 0"/><polygon class="cls-1" points="11.15 30.05 26.48 30.05 29.62 49.7 40.19 49.7 40.41 49.7 50.37 49.7 50.37 8.32 65.28 8.32 65.28 49.7 75.46 49.7 75.46 0 40.19 0 40.19 48.35 32.27 0 21.7 0 24.08 15.04 13.55 15.04 15.93 0 5.75 0 0 34.59 0 49.7 7.97 49.7 11.15 30.05"/><polygon class="cls-1" points="24.71 67.65 24.71 58.68 3.62 58.68 3.62 105.71 24.71 105.71 24.71 96.67 11.74 96.67 11.74 85.91 24.21 85.91 24.21 76.94 11.74 76.94 11.74 67.65 24.71 67.65"/><path class="cls-1" d="M66.73,67.19a14.6,14.6,0,0,1,3,.34,18.85,18.85,0,0,1,3.19,1l2.79,1.14V60l-1.36-.47c-.56-.19-1.17-.37-1.8-.54s-1.27-.31-1.9-.43-1.33-.24-2-.31a17.94,17.94,0,0,0-1.87-.11,13.67,13.67,0,0,0-5.94,1.22,12,12,0,0,0-4.16,3.22A12.87,12.87,0,0,0,54.35,67,17.19,17.19,0,0,0,53.62,72a14.74,14.74,0,0,0,.8,5.07,13.44,13.44,0,0,0,2.11,3.78,14.58,14.58,0,0,0,2.91,2.75c1,.7,2,1.36,3,2s2,1.13,2.89,1.67a13.59,13.59,0,0,1,2.18,1.54,6.05,6.05,0,0,1,1.35,1.66,4.25,4.25,0,0,1,.43,2A7.43,7.43,0,0,1,69,94.62a3,3,0,0,1-.78,1.3,3.48,3.48,0,0,1-1.47.83A8.93,8.93,0,0,1,64,97.1a18.21,18.21,0,0,1-4.4-.47,14.36,14.36,0,0,1-3.4-1.26l-3-1.59v10.27L48.16,88.91v0a28.5,28.5,0,0,0-1.94-4.49c-.15-.26-.31-.5-.47-.73.23-.17.45-.35.67-.54a11.48,11.48,0,0,0,2.44-3.07,13.9,13.9,0,0,0,1.43-3.78A18.89,18.89,0,0,0,50.75,72a19.85,19.85,0,0,0-.63-5.15A11.56,11.56,0,0,0,48,62.55a10.12,10.12,0,0,0-3.84-2.88,13.21,13.21,0,0,0-5.31-1h-10v47h8.12V86.57a2.63,2.63,0,0,1,.84.14,1.63,1.63,0,0,1,.59.4,4.59,4.59,0,0,1,.77,1.14A15.18,15.18,0,0,1,40,90.57l4.93,15.14h8.89l-.5-1.49,1.25.47a19.16,19.16,0,0,0,1.93.62c.69.19,1.44.36,2.22.5s1.57.26,2.41.35a22.66,22.66,0,0,0,2.6.15,16.9,16.9,0,0,0,5.49-.87,12,12,0,0,0,4.51-2.75,12.53,12.53,0,0,0,2.91-4.56,17.11,17.11,0,0,0,1-6.08,15.15,15.15,0,0,0-.79-5.13,13.58,13.58,0,0,0-2.1-3.83,14.34,14.34,0,0,0-2.91-2.81c-1-.71-2-1.38-3-2l-2.9-1.67a13.35,13.35,0,0,1-2.17-1.55,6.57,6.57,0,0,1-1.35-1.69,4.33,4.33,0,0,1-.43-2A4.18,4.18,0,0,1,63,68.27,5.21,5.21,0,0,1,66.73,67.19ZM42.09,75a4.65,4.65,0,0,1-.86,1.61A3.18,3.18,0,0,1,40,77.5a4.71,4.71,0,0,1-1.83.33H36.88V67.65h1.84a3.27,3.27,0,0,1,2.72,1,5.83,5.83,0,0,1,1,3.83A8.13,8.13,0,0,1,42.09,75Z"/></svg>