<?xml version="1.0" encoding="utf-8"?>
<!-- Generator: Adobe Illustrator 23.0.3, SVG Export Plug-In . SVG Version: 6.00 Build 0)  -->
<svg version="1.1" id="Layer_1" xmlns="http://www.w3.org/2000/svg" xmlns:xlink="http://www.w3.org/1999/xlink" x="0px" y="0px"
	 viewBox="0 0 513 362" style="enable-background:new 0 0 513 362;" xml:space="preserve">
<style type="text/css">
	.st0{opacity:0.45;}
	.st1{fill:#151515;}
	.st2{opacity:0.45;fill:#151515;}
</style>
<g class="st0">
	<path class="st1" d="M364.8,43.1v-5.8h-4.3h-83.1H152.5h-4.3v5.8L46.6,181l101.6,137.9v5.8h4.3h208h4.3v-5.8L466.4,181L364.8,43.1z
		 M148.2,290.4L67.5,181l80.7-109.4V290.4z M294.2,65.2l40.7,38.2h-40.7V65.2z M347.9,307.9H165.1V54.1h112.5v66.1H348v187.6H347.9z
		 M347.9,92.3l-40.7-38.2h40.7V92.3z M364.8,120.3V71.6L445.5,181l-80.7,109.4V120.3z"/>
	<path class="st1" d="M175.7,116c0.6,0.5,1.3,0.8,1.9,1c0.6,0.3,1.3,0.5,2.1,0.6c0.8,0.2,1.4,0.3,2.2,0.3c1.9,0,3.7-0.5,5.1-1.6
		c1.4-1,2.6-2.2,3.4-3.8c0.8-1.4,1.4-3.4,1.9-5.3c0.3-1.9,0.6-4,0.6-6.1V66.6h-19v9.9h10.7v24.6c0,2.6-0.3,4.5-1,5.8
		c-0.6,1.1-1.1,1.3-1.8,1.3c-0.6,0-1.4-0.2-2.1-0.6c-0.8-0.5-1.6-1.1-2.4-2.1l-3.8-4.6v13.3l0.6,0.6C174.5,115,175,115.5,175.7,116z
		"/>
	<path class="st1" d="M198.7,112.5c1,1.8,2.2,3,3.7,4c1.6,1,3.5,1.4,5.6,1.4s3.8-0.5,5.4-1.6c1.4-1,2.9-2.4,3.8-4.2
		c1-1.6,1.8-3.7,2.2-5.9c0.5-2.2,0.6-4.6,0.6-7.3V66.4h-8.1v32.9c0,3.2-0.5,5.6-1.3,7.2c-0.6,1.3-1.3,1.8-2.6,1.8
		c-0.6,0-1.3-0.2-1.6-0.3c-0.5-0.3-0.8-0.6-1.1-1.3c-0.3-0.6-0.6-1.6-0.8-2.7c-0.2-1.3-0.3-2.7-0.3-4.5V66.6h-8.1V100
		c0,2.6,0.2,4.8,0.6,6.9C197.2,109.1,197.9,111,198.7,112.5z"/>
	<path class="st1" d="M223.7,116.9c0.6,0.2,1.4,0.3,2.1,0.5c0.8,0.2,1.4,0.3,2.2,0.3c0.8,0.2,1.6,0.2,2.6,0.2c1.9,0,3.7-0.3,5.3-1
		c1.8-0.6,3.2-1.8,4.3-3c1.1-1.3,2.1-3,2.7-5c0.6-1.9,1-4,1-6.6c0-2.1-0.3-3.8-0.8-5.4c-0.5-1.6-1.1-2.9-1.9-4.2
		c-0.8-1.1-1.8-2.2-2.7-3c-1-0.8-1.9-1.4-2.9-2.2c-1-0.6-1.8-1.3-2.7-1.8c-0.8-0.5-1.4-1.1-1.9-1.6c-0.5-0.5-1-1.1-1.3-1.8
		c-0.3-0.6-0.5-1.4-0.5-2.2c0-1.4,0.3-2.7,1-3.5c0.6-0.6,1.6-1.1,3.2-1.1c0.8,0,1.8,0.2,2.7,0.3c1,0.2,1.9,0.6,2.9,1.1l3.2,1.4V67.9
		l-1.4-0.5c-0.5-0.2-1.1-0.5-1.8-0.6c-0.6-0.2-1.3-0.3-1.8-0.5c-0.6-0.2-1.3-0.3-1.9-0.3c-0.6-0.2-1.3-0.2-1.8-0.2
		c-2.2,0-4.2,0.5-5.8,1.4c-1.6,1-3,2.1-4,3.5c-1,1.4-1.8,3-2.2,4.8c-0.5,1.8-0.6,3.5-0.6,5.3c0,2.1,0.3,3.8,0.8,5.4s1.1,2.9,1.9,4
		s1.8,2.1,2.7,3c1,0.8,1.9,1.4,2.9,2.1c1,0.6,1.8,1.3,2.7,1.8c0.8,0.5,1.4,1.1,2.1,1.6c0.5,0.5,1,1.1,1.3,1.8
		c0.3,0.6,0.5,1.3,0.5,2.2c0,1-0.2,1.8-0.3,2.6c-0.2,0.6-0.5,1.1-0.8,1.4c-0.3,0.3-0.8,0.6-1.3,0.8c-0.6,0.2-1.4,0.3-2.4,0.3
		c-1.4,0-2.9-0.2-4-0.5c-1.1-0.3-2.2-0.8-3-1.3l-3.4-2.1v11.5l1.3,0.6C222.5,116.5,223.1,116.8,223.7,116.9z"/>
	<polygon class="st1" points="252.7,117.4 261,117.4 261,76.3 269.3,76.3 269.3,66.4 244.4,66.4 244.4,76.3 252.7,76.3 	"/>
	<path class="st1" d="M173.6,132.7v67.9c0,5.1,0.3,9.9,1,14.1c0.6,4.3,1.8,8,3,11c1.4,3.2,3.5,5.8,5.9,7.7c2.6,1.9,5.6,2.9,9.1,2.9
		c3.2,0,6.2-1,8.6-3c2.4-1.9,4.5-4.5,6.1-7.8c1.6-3.2,2.7-7.2,3.5-11.7c0.8-4.5,1.1-9.6,1.1-15v-65.8h-11v66.8
		c0,7-0.8,12.6-2.4,16.5c-1.8,4.3-4.2,4.8-5.8,4.8c-1.4,0-2.6-0.3-3.5-1.1c-1-0.8-1.9-1.9-2.6-3.5c-0.8-1.8-1.3-4-1.6-6.7
		s-0.5-6.1-0.5-9.7v-66.9h-11V132.7z"/>
	<polygon class="st1" points="240.5,234.8 240.5,148.6 254.9,148.6 254.9,132.7 215,132.7 215,148.6 229.3,148.6 229.3,234.8 	"/>
	<path class="st1" d="M253.8,234.8h11.3l3.5-21.2h16.6l3.4,21.2h11.5h0.2h10.9v-44.9h16.1v44.9h11V132.7h-11v41.4h-16.1v-41.4h-11
		v100.7l-16.5-100.7h-12.8L253.8,234.8z M277,161.2l5.8,36.1h-11.3L277,161.2z"/>
	<path class="st1" d="M195.1,244.7c-1.4-0.5-3-0.6-4.8-0.6c-2.7,0-5.1,0.6-7.2,2.1c-2.1,1.3-3.8,3.2-5.3,5.6
		c-1.4,2.2-2.4,5.1-3.2,8.3c-0.6,3.2-1.1,6.7-1.1,10.5c0,8.1,1.3,14.2,4,18.7c2.9,4.6,7,6.9,12.5,6.9c3.2,0,6.4-1,9.3-2.6l1.1-0.6
		v-11.5l-3.5,2.4c-1,0.6-2.1,1.3-3.2,1.6c-1,0.3-2.1,0.6-3.2,0.6c-2.6,0-4.3-1.1-5.6-3.5c-1.4-2.7-2.2-7-2.2-12.6
		c0-2.7,0.2-5.1,0.6-7.2c0.5-2.1,1-3.7,1.8-5.1c0.6-1.3,1.4-2.2,2.4-2.9c0.8-0.6,1.8-0.8,2.9-0.8c1.3,0,2.4,0.2,3.4,0.6
		c1.1,0.5,2.1,1,3,1.8l3.5,2.7v-12l-1-0.6C198,245.7,196.6,245.1,195.1,244.7z"/>
	<path class="st1" d="M240.7,244.6h-10.5v18.7c-0.2-1.3-0.3-2.6-0.5-3.7c-0.5-3.2-1.4-5.9-2.6-8c-1.1-2.4-2.7-4.2-4.6-5.4
		c-1.9-1.3-4.2-2.1-6.7-2.1c-2.1,0-4.2,0.6-6.1,1.8c-1.9,1.1-3.5,2.9-4.8,5.1c-1.3,2.2-2.2,5-3,8.1c-0.6,3.2-1.1,7-1.1,11.2
		c0,3.8,0.3,7.2,0.8,10.2c0.5,3.2,1.4,5.9,2.6,8.1c1.1,2.4,2.7,4.2,4.6,5.4c1.9,1.3,4.2,2.1,6.7,2.1c2.1,0,4.2-0.6,6.1-1.8
		c1.9-1.1,3.5-2.9,4.8-5.1c1.3-2.2,2.2-5,3-8.1c0.3-1.6,0.6-3.2,0.8-5v19.5h9.1c2.2,0,4.5-0.3,6.2-1c1.9-0.6,3.5-1.6,5-2.7
		c1.4-1.1,2.6-2.6,3.7-4.3c1-1.6,1.8-3.4,2.2-5.3c0.6-1.9,1-4,1.3-6.1c0.3-2.1,0.3-4.3,0.3-6.7c0-8.1-1.3-14.2-4.2-18.4
		C250.9,246.8,246.4,244.6,240.7,244.6z M221,277c-0.3,2.1-0.8,3.8-1.3,5.3c-0.5,1.3-1.3,2.4-1.9,3.2c-0.6,0.6-1.3,0.8-2.1,0.8
		c-1,0-1.6-0.3-2.2-0.8c-0.8-0.6-1.4-1.6-1.9-3c-0.6-1.4-1-3.2-1.3-5.3c-0.3-2.2-0.5-4.6-0.5-7.2c0-2.4,0.2-4.6,0.5-6.7
		c0.3-2.1,0.8-3.8,1.3-5.3c0.5-1.3,1.1-2.4,1.9-3.2c0.6-0.6,1.3-0.8,2.1-0.8c1,0,1.6,0.3,2.2,0.8c0.8,0.6,1.4,1.6,1.9,3
		c0.6,1.4,1,3.2,1.3,5.3c0.3,2.2,0.5,4.6,0.5,7.2C221.4,272.7,221.2,274.9,221,277z M240,285.8h-1.1v-31.3h1.6
		c1.4,0,2.7,0.3,3.7,0.8c1,0.5,1.8,1.1,2.4,2.2c0.8,1.1,1.3,2.7,1.6,4.8c0.5,2.1,0.6,4.8,0.6,8C249,285.8,242.3,285.8,240,285.8z"/>
	<polygon class="st1" points="260.5,295.6 283.3,295.6 283.3,285.8 269.3,285.8 269.3,274.1 282.7,274.1 282.7,264.4 269.3,264.4 
		269.3,254.3 283.3,254.3 283.3,244.6 260.5,244.6 	"/>
	<path class="st1" d="M328.9,253.9c1,0,2.1,0.2,3.2,0.3c1.1,0.3,2.2,0.6,3.5,1.1l3,1.3V246l-1.4-0.5c-0.6-0.2-1.3-0.5-1.9-0.6
		c-0.6-0.2-1.4-0.3-2.1-0.5c-0.6-0.2-1.4-0.3-2.1-0.3c-0.6-0.2-1.4-0.2-2.1-0.2c-2.4,0-4.6,0.5-6.4,1.3s-3.4,2.1-4.5,3.5
		c-1.1,1.4-2.1,3-2.6,4.8c-0.5,1.8-0.8,3.5-0.8,5.3c0,2.1,0.3,4,0.8,5.4c0.6,1.6,1.3,2.9,2.2,4.2c1,1.1,1.9,2.1,3.2,3
		c1.1,0.8,2.2,1.4,3.4,2.1c1.1,0.6,2.1,1.3,3.2,1.8c1,0.5,1.8,1.1,2.4,1.6c0.6,0.5,1.1,1.1,1.4,1.8c0.3,0.6,0.5,1.3,0.5,2.2
		s-0.2,1.8-0.3,2.4c-0.2,0.6-0.5,1-0.8,1.4c-0.3,0.3-1,0.6-1.6,1c-0.8,0.3-1.8,0.3-3,0.3c-1.8,0-3.4-0.2-4.8-0.5
		c-1.4-0.3-2.6-0.8-3.7-1.4l-3.2-1.8v11.2l-5.6-16.5l0,0c-0.6-2.1-1.4-3.7-2.1-4.8c-0.2-0.3-0.3-0.5-0.5-0.8
		c0.3-0.2,0.5-0.3,0.8-0.6c1.1-1,1.9-2.1,2.7-3.4c0.6-1.3,1.3-2.6,1.6-4.2c0.3-1.4,0.5-3,0.5-4.6c0-2.1-0.2-3.8-0.6-5.6
		c-0.5-1.8-1.3-3.4-2.4-4.6c-1.1-1.3-2.6-2.4-4.2-3.2c-1.6-0.6-3.5-1.1-5.8-1.1h-10.9v51h8.8v-20.8c0.3,0,0.6,0,1,0.2
		c0.2,0.2,0.5,0.2,0.6,0.5c0.2,0.2,0.5,0.5,0.8,1.3c0.3,0.6,0.6,1.4,1,2.6l5.3,16.5h9.6l-0.5-1.6l1.3,0.5c0.6,0.2,1.3,0.5,2.1,0.6
		c0.8,0.2,1.6,0.3,2.4,0.5c0.8,0.2,1.8,0.3,2.6,0.3c1,0.2,1.9,0.2,2.9,0.2c2.1,0,4.2-0.3,5.9-1c1.9-0.6,3.5-1.6,5-3
		c1.3-1.3,2.4-3,3.2-5c0.8-1.9,1.1-4.2,1.1-6.6c0-2.1-0.3-4-0.8-5.6c-0.6-1.6-1.3-3-2.2-4.2s-1.9-2.2-3.2-3
		c-1.1-0.8-2.2-1.4-3.4-2.1c-1.1-0.6-2.1-1.3-3.2-1.8c-1-0.5-1.6-1.1-2.4-1.6c-0.6-0.5-1.1-1.1-1.4-1.8c-0.3-0.6-0.5-1.3-0.5-2.2
		c0-1.4,0.3-2.6,1.1-3.4C325.5,254.2,327,253.9,328.9,253.9z M302.2,262.3c-0.2,0.6-0.5,1.3-1,1.8c-0.3,0.5-0.8,0.8-1.3,1
		c-0.6,0.2-1.3,0.3-1.9,0.3h-1.6v-11h1.9c1.8,0,2.6,0.6,2.9,1.1c0.8,0.8,1.1,2.2,1.1,4.2C302.5,260.7,302.4,261.5,302.2,262.3z"/>
</g>
<g class="st0">
	<polygon class="st1" points="451.3,276.8 448.7,276.8 448.7,280.2 388.4,362 400.9,362 448.7,297.1 448.7,362 458.8,362 
		458.8,286.7 513,286.7 513,276.8 	"/>
	<path class="st1" d="M464,299.9h6.4v14.6c0,1.5-0.2,2.7-0.6,3.4c-0.4,0.7-0.7,0.8-1,0.8c-0.4,0-0.9-0.1-1.2-0.4
		c-0.5-0.3-0.9-0.7-1.4-1.2l-2.3-2.7v7.9l0.4,0.4c0.3,0.3,0.6,0.6,0.9,0.9c0.4,0.3,0.8,0.5,1.1,0.6c0.4,0.2,0.8,0.3,1.2,0.4
		c0.5,0.1,0.9,0.2,1.3,0.2c1.1,0,2.2-0.3,3-0.9c0.9-0.6,1.5-1.3,2-2.3c0.5-0.9,0.9-2,1.1-3.1c0.2-1.1,0.4-2.4,0.4-3.6v-20.5h-11.3
		L464,299.9L464,299.9z"/>
	<path class="st1" d="M489.8,321.2c0.6-0.9,1-2.2,1.3-3.5c0.3-1.3,0.4-2.7,0.4-4.4v-19.2h-4.8v19.5c0,1.9-0.3,3.3-0.8,4.3
		c-0.4,0.8-0.8,1-1.5,1c-0.4,0-0.8-0.1-0.9-0.2c-0.3-0.2-0.5-0.4-0.7-0.8c-0.2-0.4-0.4-0.9-0.5-1.6c-0.1-0.8-0.2-1.6-0.2-2.7v-19.5
		h-4.8V314c0,1.5,0.1,2.8,0.4,4.1c0.2,1.3,0.7,2.5,1.1,3.3c0.6,1,1.3,1.8,2.2,2.4c0.9,0.6,2.1,0.9,3.3,0.9c1.2,0,2.3-0.3,3.2-0.9
		C488.4,323.1,489.1,322.3,489.8,321.2z"/>
	<path class="st1" d="M500,318c-0.2,0.2-0.5,0.4-0.8,0.5c-0.4,0.1-0.9,0.2-1.4,0.2c-0.9,0-1.7-0.1-2.4-0.3c-0.7-0.2-1.3-0.5-1.8-0.8
		l-2-1.2v6.8l0.8,0.4c0.3,0.2,0.7,0.3,1.1,0.4c0.4,0.1,0.9,0.2,1.2,0.3c0.5,0.1,0.9,0.2,1.3,0.2c0.5,0.1,0.9,0.1,1.5,0.1
		c1.1,0,2.2-0.2,3.1-0.6c1-0.4,1.9-1,2.6-1.8c0.7-0.8,1.2-1.8,1.6-2.9c0.4-1.1,0.6-2.4,0.6-3.9c0-1.2-0.2-2.3-0.5-3.2
		c-0.3-0.9-0.7-1.7-1.1-2.5c-0.5-0.7-1-1.3-1.6-1.8c-0.6-0.5-1.1-0.9-1.7-1.3c-0.6-0.4-1-0.8-1.6-1c-0.5-0.3-0.9-0.7-1.1-0.9
		c-0.3-0.3-0.6-0.7-0.8-1s-0.3-0.9-0.3-1.3c0-0.9,0.2-1.6,0.6-2.1c0.4-0.4,0.9-0.7,1.9-0.7c0.5,0,1,0.1,1.6,0.2
		c0.6,0.1,1.1,0.4,1.7,0.7l1.9,0.9v-6.3l-0.9-0.3c-0.3-0.1-0.7-0.3-1-0.4c-0.4-0.1-0.8-0.2-1-0.3c-0.4-0.1-0.8-0.2-1.1-0.2
		c-0.4-0.1-0.8-0.1-1-0.1c-1.3,0-2.5,0.3-3.4,0.9s-1.8,1.2-2.4,2.1c-0.6,0.9-1,1.8-1.3,2.8c-0.3,1-0.4,2.1-0.4,3.1
		c0,1.2,0.2,2.3,0.5,3.2c0.3,0.9,0.7,1.7,1.1,2.4c0.5,0.7,1,1.2,1.6,1.8c0.6,0.5,1.1,0.9,1.7,1.2s1,0.8,1.6,1
		c0.5,0.3,0.9,0.7,1.2,0.9c0.3,0.3,0.6,0.7,0.8,1s0.3,0.8,0.3,1.3s-0.1,1-0.2,1.5C500.4,317.5,500.2,317.8,500,318z"/>
	<polygon class="st1" points="505.8,299.9 510.7,299.9 510.7,324.3 513,324.3 513,294 505.8,294 	"/>
	<rect x="480" y="333.4" class="st1" width="6.5" height="28.6"/>
	<rect x="463.8" y="333.4" class="st1" width="6.5" height="28.6"/>
	<polygon class="st1" points="488.4,342.8 496.9,342.8 496.9,362 503.5,362 503.5,342.8 512.1,342.8 512.1,333.4 488.4,333.4 	"/>
</g>
<g class="st0">
	<path class="st1" d="M64.3,280.2v-3.4h-2.6H12.4H0v10h12.4V326h41.8v36h10v-36v-28.9L112,362h12.4L64.3,280.2z M22.4,315.9v-22.7
		l24.2,22.7H22.4z M54.2,309.4l-24.2-22.7h24.2V309.4z"/>
	<polygon class="st1" points="7.6,294 0,294 0,324.3 2.7,324.3 2.7,299.9 7.6,299.9 	"/>
	<polygon class="st1" points="8.4,333.4 3.7,362 10.2,362 12.1,350.2 13.9,362 20.8,362 16.1,333.4 	"/>
	<polygon class="st1" points="42,357.9 32.4,357.9 32.4,333.4 25.9,333.4 25.9,362 48.5,362 48.5,333.4 42,333.4 	"/>
</g>
<g class="st0">
	<polygon class="st1" points="458.8,0 448.7,0 448.7,64.9 400.9,0 388.4,0 448.7,81.8 448.7,85.2 451.3,85.2 513,85.2 513,75.3 
		458.8,75.3 	"/>
	<path class="st1" d="M466.3,26.5c0.9,1.9,2.1,3.4,3.5,4.6c1.5,1.1,3.3,1.7,5.4,1.7c1.9,0,3.7-0.6,5.1-1.8c1.4-1.1,2.7-2.7,3.6-4.6
		c0.9-1.9,1.6-4.3,2.1-6.9c0.5-2.7,0.7-5.7,0.7-8.9V0h-6.5v11c0,4.2-0.5,7.5-1.4,9.8c-1,2.6-2.5,2.8-3.4,2.8c-0.9,0-1.5-0.2-2.1-0.7
		c-0.6-0.5-1.1-1.1-1.5-2.1c-0.5-1-0.8-2.4-0.9-4c-0.2-1.6-0.3-3.6-0.3-5.8V0h-6.5v11.7c0,3,0.2,5.9,0.6,8.3
		C464.7,22.6,465.4,24.7,466.3,26.5z"/>
	<rect x="496.9" class="st1" width="6.6" height="31.9"/>
	<polygon class="st1" points="511.4,31.9 513,31.9 513,22.3 	"/>
	<path class="st1" d="M473.6,68.3c1.9,0,3.8-0.6,5.5-1.5l0.7-0.4v-6.8l-2.1,1.4c-0.6,0.4-1.2,0.8-1.9,0.9c-0.6,0.2-1.2,0.4-1.9,0.4
		c-1.5,0-2.6-0.7-3.3-2.1c-0.9-1.6-1.3-4.2-1.3-7.5c0-1.6,0.1-3,0.4-4.3c0.3-1.2,0.6-2.2,1-3c0.4-0.8,0.9-1.3,1.4-1.7
		c0.5-0.4,1-0.5,1.7-0.5c0.8,0,1.4,0.1,2,0.4c0.7,0.3,1.2,0.6,1.8,1l2.1,1.6v-7.1l-0.6-0.4c-0.9-0.5-1.7-0.9-2.6-1.1
		c-0.9-0.3-1.8-0.4-2.8-0.4c-1.6,0-3,0.4-4.3,1.2c-1.2,0.8-2.3,1.9-3.1,3.3c-0.9,1.3-1.4,3-1.9,4.9c-0.4,1.9-0.7,4-0.7,6.3
		c0,4.8,0.8,8.4,2.4,11.1C468,66.9,470.4,68.3,473.6,68.3z"/>
	<path class="st1" d="M503.6,37.7h-6.3v11.1c-0.1-0.8-0.2-1.5-0.3-2.2c-0.3-1.9-0.9-3.5-1.5-4.7c-0.7-1.4-1.6-2.5-2.7-3.2
		c-1.1-0.8-2.5-1.2-4-1.2c-1.2,0-2.5,0.4-3.6,1c-1.1,0.7-2.1,1.7-2.8,3c-0.8,1.3-1.3,2.9-1.8,4.8c-0.4,1.9-0.7,4.2-0.7,6.6
		c0,2.3,0.2,4.3,0.5,6.1c0.3,1.9,0.9,3.5,1.5,4.8c0.7,1.4,1.6,2.5,2.7,3.2s2.5,1.2,4,1.2c1.2,0,2.5-0.4,3.6-1s2.1-1.7,2.8-3
		c0.8-1.3,1.3-2.9,1.8-4.8c0.2-0.9,0.4-1.9,0.5-2.9v11.6h5.4c1.3,0,2.7-0.2,3.7-0.6c1.1-0.4,2.1-0.9,2.9-1.6
		c0.9-0.7,1.5-1.5,2.2-2.6c0.6-0.9,1-2,1.3-3.1c0-0.1,0.1-0.2,0.1-0.3V45.1c-0.4-1.3-0.9-2.5-1.5-3.5
		C509.7,39.1,507,37.7,503.6,37.7z M492,57c-0.2,1.2-0.5,2.3-0.8,3.1c-0.3,0.8-0.8,1.4-1.1,1.9c-0.4,0.4-0.8,0.5-1.2,0.5
		c-0.6,0-0.9-0.2-1.3-0.5c-0.5-0.4-0.9-0.9-1.1-1.8c-0.4-0.9-0.6-1.9-0.8-3.1c-0.2-1.3-0.3-2.7-0.3-4.3c0-1.4,0.1-2.7,0.3-4
		s0.5-2.3,0.8-3.1c0.3-0.8,0.7-1.4,1.1-1.9c0.4-0.4,0.8-0.5,1.2-0.5c0.6,0,0.9,0.2,1.3,0.5c0.5,0.4,0.9,0.9,1.1,1.8
		c0.4,0.9,0.6,1.9,0.8,3.1c0.2,1.3,0.3,2.7,0.3,4.3C492.1,54.4,492,55.7,492,57z M503.2,62.2h-0.7V43.5h0.9c0.9,0,1.6,0.2,2.2,0.5
		s1,0.7,1.4,1.3c0.5,0.7,0.8,1.6,0.9,2.8c0.3,1.2,0.4,2.8,0.4,4.7C508.5,62.2,504.6,62.2,503.2,62.2z"/>
</g>
<g class="st0">
	<path class="st1" d="M0.9,52.6c0-2.9-0.3-5.4-0.9-7.4v14.7c0.3-1,0.5-2.2,0.7-3.3C0.8,55.3,0.9,53.9,0.9,52.6z"/>
	<polygon class="st1" points="112.1,0 64.3,64.9 64.3,0 54.2,0 54.2,75.3 0,75.3 0,85.2 61.7,85.2 64.3,85.2 64.3,81.8 124.6,0 	"/>
	<polygon class="st1" points="7.2,19.3 17.1,19.3 19.1,31.9 25.9,31.9 26,31.9 32.4,31.9 32.4,5.3 42,5.3 42,31.9 48.5,31.9 48.5,0 
		25.9,0 25.9,31.1 20.8,0 13.9,0 15.5,9.7 8.7,9.7 10.2,0 3.7,0 0,22.3 0,31.9 5.1,31.9 	"/>
	<polygon class="st1" points="15.9,43.5 15.9,37.7 2.4,37.7 2.4,68 15.9,68 15.9,62.2 7.6,62.2 7.6,55.3 15.5,55.3 15.5,49.5 
		7.6,49.5 7.6,43.5 	"/>
	<path class="st1" d="M42.9,43.2c0.6,0,1.2,0.1,1.9,0.2c0.7,0.2,1.3,0.4,2.1,0.7l1.8,0.8v-6.3l-0.9-0.3c-0.4-0.1-0.8-0.3-1.1-0.4
		c-0.4-0.1-0.9-0.2-1.2-0.3c-0.4-0.1-0.9-0.2-1.2-0.2c-0.4-0.1-0.9-0.1-1.2-0.1c-1.4,0-2.7,0.3-3.8,0.8s-2,1.2-2.7,2.1
		S35.4,42,35.1,43s-0.5,2.1-0.5,3.1c0,1.2,0.2,2.4,0.5,3.2c0.4,0.9,0.8,1.7,1.3,2.5c0.6,0.7,1.1,1.2,1.9,1.8c0.7,0.5,1.3,0.9,2,1.2
		c0.7,0.4,1.2,0.8,1.9,1c0.6,0.3,1,0.7,1.4,0.9s0.7,0.7,0.9,1c0.2,0.4,0.3,0.8,0.3,1.3c0,0.6-0.1,1-0.2,1.4
		c-0.1,0.4-0.3,0.6-0.5,0.9c-0.2,0.2-0.6,0.4-0.9,0.6c-0.5,0.2-1,0.2-1.8,0.2c-1,0-2-0.1-2.8-0.3c-0.9-0.2-1.5-0.5-2.2-0.9l-1.9-1
		v6.6L31.1,57l0,0c-0.4-1.2-0.9-2.2-1.2-2.8c-0.1-0.2-0.2-0.3-0.3-0.5c0.2-0.1,0.3-0.2,0.5-0.4c0.7-0.6,1.1-1.2,1.6-2
		c0.4-0.8,0.8-1.5,0.9-2.5c0.2-0.9,0.3-1.8,0.3-2.7c0-1.2-0.1-2.3-0.4-3.3c-0.3-1-0.8-2-1.4-2.7c-0.7-0.8-1.5-1.4-2.5-1.9
		c-0.9-0.4-2.1-0.7-3.4-0.7h-6.4v30.2h4.9V55.4c0.2,0,0.4,0,0.6,0.1c0.1,0.1,0.3,0.1,0.4,0.3c0.1,0.1,0.3,0.3,0.5,0.8
		c0.2,0.4,0.4,0.9,0.6,1.5l3.1,9.8h5.7l-0.3-0.9l0.9,0.5c0.4,0.1,0.8,0.3,1.2,0.4s0.9,0.2,1.4,0.3c0.5,0.1,1,0.2,1.5,0.2
		c0.6,0.1,1.1,0.1,1.7,0.1c1.2,0,2.5-0.2,3.5-0.6c1.1-0.4,2.1-0.9,2.9-1.8c0.8-0.8,1.4-1.8,1.9-2.9c0.5-1.1,0.7-2.5,0.7-3.9
		c0-1.2-0.2-2.4-0.5-3.3c-0.4-0.9-0.8-1.8-1.3-2.5c-0.6-0.7-1.1-1.3-1.9-1.8c-0.7-0.5-1.3-0.9-2-1.2c-0.7-0.4-1.2-0.8-1.9-1
		c-0.6-0.3-0.9-0.7-1.4-0.9c-0.4-0.3-0.7-0.7-0.9-1c-0.2-0.4-0.3-0.8-0.3-1.3c0-0.9,0.2-1.5,0.7-2C41,43.4,41.8,43.2,42.9,43.2z
		 M27.1,48.3c-0.1,0.4-0.3,0.8-0.6,1c-0.2,0.3-0.5,0.5-0.8,0.6c-0.4,0.1-0.8,0.2-1.1,0.2h-0.9v-6.5h1.1c1,0,1.5,0.4,1.7,0.7
		c0.5,0.5,0.7,1.3,0.7,2.5C27.3,47.3,27.2,47.8,27.1,48.3z"/>
</g>
<circle class="st2" cx="0" cy="181" r="18.1"/>
<circle class="st2" cx="513" cy="181" r="18.1"/>
<g class="st0">
	<path class="st1" d="M-36.3,43.1v-5.8h-4.3h-83.1h-124.9h-4.3v5.8L-354.5,181l101.6,137.9v5.8h4.3h208h4.3v-5.8L65.4,181
		L-36.3,43.1z M-252.9,290.4L-333.6,181l80.7-109.4V290.4z M-106.9,65.2l40.7,38.2h-40.7V65.2z M-53.2,307.9H-236V54.1h112.5v66.1
		H-53v187.6H-53.2z M-53.2,92.3l-40.7-38.2h40.7V92.3z M-36.3,120.3V71.6L44.4,181l-80.7,109.4V120.3z"/>
	<path class="st1" d="M-225.4,116c0.6,0.5,1.3,0.8,1.9,1c0.6,0.3,1.3,0.5,2.1,0.6c0.8,0.2,1.4,0.3,2.2,0.3c1.9,0,3.7-0.5,5.1-1.6
		c1.4-1,2.6-2.2,3.4-3.8c0.8-1.4,1.4-3.4,1.9-5.3c0.3-1.9,0.6-4,0.6-6.1V66.6h-19v9.9h10.7v24.6c0,2.6-0.3,4.5-1,5.8
		c-0.6,1.1-1.1,1.3-1.8,1.3c-0.6,0-1.4-0.2-2.1-0.6c-0.8-0.5-1.6-1.1-2.4-2.1l-3.8-4.6v13.3l0.6,0.6
		C-226.5,115-226.1,115.5-225.4,116z"/>
	<path class="st1" d="M-202.4,112.5c1,1.8,2.2,3,3.7,4c1.6,1,3.5,1.4,5.6,1.4s3.8-0.5,5.4-1.6c1.4-1,2.9-2.4,3.8-4.2
		c1-1.6,1.8-3.7,2.2-5.9c0.5-2.2,0.6-4.6,0.6-7.3V66.4h-8.1v32.9c0,3.2-0.5,5.6-1.3,7.2c-0.6,1.3-1.3,1.8-2.6,1.8
		c-0.6,0-1.3-0.2-1.6-0.3c-0.5-0.3-0.8-0.6-1.1-1.3c-0.3-0.6-0.6-1.6-0.8-2.7c-0.2-1.3-0.3-2.7-0.3-4.5V66.6h-8.1V100
		c0,2.6,0.2,4.8,0.6,6.9C-203.9,109.1-203.2,111-202.4,112.5z"/>
	<path class="st1" d="M-177.3,116.9c0.6,0.2,1.4,0.3,2.1,0.5c0.8,0.2,1.4,0.3,2.2,0.3c0.8,0.2,1.6,0.2,2.6,0.2c1.9,0,3.7-0.3,5.3-1
		c1.8-0.6,3.2-1.8,4.3-3c1.1-1.3,2.1-3,2.7-5c0.6-1.9,1-4,1-6.6c0-2.1-0.3-3.8-0.8-5.4c-0.5-1.6-1.1-2.9-1.9-4.2
		c-0.8-1.1-1.8-2.2-2.7-3c-1-0.8-1.9-1.4-2.9-2.2c-1-0.6-1.8-1.3-2.7-1.8c-0.8-0.5-1.4-1.1-1.9-1.6c-0.5-0.5-1-1.1-1.3-1.8
		c-0.3-0.6-0.5-1.4-0.5-2.2c0-1.4,0.3-2.7,1-3.5c0.6-0.6,1.6-1.1,3.2-1.1c0.8,0,1.8,0.2,2.7,0.3c1,0.2,1.9,0.6,2.9,1.1l3.2,1.4V67.9
		l-1.4-0.5c-0.5-0.2-1.1-0.5-1.8-0.6c-0.6-0.2-1.3-0.3-1.8-0.5c-0.6-0.2-1.3-0.3-1.9-0.3c-0.6-0.2-1.3-0.2-1.8-0.2
		c-2.2,0-4.2,0.5-5.8,1.4c-1.6,1-3,2.1-4,3.5c-1,1.4-1.8,3-2.2,4.8c-0.5,1.8-0.6,3.5-0.6,5.3c0,2.1,0.3,3.8,0.8,5.4s1.1,2.9,1.9,4
		s1.8,2.1,2.7,3c1,0.8,1.9,1.4,2.9,2.1c1,0.6,1.8,1.3,2.7,1.8c0.8,0.5,1.4,1.1,2.1,1.6c0.5,0.5,1,1.1,1.3,1.8
		c0.3,0.6,0.5,1.3,0.5,2.2c0,1-0.2,1.8-0.3,2.6c-0.2,0.6-0.5,1.1-0.8,1.4c-0.3,0.3-0.8,0.6-1.3,0.8c-0.6,0.2-1.4,0.3-2.4,0.3
		c-1.4,0-2.9-0.2-4-0.5c-1.1-0.3-2.2-0.8-3-1.3l-3.4-2.1v11.5l1.3,0.6C-178.6,116.5-178,116.8-177.3,116.9z"/>
	<polygon class="st1" points="-148.4,117.4 -140.1,117.4 -140.1,76.3 -131.8,76.3 -131.8,66.4 -156.7,66.4 -156.7,76.3 -148.4,76.3 
			"/>
	<path class="st1" d="M-227.5,132.7v67.9c0,5.1,0.3,9.9,1,14.1c0.6,4.3,1.8,8,3,11c1.4,3.2,3.5,5.8,5.9,7.7c2.6,1.9,5.6,2.9,9.1,2.9
		c3.2,0,6.2-1,8.6-3c2.4-1.9,4.5-4.5,6.1-7.8c1.6-3.2,2.7-7.2,3.5-11.7c0.8-4.5,1.1-9.6,1.1-15v-65.8h-11v66.8
		c0,7-0.8,12.6-2.4,16.5c-1.8,4.3-4.2,4.8-5.8,4.8c-1.4,0-2.6-0.3-3.5-1.1c-1-0.8-1.9-1.9-2.6-3.5c-0.8-1.8-1.3-4-1.6-6.7
		s-0.5-6.1-0.5-9.7v-66.9h-11V132.7z"/>
	<polygon class="st1" points="-160.6,234.8 -160.6,148.6 -146.2,148.6 -146.2,132.7 -186.1,132.7 -186.1,148.6 -171.7,148.6 
		-171.7,234.8 	"/>
	<path class="st1" d="M-147.3,234.8h11.3l3.5-21.2h16.6l3.4,21.2h11.5h0.2h10.9v-44.9h16.1v44.9h11V132.7h-11v41.4h-16.1v-41.4h-11
		v100.7l-16.5-100.7h-12.8L-147.3,234.8z M-124.1,161.2l5.8,36.1h-11.3L-124.1,161.2z"/>
	<path class="st1" d="M-205.9,244.7c-1.4-0.5-3-0.6-4.8-0.6c-2.7,0-5.1,0.6-7.2,2.1c-2.1,1.3-3.8,3.2-5.3,5.6
		c-1.4,2.2-2.4,5.1-3.2,8.3c-0.6,3.2-1.1,6.7-1.1,10.5c0,8.1,1.3,14.2,4,18.7c2.9,4.6,7,6.9,12.5,6.9c3.2,0,6.4-1,9.3-2.6l1.1-0.6
		v-11.5l-3.5,2.4c-1,0.6-2.1,1.3-3.2,1.6c-1,0.3-2.1,0.6-3.2,0.6c-2.6,0-4.3-1.1-5.6-3.5c-1.4-2.7-2.2-7-2.2-12.6
		c0-2.7,0.2-5.1,0.6-7.2c0.5-2.1,1-3.7,1.8-5.1c0.6-1.3,1.4-2.2,2.4-2.9c0.8-0.6,1.8-0.8,2.9-0.8c1.3,0,2.4,0.2,3.4,0.6
		c1.1,0.5,2.1,1,3,1.8l3.5,2.7v-12l-1-0.6C-203.1,245.7-204.5,245.1-205.9,244.7z"/>
	<path class="st1" d="M-160.4,244.6h-10.5v18.7c-0.2-1.3-0.3-2.6-0.5-3.7c-0.5-3.2-1.4-5.9-2.6-8c-1.1-2.4-2.7-4.2-4.6-5.4
		c-1.9-1.3-4.2-2.1-6.7-2.1c-2.1,0-4.2,0.6-6.1,1.8c-1.9,1.1-3.5,2.9-4.8,5.1c-1.3,2.2-2.2,5-3,8.1c-0.6,3.2-1.1,7-1.1,11.2
		c0,3.8,0.3,7.2,0.8,10.2c0.5,3.2,1.4,5.9,2.6,8.1c1.1,2.4,2.7,4.2,4.6,5.4c1.9,1.3,4.2,2.1,6.7,2.1c2.1,0,4.2-0.6,6.1-1.8
		c1.9-1.1,3.5-2.9,4.8-5.1c1.3-2.2,2.2-5,3-8.1c0.3-1.6,0.6-3.2,0.8-5v19.5h9.1c2.2,0,4.5-0.3,6.2-1c1.9-0.6,3.5-1.6,5-2.7
		c1.4-1.1,2.6-2.6,3.7-4.3c1-1.6,1.8-3.4,2.2-5.3c0.6-1.9,1-4,1.3-6.1c0.3-2.1,0.3-4.3,0.3-6.7c0-8.1-1.3-14.2-4.2-18.4
		C-150.2,246.8-154.6,244.6-160.4,244.6z M-180.1,277c-0.3,2.1-0.8,3.8-1.3,5.3c-0.5,1.3-1.3,2.4-1.9,3.2c-0.6,0.6-1.3,0.8-2.1,0.8
		c-1,0-1.6-0.3-2.2-0.8c-0.8-0.6-1.4-1.6-1.9-3c-0.6-1.4-1-3.2-1.3-5.3c-0.3-2.2-0.5-4.6-0.5-7.2c0-2.4,0.2-4.6,0.5-6.7
		c0.3-2.1,0.8-3.8,1.3-5.3c0.5-1.3,1.1-2.4,1.9-3.2c0.6-0.6,1.3-0.8,2.1-0.8c1,0,1.6,0.3,2.2,0.8c0.8,0.6,1.4,1.6,1.9,3
		c0.6,1.4,1,3.2,1.3,5.3c0.3,2.2,0.5,4.6,0.5,7.2C-179.7,272.7-179.9,274.9-180.1,277z M-161,285.8h-1.1v-31.3h1.6
		c1.4,0,2.7,0.3,3.7,0.8c1,0.5,1.8,1.1,2.4,2.2c0.8,1.1,1.3,2.7,1.6,4.8c0.5,2.1,0.6,4.8,0.6,8C-152.1,285.8-158.8,285.8-161,285.8z
		"/>
	<polygon class="st1" points="-140.6,295.6 -117.7,295.6 -117.7,285.8 -131.8,285.8 -131.8,274.1 -118.4,274.1 -118.4,264.4 
		-131.8,264.4 -131.8,254.3 -117.7,254.3 -117.7,244.6 -140.6,244.6 	"/>
	<path class="st1" d="M-72.2,253.9c1,0,2.1,0.2,3.2,0.3c1.1,0.3,2.2,0.6,3.5,1.1l3,1.3V246l-1.4-0.5c-0.6-0.2-1.3-0.5-1.9-0.6
		c-0.6-0.2-1.4-0.3-2.1-0.5c-0.6-0.2-1.4-0.3-2.1-0.3c-0.6-0.2-1.4-0.2-2.1-0.2c-2.4,0-4.6,0.5-6.4,1.3s-3.4,2.1-4.5,3.5
		c-1.1,1.4-2.1,3-2.6,4.8c-0.5,1.8-0.8,3.5-0.8,5.3c0,2.1,0.3,4,0.8,5.4c0.6,1.6,1.3,2.9,2.2,4.2c1,1.1,1.9,2.1,3.2,3
		c1.1,0.8,2.2,1.4,3.4,2.1s2.1,1.3,3.2,1.8c1,0.5,1.8,1.1,2.4,1.6c0.6,0.5,1.1,1.1,1.4,1.8c0.3,0.6,0.5,1.3,0.5,2.2
		s-0.2,1.8-0.3,2.4c-0.2,0.6-0.5,1-0.8,1.4c-0.3,0.3-1,0.6-1.6,1c-0.8,0.3-1.8,0.3-3,0.3c-1.8,0-3.4-0.2-4.8-0.5
		c-1.4-0.3-2.6-0.8-3.7-1.4l-3.2-1.8v11.2l-5.6-16.5l0,0c-0.6-2.1-1.4-3.7-2.1-4.8c-0.2-0.3-0.3-0.5-0.5-0.8
		c0.3-0.2,0.5-0.3,0.8-0.6c1.1-1,1.9-2.1,2.7-3.4c0.6-1.3,1.3-2.6,1.6-4.2c0.3-1.4,0.5-3,0.5-4.6c0-2.1-0.2-3.8-0.6-5.6
		c-0.5-1.8-1.3-3.4-2.4-4.6s-2.6-2.4-4.2-3.2c-1.6-0.6-3.5-1.1-5.8-1.1h-10.9v51h8.8v-20.8c0.3,0,0.6,0,1,0.2
		c0.2,0.2,0.5,0.2,0.6,0.5c0.2,0.2,0.5,0.5,0.8,1.3c0.3,0.6,0.6,1.4,1,2.6l5.3,16.5h9.6l-0.5-1.6l1.3,0.5c0.6,0.2,1.3,0.5,2.1,0.6
		c0.8,0.2,1.6,0.3,2.4,0.5c0.8,0.2,1.8,0.3,2.6,0.3c1,0.2,1.9,0.2,2.9,0.2c2.1,0,4.2-0.3,5.9-1c1.9-0.6,3.5-1.6,5-3
		c1.3-1.3,2.4-3,3.2-5c0.8-1.9,1.1-4.2,1.1-6.6c0-2.1-0.3-4-0.8-5.6c-0.6-1.6-1.3-3-2.2-4.2s-1.9-2.2-3.2-3
		c-1.1-0.8-2.2-1.4-3.4-2.1s-2.1-1.3-3.2-1.8c-1-0.5-1.6-1.1-2.4-1.6c-0.6-0.5-1.1-1.1-1.4-1.8c-0.3-0.6-0.5-1.3-0.5-2.2
		c0-1.4,0.3-2.6,1.1-3.4C-75.6,254.2-74.1,253.9-72.2,253.9z M-98.9,262.3c-0.2,0.6-0.5,1.3-1,1.8c-0.3,0.5-0.8,0.8-1.3,1
		c-0.6,0.2-1.3,0.3-1.9,0.3h-1.6v-11h1.9c1.8,0,2.6,0.6,2.9,1.1c0.8,0.8,1.1,2.2,1.1,4.2C-98.6,260.7-98.7,261.5-98.9,262.3z"/>
</g>
<g class="st0">
	<path class="st1" d="M765.2,43.1v-5.8h-4.3h-83.1H552.8h-4.3v5.8L446.9,181l101.6,137.9v5.8h4.3h208h4.3v-5.8L866.8,181L765.2,43.1
		z M548.5,290.4L467.8,181l80.7-109.4V290.4z M694.5,65.2l40.7,38.2h-40.7V65.2z M748.2,307.9H565.4V54.1h112.5v66.1h70.5v187.6
		H748.2z M748.2,92.3l-40.7-38.2h40.7V92.3z M765.2,120.3V71.6L845.8,181l-80.7,109.4V120.3z"/>
	<path class="st1" d="M576,116c0.6,0.5,1.3,0.8,1.9,1c0.6,0.3,1.3,0.5,2.1,0.6c0.8,0.2,1.4,0.3,2.2,0.3c1.9,0,3.7-0.5,5.1-1.6
		c1.4-1,2.6-2.2,3.4-3.8c0.8-1.4,1.4-3.4,1.9-5.3c0.3-1.9,0.6-4,0.6-6.1V66.6h-19v9.9h10.7v24.6c0,2.6-0.3,4.5-1,5.8
		c-0.6,1.1-1.1,1.3-1.8,1.3c-0.6,0-1.4-0.2-2.1-0.6c-0.8-0.5-1.6-1.1-2.4-2.1l-3.8-4.6v13.3l0.6,0.6C574.9,115,575.4,115.5,576,116z
		"/>
	<path class="st1" d="M599,112.5c1,1.8,2.2,3,3.7,4c1.6,1,3.5,1.4,5.6,1.4s3.8-0.5,5.4-1.6c1.4-1,2.9-2.4,3.8-4.2
		c1-1.6,1.8-3.7,2.2-5.9c0.5-2.2,0.6-4.6,0.6-7.3V66.4h-8.1v32.9c0,3.2-0.5,5.6-1.3,7.2c-0.6,1.3-1.3,1.8-2.6,1.8
		c-0.6,0-1.3-0.2-1.6-0.3c-0.5-0.3-0.8-0.6-1.1-1.3c-0.3-0.6-0.6-1.6-0.8-2.7c-0.2-1.3-0.3-2.7-0.3-4.5V66.6h-8.1V100
		c0,2.6,0.2,4.8,0.6,6.9C597.6,109.1,598.2,111,599,112.5z"/>
	<path class="st1" d="M624.1,116.9c0.6,0.2,1.4,0.3,2.1,0.5c0.8,0.2,1.4,0.3,2.2,0.3c0.8,0.2,1.6,0.2,2.6,0.2c1.9,0,3.7-0.3,5.3-1
		c1.8-0.6,3.2-1.8,4.3-3c1.1-1.3,2.1-3,2.7-5c0.6-1.9,1-4,1-6.6c0-2.1-0.3-3.8-0.8-5.4s-1.1-2.9-1.9-4.2c-0.8-1.1-1.8-2.2-2.7-3
		c-1-0.8-1.9-1.4-2.9-2.2c-1-0.6-1.8-1.3-2.7-1.8c-0.8-0.5-1.4-1.1-1.9-1.6c-0.5-0.5-1-1.1-1.3-1.8c-0.3-0.6-0.5-1.4-0.5-2.2
		c0-1.4,0.3-2.7,1-3.5c0.6-0.6,1.6-1.1,3.2-1.1c0.8,0,1.8,0.2,2.7,0.3c1,0.2,1.9,0.6,2.9,1.1l3.2,1.4V67.9l-1.4-0.5
		c-0.5-0.2-1.1-0.5-1.8-0.6c-0.6-0.2-1.3-0.3-1.8-0.5c-0.6-0.2-1.3-0.3-1.9-0.3c-0.6-0.2-1.3-0.2-1.8-0.2c-2.2,0-4.2,0.5-5.8,1.4
		c-1.6,1-3,2.1-4,3.5c-1,1.4-1.8,3-2.2,4.8c-0.5,1.8-0.6,3.5-0.6,5.3c0,2.1,0.3,3.8,0.8,5.4s1.1,2.9,1.9,4c0.8,1.1,1.8,2.1,2.7,3
		c1,0.8,1.9,1.4,2.9,2.1c1,0.6,1.8,1.3,2.7,1.8c0.8,0.5,1.4,1.1,2.1,1.6c0.5,0.5,1,1.1,1.3,1.8c0.3,0.6,0.5,1.3,0.5,2.2
		c0,1-0.2,1.8-0.3,2.6c-0.2,0.6-0.5,1.1-0.8,1.4c-0.3,0.3-0.8,0.6-1.3,0.8c-0.6,0.2-1.4,0.3-2.4,0.3c-1.4,0-2.9-0.2-4-0.5
		c-1.1-0.3-2.2-0.8-3-1.3l-3.4-2.1v11.5l1.3,0.6C622.8,116.5,623.4,116.8,624.1,116.9z"/>
	<polygon class="st1" points="653,117.4 661.3,117.4 661.3,76.3 669.6,76.3 669.6,66.4 644.7,66.4 644.7,76.3 653,76.3 	"/>
	<path class="st1" d="M573.9,132.7v67.9c0,5.1,0.3,9.9,1,14.1c0.6,4.3,1.8,8,3,11c1.4,3.2,3.5,5.8,5.9,7.7c2.6,1.9,5.6,2.9,9.1,2.9
		c3.2,0,6.2-1,8.6-3c2.4-1.9,4.5-4.5,6.1-7.8c1.6-3.2,2.7-7.2,3.5-11.7c0.8-4.5,1.1-9.6,1.1-15v-65.8h-11v66.8
		c0,7-0.8,12.6-2.4,16.5c-1.8,4.3-4.2,4.8-5.8,4.8c-1.4,0-2.6-0.3-3.5-1.1s-1.9-1.9-2.6-3.5c-0.8-1.8-1.3-4-1.6-6.7
		s-0.5-6.1-0.5-9.7v-66.9h-11V132.7z"/>
	<polygon class="st1" points="640.9,234.8 640.9,148.6 655.2,148.6 655.2,132.7 615.3,132.7 615.3,148.6 629.7,148.6 629.7,234.8 	
		"/>
	<path class="st1" d="M654.1,234.8h11.3l3.5-21.2h16.6l3.4,21.2h11.5h0.2h10.9v-44.9h16.1v44.9h11V132.7h-11v41.4h-16.1v-41.4h-11
		v100.7L684,132.7h-12.8L654.1,234.8z M677.3,161.2l5.8,36.1h-11.3L677.3,161.2z"/>
	<path class="st1" d="M595.5,244.7c-1.4-0.5-3-0.6-4.8-0.6c-2.7,0-5.1,0.6-7.2,2.1c-2.1,1.3-3.8,3.2-5.3,5.6
		c-1.4,2.2-2.4,5.1-3.2,8.3c-0.6,3.2-1.1,6.7-1.1,10.5c0,8.1,1.3,14.2,4,18.7c2.9,4.6,7,6.9,12.5,6.9c3.2,0,6.4-1,9.3-2.6l1.1-0.6
		v-11.5l-3.5,2.4c-1,0.6-2.1,1.3-3.2,1.6c-1,0.3-2.1,0.6-3.2,0.6c-2.6,0-4.3-1.1-5.6-3.5c-1.4-2.7-2.2-7-2.2-12.6
		c0-2.7,0.2-5.1,0.6-7.2s1-3.7,1.8-5.1c0.6-1.3,1.4-2.2,2.4-2.9c0.8-0.6,1.8-0.8,2.9-0.8c1.3,0,2.4,0.2,3.4,0.6c1.1,0.5,2.1,1,3,1.8
		l3.5,2.7v-12l-1-0.6C598.4,245.7,596.9,245.1,595.5,244.7z"/>
	<path class="st1" d="M641,244.6h-10.5v18.7c-0.2-1.3-0.3-2.6-0.5-3.7c-0.5-3.2-1.4-5.9-2.6-8c-1.1-2.4-2.7-4.2-4.6-5.4
		c-1.9-1.3-4.2-2.1-6.7-2.1c-2.1,0-4.2,0.6-6.1,1.8s-3.5,2.9-4.8,5.1c-1.3,2.2-2.2,5-3,8.1c-0.6,3.2-1.1,7-1.1,11.2
		c0,3.8,0.3,7.2,0.8,10.2c0.5,3.2,1.4,5.9,2.6,8.1c1.1,2.4,2.7,4.2,4.6,5.4c1.9,1.3,4.2,2.1,6.7,2.1c2.1,0,4.2-0.6,6.1-1.8
		c1.9-1.1,3.5-2.9,4.8-5.1c1.3-2.2,2.2-5,3-8.1c0.3-1.6,0.6-3.2,0.8-5v19.5h9.1c2.2,0,4.5-0.3,6.2-1c1.9-0.6,3.5-1.6,5-2.7
		c1.4-1.1,2.6-2.6,3.7-4.3c1-1.6,1.8-3.4,2.2-5.3c0.6-1.9,1-4,1.3-6.1c0.3-2.1,0.3-4.3,0.3-6.7c0-8.1-1.3-14.2-4.2-18.4
		C651.2,246.8,646.8,244.6,641,244.6z M621.4,277c-0.3,2.1-0.8,3.8-1.3,5.3c-0.5,1.3-1.3,2.4-1.9,3.2c-0.6,0.6-1.3,0.8-2.1,0.8
		c-1,0-1.6-0.3-2.2-0.8c-0.8-0.6-1.4-1.6-1.9-3c-0.6-1.4-1-3.2-1.3-5.3c-0.3-2.2-0.5-4.6-0.5-7.2c0-2.4,0.2-4.6,0.5-6.7
		c0.3-2.1,0.8-3.8,1.3-5.3c0.5-1.3,1.1-2.4,1.9-3.2c0.6-0.6,1.3-0.8,2.1-0.8c1,0,1.6,0.3,2.2,0.8c0.8,0.6,1.4,1.6,1.9,3
		c0.6,1.4,1,3.2,1.3,5.3c0.3,2.2,0.5,4.6,0.5,7.2C621.7,272.7,621.5,274.9,621.4,277z M640.4,285.8h-1.1v-31.3h1.6
		c1.4,0,2.7,0.3,3.7,0.8c1,0.5,1.8,1.1,2.4,2.2c0.8,1.1,1.3,2.7,1.6,4.8c0.5,2.1,0.6,4.8,0.6,8C649.3,285.8,642.6,285.8,640.4,285.8
		z"/>
	<polygon class="st1" points="660.8,295.6 683.7,295.6 683.7,285.8 669.6,285.8 669.6,274.1 683,274.1 683,264.4 669.6,264.4 
		669.6,254.3 683.7,254.3 683.7,244.6 660.8,244.6 	"/>
	<path class="st1" d="M729.2,253.9c1,0,2.1,0.2,3.2,0.3c1.1,0.3,2.2,0.6,3.5,1.1l3,1.3V246l-1.4-0.5c-0.6-0.2-1.3-0.5-1.9-0.6
		c-0.6-0.2-1.4-0.3-2.1-0.5c-0.6-0.2-1.4-0.3-2.1-0.3c-0.6-0.2-1.4-0.2-2.1-0.2c-2.4,0-4.6,0.5-6.4,1.3s-3.4,2.1-4.5,3.5
		c-1.1,1.4-2.1,3-2.6,4.8c-0.5,1.8-0.8,3.5-0.8,5.3c0,2.1,0.3,4,0.8,5.4c0.6,1.6,1.3,2.9,2.2,4.2c1,1.1,1.9,2.1,3.2,3
		c1.1,0.8,2.2,1.4,3.4,2.1c1.1,0.6,2.1,1.3,3.2,1.8c1,0.5,1.8,1.1,2.4,1.6c0.6,0.5,1.1,1.1,1.4,1.8c0.3,0.6,0.5,1.3,0.5,2.2
		s-0.2,1.8-0.3,2.4c-0.2,0.6-0.5,1-0.8,1.4c-0.3,0.3-1,0.6-1.6,1c-0.8,0.3-1.8,0.3-3,0.3c-1.8,0-3.4-0.2-4.8-0.5
		c-1.4-0.3-2.6-0.8-3.7-1.4l-3.2-1.8v11.2l-5.6-16.5l0,0c-0.6-2.1-1.4-3.7-2.1-4.8c-0.2-0.3-0.3-0.5-0.5-0.8
		c0.3-0.2,0.5-0.3,0.8-0.6c1.1-1,1.9-2.1,2.7-3.4c0.6-1.3,1.3-2.6,1.6-4.2c0.3-1.4,0.5-3,0.5-4.6c0-2.1-0.2-3.8-0.6-5.6
		c-0.5-1.8-1.3-3.4-2.4-4.6s-2.6-2.4-4.2-3.2c-1.6-0.6-3.5-1.1-5.8-1.1h-10.9v51h8.8v-20.8c0.3,0,0.6,0,1,0.2
		c0.2,0.2,0.5,0.2,0.6,0.5c0.2,0.2,0.5,0.5,0.8,1.3c0.3,0.6,0.6,1.4,1,2.6l5.3,16.5h9.6l-0.5-1.6l1.3,0.5c0.6,0.2,1.3,0.5,2.1,0.6
		c0.8,0.2,1.6,0.3,2.4,0.5c0.8,0.2,1.8,0.3,2.6,0.3c1,0.2,1.9,0.2,2.9,0.2c2.1,0,4.2-0.3,5.9-1c1.9-0.6,3.5-1.6,5-3
		c1.3-1.3,2.4-3,3.2-5c0.8-1.9,1.1-4.2,1.1-6.6c0-2.1-0.3-4-0.8-5.6c-0.6-1.6-1.3-3-2.2-4.2c-1-1.1-1.9-2.2-3.2-3
		c-1.1-0.8-2.2-1.4-3.4-2.1c-1.1-0.6-2.1-1.3-3.2-1.8c-1-0.5-1.6-1.1-2.4-1.6c-0.6-0.5-1.1-1.1-1.4-1.8c-0.3-0.6-0.5-1.3-0.5-2.2
		c0-1.4,0.3-2.6,1.1-3.4C725.9,254.2,727.3,253.9,729.2,253.9z M702.5,262.3c-0.2,0.6-0.5,1.3-1,1.8c-0.3,0.5-0.8,0.8-1.3,1
		c-0.6,0.2-1.3,0.3-1.9,0.3h-1.6v-11h1.9c1.8,0,2.6,0.6,2.9,1.1c0.8,0.8,1.1,2.2,1.1,4.2C702.9,260.7,702.7,261.5,702.5,262.3z"/>
</g>
</svg>
